<svg xmlns="http://www.w3.org/2000/svg" width="150px" height="150px" version="1.0" viewBox="0 0 1024 1026" fill="#eed699"><path d="M523.2 15.2c-1.5 1.6-3 5.9-4.7 13.3-1.3 6.1-3.9 16.4-5.6 23-3.6 14.1-4.8 26.1-2.7 28.8.7.9 2.9 2 4.8 2.3 3.3.6 3.7.3 5.3-3.2 1.9-4 8.2-29.1 12.1-48.1 2-9.6 2.1-11.5 1-14.2-.7-1.7-1.9-3.1-2.6-3.1-.7 0-2.2-.3-3.3-.6-1.4-.3-2.8.3-4.3 1.8zM610.3 54c-1.8 1.1-3.3 2.5-3.3 3 0 .6-2.2 3.5-4.9 6.3-2.7 2.9-5.8 7.1-7 9.4-1.1 2.3-2.9 4.8-3.9 5.5-2.6 1.8-10.9 11.4-14 16.3-1.4 2.2-5.2 7-8.4 10.8-5.5 6.3-6.3 8-5.9 11.7.4 2.7 4.2 5 8.3 5 5 0 5.8-.8 23.8-23.9 7.4-9.5 15.7-20 18.3-23.3 2.7-3.3 5.5-7.2 6.3-8.6 3-5.9.7-14.2-3.9-14.2-1.2 0-3.7.9-5.4 2zm-320 8.8c-.6.4-1.6 1.9-2.2 3.4-.8 2.1-.4 3.6 2 8.4 1.6 3.3 4.4 8 6.2 10.6 1.7 2.7 5.2 8.3 7.6 12.5 11.1 19.6 12.1 20.5 18.8 16.4 2.3-1.4 4.4-3.1 4.7-3.8.6-1.5-22.2-39.5-26.7-44.6-3.3-3.7-7.4-4.8-10.4-2.9zm116.5 55.4c-4.6 4.9-5.8 8-7.2 19.4-.8 5.8-1.7 10.8-2 11.1-.3.3-2-.4-3.8-1.5-5.3-3.3-18.2-7.2-23.8-7.2-7.7 0-12.2 2.7-14.9 9-1.2 2.9-2.3 6.8-2.3 8.9-.1 6.2 2.2 15.3 5.5 21.4 2.3 4.5 2.8 6.3 2 7.5-.5.9-7.5 4-15.4 6.8-32.9 11.6-50 21.4-69.4 39.5-18 16.9-37.8 50.4-46.4 78.9-1 3-2.3 5.5-3 5.5-.7 0-2-1.8-2.8-4-.9-2.2-3.4-8.3-5.5-13.5l-4-9.5.7-18.5c.4-10.2.8-23.5.9-29.6.1-10.5 0-11.3-2.6-15-4.2-6.1-7.3-7.4-17-7.4-7.4 0-8.9.4-13.4 3-2.9 1.6-7.2 5.2-9.6 8l-4.5 5.1-8.3-11.3c-10.9-14.7-25.1-29.1-31.4-31.8-10.1-4.5-23.4-1.4-29.4 6.9-3.1 4.2-5.6 14.7-5.4 21.8.1 3.2 0 3.2-4.2 3.1-5-.1-12.1 2.9-15.3 6.3-1.2 1.4-3.7 6.2-5.6 10.7l-3.3 8.3 1.6 7.6c1.1 5.8 1.2 7.7.3 8-2.5.9-7.7 4.9-9.7 7.6-1.8 2.5-2.1 4.2-2.1 13.5.1 11.9.9 14.4 8.7 27.7 4.9 8.2 9.1 13.8 13.3 17.8 4.6 4.3 20.1 14.4 29 18.9 10 5 11 5.9 14.7 13.3 1.7 3.3 3.8 7.1 4.8 8.5 1 1.4 5.7 9.7 10.5 18.5 14.7 26.9 23.7 40.4 47.4 71.5 18.4 24.3 43 52.9 67.2 78.2l12.2 12.8-9.5 11.7c-16.2 20.1-33.5 45.1-43.7 63-6.8 12.1-7.2 12.6-8.3 11.5-1-1-4.2-28.8-8.3-71.7-4.8-50.4-6.2-60.3-9.7-67.4-2.8-5.9-3.5-6.5-9.3-9.3-7.8-3.6-8-3.6-51.5-.8-55.5 3.5-57.6 3.9-63.3 13.1-2.5 4.2-2.8 5.4-2.8 14 0 5.2 2.1 27.2 4.6 48.9 2.5 21.7 5.9 51.4 7.5 66 6.4 56.3 7.5 62.3 12.6 67.9 3.5 3.9 7.9 6.3 15.1 8.1 5.3 1.3 4.2-3.9 11.3 57 4.3 36.7 4.6 41.5 3 42.5-.6.4-2 2.5-3.3 4.8-2.1 4-2.2 5.3-2.2 28.2 0 20.9.2 24.4 1.7 27.2 2.2 3.9 7.9 5.9 19.5 6.8 8 .7 8.3.8 8.3 3.2 0 2.1-2.4 18.2-7.5 49.8-.8 4.9-2.8 18.4-4.5 29.9-1.7 11.5-3.7 24.3-4.5 28.5-1.9 9.9-1.9 19 0 21.8 2 2.8 5.8 3.4 23 3.4 17.7 0 21.1-.6 23.2-3.7.8-1.3 2.8-10.1 4.4-19.6 1.6-9.5 4.5-26.5 6.4-37.8 1.9-11.3 5.1-30.4 7-42.5 2-12.1 4-24.4 4.6-27.3l1-5.2H337l.5 2.2c.2 1.3.9 6.1 1.5 10.8.6 4.7 2.8 21.1 5 36.5 2.2 15.4 5.3 38.3 7 51 3.7 27.7 5 33.2 8.7 34.6 3.1 1.2 34.5 1.3 38.8.1 6.1-1.7 6.8-8.4 3.4-32.6-1.1-8.2-1.9-15.7-1.7-16.8.2-1.4 2.4.7 8.6 8.5 9.6 12.2 24.8 27.2 31.4 31.1 9.9 5.8 19.6 3.9 21.8-4.4.6-2.2 1.7-4 2.4-4 1.6 0 12.9 5.2 14.9 6.8.6.5 3.7 1.6 6.8 2.4 6.4 1.6 9.1.9 14-3.7 3.8-3.7 5.3-6.5 6.8-13 1.2-4.9 1.4-5.1 8.3-8.4 3.9-1.9 8.3-4.5 9.9-5.8 2.8-2.4 6.4-10.2 6.2-13.4-.3-3 1.3-3.1 5.1-.5 5.2 3.5 17 6.9 21.6 6.1 5.7-1 9.8-4 12.3-9.1l2.2-4.7 9.3.6c5.2.3 9.5.7 9.7.9.1.2.7 13.5 1.2 29.6 1 32.2 1 32.1 7.4 32.4 6.8.2 7.6-.6 8.3-8 .3-3.7.8-24.7 1.2-46.7l.6-40 2.5-2.5c3.8-3.8 5.5-7.8 5.5-13.1-.1-5.2-3.2-12.5-6.3-14.7-1.8-1.3-1.9-4-1.9-61.8V766h276l.1 41.7c0 23 .4 78 .8 122.2.7 77.3.8 80.4 2.6 81.7 2.7 2 8.9 1.7 11.6-.5l2.3-1.8.9-121.4c.5-66.8 1-121.5 1.1-121.5 0-.1 15-.6 33.1-1.1 21.8-.6 33.7-1.3 35.2-2.1 3-1.7 4.6-7.3 4.4-15.6-.3-14.9-1.9-42.2-2.6-43.7-1.1-2.7-5.3-4-17.4-5-6.4-.6-12.1-1.2-12.8-1.4-2.1-.7-4.3-6.2-6.3-16-3.2-15.7-3.4-15.8-17.5-17-14.8-1.3-14.5-1.1-14.5-5.8 0-2.3 1.3-16.1 2.9-30.7 1.7-14.6 4.4-40.7 6.1-58 1.7-17.3 4.4-43.9 6.1-59 3.1-28.1 7.5-70.2 8.6-82.2.7-8.3-1.1-18.1-4.2-23-1.7-2.5-7.5-7-18.5-14.2-8.8-5.9-16.3-11.3-16.6-12-.3-.7.6-11.4 2-23.7 1.4-12.3 3.2-31.2 4.1-41.9.8-10.7 2.4-28.1 3.5-38.5 4.3-42.4 5.1-58.4 3.1-63.7-.6-1.5-2.5-3.5-4.3-4.5-3-1.6-6.3-1.8-32.8-1.8-27.1 0-29.9.2-33.9 1.9-6.1 2.8-8 7.1-9.7 22.5-.7 6.9-3 27.4-4.9 45.6-2 18.1-5.1 47.4-7.1 65-3.8 34.7-6.1 56.3-15.4 148-3.3 33-7 67.6-8.1 77-3.1 26.4-2.9 29.4 2.4 32.2 3.1 1.6 9 2.1 43 3.9l11.7.6v5.4c0 9.7-4.6 52.1-5.8 54.1-.4.6-12.1 1.4-30.2 2-30 1.1-34.4 1.7-35.5 5.2-.4 1.5-2.5 22.7-2.5 26.4 0 1.6-.8 1.8-6.2 1.6-3.5-.1-8.4.2-11 .6-4 .6-4.8.4-5.7-1.2-.5-1.1-1.7-10.1-2.5-20-1.7-19.6-2.4-22.5-5.8-24.5-2.9-1.7-92.2-2.3-131.8-1-29.4 1-28.9.9-38.6 8.6-2.9 2.3-9.6 7.2-14.9 11.1-21.1 15.1-34.1 25.3-36.1 28.3-2.6 3.7-3.6 9.6-3.5 20.2.1 10 2 34.6 2.9 37.1.4 1 3.1 3.4 6 5.3l5.3 3.4 31.4.7 31.5.7v56.5c0 53.4-.1 56.5-1.7 55.8-5-2.1-27.8-7.6-39.7-9.5-7.4-1.3-14-2.6-14.7-3-.9-.6-1-3.6-.3-12.9 1-13.5-.4-33.4-3.1-45.9-2.6-11.6-9.4-24-16.7-30.6-5.8-5.3-19.1-12.7-28-15.5-6.1-2-6.3-3.1-1.9-10.3 13.8-22.7 25.2-53.9 28-76.8 1.4-10.6 1.4-40.6.1-52.5-.6-5-1.3-12.2-1.6-16.1l-.7-7 4.9-4c11.3-9.1 62.1-62.3 75.4-79 1.4-1.7 7.1-8.8 12.7-15.8 12-14.8 30.7-39.2 36.9-48 22.8-32.2 38.5-57.9 51.1-83.5 4-8.3 5.9-10.7 15.8-20.5 13-12.9 19.4-20.5 26.9-31.9 11.5-17.6 15.2-28.2 14.2-41-.3-4.3-1.2-9.3-2.1-11.1-1.7-3.5-6.9-6.9-12.3-8.1l-3.2-.7.6-9.1c1-15.5-3.2-24.4-14-29.7-5.5-2.7-7.2-3.1-12.7-2.8l-6.4.3-1.3-4.5c-4.3-14.7-11.6-21-24-21.2-13.7-.1-24.1 8.9-35.3 30.7-5.9 11.3-5 10.8-12.4 7.3-4.1-1.9-8.1-3-10.8-3-18.4 0-24.5 12.2-18.2 36.3 1.3 5.3 3.1 11.2 4 13.2 2.2 5.3 2 14.9-.4 17.8l-1.9 2.3-7-14.4c-15.7-32.2-33.5-53.7-58.2-70-19.3-12.7-34.8-19.5-58.5-25.5l-12-3-.8-6c-2.6-20.4-5.9-29.1-15.4-41-8.4-10.4-21.8-17.5-33-17.5-3.8 0-5 .5-7.5 3.2zm17 15.2c5.3 2.8 14 12.9 17.4 20.1 3 6.3 3.3 8.1 3.6 18.1.2 6.2 0 13.2-.6 15.8-1.1 5.4-2.6 4.6 19.8 10 36.7 8.8 55.7 18.2 76.9 38.2 19.2 18.1 33.4 40.5 48.6 76.9 2.1 4.9 4.9 10.9 6.2 13.2 4.1 7.2 8.1 5.4 11.9-5.2 11.9-33.3 12.5-35.6 10.9-44-.7-3.3-2.6-10.8-4.3-16.6-3.6-12-4.1-18.3-1.6-19.3 5.5-2.1 10 .1 18.5 9.1 7.2 7.7 11.9 16.4 14.5 26.8 2.4 10.2 3.6 11.7 8.7 11.3 3.6-.3 4.4-.8 5.8-3.6 1.6-3.1 1.6-3.8-.2-11-1.1-4.2-4.5-12.8-7.6-19.1-5.4-11.1-5.5-11.4-4.3-15.5 4.5-15 18.6-34 26.2-35.2 3-.5 3.8-.2 6.2 2.7 2.7 3.2 2.8 3.6 2.4 13.5-.3 9-.6 10.6-2.7 13.5-1.4 1.8-4 6.2-5.9 9.8-4.9 9.6-3.3 15.1 4.6 15.3 5.2.2 6.6-1.1 10.9-9.5 5.3-10.3 14-19.7 18.2-19.7 2.1 0 3.8 1 6 3.5 2.7 3.1 3.1 4.3 3.1 9.3 0 7-2.6 12.9-11 25.1-8.4 12.2-9.4 20.1-2.7 21.9 4.6 1.3 8.3-.4 11.6-5.2 1.6-2.2 5.2-6.3 8-8.9 4-3.7 5.8-4.8 7.9-4.5 2.6.3 2.7.6 3 6.4.2 4.3-.3 7.7-1.8 11.7-4.5 11.9-22.4 35.5-36.9 48.4-7.5 6.8-8.5 8.3-21.8 34.3-10.5 20.4-17.7 32.7-26.5 45-3.7 5.2-9.5 13.5-12.9 18.5-3.4 4.9-9.2 12.8-12.9 17.5-3.6 4.7-10.5 13.7-15.2 20-19.6 26.1-66.8 77.5-93 101.2l-7.8 7-1.1-2.9c-2.4-6.3-5.1-18.3-5.6-25.5l-.6-7.7 3.9-.6c24.4-4.1 44.9-15.9 55.2-31.8 9.3-14.4 11.4-22.3 12.8-47.9l.6-11.8 13.5-7.7c35-20.2 52.4-42.3 52.4-66.8 0-14.1-4.8-25.2-13.3-30.6-6.6-4.2-13.3-5.9-23.8-5.9-15 0-24.2 3.1-48.4 16.2-6.6 3.6-9 4.3-14.5 4.6-6 .2-7.7-.2-17.6-4.3-21.2-8.9-30.7-10.8-42-8.5-11.1 2.2-18.7 7.2-32.8 21.1-11.4 11.3-13.5 13-19 14.9-9.4 3.3-25.4 3.8-37.4 1.1-10.2-2.3-16.9-2.6-22.5-1.1-5.2 1.5-12.9 8.8-16.3 15.7-2.8 5.4-3 6.5-3 17.4v11.6l4.2 8.5c4.1 8.2 5.1 9.4 22 25 9.8 9.1 26.1 24.6 36.2 34.6 27.7 27.2 44.7 38.4 67.8 44.2 2.4.6 4.7 1.8 5.2 2.8.5.9 1.4 6 2 11.2 1.3 10 4.6 24.5 8.1 34.5 2.7 7.9 4.4 15.6 6.5 29.3 2.2 14 1.6 51.5-.9 62.2-4.5 19.4-16.3 46.6-27.7 64.1C463 755 438 782 435.5 782c-.6 0-2.7-1.6-4.6-3.6-5.2-5.5-15.6-12.5-26.4-17.8-6.8-3.4-18.6-5.6-29.4-5.6-13.3 0-15.3 1.3-14.2 9.3.5 3.7 2.1 4.4 14.3 6.2 27.5 4.1 45.5 15.2 59 36.5 6.7 10.7 7.1 12.5 7.6 34.6.4 22.3-.5 29.7-6 45.4-3.2 9.1-4.4 15.7-3.4 19.3.7 3 9.2 8.3 17.9 11.3 9.6 3.3 42.8 23.9 56 34.7 7.4 6.1 5.9 10.2-4.5 12.1-2.1.4-5.1 1.8-6.7 3.1-2.5 2.2-2.9 3.3-3.6 10.1-.4 5-1.2 7.7-2.1 8.1-1.4.5-12.2-3.3-19-6.7-2.1-1.1-4.9-2-6.1-2-4.3 0-9.3 2.8-11.4 6.5-3.2 5.3-5.4 4.7-14.8-4.1-7.6-7.2-20.4-21.4-26.3-29.5-3.3-4.5-15.8-28.1-15.8-29.9 0-.7 2.3-7.3 5-14.6 8.8-23.4 12.6-45.9 10.2-61.4-3-19.9-13.2-30.9-33.2-35.8-6.9-1.7-7.7-1.7-17.7 0-21.4 3.5-30.1 4.1-56.2 3.5-28.5-.6-36.7-1.8-55.5-8.1-24.2-8.1-45.9-21-62.5-37-23.1-22.5-31.4-39.9-31.5-66.1-.1-10.9.1-12.5 2.4-16.9 3.7-7.4 4.8-7.7 11.6-3 3.2 2.1 7.8 5.9 10.3 8.3 5.8 5.5 10.9 9.1 13 9.1 3.4-.1 5.4-3.3 10.7-17.1 12.7-33.2 38.4-73.6 72.7-114.4 3.2-3.9 6.8-8.7 7.8-10.7l1.9-3.8-3.7-4.2c-2.1-2.4-11.9-12.6-21.8-22.8-9.9-10.2-21.6-22.8-26-28-4.4-5.2-11.6-13.6-16.1-18.7-8.2-9.2-33.4-42.1-43.6-56.8-3.1-4.4-9.5-14.5-14.3-22.5-4.8-8-10.2-17-12.1-20.1-1.8-3.1-6.1-11.1-9.5-17.8-7-13.9-7.8-14.6-26.9-25.9-16.9-10.1-30.6-23.1-36.5-34.8-2.3-4.6-3-7.2-3-11.9v-6l3.2-.3c2.9-.3 4.1.6 11.5 8.1 10.3 10.4 13.1 12 17.6 10.1 6.9-2.8 5.8-8.7-3.6-19.1-9.9-11.1-12.8-15.3-15.2-21.9-3.6-10.3-1.4-18.4 5-18.4 1.5 0 4.7 1.4 7.3 3 4.2 2.8 6.6 5.3 13.9 13.8 2 2.5 3.4 3.2 6.1 3.2 6.2 0 6.7-.6 6.7-7.5 0-5.9-.2-6.5-5.1-13.1-7-9.3-7.9-11.9-7.9-21.5s1.3-11.9 6.8-11.9c3 0 4.5 1.1 12.6 9.2 9.4 9.5 18.4 20.7 25.1 31.2l3.8 5.9-.9 10.1c-1.4 17-1.2 21.6 1 23.2 2.1 1.5 7.3 1.9 9.3.6.7-.4 1.9-5.7 2.7-11.7 2.3-17.4 6.5-27.6 14.8-35.7 3.9-3.8 5.6-4.8 8.2-4.8 5.4 0 5.9 1.6 5.2 13.8-2.7 45-2.9 43.8 10.8 74.4 17 38.2 30.7 65.4 42.9 85.3 13.4 21.9 46 67.7 62.4 87.5 3 3.6 6.8 8.5 8.6 11 5 6.9 12.3 12 17.2 12 5.4 0 6.6-1 7.2-5.8.5-3.6.2-4.4-3.4-8.3-4.2-4.7-5.7-6.5-30.1-36.9-17.5-21.8-46.2-64-57.3-84.1-3.9-7.3-10.1-19.3-13.7-26.8l-6.5-13.6 1.3-6.4c1.8-8.9 7.1-26 11.3-36.3 12.8-31 31-53.4 58.4-71.9 14.4-9.8 38-19.5 68.3-28.2 7.8-2.3 8.5-2.7 8.8-5.2.6-4.4-.5-7-4.7-11.1-5.7-5.6-11.1-16.7-11.1-22.7 0-4.7 0-4.7 3.3-4.7 4.7 0 12.1 4 20.1 10.7 8.3 7.1 12.2 9.3 16.2 9.3 5.3 0 5.5-1.1 5.4-21.3 0-10.2.4-19.7 1-21.1 1.1-3 3.7-3.4 7.8-1.2zM890 223.7c0 1-.7 8.1-1.5 15.8-.8 7.7-2.1 21.6-3 31-1.6 18.2-3.9 40.7-8.5 84-1.6 14.8-3.1 30.6-3.5 35-.3 4.4-1 11.4-1.5 15.5-1.2 9.1-9.2 83.7-12 112-3.4 33.7-7.1 66.4-7.7 67.4-.6 1-47.9.3-49-.7-.3-.4 1.1-16.8 3.1-36.4 4.4-41.9 9.9-95.8 15.6-151.8 2.2-22 4.5-43.1 5-47 .6-3.8 3.8-32.6 7-64 3.3-31.3 6.3-58.2 6.6-59.8l.6-2.7h24.4c22.6 0 24.4.1 24.4 1.7zM609.3 358.4c11.3 4.7 14 20.2 6.1 35.4-6.6 12.8-20.2 24.1-48.2 40.4-8.1 4.6-10.6 6.6-11.7 9.1-.7 1.8-1.8 11.5-2.4 21.6-1.6 25.2-3.8 31.5-15.1 43.5-7.3 7.7-12.5 11.2-22.3 14.8-7 2.7-10 3.2-20.3 3.6-11 .4-12.9.2-21.4-2.3-10.2-3-17.7-7-29-15.4-10.6-8-79.1-75.3-81.2-79.9-1.9-4.1-2.4-15.4-.9-19.5.6-1.4 2.6-4.2 4.7-6.2 3.5-3.5 3.9-3.7 8.8-3.2 2.8.3 8.4 1.2 12.5 2.1 9.2 2.1 25.5 2.2 34.8.2 12.9-2.7 20.3-7.3 33.8-21.2 14.2-14.6 17.3-16.3 28.8-16.4 7.4 0 8.8.4 22.4 6.1 21.3 8.9 32.2 10.2 42 4.9 2.1-1.1 4.2-2 4.8-2 .5 0 5.4-2.7 10.8-6 13.6-8.3 21.1-10.9 31.5-10.9 4.8-.1 9.6.5 11.5 1.3zm288.6 46.7c3.6 2.3 9 5.9 11.9 8.1 5 3.7 5.2 4 5.2 8.7 0 2.7-.7 10.9-1.5 18.3-.8 7.3-3.9 37.8-7 67.8-3 30-6.6 64.4-8 76.5-1.3 12.1-3.6 33.2-5 47-1.4 13.7-2.8 26.5-3.1 28.2l-.6 3.3H858v-6c0-3.3 1.1-17.7 2.5-32.1 2.1-21.7 2.8-26.6 4.5-28.9 3.4-4.8 4-7.7 7-37.8 4-39.2 8.5-82.5 11-104.7 1.1-9.9 2.7-25.1 3.5-33.7 1.6-16.5 2.1-18.8 3.7-18.8.6 0 4.1 1.9 7.7 4.1zM168.5 507.3c3.1 2.7 3.7 6 8 52.2 1.5 15.4 4.4 45.7 6.6 67.3 4.1 41.4 4.4 46.2 3 46.2-.4 0-1.9-.8-3.2-1.8-1.3-1-5.9-4-10.1-6.6-8.3-5.1-13.8-6.1-19.8-3.6-3.3 1.4-8.8 11.1-13 23l-2.6 7.5-6.5.6c-3.5.4-12.5.7-20 .8l-13.5.1-2.6-2.8c-3.1-3.3-2.8-1.3-8.3-48.7-2.5-21.5-6.5-56.4-9-77.8-5.2-44.7-5.5-51.1-2.4-52.7 1.1-.6 9.3-1.6 18.2-2.1 8.9-.6 25.7-1.6 37.2-2.3 32.7-2.1 34.9-2 38 .7zm535.7 158.4c21.3.5 24.8.8 25.3 2.2.4.9.9 7.7 1.2 15.2.5 12.7.5 13.6-1.3 14.4-2.8 1.2-184.7 2-184.3.8.6-1.5 10-8.9 26.6-21l14.8-10.8 7-.6c10.2-.8 81.9-1 110.7-.2zm215.3 15.1c3.9.7 4 .9 5.7 6.7.9 3.3 1.7 7 1.7 8.2l.1 2.3H788.3l-.7-4.6c-1.2-9.2-.8-12.2 1.7-12.7 3.8-.7 126-.6 130.2.1zm-781 30.4c2.5 11.9 4.8 20.6 7 27.3 2.6 8 9.5 52.2 9.5 61.2v4.3h-12.9c-15.2 0-13.2 2.9-16.1-22.6-1.1-9.8-3.2-27-4.5-38.1-1.4-11.2-2.5-23.4-2.5-27.3v-7h9.5c9 0 9.5.1 10 2.2zM690 714c66.3.6 154.6 1.3 196.3 1.6l75.7.6v6.3c0 3.4-.3 10.3-.6 15.3l-.7 9.2H746.9c-162.8 0-214-.3-214.5-1.2-.4-.6-.9-8-1.2-16.4l-.5-15.3 3.9-.4c7.9-.8 37.5-.7 155.4.3zm-209.1 61c17.6 7.2 29.4 16.1 33.7 25.5 4.8 10.2 5.6 17.5 5 41.7-.3 12.3-.8 24.4-1.2 27.1-1 7.6-.2 9.1 5.8 11 2.9.9 9.6 2.3 14.8 3.2 39.5 6.7 63 13.4 63 18 0 2.5-4.2 4.3-11.5 5-10.8 1-10.5.8-10.5 7.1 0 4.1.8 7 3 11.4 4.8 9.5 4.9 9.4-8.1 8.6l-11-.6-3 2.9c-1.6 1.6-2.9 3.8-2.9 4.8 0 2.9-2.9 6.3-5.4 6.3-3.2 0-16.9-8.4-32.2-19.8-21.6-16.1-32.3-24.2-32.8-25.1-.3-.5 1-6.2 2.9-12.7 4.3-15 5.5-29 3.9-46.5-.6-6.8-1.6-14.1-2.2-16.2-3-10.7-11.6-19.2-28.3-27.7-5.7-2.9-11-5.7-11.7-6.3-1-.8.9-3.3 8.5-10.9 5.4-5.4 10.4-9.8 11.3-9.8.8 0 4.8 1.4 8.9 3zm-289.8 16.8c4.2 3.1 9.8 7 12.5 8.7l4.9 3-17.4.3c-9.6.1-17.6 0-17.9-.3-.8-.8-4.1-21.3-4.2-25.8V774l7.3 6.1c3.9 3.3 10.6 8.6 14.8 11.7zm271.5 24.1c6.4 3.7 14 12.1 15.4 16.9.5 2 1 10.8 1 19.5 0 14.1-.3 17-2.9 27.5-3.9 15.2-6.4 22.3-8.4 23.6-1.2.8-3.1.3-7.7-1.9-7.9-3.8-9.7-5.7-8.2-9 4.9-10.7 7-53.9 3.7-74.8-.9-5.7-.2-5.9 7.1-1.8zM255.2 824c6.8 1.7 16.4 3.5 21.3 4 15.4 1.7 45.3 1.1 63.5-1.1 33.9-4.1 39.2-3.7 47.8 3.6 5.5 4.7 7.4 10.1 7 19.5l-.3 7.5h-273l-.3-17c-.1-9.3 0-17.5.2-18.2.4-1 12.6-1.3 61-1.3h60.5l12.3 3zM397 875.7c0 1.3-4 13.4-4.7 14.7-.5.6-1-.1-1.4-1.9-.9-4.1-1-12-.2-12.8.9-.9 6.3-.9 6.3 0zm-226 1.4c0 .6-.9 6.6-2 13.3-1.1 6.6-4.2 26.7-7 44.6-5.3 34.4-8.9 56.4-9.7 59.2-.4 1.6-1.7 1.8-9.4 1.8-10.5 0-9.7 1.7-6.9-16.6 1.1-7.1 2.9-19 4-26.4 4.2-27.6 12-75.1 12.5-76.1.9-1.3 18.5-1.2 18.5.2zm201.5-.1c.8 1.3 13.3 99 14.2 110.3l.6 8.7h-8.6c-8.5 0-8.5 0-9.1-2.8-1-4.6-4.3-28.2-8.1-57.2-1.9-15.1-4.4-33.6-5.5-41-1.1-7.4-2-14.7-2-16.3V876h8.9c5 0 9.3.4 9.6 1z"></path><path d="M522 283.4c-6.6 1.4-13.8 5.3-17.5 9.7-8.1 9.7-13.8 30-10.9 39.1.5 1.8 1.1 2 5.7 1.5 2.8-.4 5.4-1 5.8-1.4.4-.5 2.2-5.2 3.9-10.5 2.3-7.4 4.1-11 7.6-15.2l4.5-5.6h13.3l6.2 6.4c6.8 7 10.8 13.9 12.5 21.6 1.2 5.7 3.7 8 8.5 8 4.9 0 5.7-1.8 5.2-11.3-.4-6.8-1-9.3-3.8-14.7-4.8-9.5-10.7-17.5-14.9-20.3-10.6-7-17.6-9-26.1-7.3zm-137.7 15c-8.8 2.8-17.7 11.5-23.2 22.5-3 5.9-5.1 16-5.1 25.1 0 10.2 1.4 14.6 5.2 17 2.8 1.7 3.4 1.7 5.8.5 2.7-1.4 2.8-1.8 3.4-12.2 1-15.8 3.3-21.9 11.5-30.6 4.6-5 8-6.7 13.1-6.7 5.5 0 8.8 1.9 14.7 8.4 5 5.4 6.3 7.6 11.8 20.2 3 6.8 5.4 8.7 9.7 7.2 3.8-1.3 4.7-5 3.2-12.4-3.8-18.1-12.2-29.9-26-36.9-6.9-3.5-17.1-4.4-24.1-2.1zm98.1 81.8c-3 1.6-4.4 3.9-4.4 7.5 0 3.2.1 3.3 4.5 3.3 3.8 0 4.6-.4 5.9-2.7 2.4-4.6-1.8-10.3-6-8.1zm114 5.3c-1.7.7-4.6 2.6-6.5 4.2-21.2 18.2-39 27.7-68.5 36.1-24.4 7-37.1 8.7-65.4 8.7-27.6-.1-32.7-.8-56.3-7.6-15.4-4.5-18.7-4.6-18.7-.2 0 3.6 9.4 12.7 17.8 17.1 5 2.7 8.2 5.5 15.5 14C448 497 467.2 510 491 510c19.9-.1 36.7-8.4 43.7-21.7 3.4-6.5 3.6-7.4 5.8-26 .8-7.2 2.2-15.1 3.1-17.5 2.2-5.5 7.3-10.9 13.8-14.3 16-8.6 38.4-26.2 42.4-33.3 2.4-4.4 3-11.7.9-12.5-.7-.3-2.7.1-4.3.8zM528 443.3c0 1.2-.4 3.8-1 5.6-.5 1.9-1.9 8.6-3 14.9-1.1 6.3-2.7 12.7-3.5 14.3-2.7 5.2-7.9 10.2-13 12.5-4.4 2.1-6.5 2.4-17 2.4-13.7 0-17.3-1.2-28-9.2-8.4-6.4-33.5-31.3-33.5-33.3 0-.4 5.4-.5 12.1-.1 16.4 1 33 .8 44.1-.4 12.2-1.3 28.8-4.6 35.2-7 6.8-2.4 7.6-2.4 7.6.3zm147.4 229.2c-2.8.8-3.9 1.7-4.5 3.7-1.2 4.5.7 5.1 12.6 4.3 10.7-.7 13-1.7 12.3-5.2-.4-2.4-14.8-4.4-20.4-2.8zm-79.5.6c-7 .8-7.9 1.3-7.9 4.9 0 3.6 1.4 4.1 12.5 4.1 10.5 0 11.8-.4 13.3-3.6.9-1.8.8-2.6-.5-3.6-2-1.7-10.4-2.6-17.4-1.8zm44.1-.3c-10.1 1-10.6 1.2-11.7 4.2-1.6 4.2.2 5.2 8.9 5.1 8.5-.1 14.7-1.4 15.9-3.3 1.6-2.4 1-4.8-1.3-5.2-3.5-.8-9-1.1-11.8-.8zM223.5 118.4c-2.4 1.7-2.2 7.1.3 10.5 1.9 2.7 31.3 26 39 31.1 3.7 2.4 4.8 2.7 7.2 1.8 5.5-1.9 5.4-10.7-.1-14.6-1.1-.7-7.6-6-14.5-11.5-21.5-17.4-23.3-18.7-26.8-18.7-1.8 0-4 .6-5.1 1.4z"></path></svg>