<svg class="quest-illustration" xmlns="http://www.w3.org/2000/svg" id="Warstwa_3" version="1.1" viewBox="0 0 940 200">
  <defs id="defs4">
    <style id="style2">
      .cls-1{fill:#eed699}
    </style>
  </defs>
  <path id="path8" d="M766.2 20c-1.7 0-3.6.5-5 1.3-3.7 2.1-5.4 6-7.6 9.3A27.3 27.3 0 0 1 740.5 41a25.2 25.2 0 0 0 14.7-9.3c2.3-2.8 4-6.4 7.3-8.1 5.1-2.3 7.2.3 8.2 5.1 1 4.2 4.3 8.7 9.1 8.6 5 0 8.6-5.1 13.4-3.6 3.4 1.2 5.8 4.4 8.1 7.2l7.5 8.8c-2-3.3-4.1-6.5-6.3-9.7-3.1-5-8.4-11.2-15-8.4-3.4 1.1-6.6 4-9.8 2.3-4.5-2.3-3.7-8.3-6.8-11.8a6 6 0 0 0-4.7-2z" class="cls-1"></path>
  <path id="path10" d="M714.2 111.7c1.1-5.4 0-11.2-2.8-15.9a21.8 21.8 0 0 0 2.8 15.9z" class="cls-1"></path>
  <path id="path12" d="M716.2 124.5c2-1.3 1.8-4.1-.5-5-1.6 1.6-1.4 3.7.5 5z" class="cls-1"></path>
  <path id="path14" d="M720 106.7c2.2-.9 1.6-3.6-.7-3.5-1.4 1.7-1.2 2.6.7 3.5z" class="cls-1"></path>
  <path id="path16" d="M802.1 177.4v-.2c-3-21.4-7.7-49.4-16.7-76.3A40 40 0 0 0 774 81.5a48 48 0 0 0-5.4-3.5 36 36 0 0 1-5.5-3.8c1.5.6 3.1 1 4.5 1.4 1.5.5 2.9 1.2 4.2 1.9 7 3.7 12.7 9.7 20.3 12.2v.2-.2l.4.2v.2-.2c-1.4-13.6-16.7-28.3-30.1-37.2 2.8-2 5-4.2 7.1-7a99 99 0 0 1 2.8 2.6l2.4 2.3c.7.7 1.8 1.7 3 1.6 1.2 0 2.3-.7 3-1.1l1.5-.9L788 47c1-.6 2-1.2 2.8-1.5 1.9-1 3.3 1 5 1.7a24 24 0 0 0 13.3 3c-4.5-1-8.6-2.6-12.1-5-4.2-3.4-5.8-3.5-10.4-.8l-8.6 5c-.3.2-.2.2-.5.1-.2 0-.6-.4-1-.8-4.3-3.4-9.1-7.9-15-7.5 3.1.7 5.6 2.4 8 4.4a7.6 7.6 0 0 0-8 6.5c-3-1.9-5.8-3.5-8.3-4.8-17.5-9-39.8-11.2-57.5-1.8v-.2a6.2 6.2 0 0 0-3.6 7.3 6.2 6.2 0 0 0 3.6-7c9.2-3.5 19-4.7 28.5-3.8a90.6 90.6 0 0 1 51.5 24.8 49.5 49.5 0 0 1 16.8 23.3l-.4-.3a23.2 23.2 0 0 0-7.7-11.7 144.5 144.5 0 0 0-65-30.8c-8.9-2-20.6-2.3-26.7 5.7l-.5.1.4.1-.2.2.2-.2c5.3 1.2 10.6 1.4 15.8 1.8 5.4.2 10.4 1.2 15.8 2.3-9-6.6-20.9-6.1-31.4-4.3 7-6.9 17.4-5.7 26.2-3.4 10.3 2.5 20.4 5.9 30.1 10a44.8 44.8 0 0 0-7-.6c-2 0-4.5.5-6-1-.8-2.6-2.4-4.3-4.4-4.3-.7 0-1.2.2-1.8.5a2 2 0 0 0-2-.5c-3.3.9-4.2 4.8-2.8 7.4a8 8 0 0 0-4.9 6l-.6 2.8a20 20 0 0 1 7.9-2.6c-1-1-2.3-1.5-3.6-1.6.7-1.4 1.7-2.7 2.9-4a9 9 0 0 0 1.9 5.8h-.4c.1.2.4.3.7.4l.7.5a1 1 0 0 0-.6 1.9 5 5 0 0 1 2.1 2.6 1 1 0 0 0 1.3.6c.5-.2.8-.7.6-1.3a7 7 0 0 0-2.5-3.3 3.6 3.6 0 0 0 1.7.1c1.9 1.1 3.4 2.8 5.5 4 2 1 5 1.4 7 0a3.4 3.4 0 0 0 4.6 0 9.4 9.4 0 0 0 2.7-5.5 3 3 0 0 0-.5-2c.2 1.4-.5 2.4-1.2 3.3-.8.8-1.7 1.9-2.4 2.3-.3.2-.9.3-1.1 0-.1-.2-.9-1.1-1.7-1.2-.8-.1-1.4.3-1.8.6-3 1.5-6-1.1-9.1-2.5.9-1 1.6-2.3 2-4 3.2.7 6.5 0 9.1-1.8 2.8.1 6.6-.7 7.2 2.6.6-.7.5-2 0-2.8a3 3 0 0 0-1.2-1.3l5.7 2.7c-.6 2-1 3.9-1.3 5.8a14 14 0 0 0-.9-2c-.3 2-.3 3.9-.5 5.7-.5 5.2-1.6 10-4.3 14.4.2-1.8.2-3.6 0-5.4a53 53 0 0 1-9.4 21.1c-1.3 2-2.3 2.3-4.2 3.7-1.7 1.6-2.4 3-4 4.3a14 14 0 0 1-10.9 2.5 12.6 12.6 0 0 0 14.5-2.5 32.8 32.8 0 0 0-1.8 10.9c-1.5.8-2.9 1.8-4 3.2 3.4-.8 6.8-1.7 10-1.8 1.6 0 3.2.7 4.8 1 1.8.3 3.6.6 5.5.6a24 24 0 0 0-8.8-4.4c1-.6 2.1-1.2 3.2-1.5h1.3c2.9.8 5.6 1.7 8.7 2a14.6 14.6 0 0 0-9.4-5h-.6c.6-2.6 2.9-4.6 4.4-7 3.3-5.2 5-12.4 1.6-17.9 0 2.4 0 4.7-.5 7-.7 3.3-2 6.4-3.6 9.5-1.3 2.4-3.5 5.7-2.8 8.7a9 9 0 0 0-4.1 4c-1.5.1-3 .4-4.2 1a15 15 0 0 0 2-12l.5-.4a15 15 0 0 0 4.7-4 35.5 35.5 0 0 0 7-16.7c5-2.5 7.1-8.3 6.9-13.8l.4-.7c2 3.7 5.7 6 9.3 8 1.8 1.1 3.5 2.1 5 3.3 5.2 4.2 8 11.2 10 17.5a429 429 0 0 1 16.6 75.6v.2c1.4 9.1 2.7 18.6 8 26.3a2 2 0 1 0 3.4-2.3c-4.9-7-6.2-15.9-7.4-24.5zM744.4 72.3zm-12.8-15.9c.7 0 2 1.8 2 4.7 0 2.9-1.3 4.7-2 4.7-.3 0-.8-.5-1.2-1.3h.2c.9 0 1.5-1 1.5-2.3 0-1.3-.6-2.4-1.5-2.4a1 1 0 0 0-.8.4c.2-2.4 1.2-3.8 1.8-3.8zm-4.6 2.1-.2 2h-.7l1-2zm9.3 5a12.7 12.7 0 0 0 .1-3.9 6 6 0 0 0 3 1.6c-1.1.6-2.2 1.3-3.1 2.3zm22.2.3c4.4 2.2 8.8 4.6 13 7.2 7.7 5 16.9 9.5 20.4 18.4-7.2-5.7-13.3-13.2-22.4-15.8-2.7-.7-5.5-.5-8-1.2-.5-.6-.9-1.3-1.2-2a2 2 0 0 0-1.5-1.3c.3-1.8.2-3.6-.4-5.3z" class="cls-1"></path>
  <path id="path18" d="M720.1 80.5c-2-2.1-6-1-7 1.5a11.3 11.3 0 0 0-9.2-2.8c-3.7-3.4-9.2-4.8-13.7-1.7 5.7-.2 10.7 2.2 14.5 6.3l3.7 4.4c-.1-3-1.4-5.8-3.5-8a22.8 22.8 0 0 1 12.3 13.3c1-3.7-.4-7.6-3-10.5 2.1-.3 3.8-1 6-2v1.7c.2 3 1.6 5.8 1.3 8.8-1.5 6.4-1.8 7.7 2.3 13 1 1.5 1.5 2.9 1.2 4.5-.3 1.5-1.3 3-3 3.9a5.7 5.7 0 0 0 4.1-3.6c1.7-3.6-1.8-7.3-2.7-10.3-.5-1.3 0-2.7.4-4.4.5-1.7.9-4 .6-5.8-.6-4-3-8.1-.3-11.6.7-.8 1.8-1 2.7-1.1l-.1-.9c-.2-1.6-1.2-3-2.6-3.5.3-1.6 1-3.1 2-4.4-1.7 1-3 3-3.5 5 .9.5 1.7 1.3 2 2.2a5 5 0 0 0-2 1 7.9 7.9 0 0 0-2.4 5z" class="cls-1"></path>
  <path id="path20" d="M727.4 96.9c.4 2.8 2 5.2 4.2 6.8-.3-4-2.1-8-.7-11.7.1 1.2.8 2.3 2.3 2.5 1.1.2 2.3-.8 2.7-1.8 1.2-2.5.4-5.6-2-7.2-1-.7-2.3-1-3.5-1l.8-3.3a11 11 0 0 0-3.8 6l2-.2c2.8-.3 5 2.7 4 5.3 0 .1 0 .2-.2.2-.8.2-1.4-.6-2-1.4l.6-.9c-3 .2-4.7 4-4.3 6.7z" class="cls-1"></path>
  <path id="path22" d="m736.6 97-1.8-.5c.8 1.6 1.6 3.4 2.6 4.9 0-.9-.2-1.7-.3-2.6 2.3.5 4.7-1 5.7-3 2.2-4.3-.6-9.1-.4-13.3 0-1.8 1.2-4 3.4-3.7-1-.8-2.5-.5-3.5.2-3.1 2.2-2.5 7-2 10 .4 2.1.6 4 0 5.6-.6 1.4-2.2 2.8-3.8 2.4z" class="cls-1"></path>
  <path id="path24" d="M747.2 64.6a4 4 0 0 1-.4 1.8c-.3.4-.1 1 .4 1.3l.4.1c.4 0 .7-.1 1-.5.4-.8.6-1.8.6-2.8 0-.6-.5-1-1-1a1 1 0 0 0-1 1z" class="cls-1"></path>
  <path id="path26" d="M660 85.6c.1 3.6 7.3 1 9.2.6 3-1 5.7-1.6 9-1.6-4-3.5-10-1.6-14.3.4-1.3.5-2.7 2-3.9.7z" class="cls-1"></path>
  <path id="path28" d="M750.1 190.9c3-12 4.6-24.6 2-36.7-1.8-7-5.2-15.3-12.7-17.7 11.3 7.1 11.3 27.8 11.1 39.7-.1 4.9-.4 9.8-.4 14.7z" class="cls-1"></path>
  <path id="path30" d="M677.7 75.5a21 21 0 0 0-8 1.7 29 29 0 0 0-9 7.3c-3.8-.8-7.4-1.8-10.9-3.1-4.8-2-11.7-4.5-15.7.4-1.4 1.7-2 3.7-3.2 5.2-1.6 2-4.4 1.7-6.5.4-1.7-1-3.3-2.9-4.8-4.5a146 146 0 0 0-27 8.5c8.7-2 17.3-3.9 26-5.5a20 20 0 0 0 4.2 4c3 2 8 2.2 10.3-1l.3-.4c2.8-.2 5.5-.5 8 .1l.7.2c-5.6 2.7-10.6 8.8-16.5 5.1-4.6-4.4-8.2-5.2-14.3-4-6.3 1.4-12.5 3-18.7 1.5l-2.4-.8c6.2 4.5 14.6 3.3 21.5 2 3.4-.4 6.7-.6 9.4 1.3 1.8 1.6 4.2 3.7 7 3.7 5.5.3 9.3-4 13-7.3l1.6-1.3c2.3.8 4.5 2.2 7 3.1 3.1 1.2 6.4 1.7 9.7 1.7 3.1 0 6.2-.6 9-1.9-.7 2 .9 3.6 2.8 4 1.5.5 3.5.8 5 0 1.2-.6 2.1-1.6 3.3-2 2.4-.8 5.2-1 7.6-2l3.5-1.6c.6 11 1.6 22 2.6 32.9 1.2 11.3 1.4 24.2 9.5 33.1l3.3 3.6.1-3.5a8 8 0 0 0 5.2-2.8l1.8-.9c1.4 17.6 1 35.3-1.2 52.8-.1.8.4 1.6 1.3 1.7h.1c.8 0 1.4-.6 1.5-1.3 2.4-18.3 2.7-37 1.1-55.3 1-.9 1.7-1.8 2.4-2.8l1.3 1.4 1.4 2.1c.1 1 .5 2.1 1.4 2.7 0 2.4.9 4.5 3 5.7-.3 2.5 1.3 5 1.7 7.3.4 2.5-.4 5.2-1 8.2-.7 3.5.2 7 1.8 10.2-1.5 6.7 0 13.3-.8 20.1 4-4.5 3.6-11.8 2-17.8a27 27 0 0 0 3.3 4.1c-1.4-4.1-3.3-8-3.5-12.2-.4-4.4 2-8.8.4-13.2-.9-2.6-2.6-4.2-3.4-6.3.3 0 .6.2.8.3.9.3 1.7.5 2.6 1.2.4-2.1-2-3.8-3.1-5-.8-.6-1.3-1.6-2-2.5.3-.2.6-.5.7-.8l.1.3c.6-1.4 1-2.7 1.3-4 1-3.5 2.2-7.6 2.8-11.3a12.7 12.7 0 0 0-4.3 14.7c-.5.5-1.3.2-1.4-.1-.5-1.3.3-2.2.3-3.8 0-1.8-.7-3.1-.8-4.6-.2-2.3.3-4.5 0-6.9a12.7 12.7 0 0 0-2.8 7c-.1 1 .2 2.1.5 3.2-.4-.9-.8-1.7-1.3-2.4-1.6-2.4-1.2-5.7-1-8.6 2-1.2 4.5-3.7 5.6-6.4 2.5-1.1 4.8-2.8 6.7-4.7 2 4 4.7 7.5 8.1 10.5.1-4.7-3.2-9.4-7.7-11h.2-.3l-.6-.2.1.3c-6.2 1.2-11.5 4.1-17.6 5.5l.5.2c-1.1 2 .5 4.2 2.4 4.5l-.2.6c-.7 3.6-.8 7.9 1.9 10.7a11 11 0 0 0-3.1 1.4h-.2c.3-1.6.4-3.2 0-4.7-2.7 4-4.4 8.4-8 11.5l.5-20c.3-19.7-.9-42.2-15.3-57.2 2 2.8 3.7 5.7 5.1 8.7a68.5 68.5 0 0 1-10 3.1c-2.6.7-5.2.7-8 1.5-1.3.5-2.4 1.5-3.5 2.1-1 .6-2.7.1-3.8-.3h-.2c0-1.1 1.7-1.4 2.9-2 2.8-1.3 3.1-4.6 5.3-6.4-2.5.8-3.6 4-6 4.6-1.2.3-3.4.7-4.2 2a4 4 0 0 0-.4.7 46 46 0 0 1-22-4.2 15 15 0 0 0-12.6.2c.9-1.4 1.4-3 2.4-4.2 3.2-4 8.7-1.5 13-.5a53 53 0 0 0 11.1 1.5l-.9 1a32 32 0 0 0 2-1h.1l5.5-3a29 29 0 0 1 15.6-3.3c2.8 0 5.6.2 8.5.1-4.2-1.7-8.8-3-13.5-2.9zm18.7 11c8.9 19.1 6.3 41.5 5.9 62.4l-1-1.8c-3.2-7.3-4-16.4-5.2-24.3a833.4 833.4 0 0 0-5.4-32.5c2-1 4-2.3 5.7-3.8zm26.3 44.4a24 24 0 0 1-5.3 3.3c-.8-1.3-1.6-2-2.8-2.8 2.7.7 5.5.4 8-.5z" class="cls-1"></path>
  <path id="path32" d="M732.6 165.2c-1.7 1.4-1.2 3.5 1 4 1.6-1.4 1.2-3.5-1-4z" class="cls-1"></path>
  <path id="path34" d="M772.1 133.7c-.6 6.3-.9 12.5-1 18.8-.4 4.5 0 9.4-.5 14 0-11.5-5-23.3-9.6-33.4 1.9 13.4 6.9 25.6 8.5 39-.8 2.2-2.2 4.4-3.5 6.7a125 125 0 0 1-15 23.5c7.5-5.8 12.7-14 17.5-22 1.6-2.9 3.4-5.6 4.3-8.8 1.6-6.4.6-12.6.6-19-.3-6.3-.7-12.5-1.3-18.8z" class="cls-1"></path>
  <path id="path36" d="M744.2 189.7a173 173 0 0 0-5-39.4c2-.6 3.4-2.2 3.3-4.5-.2-3.2-3.2-6-6.3-5.6a8.2 8.2 0 0 0 2.4-4c-1.5 1.4-3 2-4.8 3.1a9 9 0 0 0-4 5.1c-1.2 3.8-.4 7.5-4 9.8 2.1.3 4.2-1.5 5-3.3 1.5-2.8 1.4-5.4 2.9-7.8.6-.9 1.5-1.8 2.3-2.6 2 1.4 3.3 3.3 3.5 5.5 0 .5 0 .7-.2 1-.8 1.7-2.5 2.2-4.2 3.3a6 6 0 0 0 2.3.4c0 1.7-.4 3-1.6 4.2-.7.7-1.5 1.5-2.2 2.6-.7 1-1.2 2.7-.5 3.8.6-1.1 1.4-1.6 2.2-2.2l.2-.1c-1 3 .4 6.6 1 9.4.2.7.2 1.3 0 1.6-.1.5-1 1.1-1.4 1.7a7.1 7.1 0 0 0-1.4 5.5c.7-1.3 1.5-2.3 2.4-3.2-.7 2.3-1.2 4.6-1.6 7-.5 2.7-1 6 0 8.8.8 2 1.7 3.4 1.7 5.4-.2 3.4-1 6.7-1 10.2 1.5-3.3 3-6.5 3.7-10 .3-2.3-.8-4.8-1.5-6.6-.9-2.5-.6-5-.6-7.6 0-2.5 0-5-.3-7.6l.3-.3c.8-.6 1.6-1 2.3-2 .7-1.1.6-2.5.3-3.6-.8-3.5-2.7-5.9-3.2-9.2a7.8 7.8 0 0 0 3-3.4 695.9 695.9 0 0 0 2.7 34.8c.5 4.5.9 9.4 3.2 13.3-1.1-4.4-.8-8.9-.9-13.4zm-5.8-39.2.6-.1v1a4 4 0 0 0-.6-.9z" class="cls-1"></path>
  <path id="path38" d="M786.2 138.8c-1.2 10-.4 20.3 2.5 30 1.3-10 .4-20.3-2.5-30z" class="cls-1"></path>
  <path id="path40" d="M789.8 177.8a6 6 0 0 0 .6 8 6 6 0 0 0-.6-8z" class="cls-1"></path>
  <path id="path42" d="M791.8 211.1a23 23 0 0 0-.3-16.5 23 23 0 0 0 .3 16.5z" class="cls-1"></path>
  <path id="path44" d="M776.1 113.8c.3 15.8.9 32.2 1.7 48 .7 15.7 2.8 32 2.7 47.7 2.6-15.6.9-32.2.3-48-1-15.9-2-31.9-4.7-47.7z" class="cls-1"></path>
  <path id="path46" d="M770.2 211.8a40.6 40.6 0 0 0 1.9-24.7c-2.2 8-2.8 16.4-1.9 24.8z" class="cls-1"></path>
  <path id="path48" d="M641.3 144.3c2.1.9 4.4-1 5-3 .3-1.3.2-2.7 0-4 2.3 2 4.2 4.5 6.1 6.8 1.8-4.7 3-9.7 3.2-14.8a35.6 35.6 0 0 1 5.4 12l1.6-3.6c.2 1 .4 2.1.4 3.2l3.6-1.2c.9 2.7 4.4 3.3 7 2.9a11 11 0 0 1-4-1c-1-.5-2-1.7-1.9-2.7l.1-.8-.9.1-2.2.5c0-2.4-.8-4.8-1.5-7l-1.7 3c-1.4-4-3.5-7.6-6.2-10.8l-2.9-3.3c.2 4 .5 8.6 0 12.6-.2 2-.6 4-1 5.9a20.2 20.2 0 0 0-6.2-4.6l-2-.9c.8 2.4 2.3 5 2 7.5-.2 1.7-2 3.6-3.9 3.2z" class="cls-1"></path>
  <path id="path50" d="m625.3 115.1-3.7 1.7-.6-2c-.2-.3-.2-.6-.8-1-1.4-.8-2.4.3-3.2 1.4-1.8-4-4.9-8-7.4-11.4a160 160 0 0 1 3 18.6c.7-2.4 1-4.8 1-7.2.6 1.2 1.2 2.5 1.7 3.9h1c1.2.2 2.1-.8 2.8-1.7l.8 3.1 3.3-2.2v1.5c0 1.5 1.7 2 2.9 1.8-2.4-.8-1.9-1.3-1.5-3.3l.7-3.2zm-9 1.1z" class="cls-1"></path>
  <path id="path52" d="m606.7 140.3-.9 1.7a112 112 0 0 0-2.5-3.3l-3.5-4.2c1.1 4.8 2.2 10.2 5 14.3l-.7-4.2 2.8 4 1.3-4.3 3 4.4c.7-1 1.3-2 1.6-3.2l2.4 2.4-3-6.1-1 2.6a141 141 0 0 1-3-6.7l-1.5 2.6z" class="cls-1"></path>
  <path id="path54" d="M886.6 87.5h.5a1 1 0 0 0-.3-.2c-.4-.3-.6.1-.2.2z" class="cls-1"></path>
  <path id="path56" d="M888.3 89c1.5-.2 1-2.3-.5-1.8l-.7.4c0 .1.2.3.2.7.2.6.7.7 1 .7z" class="cls-1"></path>
  <path id="path58" d="m858.3 193.3-.5 12.7a32.4 32.4 0 0 0 2-25.4c-1 4.2-1.2 8.5-1.5 12.7z" class="cls-1"></path>
  <path id="path60" d="M872.4 205.2a19 19 0 0 0 0-15 19 19 0 0 0 0 15z" class="cls-1"></path>
  <path id="path62" d="M912.5 128.6c4.7-7 .5-13.8-7.4-14.9l-6.7-.8c-1.1-3.7-4.8-6.3-7.3-8.8-1.1-1-2-2-2.5-3.2 1.7 0 3.3-.4 5-.8a34.5 34.5 0 0 0 5.4-19l2.7-1.2 3.6-1.6 1.5-.6-1.2-1.3a8 8 0 0 0-4.4-2.6c.1-2.6-.3-5.2-1.2-7.6l-1.3-3c-.8 2.9-1.8 6-2.2 9.2a18.3 18.3 0 0 0-10.3-9c-6.6-2-15.8-3.4-20.5 3.1-1.1 1.6-1.8 3.3-2.7 5l1.3.4 1 .3.4.2c-1.6.8-2.7 3.2-3.2 5.7a13 13 0 0 0-.2 3c-2 1.6-3.2 3.6-.5 5l1 .4-.8 1.4c-.8 1.8-1.9 3.8-1.5 6a6 6 0 0 0 3 3.8 21 21 0 0 0-12.5 4.2c-4.4-1.7-8.7-3.6-12.8-5.7-1.7-1-3.5-1.9-5.5-2.4-6.5-1.8-11.4 5.1-10.5 11l-1.2-1.4a13 13 0 0 0 3 3.4 83.8 83.8 0 0 0 22.1 10.9c7.5 2.4 15.3 4 23.1 4.3-3.7 2-4.2 7.3-2.7 11.3-5.8-2.4-11-5.8-17-8a172.3 172.3 0 0 0-32.7-7.2h.3c-.4-.2-.7-.2-1-.2-4-4.8 1-10.7 5-13.7-5-.6-10.4 5.3-8.8 10.4.5 1.5 1.8 3 3.4 3.3-2.9.4-5 4.9-5.3 7.4-.6 4.6 2.7 7 6.8 7.9l1.8.4c-2.8 4.7-1.8 8.4 2.8 11.6a26.3 26.3 0 0 0 16.6 5.2c1.5 0 3-.3 4.3-.7a49.3 49.3 0 0 1-17-5.5c-.8-3.6-2.1-6.7-4.2-9.8-1 2.4-.8 5.1.4 7.4l-1.6-1.3c-1.7-1.8-1.4-4.5-1-6.8 1.4.3 3 .6 4.5.7a39 39 0 0 0-5.7-3.4c-1.7-1-3.7-1.5-4.4-3.1-.7-1.4-.6-3.3 0-5.3.6-1.6 1-3.6 2.7-4.3 5.8 2.2 12 4 18.1 5.8a12 12 0 0 0-4.5 2.6c0-2-2.7-3.7-4.2-1.7.7.9.7 1.4 1.3 2 .5.5 1 .6 1.6 1-1.1 1.2-2 2.7-2.6 4.3a13.7 13.7 0 0 0 9.1-8v.5c-.2.5-.2.5.2.7.3 0 .6.2 1 .7h.5l-.4.5v-.2a4.5 4.5 0 0 0-3.8 5.5h.2c.3 7.7 5.5 15.3 12.6 18.4L833 131.9c1-.2 2-.8 2.6-1.5.1.8.4 1.7 1 2.5a4.8 4.8 0 0 0 1-7c.5-.1 1-.4 1.4-.6l.4.1c-1.3 4.2-.8 9.3 2.2 12.7 0-4.2 0-8 .4-12h.1l.7.2v.4c-.7 3.7-.2 7.9 2.4 10.8.3-1.7.4-3.4.4-5a17 17 0 0 0 2.7 4.7c.3.3.7.5 1 .4-.2-.3-.2-.5-.2-.8.2-3.3-.7-6.7-2.7-9.5 2.9.9 5.7 1.8 8.5 3 3.8 1.4 7.7 2.8 11.8 3.4l.7 1.3c1.4 2.2 4.3 3 6.7 2.6l1-.2c-2.2 2.7-2.2 9.4-1 11.7 1.3 4 6.6 6.4 9.9 3a9 9 0 0 0 2.4-6.2l.2.3c2.6 2.8 7.2.5 8.4-2.5 1.2-2.7 2-8-.1-10.5.9.4 1.9.6 2.8.7.4 3.9-.1 7.6-1.8 11-1 1.7-2 3.7-3.5 4.3-1.5.8-3.8.5-6 .8v-1.4c-1 4.5-6 7-9.8 4.4-2.5-1.6-4.7-4.4-7.6-5.7a57.7 57.7 0 0 0-14-4.1c4 2.5 8.5 4.2 12.6 6.5 2.8 1.6 4.6 4.2 7.6 5.8 3.2 1.9 7.8 1 10-2a7 7 0 0 0 1.2-3.4 23.5 23.5 0 0 0 4.7 1.5c-4 3.7-8.6 6-14 6.4-7.3.8-14.6 0-21.7-2.2 1.5 0 3-.3 4.5-.9a20.7 20.7 0 0 0-7.2-2.2c-2.5-.4-4-1.7-6.4-2.8 1 4.1 4.3 5.8 8 6a42.2 42.2 0 0 0 18.8 5c7.5.5 14.6-1.8 20-7.2l3.6-3.8a29 29 0 0 0-1.1 16.3l-2.9 1.3c-1.5.4-2.5.2-4 0a3 3 0 0 0-1.9.7L885 170l-7.8-.6c-9-.5-19.8.7-26.5-6.7a52 52 0 0 0-5.2-11.6c1.3 4.6 2.8 9.2 3.4 13.7 1 7-1 13.8-2.7 20.5-1.6 7-3.1 14-4 21 1.8-4.4 3.3-8.9 4.7-13.4 2-7 4.5-13.8 5-21 .1-3-.2-5.7-1-8.4l1 1.8c.6 2.7 2.6 5 5 6.6 7.3 4.7 17 2.8 25 1.1-2.8-.5-5.6-.8-8.4-.9 3.8-.2 7.5-.7 10.6-1.2l-1.5 1.5c1.1-.5 2.2-1.2 3.4-1.9.3 0 .7 0 1-.2h-.5l1.7-1c.6 0 .9.2 1.6.4a7 7 0 0 0 1.7.3 7 7 0 0 0 .2 5l-2.8-1.3c-1.9-.9-4.7-2.4-6.8-1 2.2 1.1 3.2 2.7 5.5 3.7a9 9 0 0 0 5.8.6 2 2 0 0 0 2.4 0 42 42 0 0 0 6 26.7c-1.2-9.2-3-18.2-5.4-27.1.6-.6 1-1.3 1.6-1.6l.1.1c.4.3 1.5 1.3 2.4 1.4 2.3.3 3.8-2.4 3.3-4.3-.5-2.6-1.5-4.8-2.9-7 0 0-.1-.3-.6-.7-.9-.7-2-.2-2.6.3l-1.3 1a59.3 59.3 0 0 0 2.2-17.8c3.2-3.7 6-7.8 6.5-12.7 0-.5.2-1.3 0-1.9 3-.8 5.7-2.5 7.3-4.7zm-14 38zm.4.8a24 24 0 0 1 1.7 4c.2.6.6 2 .2 2.2-2-1.6-3.8-1.7-5.3.6-.4.4-.7 1-1.1 1-1.9-1-2.4-3.2-2.3-5.3 2.4-.1 4.8-1.3 6.8-2.5zm0-87c0-1.2-.3-2.5-.7-3.7h1.5c1 0 1.9.2 2.8.6-1.3.9-2.5 2-3.6 3.1zm-.7-10.4c.1 2 0 4-.1 6.1-.4-1.2-1-2.5-1.6-3.6l1.7-2.5zm-15 7 .3.3c.9-.6 1.7-1.4 2.5-2.2l-.4 5.8-5.1-1.7h-.8c-.7-2-2-3.4-3.8-3.7-2.1-.4-4.3 1-5.5 3.2l-1-.4V78a8 8 0 0 0-.7-4.7c5.1.9 10.9-.5 14.6 3.8zm-10.4 7.5c.8 0 1.5-1 1.5-2.4 0-1.3-.7-2.3-1.5-2.3-.3 0-.6.1-.9.4.7-1.6 2-2.8 3.2-2.8h.4c1.8.4 2.8 2.8 2.4 5.3a5.7 5.7 0 0 1-1.7 3.1 3 3 0 0 1-2.4.9c-.8-.2-1.4-.8-1.9-1.7a5 5 0 0 1-.5-1.8c.3.8.8 1.3 1.4 1.3zm-9.7-.7c-.2-.1-.2-.2 0 0zm4.4-6.2c-.6 0-1 .4-1.3.9v.1c-.1-.9-.6-1.6-1.3-1.8.7-1.9 1.6-2.7 1.9-2.7.2 0 .8 1.2.7 3.5zm-1.7 21.7c-.1.8 0 1.7.5 2.6a2.8 2.8 0 0 0 2.5-2.5c1.5.2 3 .2 4.2.1 2.6-.2 5.2-1 7.3-2.3-2.5.2-4.9.2-7.2 0-3.2-.5-7-1-9.4-3-.5-.5-.7-1.1-.8-2a10.6 10.6 0 0 0 5 .8 1 1 0 1 0-.2-2c-1.6.2-3.2-.2-4.6-.9l.6-3.4c1 .1 2 0 3-.4-1.4-.8-2.3-1.4-3.3-2.2 1.2-1.1 2.5-2.3 3.6-3.6l2.5 1.1c-.2 1.5 0 3 .6 4.3.7 1.5 2 2.4 3.4 2.7h.7a5 5 0 0 0 3.4-1.3 9 9 0 0 0 1.9-3l.3.1 10.2 1h.2l.2.4c.2 2.6 0 7.2-3.4 7.4 4.3 2 6.7-4.5 6.3-7.9-.3-2.7-2.9-3.7-5.2-3.6-.3-2.4-.9-4.7-2-6.8l.8-.7-.8.6-.1-.3v.3l-2.4 1.7c-.6-1-1.5-1.8-2.5-2.4l.2-.4A10 10 0 0 1 883 70c.3-.5.2-1.1-.3-1.4a1 1 0 0 0-1.4.2 12 12 0 0 0-1.8 4.4 18 18 0 0 0-4.7-1.1c.7-1.6 2-3 3.5-3.7a1 1 0 0 0-.9-1.8c-2 1-3.5 2.7-4.4 4.7v.5c-1 0-2-.2-3-.4 1-1.4 2.2-2.7 3.5-3.9a1 1 0 1 0-1.3-1.5 22.3 22.3 0 0 0-4 4.4 1 1 0 0 0-.1.5l-1.6-.7c1-2 2.3-3.6 4-4.5 4.4-2 10.3-.9 14.8.5 7.5 2.4 11.6 10.3 11.5 17.9a37 37 0 0 1-3.8 15.1 22.3 22.3 0 0 1-4.4 1.3c-1.1-2.3-1.4-4.9-2-7.6-1.2 3.2-1.4 7 0 10.1a47 47 0 0 0-5.6 0c-5.7 0-13.3 2-17.6-2.7 2.4 9 16.8 6 23.5 3.1.5 1 1.2 2 2.1 2.8 2.6 2.6 5.7 4 8.1 6.5a192.6 192.6 0 0 1-44.5-10.2c4.6-.5 8.9-1.9 13.3-3.2zm1.4 17h-1.4c1-2.3 2.7-4.2 4.9-5.4h.4c-1.7 1.5-3 3.4-3.9 5.4zm-4.4-7.7c.4 0 .7.2 1 .3a14 14 0 0 0-4.6 6.6h-.4c.5-.9.8-1.8 1.1-2.6l.7-1.5a6.4 6.4 0 0 1 2.2-2.8zm3.5 1 1.8.6c-2 1.5-3.5 3.6-4.4 5.9l-2.4-.3a12 12 0 0 1 5-6.1zm-44-4.8c-.2-3.7 1.5-7.7 4.8-9.5 3.5-1.9 7.2.3 10.4 2.2a127.3 127.3 0 0 0 23 10.3l-1.8 2.8-.6 1.6c-.4 1-.8 2-1.4 2.9-7.2-1.2-14.2-3-21.3-4.8-2-.5-4.2-1-6.3-1.8l-.9-.3a18 18 0 0 1-6-3.4zm48.3 29.8c-2.8-1.6-3.3-7-1.9-9.5 1.2-2.3 4-2.5 6.4-2.2 1.4.1 2.8.1 3.4.9 1.2 1.7-.6 5.7-2.6 6-1.2.1-2.8-1.4-1.8-2.6-.6.5-.5 1.4 0 2 1.6 2.3 4.2.3 5-1.6 1.3-2.3 1.3-5.2-1.7-5.8-2.2-.4-4.2-.8-6.5-.4a6 6 0 0 0-1.2.4l-14.5-4.4a96 96 0 0 0 20.4 2c2.7-.1 5.4 0 7.2 1.1 4.3 3 1.4 8.8-2.3 11.2-2.9 2-6.6 4.4-10 3zm13.5 10.6c-.3 2-.8 3.9-2 4.9-3.1 2.4-5.8-1.6-6-4.8a14 14 0 0 1 .4-5.7c.2-.6.4-1.2.9-1.4l.8.5a6.5 6.5 0 0 1 1.2 7c2.1-2.5 1.8-7.7-1.4-9.3 1.4-.6 2.8-1.3 4-2.2 2.4 3.1 2.7 7.2 2.1 11zm9.7-7.5c-.9 3.2-2 8.6-6.3 7.3l-1-.6c0-2-.4-4.1-1.1-6 1.1-1.2 2.3-2.3 3.8-2.2a16 16 0 0 1 0 4.9c2.7-1.4 4.4-6.5.8-7.7-2.6-.7-4.8 1.3-5.3 3.7a9.2 9.2 0 0 0-2.5-3c1.2-1 2.3-2 3.2-3.1a3 3 0 0 0 4.4-1.6c1.1 1.7 2.7 2.9 4.5 3.7.4 1.6 0 3-.5 4.6zm1-17.5c4.7-2 12.8-2 9.5 5.2-1.4 3-6.1 5.4-8.6 2.2-.5-.7-.8-1.7-.5-2.5.4-1.6 3-2.9 4.2-1.3.3.3.5.8.3 1.3-.2.4-.6.8-1.1.6.5.2 1-.1 1.2-.6.2-.5 0-1-.2-1.5-1.4-1.9-4.4-.7-5 1.3-.4 1-.2 2.2.4 3.1 3.7 5 11.2.3 11.6-5 .8-6.8-8.1-6.7-12.6-4.8-4.6 1.6-7 6.7-4.3 11-1-.6-1.9-.8-2.7-.7.2-.6.5-1.1.6-1.7 1.4-5.4-2.3-10-7.7-10.3-3.6-.3-7 0-10.6 0 1-2 2.4-3.7 4.3-4.9a196.4 196.4 0 0 0 25.3 4.4c3.6.5 7.6.5 10.5 2.5 4.4 3.3 1.3 9.9-3.2 11.5a15.9 15.9 0 0 1-10.5.8c-5.4-1.7-6.7-8.3-.9-10.6zm9.7 14.9c-1 3.1-2.7 5.8-4.9 8.2.8-3 .5-6.5-1-9.3a18 18 0 0 0 5.9-.5h.3l-.3 1.6z" class="cls-1"></path>
  <path id="path64" d="M826 125.4a4.6 4.6 0 0 0-1.5 6.5c.1 4.7 1.3 10.7 6.6 12 .2 0 .2 0 .5.3.4.4 1 .9 1.6 1a3 3 0 0 0 1.7-.3c.9-.3 1.4-.8 2.3-.8-.3-.3-.8-.5-1.2-.5-.7-.2-1.7 0-2.2-.3-.2-.3-.4-.9-.8-1.3-.5-.5-1.5-.8-2-1.1-3-2-3.7-6.1-6.1-9 2-1.5 2.6-4.3 1-6.5z" class="cls-1"></path>
  <path id="path66" d="M845.1 148.7a7 7 0 0 0 6.3.9c2.2-.7 4.3-3.4 3.1-5.7 0 .2-.2.3-.3.4.2-2.2 1.4-3.6 2.3-5.6 1.3-2.3 1-6.4-2-7.5l-1.7-.7a11 11 0 0 1-2.2 6.8 6 6 0 0 0 3.6-2.3 7 7 0 0 1-.3 2.8c-.5 2-1.3 4.8.2 6.6-2.4 2.8-5.8 2.6-9 4.3z" class="cls-1"></path>
  <path id="path68" d="M892.3 183.9c-.4 2-.6 4.2-1.4 5.5-2.3 2.5-6.9 2.3-9.8 1-5-2.3-7.3-9.1-3.7-13.7a16 16 0 0 1 4.8-3.6c-11 1.7-12 15.4-2.3 20 4 1.8 10.4 1.6 13-2.5 1-2.2.8-4.3.9-6.5 0-2.1 0-4.2-.2-6.3l-1.3 6.1z" class="cls-1"></path>
  <path id="path70" d="M890.1 181.2a6 6 0 0 0-.6-1l-.6.9h-3.2l-.7-1-.9 1.4c-.8.2-1.6.5-2.5 1 .4.6 1 1 1.7 1.3-.4 1.4-.3 2.8.1 4.3h-2.1c1 3.7 6.9 4.3 8.6.8l-1-.2a7 7 0 0 0 1.2-7.4zm-5.8 7a6 6 0 0 0 2-4 6 6 0 0 0 1.5-.6 11 11 0 0 0-.2 4.9 26 26 0 0 0-3.3-.4z" class="cls-1"></path>
  <path id="path72" d="M585.4 3.6a63.7 63.7 0 0 0-5.4 17.3c1.2-3.4 2.5-6.8 4-10l.2 2.8.3 8.2c0 .9 0 2 .5 3 .4 1 1.7 1.7 2.5 2l3 1.7c-2.3 1-4.8 1.7-7.3 2.2l-.2 1-3 13.2a74.5 74.5 0 0 1-3.5-11.7c0 6 1.6 12.1 3.6 17.8 2.1-5.8 4-11.8 5.5-17.8a47 47 0 0 0 11.7-4.6l-8.5-4.3c-.6-.3-1-.4-1.2-.8-.3-.5-.2-1.2-.3-1.9l-1.5-14.6z" class="cls-1"></path>
  <path id="path74" d="m571 22.2-2.1.1c-.9.2-1.6.3-2.4.9-2 1.5-.8 4 1.4 4.4 1.6.3 3 .5 4.8.5a11 11 0 0 0-3.6-2.9 16 16 0 0 0 5.6-2.6c-1.2-.3-2.4-.4-3.6-.4zm-2.7 2.5.1.1z" class="cls-1"></path>
  <path id="path84" d="M667.7-8.4c3.6 12.4-2.2 27.2-15.5 29.7-5 1-10.3-1.4-15.1 1.3a9.5 9.5 0 0 0-4.4 10.6c2.3 8.2 13.5 10.2 13 19.2-.2 11.6-11.2 24.1-23.4 23.3-3.3-.3-6.4-1.4-9.4-2.8 4.7.2 9.7-1.5 13.5-4.2a17 17 0 0 0 8.3-11.9c1.3-8.3-6.5-17.7-15.2-15.7a6.4 6.4 0 0 0-5 5.4c-.3 2.4 1.7 5 4.2 5a4 4 0 0 1-3-2.8c-.8-2.8 1.6-5.3 4.2-5.7 7-.8 13 6.8 11.8 13.4-.5 5.6-5.4 9.7-10.5 12.5a19 19 0 0 1-11.6 2.4c-4.7-2.3-9.4-4.6-14.7-4.8 10 1.7 17.1 10.4 27.2 11.8 14 1.8 27.3-12.3 27.6-25.9.1-3.7-1.4-7.6-4-10.2-2.4-2.7-5.2-4.5-7.2-6.6-3-3-3-7.6.4-9.8 2.5-1.5 5.7-1 8.7-1 17.4.3 26.6-18.3 20.1-33.2zm-49 59.8h.1z" class="cls-1"></path>
  <path id="path86" d="M633.3 20.2c4.8-4.4 10.9-5.3 16.9-7.5-6.3-2.3-15.6.3-17 7.5z" class="cls-1"></path>
  <path id="path88" d="M627 15.7c2.7-5 8.6-6.7 13.8-8.2 6.7-1.6 15.5-5.4 15.7-13.4-1.3 4.6-5.4 7.4-9.7 8.9-6.4 2.2-14.9 2.6-20 8.3-5 5.8-4.3 14.8-1.4 21.3a27 27 0 0 1 1.6-16.9z" class="cls-1"></path>
  <path id="path90" d="M384.4 90c-3.4-.4-7.3 1.2-8.8 4.5-2.7 5.6 2.2 11.9 6.3 14.5 2.8 1.8 2.2 5.5.2 7.6-2.1 2.4-6 3.8-9.5 4.8-7.2 2-15.5 1.4-21.3-3.7a16.8 16.8 0 0 1-5.5-9c1.7 0 3.3 0 5-.6-3.6.2-6.8-1.2-10.1-2.1-7.1-2-15-.3-20.9 4.2-2.5 2.5-5.6 2.6-9 3.3-4.4 1-8.9 2-13.3 3.3-.1-1.2-1.5-2.4-2.6-1.7 1.2-.1 2 1.5 1.1 2.3-.7.8-1.9.8-3 .8a9.2 9.2 0 0 0-4.5.5l-1.8.7c-1.6.4-3.6-.4-5.4-.4-4-.3-7.7.3-11.5-.9.2-1.8.5-3.7.5-5.6h.2c5-1.4 9.7-4 13-8a67.5 67.5 0 0 1-14.3 5.1c-3.1-.4-6.2.6-9 1.9a29 29 0 0 0-6.4 3.8 8 8 0 0 0-5-1.8c-1.6 0-2.9.4-4.4.6-2.7-3.8-6.4-7-10.5-9a50.7 50.7 0 0 0 14.3 15.8c-.7-1.8-1.6-3.5-2.6-5.1l3 .5c3 .5 5.3 2.5 8.3 3.6a9 9 0 0 0-2.6-4c2.2-.8 4.8-1.6 6.7-2.1 2.6-.7 5.4-1.6 8-1.2h1c-.9 5.1-2.7 10-4.2 15.2a127.5 127.5 0 0 0-3.7 34.7c0 5.7-.3 11.7 1.8 17.3l-.4 1.6.8.2-5.4 1.4c-3 .3-3.3-2.4-5-5-1-1.8-2.2-3.6-3.6-5.3l1 4.4c-2.7-3.6-6.9-6-11.3-6.5 2 2.2 4.2 4.1 6.5 6-.6 8.3-1.2 18.4.7 28a1.5 1.5 0 0 0 3-.7c-1.6-8-1.4-15.9-.8-25.2l3 2c2.3 6.1 6 7.2 14 1.5l.9.2.3-1.1.4-.4h-.3l.2-.7.2-.6 3-12.5c3.3-15 5.6-30.3 6.5-45.7l3.4.4c2 .3 4.4 1.2 6.7.4 1.4-.5 2-1.2 3.4-1.4 1.4-.3 3-.2 4.3-.9 1.1-.5 2.3-1.7 2.1-3 4.6-.1 9.2-.5 13.7-1 2.5-.3 4.7-.3 7.2-1.3 2.4-1 3.7-2.7 6-3.8 3.7-2 8.1-3.1 12.5-3.1 2.8 0 5.7.7 8.6 1a17.6 17.6 0 0 0 11.2 15.4c-.3 0-.6 0-1 .2-1.4.2-3 .5-4 1.9-2.1 3.4 1.3 7.9 3.6 10.2.3.1.5.5.7.6l-.1.6a68.2 68.2 0 0 1-11.1 7.6c-4 2.1-8.4 3.4-12.5 5.6l-.8-3.8-.4-1.9c-1.6 2.2-3.3 4.4-4.5 7-13.5 1.1-27 0-40.4 2.5 7 1.1 14 1.3 21.2 1.2 6.4 0 13-.8 19-3.1-1.4 3-1.4 6.8 1 9.2 3.1 2.7 5.2-.3 5.7-3.3-.4 1.5-1.1 2.9-2.4 3.3-2.6.4-2.8-3.6-2.5-5.3.4-1.7 1.7-4.7 2.6-7 .9 1.8 1.8 3.6 2.2 5.5-.2-1.4-.3-2.8-.6-4.1a29.5 29.5 0 0 0 16-4.6c2.9-1.8 5.3-4.2 7-7.2h.2a48.3 48.3 0 0 0 1.2 19.8 14 14 0 0 1-11.6 10.5l-18.2 3c-11.6 2-23.8 3.6-35.4 5.4a216 216 0 0 0 11-16.2 189.2 189.2 0 0 0-18 20.7 185.2 185.2 0 0 0-15.2 23 268 268 0 0 0 22-27.2 204 204 0 0 0 45.2-4.4c4.5-1 9.6-1.6 13.7-4 3.5-2 6-5.8 6.6-9.8.2.1.6-.1.6-.4l.2-.8.5-4.4a49.8 49.8 0 0 0-2-17v-.8l-.5-1.9c-.4-1.7-1.7-5-1.7-6.4 0-.5.1-.6.5-.9 1.4-.6 3.1-1.4 4.5-2.5a30 30 0 0 0 20.5-1.8c1.8-.7 3.6-1.8 5-3.2 3.1 2.2 7.5 2.3 11.2 1.2-1.4 3-1.4 6.8 1.1 9.2 3 2.7 5.1-.3 5.6-3.3-.3 1.4-1 2.9-2.4 3.3-2.5.3-2.8-3.6-2.5-5.3.4-1.7 1.7-4.7 2.6-7 1.2 2.3 2.3 4.8 2.5 7.4-.1-1.7-.4-3.4-.7-5.1 18.7.4 37.6-.3 56.5-.8-1.6 2-3.2 4.1-4.2 6.5-1.5 3-1.7 7.2 1 9.8 3 2.7 5-.4 5.5-3.3-.3 1.4-1 2.8-2.4 3.2-2.5.4-2.8-3.5-2.5-5.3l2.6-7c1.3 2.4 2.4 4.8 2.5 7.5-.2-3.4-1-6.8-1.7-10l-.3-1.4c25-.7 49.9-1 74.4 1.6v.2c.5 0 1 0 1.3.2v-.2c6.2.7 12.4 1.6 18.5 2.8-1.6 2.2-3.3 4.4-4.4 7-1.6 3-1.8 7 1 9.7 3 2.6 5-.4 5.5-3.4-.3 1.5-1 2.9-2.4 3.3-2.5.4-2.8-3.6-2.5-5.3.4-1.7 1.7-4.7 2.6-7 1.2 2.4 2.4 4.8 2.5 7.5-.2-3.4-1-6.8-1.7-10l-.4-1.8c10.6 2 21 4.8 31.4 8.5-1.4 3-1.5 7 1 9.5 3 2.6 5.1-.2 5.7-3-.4 3.4-1.7 6.8.5 10l1 1.2a49.2 49.2 0 0 0-1.6 15.3c-1.7-3-4.7-5.2-8-6-5-1.5-10-2.8-15-4-20.1-4.8-40.7-7-61.2-9.4-18-2-43.7-4.9-61.6-6.4-5.3-.5-10.7-.8-16-1v-.2h-.3v.1l-3.8-.1-.1-.4-1.5-.1-.8-.1c0 .1 0 .3.2.5-8-.3-16.1-.3-24.2.2-14.7.8-33.6 2.4-40.8 17.5 8-14.5 26.3-15.1 41-15.6 15.3-.4 30.7.6 46 2 18 1.7 43.4 4.6 61.6 6.5 20.5 2 41 4 61.2 8 5 1 10.1 2 15 3.2 3.5.8 6.5 3 8.3 5.9a36 36 0 0 0 1.2 8l.1-.4a8 8 0 0 0 3 2.9 23 23 0 0 0-2.3 4c-1.5 3-1.7 7.1 1 9.7 3 2.7 5-.4 5.5-3.3-.3 1.4-1 2.8-2.4 3.2-2.5.4-2.8-3.5-2.5-5.2.5-1.7 1.7-4.7 2.6-7 1.3 2.3 2.4 4.8 2.5 7.4a63 63 0 0 0-1.1-7.4l3.2 1c9 2 18.6 2 27.7 3.8 12.3 7.4 26.3 13.6 31.7 28-1.3-12.9-11.8-20.8-23.2-25.8l6.8 2.3c9.7 3.7 22.3 7 24.9 18.6-.7-12.3-14.1-17.3-24-21.2-3.4-1.4-6.9-2.6-10.5-3.7-10.8-3-22.1-2.2-33.1-3.5l-3.8-.7-.3-1.5-.4-1.8-2 2.5a8.5 8.5 0 0 1-3.2-2.3 54.5 54.5 0 0 0 .9-23.1 3 3 0 0 0 2 .3c2.2 2.2 5.6 2.6 8.6 2.8 3.1.3 6.3.5 9.4.9a464 464 0 0 1 74 13.2c5.5 1.3 11.6 5 11.2 11-.3 3-2.8 4.8-5.2 6.3a23.4 23.4 0 0 0-13.8 23.4c0-6.3 2.6-12.5 7-16.7 3.4-3.6 8.3-4.5 11.9-7.8 2.7-2.5 3.1-6.8 1.6-10-1.9-5-7.2-7.6-11.8-9h-.1a317.2 317.2 0 0 0-84.3-12.2c-3 0-6.2 0-8.7-2h.3c-2-1.6-2-3.9-2.1-6.1 0-2.5.1-6-2.1-7.7v.2c0 1.8-.8 4.1-2.7 4.7-2.5.3-2.7-3.6-2.4-5.3.4-1.7 1.7-4.7 2.6-7 1.2 2.3 2.3 4.8 2.5 7.4a87 87 0 0 0-1.7-10l-.5-1.9c-1.6 2.2-3.4 4.5-4.5 7v.2c-6.7-3-13.6-5.4-20.6-7.5-52.9-15.1-108.4-7.3-162.3-4.7l-1-4.9-.5-1.8c-1.5 2-3 4-4.2 6.3-3.4-1.2-7-1.3-10.6-1.2 2.1-2.8 3-6.4 1.2-9.9-1.6-2.9-5-3.7-6.8-6.3-4-4.6-2-10.2 4.3-10.4 3-.1 5.4 1.6 7.2 3.8a9 9 0 0 0-8.5.9c5.2 0 9.3 2.5 13.4 5.5 1.3 1 2.7 2 4.4 3a16.9 16.9 0 0 0-8.5-9c-1.5-3.2-4.4-5.9-8-6.2zm-114.7 28.4c2.1 1.9 5 2.5 7.7 3-3.2 16.4-7 33.4-11.2 49.8-.3-2.8-.3-5.8-.3-8.7-.2-11.5-.4-23 2-34.3.5-3.2 1.3-6.5 1.8-9.8zm158.3 4.8-.4.6.5-.1zm-72.2 15-.2 1h-.3l.5-1z" class="cls-1"></path>
  <path id="path92" d="m620.5 186.3-6.7.8a25 25 0 0 1-12.7-2 20 20 0 0 0 12.8 4.3c2.3 0 4.6-.3 6.7-.2 5 0 14 2 16 7 1.3 4-3.2 7.3-6.4 9.3 6.2-1.5 12.1-7.3 6.8-13.4a22.3 22.3 0 0 0-16.5-5.7z" class="cls-1"></path>
  <path id="path94" d="M621.7 195a16.5 16.5 0 0 0-11.2-2.6c-1 .2-4 0-3.8 1.7.1-.8 1-.7 1.6-.6l2.1.4c3.5.7 7.7 1.4 10 4a168 168 0 0 1-14 7.5c5.6-.4 11.2-2.2 16-5.4 1.6-1.4 1-3.8-.7-5z" class="cls-1"></path>
  <path id="path96" d="M595.9 195.9c-.7-.7-1.1-1.8-.5-2.8-1.7.2-2.2 2.6-1.5 4 1.8 3.4 8 4.2 11.3 3.8a18 18 0 0 0-6.7-3.8c-1.1-.4-2-.7-2.6-1.2z" class="cls-1"></path>
  <path id="path98" d="M600 100c-2.5 1.4-3.8 4.5-5.4 6.3-3 3-10.3 3.3-13-.5 1 4.6 7 5.9 11 5 1-.3 2.2-.8 3.1-1.5-.1 2.5 1 5.2 3.5 6 2.7.8 5-2.1 5.2-4.2.8-3.4-.8-6.8-2.5-9.6 1.7-1.4 3.9-2.3 6.4-2.6-2.7-1-5.9-.5-8.4 1.1zm.4 12.3c-.2.2-.3.2-.5.2-1.4-.5-2-2.9-2-4.4V107c1.1-1.8 1.8-3.5 3.4-5h.1c.4 3.6 1.7 7.8-1 10.4z" class="cls-1"></path>
  <path id="path100" d="M600.1 78.6c-1.6 0-3.3.5-4.6 1.4-1.7 1.1-2.7 2.5-4.3 3.6-1.4 1-3 2-4.9 2.6 3 .8 6.4-.2 8.7-2 2-1.8 4-3 6.7-3.2 1.7 0 3.4.3 5.2 1.1-1.3-2.4-4-3.6-6.8-3.5z" class="cls-1"></path>
  <path id="path102" d="M604 48.8c-1.7 2.3-3.4 4.5-4.5 7.1l-.6 1.3-.2 1-.2.6c-.4 2.5 0 5 1.9 6.8 3.6 3.2 6-1.6 5.8-4.9 0 1.9-.8 4.3-2.6 4.9-2.6.4-2.8-3.6-2.5-5.3.4-1.7 1.7-4.7 2.6-7 1.1 2.2 2.2 4.5 2.4 7-.3-3.2-1-6.5-1.6-9.6z" class="cls-1"></path>
  <path id="path106" d="M544.9 84c1-1 1-2.7.4-3.8-1.8-3.8-8.4-3.5-9.5.6 2.7-.8 5.3-.8 7.6.8.6.5 1.3 1 1.5 2.3z" class="cls-1"></path>
  <path id="path108" d="M541.5 72.5c-5.9.2-11.1 5.3-12 10.9 0-.6-.2-1.1-.3-1.6l-.1.8.5 2v-1.1c2.5-5 7.3-8.8 12.8-8.1 4.8.5 9.6 5.5 7.8 10.5-1 2.8-6 4-8.8 1.2.8 1.7 2.7 2.8 4.7 3-.3 2.6.2 5.4 1.4 8 2.6 6.7 11.4 5.8 16.6 3a13 13 0 0 0 6.2-6.3 19 19 0 0 1-7.1 4.1c-3.5 1-7.8 2.1-11.2.5-3-2-4.4-5.8-5.6-9.3 2.3 0 4.7-.9 6-3.2 1-2 1-4.5.4-6.7a11.8 11.8 0 0 0-11.3-7.7zm-12.7 19.2c0 2.5.7 5 1.7 7.2 3.3 7.5 8.5 11.4 15.3 11.8l1.8-.4 5-.4 2-.6c.3 0 .6 0 .8-.2l2.3-.3a53 53 0 0 0 12.4-4.8c4.5-2.3 8.9-5 14-5.7.5 0 1-.2 1.5.2 0 0 .1.2 0 .4.2-.1.2-.4 0-.5-.4-.5-1-.5-1.6-.5-5.2-.2-10.3 2-15 4a76.6 76.6 0 0 1-16.4 5c-9.4 2.7-15.9-.3-20.9-8.6-1.1-2-2-4.1-2.6-6.4l-.3-.2z" class="cls-1"></path>
  <path id="path110" d="M488.4 73.8c.6 0 1.4.3 1.5 1 0-.7-.7-1.4-1.5-1.4-.9-.2-1.7.4-2.2 1-2.7 3.4-3.2 10.4.5 13.3 3 2 5.7-1.2 6.6-3.7 1.6-3.7 1.4-8-.1-11.8-1.3-2.5-3.4-6.2-6.7-5.9-3.8 1-6.3 4.8-7.1 8.3a12 12 0 0 0 7.6 14c.4 0 .8 0 1-.3-.6.3-1.3-.1-1.8-.5-6.3-4.5-7-14.5 0-18.4 1-.5 1.4 0 2.2.8 3 3.4 4 8.5 2.3 12.7-.3 1-1 2.3-1.8 2.8-2.4 1-3.4-5.3-3.1-7 .2-1.7.5-4.5 2.6-4.9z" class="cls-1"></path>
  <path id="path114" d="M542.5 37.2c-6.5 5.1-2.2 15.9-7.7 21.4-2.9 2.5-7 2-10.6 3-10 2.3-12.2 14.7-21.3 18.3 8.7-1.2 12.2-11 19.4-14.6 2-1 4-1.2 6.4-1.5 4.5-.4 9-2.3 10.4-7 2.5-6.5-1-13.9 3.4-19.6z" class="cls-1"></path>
  <path id="path116" d="M533.2 45.4c2.1 3.9 0 8.8-3.3 10-1.7.7-3.7.6-6 .7-2.3 0-4.9.7-6.9 2-8 5.1-9 15-16.6 20.3 9.4-3.2 11.6-15.7 20.8-19 3.1-1 6.7-.2 9.7-1.8 4.7-2.4 5.6-9 2.3-12.2z" class="cls-1"></path>
  <path id="path118" d="M479.2 59.8c1.2.3 1.7.7 2.6.9 1 .2 1.5 0 2.7.1 1-3.3-5-4.4-5.3-1z" class="cls-1"></path>
  <path id="path120" d="M488.7 49c-2-1.2-5-.8-6 1.4 3.5 0 5.9 1.5 7.8 4.5-2-.9-4.4-.9-5.7.8 3.1.4 5 2.2 7 4.3.8.7 1.5 1.5 2.5 2.2.3-2.5-.7-4.8-2.5-6.4l-1.3-.8c1.4-2 .2-4.9-1.8-6z" class="cls-1"></path>
  <path id="path122" d="M492.4 53.7c4 .4 5.3 4.2 6.6 7.4 0 .4.3.7.3 1.1 0 .1 0 .2-.2.3h.6c.3-.2.5-.6.6-1 .6-2 .5-4.2-.7-6.2-1.2-2.4-5.2-4-7.2-1.6z" class="cls-1"></path>
  <path id="path124" d="M491.1 45.5c3 1.8 4.9 3.6 7 6.4 2.5-3.9-3.3-9.3-7-6.4z" class="cls-1"></path>
  <path id="path126" d="M501.8 47.9c1 3 2 5 4 7.6 2.4-2.9-.3-8-4-7.6z" class="cls-1"></path>
  <path id="path128" d="M511.2 62.2c.8-2.4 0-5.4-2.5-6.5a14 14 0 0 0 .9 8.6c.8-.6 1.3-1.3 1.6-2z" class="cls-1"></path>
  <path id="path130" d="M502.5 60.3c.1 3 .5 5 1.7 7.6 3-1.7 1.9-7.3-1.7-7.6z" class="cls-1"></path>
  <path id="path132" d="M498.7 66c-.6 2.7-.1 5 1.7 7 2.3-2 1.3-6.2-1.7-7z" class="cls-1"></path>
  <path id="path134" d="M509.8 52c1.6 1.8 2.8 4 3.5 6.6a11 11 0 0 0-1.6-8 25.7 25.7 0 0 0-5.3-6.1c-2-1.8-4-3.2-5-5.2-1.2-2-1-5-1.6-7.3-3.7 11.4 3.8 12.8 10 20z" class="cls-1"></path>
  <path id="path136" d="M542.4-5.5a73 73 0 0 0-7.1 6.5c-7.8 7-13 17.9-2.6 24.6-2.8 2.7-5.7 5.4-9.5 4.2-1.5-.6-3.2-2.6-4.3-4.1a27.8 27.8 0 0 1-2.7-27.1 25.8 25.8 0 0 0 .4 28.8c1.5 2 3 4.1 5.4 5.2 7.2 2.6 11.6-4.9 16.4-8.6 4.4-3.7 11-5.5 16-1.6-4.3-5.2-12.5-4-17.4-.3-1.4.8-2.7 2-4 3.2-7-8.7-2.2-14.9 4-22.8 2-2.5 3.8-5.2 5.4-8z" class="cls-1"></path>
  <path id="path138" d="M487.3 1c4.5 7.8 8.6 16.6 6.1 25.7-1 3.5-3.1 6.7-4.4 10.3-.6 1.7-1 3.6-.8 5.4l-4.5 2.1c-3.2 1.2-6.7 3-8.4 6.1-2.4 3.8-4.6 7.7-6.8 11.6a80.3 80.3 0 0 0-3.4 6.6c-3.4 1-5.8 4.9-6 8.5 0 2.5.7 5 2 7.2-2.6-1-3.1-4.2-4.5-6.5a16 16 0 0 0-6.9-6.4c-5.8-3.2-13.8-1-17.4 4.8-1.8 2.7-1.9 6.4-1.7 9.4.1 6.9-4.6 13-11 15.4l-2.3.5h.8c-1.2.4-2.4.6-3.6.6 2.2.4 4.3.2 6.4-.4 3 0 6-.4 8.8-2 5.5-3 7.6-9.6 12-13.8 4-4.1 9.9-6.8 15.6-4.3-5-4.5-13.1-2-17.5 2.3-1.6 1.4-3 3-4.2 4.7-2.5 3.4-4.1 7.2-7.2 9.2-.6.5-1.3.8-2 1.2 2.8-2.2 5.1-5.2 6.3-8.6 1.5-4.2-.3-9 2.2-12.7 4.8-7.7 15.5-6 20.4.9 1.6 2 3 5.5 6 5.9l1.5 1.8.2 2.3.2 1.5c-2-.2-3.7-1.5-5.3-2.7-5.4-4.7-12.2-2.5-16.5 2.3-2 2.2-3.6 4.5-5.2 6.6a32.5 32.5 0 0 1-28.3 11.4 28 28 0 0 0 31.4-9c2.6-3.2 4.4-6.6 7.6-9a8.5 8.5 0 0 1 6.5-2c3 .7 6.6 3.6 10 3 .2 1.6.6 3.3 1.5 5a7.3 7.3 0 0 0 7.1 3.8c2.1 0 3.8.5 5.8 1.3 8.7 4.4 14.6.5 18.1-6.4a40 40 0 0 0 3.3-2l1-.4 1-.3c6.9-1.9 12.8-.7 16.2 7.1 3.7 8.5 12.9 15 22.2 14.1a29.3 29.3 0 0 1-15.5-10.5c-2.7-3.6-3.8-8.1-7.4-11.4a12 12 0 0 0-10-2.8c1-.5 2.2-1 3.2-1.8a14 14 0 0 0 4.5-8.8c2.8-2.3 5.6-4.8 8.6-6.5l2-1c5.3-2.4 10.9-2.3 16.2-5.5 6.6-3.7 7.6-12.1 6.5-18.8-.5-3.2-1.1-6.4-1.3-9.6-.7 3.2-.6 6.5-.7 9.7 0 12-3.4 15.9-15.1 18.2-2.4.7-5 1.3-7.3 2.5l-1.1.6-1.1.7c-8.4 5.2-13 14.8-22.8 18 5.8-.4 10.3-3.6 14.6-7.1-1.4 2-2.7 4-4.7 5.3-1.8 1.2-4 1.7-6 3a19 19 0 0 0-5.2 5 36 36 0 0 0 1.3-3.7c-4.2 8-9.6 15.4-19.2 9.6-2-1-4.6-2-7-2-2.5.2-3.7-1.3-4.4-3.3 2 1.5 5 .8 7.2.9 2.3 0 4.5.4 7 0l-1.2-1h.4l-2.7-3c-.8-.8-1.8-2-3.4-2.6-3.7-1.6-6.5 1.6-6 5.2l-1.3.4-.3-1.4a48.8 48.8 0 0 1-.5-15.7c1.4-6.4 5-11.9 7.7-17.9l3-5.9c1.8-4.1 6.3-5.3 9.7-7.8 1.9-1.3 3.6-2.7 5.3-4.2l-4.2 2.4c2-5.4 6.7-9 8.6-14.5 3.6-9.9-1.6-21-9.7-26.9zm-23 69.9a28.4 28.4 0 0 0-1.8 10.7c-.7-3.8-.3-7.6 1.8-10.7zm8.4 18.8c1 0 1.8.5 2.7 1.1h-.6c-2 0-3.6.7-5.3 1.4 1-1.2 1.8-2.5 3.2-2.5z" class="cls-1"></path>
  <path id="path140" d="M492.7 23.3C493 10.7 481.1 1.5 470-1.5c9 6.9 18.9 13.5 22.8 24.8z" class="cls-1"></path>
  <path id="path142" d="M489.4 28.9a21.5 21.5 0 0 0-11-18.5c2.3 4.5 5.6 9.5 8 13.8l3 4.7z" class="cls-1"></path>
  <path id="path144" d="M486 36.4a18.3 18.3 0 0 0-6.1-18.6c1 4.5 3 9.5 4.4 13.9l1.7 4.7z" class="cls-1"></path>
  <path id="path146" d="M423.3 11.2c4.3 3.8 9 8 14.8 9.7 9.4 3 19.5 1 29 1 9 0 11.7 7 13.6 14.7-1-13-6.2-17.8-19.3-17.2-7.4.1-15.3.8-22.4-1.3-5.5-1.6-9.7-5.2-14.2-8.7L406.8-5c5.2 5.7 10.9 11 16.6 16z" class="cls-1"></path>
  <path id="path148" d="M478 38.2c.5-5.3-4-9.6-8.8-11.2a32 32 0 0 0-15 0c-10.7 2.2-17.6 2.1-25.1-6.6-4.3-4.7-8.3-10.5-14.2-13.3 5.2 4 8.3 9.6 12.4 14.8 11.5 14.9 22.1 7.7 36.8 6.6 6.1-.3 13 3 14 9.7z" class="cls-1"></path>
  <path id="path150" d="M474.6 42.7c-2.2-5.2-8.6-6.9-13.8-6.5-5.4.4-10.4 2.2-15.3 2.2-5 .3-9.2-2-12.5-5.8-3.2-4-6.7-7.9-9.4-12.3.7 2.6 2 4.9 3.3 7.2 2.8 4.5 5.5 9.3 10.5 12 7.5 4.2 16 .3 23.6-1 4.9-.7 10.4 0 13.6 4.2z" class="cls-1"></path>
  <path id="path152" d="M427.8 35c3.5 7 9.4 15 17.6 16.5 6.4 1 11.7-2 17.8-.7a10 10 0 0 1 5 2.6 8.5 8.5 0 0 0-4.6-4c-5.6-2.3-12.4 0-17.8-.9-3.5-.5-6.6-2.7-9.5-5.2-3-2.5-5.7-5.3-8.5-8.3z" class="cls-1"></path>
  <path id="path158" d="M387.6 2.8c-3 2.8-4.3 7.3-3.3 11-.4-3.3.9-6.8 3.1-9a13 13 0 0 1 1.6 5.6c.5 9.1 1.2 7 8.6 10.3l2.2 1c-1 1.2-2.6 1-4.3 1.5-1.3.3-2.9 1-3.8 2.2-1.8 2.3-1.7 4.8-2.3 7.3l-1.8 10A56.4 56.4 0 0 1 383 30c-.8-4.3-5-4.7-8.4-5.5-1-.3-2-.7-2.4-1.6a10 10 0 0 1 6.6-1.2c-2.5-.8-5.4-.5-7.8.7l.1.4c1.1 3.6 5.8 3.1 8.4 5 1.6 1 1.4 2.7 2 4.7 1 5.2 3 10.2 5.6 15L389 51l.7-3.9 2.6-13.8c.5-2.3.7-4.9 1.7-6 1.3-1.6 3.8-1.3 5.8-2.2a4.7 4.7 0 0 0 2.7-2.5c.7-1.8-.8-3-2.2-3.5-2.3-1.3-5.8-2.2-8-3-.7-.5-.7-1.7-1-2.5l-.5-3.4a13 13 0 0 0-3.2-7.4z" class="cls-1"></path>
  <path id="path160" d="m397.8 11.2.1.4.4-.1-.5-.3z" class="cls-1"></path>
  <path id="path164" d="M368.8 40.3h-.8c-4.2.2-8.4 2.5-9.9 6.9-2.1 5.3-.5 11-1 16.5-.7 8.8-7 11.2-14.6 7.8 7.8 5.3 15.7 2 16.9-7.5.9-5.2-.5-10.8 1.4-15.8 1.8-4.6 7.4-6 11.8-4.2 5 1.8 7.7 6.8 10.8 11 2.7 3.8 8 6.2 12.6 4.3.6-.2 1.3-.7 1.5-1.4 0-.3-.1-.6-.4-.6.3.1.3.3.2.5-.6 1.4-2.8 1.3-4 1.3-5.9-.2-8.4-5.3-11.2-10a20.4 20.4 0 0 0-5.9-6.3A8 8 0 0 1 373 41a12 12 0 0 0-4.2-.8z" class="cls-1"></path>
  <path id="path166" d="M371.6 53.7h-.3a1 1 0 0 0-.3.2l.6-.2z" class="cls-1"></path>
  <path id="path168" d="M291.5-2.6c-3.7 0-7.5 1.7-10.1 4.4-5.7 6-5.8 15.2-2.8 22.4 4.4 11.6 19 18.1 29.5 10 3.2-2.5 5.5-5.6 7.7-8.6 4.3-6.1 8.8-12 14.7-16.2a26 26 0 0 1 20.2-5c7 1.4 13.3 7.7 13.4 15.2.3-3.8-1.2-7.6-3.5-10.5C352.9-.6 338.4 1 329 7.5a66.3 66.3 0 0 0-15.6 16.4c-2.2 3-4.4 5.9-7.1 8-5.5 4.3-13.6 3.6-19-.6-8-6.3-11.3-19.8-4.3-28 9.5-9.5 21.3-.7 19.9 11.4-.4 3.5-3.7 7-7.5 6 3.8 1.4 7.7-2.2 8.3-5.9 1-5.6-1-12.1-5.9-15.5a11 11 0 0 0-6.4-2z" class="cls-1"></path>
  <path id="path170" d="M304.4 38a135.6 135.6 0 0 0-1.2 33.7c.1-7.4.7-14.7 1.7-22l3.1 13.8 1.2 4.8c.3 1.3.5 3 1.5 4.2 1 1.2 2.5 1.7 3.7 2.2l2.4 1 2.1 1-.8.1c-7 .6-6.9 4.9-7.5 10.5l-1.7 15.3a9.8 9.8 0 0 1-1.7-2.6c-2-4.8-2.7-10.1-4.1-15.2l1.5 10.5c.5 3.6 1.4 7.5 4.5 10l1.2.9.3-1.6 2.6-17c.4-2.6.5-6 2-7 1.2-1 4-.7 5.7-1.5.9-.3 1.9-1.1 2.4-2.1l.6-1.4-1.4-.6-6.9-3c-1.2-.7-2.5-.7-3-2-2-8.4-4.5-18.3-6.8-26.6z" class="cls-1"></path>
  <path id="path172" d="m287.6 75.4 1.6 1.6a9.4 9.4 0 0 0 4.5 2.6c2 .4 2 .3.7-1.1l-1-1.2-.6-.6c2.1-.8 4-1.9 5.7-3.4-3.7-.5-7.5.7-10.9 2z" class="cls-1"></path>
  <path id="path174" d="M290 49c-.7 0-1.5 0-2 .5-1 1-.7 2-.5 3 1 4.5 2.5 8.9 4.8 12.8-.1-2.9-.5-5.7-1-8.5l3.7 7.1c0-5.3-2-10.6-5-15z" class="cls-1"></path>
  <path id="path178" d="M332.3 79.6a7 7 0 0 0-4 1.3c-3.8 2.2-4.2 9-9.5 8.1 1.9 2 5.2.8 6.9-1 1.7-1.7 2.8-3.7 4.3-4.7 3.3-2.3 8-.5 8.5 4a5 5 0 0 0 .1-3.6c-.9-2.8-3.6-4.2-6.3-4.1z" class="cls-1"></path>
  <path id="path186" d="M380.4 66.2c-1.5 0-3 0-4.3.4a24 24 0 0 0-18.7 24.6c.5 5.5 5.3 9.3 5.3 14.8 0 1.4-.6 4-2.5 3.5 2 .9 3.2-1.9 3.4-3.4.9-5.4-3.7-10.3-3.9-15.1a22.8 22.8 0 0 1 17-21.6C386.8 66.8 397.4 74 397 85c2-10.6-6.8-18.7-16.7-19z" class="cls-1"></path>
  <path id="path188" d="M280.2 36.6c1 .9 2 2 2.2 3.4.2-.7.2-1.5 0-2.3-2-5.2-7.7-8.4-13.2-8.5A14.5 14.5 0 0 0 255 39.3a17 17 0 0 1 25.2-2.7z" class="cls-1"></path>
  <path id="path190" d="M247 46.5c-6.2.5-11.8-2.7-15.3-7.4-3.6-4.9-5-11-6.1-17a24.3 24.3 0 0 0 3.7 18.8c3.8 5.3 11.6 8.7 17.7 5.7z" class="cls-1"></path>
  <path id="path192" d="M201.3 21.5A16 16 0 0 1 196 9.2c.2-4.7 2.7-9 4.4-13.4-3.8 3.5-7 7.9-7.4 13.3-.4 5.3 3 11 8.2 12.4z" class="cls-1"></path>
  <path id="path194" d="M171.1 178.2c-5.8 8-10.6 16.6-14.3 25.8 7.2-7 12.3-16 14.3-25.8z" class="cls-1"></path>
  <path id="path196" d="M178.4 158.7c-2.6 16-2.5 34.2 6.4 48.5a132 132 0 0 1-4.8-27c-.6-7-.8-14.5-1.6-21.5z" class="cls-1"></path>
  <path id="path198" d="M191.3 158.2c-3.2 8.8-3 18.9.3 27.6.8-9.2.7-18.4-.3-27.6z" class="cls-1"></path>
  <path id="path200" d="M194 209.8a23.6 23.6 0 0 0-1.2-16.8 23.7 23.7 0 0 0 1.1 16.8z" class="cls-1"></path>
  <path id="path202" d="M202.6 174.4c2-3.8 2-8.5 0-12.3-2 3.8-2 8.5 0 12.4z" class="cls-1"></path>
  <path id="path204" d="M224.5 133.9c1.9.5 4.6-.3 4.8-2.5-3.2.4-5.3-1.3-8.5-1.2a5.3 5.3 0 0 0 3.7 3.7z" class="cls-1"></path>
  <path id="path206" d="m205.8 96.3-.6 2.6a1 1 0 1 0 2 .4l.6-2.6a1 1 0 1 0-2-.4z" class="cls-1"></path>
  <path id="path208" d="M205.1 54c-.6 0-1.2.3-1.9.8a203 203 0 0 0-12.3 10.3c-5.8-1.6-11.8-3.4-17.8-2l1 .3-2 1.5c3.2 4.7 7.4 8.8 12.1 11.8l.8.6a228 228 0 0 0 12.6-8.7c1.2-1 2.5-1.8 4-2.4-3.2.4-6 2.3-9 3.6a230 230 0 0 0-7.5 4.2 58.1 58.1 0 0 1-9.2-8.8c5.2-1 10.7.2 16 .2l-1-.3c5-2.6 9.6-5.6 14.3-8.5l.1.2.6.6a62 62 0 0 1 5.4 7c1.5 2 2.4 4 4 6 1.7 2 4.5 2.6 6.7 3.7a33 33 0 0 1 8.3 7.2h-.1a76.3 76.3 0 0 0-28.7-1.7c1.1-3.9.4-8.2-2-11.5a16 16 0 0 0 .8 11.6c-8 1-15.8 3.1-22.3 6a37 37 0 0 0-10.6 7l.3-.2a42 42 0 0 1 10.7-5.8 112.6 112.6 0 0 1 38.3-4.8c17.2.7 31.5 10.5 44.6 20.9l-1 .3c-6.8-1.6-12.5-6.7-19.3-8.9-23.3-8.7-48.7-4.9-72.6-1.5l-.7-.2.3.2-.7.1h-.3.2v.2-.2h1a26.5 26.5 0 0 0 16.1 5.8c5.7.3 11.2-2.2 16.6.3-.2 1.3 0 2.7.4 3.9.1.4.4.7.8 1a24.4 24.4 0 0 1-5.1 3.6l-2.5 1.5a36.6 36.6 0 0 0-11 11.3l-1.7 2 .2.8-.8 1.6-.4 1a90.5 90.5 0 0 0-6.4 16.8l-1 3.1a232.8 232.8 0 0 1-27 57.2 2 2 0 0 0 .5 2.7 2 2 0 0 0 2.8-.6c11.8-18 21-37.5 27.5-58l1-3.2c1.4-4.8 3-9.6 5.1-14.1.8 3.5 1.6 7 2.6 10.5-1 0-2.1.1-3.1.4a61 61 0 0 1 12.1 7.8c-1 .1-1.9.3-2.8.7a86.5 86.5 0 0 1 19.5 6.8c.2.1.6.4.4.7l.2-.3c.1-.4-.2-.8-.4-1.2-3.7-4.8-10-7.5-16-6.9a11 11 0 0 0-9.7-8 163.6 163.6 0 0 0-1.2-14l.5-1c1.7 2 3.7 3.7 5.7 5.2a86 86 0 0 0 19.6 9.9c2.3.9 5.5 2 8 3.1a50 50 0 0 0 0 6.8c-1.8 1.3-3.3 3-4.4 5-.7 1.3-1.2 2.5-2.3 3.6l.3-.1c2.6-.8 4.2-3.6 6.4-5a23 23 0 0 1 6.2-3.2v.3c-.2 2-2.7 3.4-2.8 5.6h-.2.2c1.8.6 3.7 1 5.6 1.5l3-.6h.2a1.5 1.5 0 0 0 1.6-.7c1.5-.6 3-1.4 4.2-2.4l2.5-2a21 21 0 0 1-2.3 4.6c-1.3 2.1-3.9 2.6-6 4h.1l-.1.1-.3.2v.3c1.8-.6 3.7-.7 5.4-1.4a40.3 40.3 0 0 1-5.5 4.9c1.2.4 2.4.4 3.6 0a8 8 0 0 0 2.2.6c-.8 2-3.8 2.6-6.8 2.8h-.7c-1.5.1-3 .1-4 .3-4.4.4-8.9.2-13.3-.6l.7-9.2a74 74 0 0 0-1.9 46c.1-8.7 0-17.3.5-26V177c2 1.1 3.6 2.4 5.2 3.7l-.2 1.2 1.5.2a36.5 36.5 0 0 0 10-.3l1-.2.2-1 .5-2.4c2-1.2 4-2.5 6-4a29.3 29.3 0 0 0 1 15.8v1.4a31.5 31.5 0 0 0-1.3 18.2 107 107 0 0 1 2.8-13.1c.5-2.4 2.1-4.8 1.3-7.3a70 70 0 0 1-3.7-15c3.7-2.6 7.4-5.5 11.2-7.8a599.6 599.6 0 0 1 19.5-45.5l-4 2.2a10 10 0 0 0-4.2-.3c-4.9.6-9.2 3.3-13.4 5.7-5 3-11 6.9-12.5 13l-3.4.2a25.7 25.7 0 0 0-17.8-12.1l-5.7-1.4c.3-1.4.3-2.7 0-3.9a5 5 0 0 0 2.7.7c-2.7-1.8-3.7-4.5-5.1-7.2a15 15 0 0 0 3.3-12l.5-.5a2 2 0 0 0-2.7-2.9c0-1 .2-2.2.5-3.3.4-2 .9-4 1-6.2l6.3 3.7a18 18 0 0 0 2 16.8c2 2.2 6.8.1 8.7-1.3a26 26 0 0 1-6.2-.1c-.4-.1-.3 0-.5-.3-2.4-4.5-2.6-9.7-3.4-14.8l3.6 2.2a10 10 0 0 0-.3 2.5c0 4 2.1 7.2 4.9 7.2.6 0 1.3-.2 1.9-.6a8 8 0 0 0 .7 5.2 4 4 0 0 0 7.2-.4c.5-1.1.7-2.6.6-4l4.1 7.2-9 2.2c-2.6.6-5 1.2-7.7.6-.8-.2-1.9-.3-2.2-1.2-.2 1 1 1.8 1.8 2.2 1.4.8 3 1.2 4.5 1.3.1.4.3.7.6 1 2.1 2.1 5.4 1 6-1.6l5.1-1.2a49 49 0 0 0-1.5 7.8c-.3 3.1-.3 6.2.6 9.3a20 20 0 0 0 1.6-4.5c.9-4.2 1.6-8.7 0-12.8 1.5-.5 3-1 4.3-1.7-2.3-3.3-5-6.6-8.2-9v-.2c.7-.2 1.4-.7 2.2-1.7.8-1.1 1.4-2.6 1.7-4.3.8-3.5.2-7.3-2.3-7.8-2.3-.5-4.5 2-5.4 6.1l-.1.9-.5-.2.4.5v1.3c-.1.8.4 1.4 1.1 1.5l.2 1.5c-.4.5-.3 1.1 0 1.6 0 1.3-.1 2.9-.6 3.9-.7 1.2-1.6 1.2-2.6.3-1-1-1.5-2.7-2-4.2a8.2 8.2 0 0 0 2.4-6.2c0-4-2.2-7.1-5-7.1-1.5 0-2.9 1-3.8 2.7l-9-5.3c11.2.1 22.3 1.2 33 4.6 6 1.7 11.3 5.1 17.3 6.7l1.7.4a60.2 60.2 0 0 1-23.5 2.4 54 54 0 0 0 26.7-1.3c1-.3 1.6-1.2 2.4-1.7l-1-.8a96 96 0 0 0-32.5-20.5c-2-3.7-4.6-7-8.1-9.5-1.8-1.4-4.3-1.7-5.6-3.5-3-4.5-5.8-9.2-9.7-13-.9-1-1.8-1.7-2.8-1.6zm7.1 104.6zm-45-65.8h.2-.1zm37-1c0 .2 0 .4.2.6-1.7 1.5-3 4-3.5 6.4-.9-1-2.1-1.9-3.5-2.4-4.2-1.6-8.7-.6-13-.8a56.8 56.8 0 0 1-15.5-2.8c11.7 0 23.5-1 35.3-1zm15.8 5.6c.8 0 2 1.6 2 4.1l-.2 1c-.2-.5-.6-.8-1.1-.8-.9 0-1.5 1-1.5 2.3 0 .5 0 1 .3 1.4-.7-.5-1.3-2-1.3-3.9 0-2.5 1-4.1 1.8-4.1zm11.4.1c.3.5.6 2 0 4.2v.2c-.2-.3-.5-.5-1-.5-.3 0-.6.2-1 .6l.2-.7c.5-2.2 1.3-3.4 1.8-3.8zm-27 9.7c-1 3-2.2 5.7-4 8.1-.5.6-1.2 1.6-1 2.5.1.6.4 1 .5 1.2l2 2.9c-.8 2.3.4 5.3 2.9 6.1-5-1.1-10-2-15-2.6l-3-3a32.5 32.5 0 0 1 12.2-11.6 34 34 0 0 0 5.3-3.6zm56.6 16.2c-9.1 5-18 10.7-25.7 17.7v-.2l-1.9.2-1.1.2c3.3-4.9 8.5-7.3 13.5-10.3 5-2.8 9.4-6.8 15.2-7.6zm-70.6 2.5c4.7 2 9.5 3.6 14.3 5 4.6 4.2 9.5 7.7 14.8 10.8h-.7l-.1 1c-2.3-1.7-4.9-3-7.3-4.3-5.5-3-13.7-6.9-18.6-10.6l-2.4-1.9zm69.3 1.2a268.9 268.9 0 0 0-15.2 37.8c-5.5 3.8-10.2 8.4-15.4 12.5l1.4-6.6 2-.3c3.1-.7 6.3-3 5.3-6.8-.8.2-1.5.4-2.3.4 2.4-1.3 4.2-4.1 3.8-6.9.8-.9 1.4-1.8 1.9-2.8 1.1-1.8 1.8-4.3-.4-6-3.1 0-5 2.8-7.3 4.4l-.3.2 1.8-10.1.2-1.1a177.7 177.7 0 0 1 24.5-14.7zm-48 5.7a35.5 35.5 0 0 1 16.4 8.8c-2.4.2-5 .3-7.4.2a35 35 0 0 0-9-9zm20 11.5a201 201 0 0 1-2 10.7l-2.2 1c-1.8 0-3.6 0-5.3.2 1.4-2 4.2-2.4 5-5 .5-1.2.2-3-1.1-3.8l-.4-.2h-.6a16 16 0 0 0-3.5 1.2v-3.6c3.5 0 7.1-.2 10.1-.5zm-20.3 24a20 20 0 0 0 5.2 2.1 93 93 0 0 1-.5 7.8 41 41 0 0 0-5.1-3.5l.4-6.5zm8.2 2.8c2.6.4 5.2.4 7.8.1l-1.7 7.7a34 34 0 0 1-6.7.2l.6-8z" class="cls-1"></path>
  <path id="path210" d="M224.3 189.8c0 3.8 2.7 6.2 3.4 9.7 3.5-4.2-1.7-8.8-1.9-13.2-1 .7-1.5 2.2-1.5 3.5z" class="cls-1"></path>
  <path id="path212" d="M216.3 190.2c1.6-1.5 1.7-2.2.2-3.9a2 2 0 0 0-.2 3.9z" class="cls-1"></path>
  <path id="path214" d="M333.3 101a51.8 51.8 0 0 0-2 0c-7.5 0-14.6 3.8-21.6 6-2.7.9-5.4 1.6-8.1 2.2-.8-1.3-1.8-2.6-3-3.7-4.2-3.4-10.3-2.3-15-1 3 1.2 6.5 1.5 9.6 1.8 2.6.3 5 1.8 7.4 3-4 .9-8.2 1.4-12.4 1.8-1.8-.9-3.4-.5-4.5 1-.4 0-.8-.3-1.2-.5.2 2.9 3.7 4.3 6.1 4.2 2.5.1 4.8 0 7.2-1.1-1.2-.7-2.4-1.1-3.5-1.4-1.7-.4-3.2-.4-4.8-.5.4-.4.7-1 .7-1.7a42.2 42.2 0 0 0 22.4-1.2c7.3-2.4 13.4-6.4 20.6-8.8 4.8 3 10.6 3.8 16.1 3.9a10 10 0 0 0 4.2-.7c-1 .9-1.4 2.2-.8 3.8 2.5.1 3.8-2.7 2.2-4.5-1.8-.2-3.5-.4-5.3-1a62 62 0 0 0-14.3-1.6z" class="cls-1"></path>
  <path id="path216" d="M40.2 151.8c-.8-.1-1.5.5-1.6 1.3-.6 4.3-1.5 8.5-2.8 12.6a1.5 1.5 0 0 0 1.4 2c.6 0 1.2-.4 1.4-1 1.4-4.3 2.4-8.8 3-13.2 0-.9-.6-1.6-1.4-1.7z" class="cls-1"></path>
  <path id="path218" d="M44.4 157.5c-.8-.2-1.6.3-1.8 1.2-.4 2.4-1 4.8-1.6 7.1a1.5 1.5 0 0 0 2.9.8l1.7-7.3c.1-.9-.4-1.7-1.2-1.8z" class="cls-1"></path>
  <path id="path220" d="M65.6 149.8c-1.1 0-2 1-2.6 1.7-1.3 1-3.2.9-4.8 1-.9.1-1.6.3-2.4 0 .4.8 1.4 1.2 2.1 1.5 2.5 1.1 6 1.2 8-1v-.2c1 1 2.3 3.6 3 5.7 1.2-2.6.5-8.5-3.3-8.7z" class="cls-1"></path>
  <path id="path222" d="M61.8 175.8a6 6 0 0 1-4.1-.4c.3 2.8 4.1 4 6.4 2.8l1-.5c1.2-.3 2 .8 3.3 1.6.3-2-1-4.6-3.5-4.4-1.3 0-2.1.7-3.1 1z" class="cls-1"></path>
  <path id="path226" d="m46.4 85.5-.7.4c-.3.2-3 2-3.3 4.7-.3 2.3 0 5.1 0 5.3v.8l7.3 4c-2.2 14-4.9 28.2-8 42h-.2a8 8 0 0 0-4.4.6c-3.3 1.4-4.8 4.8-5.8 8a115.5 115.5 0 0 0-3.5 13.5c-2-.4-3.6-1.5-5.2-3s-2.9-3.4-4.5-5.2c.8 4.1 3 8.6 7.1 10.5.7.3 1.7.5 2.6.7a1.5 1.5 0 0 0 1.6.6c.2 0 .3 0 .4.2 2.2 2 2.7 5.7 4 8.7.2-1.6.3-3.1.1-4.7 1.4.7 2.9 1 4.3 1.3 1.6.3 3 .6 4.3 1.9.2-.6.2-1.2 0-1.7a3 3 0 0 1 1.4-.1c2.2.4 3.3 2.5 4.8 4.3 1.5 2 2.8 4.2 4.3 6.3-2.4.4-4.7 3.2-7.3 3 2.3 1.4 5.2-.5 7.5-.7.8.2 1 1 1.4 2 1.4 3.9 2.9 6.8 7.7 6.5.5 0 .9.2 1.3.4 1.9 1.3 3.6 3.6 5.2 5.4-.7-2.8-1.7-5.2-3.8-7.3-1-1-3-1.2-4.2-1.4-1-.1-1.5-.6-2-1.5-1-1.5-1.5-3.7-3-5.3-.5-.5-1-.8-1.5-1-.2-2.2-1-4.4-2-6.4 1-6 2-11.7 3-19.3.4-2.4 1-6.2-.8-9.2-1.2-2-3-3.3-5-4.3 4.6-12.9 7.5-26.3 8.7-39.9l4 2.3a1.5 1.5 0 0 0 1.2 0h.2c2.6 0 4.6-3.1 4.6-7.4 0-4-1.7-7-4-7.5zm.3 3.4 13.8 5.9a10 10 0 0 0-1.6 5.7l.2 2.2-7-4-6.8-3.9V91c.1-.8.8-1.6 1.4-2.1zm16.9 7c.4 0 1.6 1.6 1.6 4.6 0 3-1.2 4.5-1.6 4.5-.5 0-1.7-1.5-1.7-4.5s1.2-4.5 1.7-4.5zm-11.2 6.4 3 1.7c-1.2 13.7-4 27.3-8.6 40.3h-.1l-2.2-.9c3.2-13.5 5.8-27.3 8-41zm-12.1 43.3.8.1c1.6.2 3.2.8 4.7 1.4l.2.1c2.6 1.1 4.8 2.2 5.9 4.1 1.1 2 .9 4.6.5 7.3-.9 6.4-1.7 11.4-2.6 16.5a13 13 0 0 0-3-2.3 4 4 0 0 0-4.5.6 5 5 0 0 0-3.6-2.4 8.2 8.2 0 0 0-4.9.6l-.2-1.5a6.3 6.3 0 0 0-2.9-4.3c.9-4.5 2-9 3.4-13.5.9-2.6 2-5.3 4.2-6.3.6-.3 1.2-.4 2-.4z" class="cls-1"></path>
  <path id="path228" d="M37.9 182.7c-1.2.2-2.3 1-3.3 1.3l-2.6.6c1.7 2.4 4.6 2.1 6.9.7 1-.5 1.9-1 3-.6.2-1.9-2.5-2.5-4-2z" class="cls-1"></path>
  <path id="path230" d="M23 169.4c-1.2-.7-2.9-.6-4.1-.5-2.5 0-4.1-2-5.4-4.3a6 6 0 0 0 3.7 7c1.2.5 2.7.2 3.8.2.9 0 1.7.5 2.4 1.1 1 .9 1.7 2.3 2.4 3.8.9-2.5-.1-6-2.8-7.3z" class="cls-1"></path>
  <path id="path232" d="M9 102.2c-2.2 0-4.5.8-6.7 2.6L0 102.4c1.8 6.4 6.2 13.1 13.2 14.5 2.3.4 4.4.6 6.4 1.4.1.6.3 1.2-.2 1.2 0 0 0 .1.2 0 .6 0 .6-1 .8-1.4 1.8-8.4-4.2-16-11.4-15.9zm-1.8 2.2 1.6.1c6.1 1 9.5 7 10.6 12.7l-.2-.1c-1.5-1.3-3.6-2-5.3-2.7-4.9-1.7-8-5.6-11.3-9.3 1.5-.3 3-.7 4.6-.7z" class="cls-1"></path>
  <path id="path234" d="M9.8 107.1c.1 2.2.2 2.3 2.4 2 1.5-1.8-.8-3.7-2.4-2z" class="cls-1"></path>
  <path id="path236" d="M15 111.7c-.8 0-1.1 0-1.5.2l1.5.1 1.5-.1c-.4-.2-.7-.1-1.5-.2z" class="cls-1"></path>
  <path id="path238" d="M27.9 126.8a6 6 0 0 0-1.2.2h-.2l-.7.1v.2a24.6 24.6 0 0 0-5.8 2.9c2.5.2 5.1-.3 7.5-.5 2 0 2.7 2 3.7 4 .7 1.4 1.1 3 1.5 4.7 1.9-3.6.8-10-3.6-11.4l-1.2-.2zm-8 3.4z" class="cls-1"></path>
  <path id="path242" d="M27 93.7c-.7-1-.8-1.5-.5-2.8.2-.7.2-1.9 0-2.7-1.2-2.9-4.3-5.9-7.6-5.3-2.2.4-3.5 2.3-5.7 2.6 2 .7 4-.7 6-.7 2 .2 3.8 2.5 4.4 4.2v1.3c-1.1 3.4 1.8 6.4 4.3 8 2 1.3 4.1 3.4 2.5 5.9 1.4-.7 1.8-2.6 1.5-4-.7-2.9-3.7-4.4-5-6.5z" class="cls-1"></path>
  <path id="path244" d="m71 65-1.9.4c-2.4 1-3.9 2.5-6.1 3.5a31 31 0 0 1-6.5 2.3A22 22 0 0 0 67 68.9c2-1 6-2.7 6 .8-.3 3-1.6 7.3 1.6 9.4 1.6 1.1 3.8 1.4 5.5 1.7 2 .4 4 1.3 5.5 2.6.7.7 1.3 1.5 1.5 2.4.3.7.2 1.7.5 2.6.4 1 1.5 1.6 2.3 2 1.4.9 3 1.8 4.5 2.5-1.5-1.5-3.5-3-5-4.5-.3-.4-.3-.6-.3-1.1.6-6.6-6.5-9-11.6-10-3.6-1.2-1.5-4.7-1.7-7.6 0-3-2.2-4.7-4.8-4.6z" class="cls-1"></path>
  <path id="path248" d="M59.9 43.6c-.8 0-1.5.3-2.2.6-1.8.9-3.4 2-4.9 3.5-2.6-1-5.3-1.7-8.1-2.3a102 102 0 0 0 8.6 5c1.9-1.6 4-3 6.3-3.8h.2c1 1.2 1.5 3.3 1.7 4.8 0 1.3 1 2.8 2.3 3.2 1.4.4 2.3.2 3.5.7 1.9.7 3.6 2.3 4.4 4.5l.3 1v-1c0-3.2-2.5-6.4-5.7-7.2-.8-.2-1.4-.3-1.8-.7l-.1-.2a15 15 0 0 0-1.3-5.4c-.4-1-1.4-2.4-2.8-2.6a3 3 0 0 0-.4 0z" class="cls-1"></path>
  <path id="path252" d="M104.5 44.8c-2.7-.2-3 2.4-3.2 4.3-.2 1.7-2.5 3.4-4 2.8l-.4-.6c-1-1.9-2.8-3.2-4.5-4.3-1.5-1-4-1.7-5.2.3-.7 1.1-.7 2.1-.9 3-.1 1.6-1.6 3-3.5 3.3 2 .5 4.2-.8 5-3 .3-.8.5-1.8 1-2.2.5-.6 1.5.2 2.2.7.9.7 2.1 1.6 2.7 2.6.6.8 1 2 2 2.6 3.5 2 8-1 8.4-4.8.1-.8 0-1.7.2-2.2h.1c3 0 6.3.7 7.8 3.4.3.6.6 1.3.6 1.9 0 0-.1.1-.1 0-.1 0-.2-.1 0-.1-.2-.1-.2.2-.1.3.1.1.3 0 .4-.1.2-.3.1-.6.2-.8 0-4.5-4.8-6.9-8.7-7.1z" class="cls-1"></path>
  <path id="path254" d="M67.3 14.8c-.8 0-1.6 0-2.4.3-2 .5-3.6 1.3-5.5.3 1 2 4 2.1 5.8 2 2 0 3.3.3 5 1.2A23 23 0 0 1 74 21c0 1 .1 2.3.7 3.2a4 4 0 0 0 2.7 1.9 4.5 4.5 0 0 1-1.3-3.7c.3-1 .6-2-.1-2.9a12.3 12.3 0 0 0-8.8-4.7Z" class="cls-1"></path>
  <path id="path256" d="M83.9 16.3z" class="cls-1"></path>
  <path id="path260" d="M128.9 22.5c-1 0-2 .1-2.8.6-2 1-3.2 2-5.4 2.3-3.9.6-8-.7-11.8-1.7 4.5 2.8 10.1 5.3 15.5 3.3 1.1-.4 2-1 2.8-1.3 3.6-1.4 6 2.2 6.9 5.4.5 1.5 1 3.3 2.2 4.6.4.5 1 .9 1.4 1.2 2 1.3 4 1.7 4.7 3.2.8 1.7 1 4 1.5 5.9.3-6.3.7-7.5-4.8-11-1.5-1.2-1.8-2.9-2.3-4.7a11 11 0 0 0-3.4-6 7.3 7.3 0 0 0-4.5-1.8z" class="cls-1"></path>
  <path id="path262" d="M148.3-5a152 152 0 0 0 5.8 38 98.5 98.5 0 0 0-5.8-38z" class="cls-1"></path>
  <path id="path264" d="M161.9-6.8c.7 2.4 1.6 4.8 2.7 7-.3 3.6-.9 7.2-1.5 10.7a793.4 793.4 0 0 0-5.6 46.5 271.8 271.8 0 0 0 7.9-46.2c.3-2.7.4-5.6.3-8.5 2 4.1 4.6 8 7.6 11.4v2a19.5 19.5 0 0 0 10.3 18.3 45.1 45.1 0 0 0 9.3 18.7v-.3A37.6 37.6 0 0 0 204 34.3c3-1 5.9-2.7 8.1-5.2a18 18 0 0 0 2.6-4c-1 10.2 2 21.2 8.2 29.6l2.8 3a19 19 0 0 0 2.1 2l2.3 1.8c.5.4 1 .8 1.2 1.2 1.6 1.1 3.4 2 5.2 2.9 4.5 2 10.7 3 15 .2 9-2.3 17.5-6.8 24.5-12.9-.5 2.2-1.3 4.5-1.5 6.5v2.7a59.9 59.9 0 0 0-16.2 19.2c-1.8.6-3.5 1-5 1.6a53 53 0 0 0 34-9.9c-5 5.6-9.2 11.8-12.6 18.4 7-4.7 12.1-12 14.1-20.2l-1.3 1.5-6.3 1.9c-4-4-5.8-9.7-4.7-14.9.8-4 3.5-8.5 2.7-13-.6-5.8-6.9-8.5-11.9-6.8a23 23 0 0 0-13.1 12.9c-1.3 2.9-1.8 5.8-3 7.8-2.8 4.6-9 3-13.3 1.5-14.8-6.2-22.6-22.7-22.6-38.3 1-2.2 2-4.5 3.8-6.4.6-.6 1.3-1.1 2.2-1.5a8.8 8.8 0 0 0-4.7 2.9c-2.3 2.7-3.8 6.1-6.4 8.4a22 22 0 0 1-13.9 4.9c-3.4.1-7 .1-10-.9-6.1-2-9.6-8.9-10-15.1-.4-7 2.2-13.9 5-20.3a40.4 40.4 0 0 0-7.7 16.3 58.2 58.2 0 0 0-8.8-15.6c0-.3 0-.6-.2-1v.7l-2.7-3zm40.6 41.6a58.3 58.3 0 0 0-9.6 18 49 49 0 0 0-7.2-17.5 38.7 38.7 0 0 0 16.8-.4zm68.2 8a6 6 0 0 1 4.1 1.5c2 2 2 4.9 1.4 7.7-4.8 2-10.6 5-15 7l-6.4 3.1c1.5-2.8 2-5.5 3-7.8 1-2.4 2.5-4.6 4.3-6.6 2.2-2.4 5.4-4.7 8.6-4.8zm3.8 20c.5 4.8 3 9.2 6.6 11.8L270.5 78l-11.4 3c6.3-5 11.6-11.2 15.4-18.2z" class="cls-1"></path>
  <path id="path268" d="M287.6 98.9c4-2.3 7-5.7 8.9-10l-1.3.5c-6.9-1.1-14-.4-20.5 2 6.1 1.5 12.7 1 18.7-1.1-3 1.8-5.3 5-5.8 8.6z" class="cls-1"></path>
  <path id="path270" d="M155.5 74z" class="cls-1"></path>
  <path id="path272" d="M122.4 37.2c5.6 5.6 11.7 10.5 17.8 15.5a235 235 0 0 0 19 14c-5.1-6.1-11-11.4-17.1-16.4a125 125 0 0 0-19.7-13.1zm0 0c2.8 7.3 5 14.7 7.7 22A308 308 0 0 0 145.5 95a276 276 0 0 0-9.9-29.5c-4-9.4-7.5-19.6-13.2-28.2z" class="cls-1"></path>
  <path id="path274" d="m104.8 86.4 1.1 1.3h-.6l.9.3c5.6 6.4 13.2 14.4 18.7 20.4 6 6.4 14.3 15.6 20.4 21.7a156.3 156.3 0 0 0-38-41.8 215 215 0 0 0 38.2 6.6 98.7 98.7 0 0 0-39-7.2l-1.7-1.3z" class="cls-1"></path>
  <path id="path276" d="m141.9 115.9.3.4.1-.4h-.4z" class="cls-1"></path>
  <path id="path278" d="m138.4 111.6.3.2.2-.1h-.5zm1.5.3h.1-.1z" class="cls-1"></path>
  <path id="path280" d="M173.7 122z" class="cls-1"></path>
  <path id="path282" d="M104.2 109.5c6.5 5.8 14.4 9 21.6 13.7-4.9-7.2-13.2-10.9-20.2-15.6-2.1-1.3-5-3.7-7.5-4.2 2.3 1.8 3.8 4.1 6 6.1z" class="cls-1"></path>
  <path id="path284" d="M110.8 131a63 63 0 0 0 24.7 19.4c-1.4 2-2.1 4.2-2.1 6.6l-1 .4a5.1 5.1 0 0 0 5.4 3.6c.2-2-1.3-3.6-3-4a7.1 7.1 0 0 0 2.1-8.3c-.5.5-1 1-1.3 1.6-6-6-12.4-11.3-19.4-15.9 9.2 2 18.8 2.3 28 .5a70.4 70.4 0 0 0-28.6-.9l-4.8-3z" class="cls-1"></path>
  <path id="path286" d="M25.5 43.6c-1.2 0-2.4.2-3.7 1-4.7 2.3-11 7-15.9 2.4 4.6 5 11.5.7 16.4-1.5 4-2 6.6 1 6.6 5 0 5.2-1 8 4.7 10.4 3 1.8 5.2 5 5.8 8.6l.1 2.7c0 1 .2 2.3.9 3.5a6.1 6.1 0 0 0 2.8 2.3c1.8.9 3.7 1.2 5.3 2 2.5 1.6 3.6 4 6 6a18 18 0 0 0 5.4 3.3c5.4 2.3 11.4 2.3 15.6 6.2.3.2.6.6.8 1l.4.4.3.6c2 4.3 2 10.8 7.3 13 .8.5 1.4.9 1.9 1.5 1.6 2 1.8 5 2.5 7.6 1 3.9 2 7.6 3.4 11.4a5 5 0 0 0 2.3 2.9c1.2.6 2.3.6 3.3.6 4-.2 6 3.2 7.4 6.5 5 13.4 10.8 3.8 17 21.5-7.5 1-15 2.2-22.3 3.5-7.4 1.3-14.7 3.3-22.2 4.8l-1.7-1 1 1.1-1 .2H77a50.3 50.3 0 0 0 24.3 15.8c-7.2-6-14.8-11.1-23-15.7 7.4 0 14.7-1.4 22-2.3a311 311 0 0 0 37.5-8c-5.2.4-10.5 1-15.7 1.6a27 27 0 0 0-4.2-9.7c-1.6-2.5-4.5-3.9-7-5.4-2.3-1.7-3.1-4.4-4.2-7-1-2.9-2.7-6.1-5.7-7.4-1.8-.9-4-.4-5.6-1.1-.5-.3-.8-.9-1.1-1.7a102 102 0 0 1-3-11.2c-.7-2.8-1-6.3-3-8.8-.7-1-1.8-1.7-2.6-2.1a6.5 6.5 0 0 1-3.3-3.6c-1.3-3.2-1.7-7.6-4.2-10.5-5.7-6.4-15.7-4.8-21.8-10-2-1.9-3.8-4.9-6.5-6.3-2.2-1.4-6.1-1.5-7.3-3.4-.8-1.4-.3-3.5-.8-5.2a14 14 0 0 0-7.2-10c-1.6-1-3.2-1.2-3.7-3.1-.6-2.5.3-6.1-1-8.8a5.2 5.2 0 0 0-4.4-3.6z" class="cls-1"></path>
  <path id="path288" d="M149 160.5v.2-.2zm-9.3 13.3-.7.4h-.1l.8-.4z" class="cls-1"></path>
  <path id="path292" d="M86.3 206.8a74.3 74.3 0 0 0 23.8-18.5 74.3 74.3 0 0 0-23.8 18.5z" class="cls-1"></path>
  <path id="path294" d="M25.9-4c-1.2 0-2.5.3-3.4 1C17.9-.2 17.2 5 13 8c4.5-1.5 6.6-7.1 10.6-9 1.3-.6 2.5-1 3.3 0 1 1.6 1 3.6 2.7 5 .7.6 2 1 2.7.8 1.6-.2 2.5-.8 3.4.7 1.5 2.5 1 6.4 3.9 8.4 1.1 1 3 .7 4.1.5 4.3.3 5.3 5.2 5.8 8.8.8-5.1-1-11.6-7.5-11-.8 0-1.2-.6-1.7-1.3-1.2-2.8-.7-6.8-3.8-8.8-.8-.5-1.8-.7-2.7-.6-1 .2-1.4.4-2 .3-.5-.1-.7-.4-1-1-.5-1.1-.9-2.4-1.8-3.5-.8-1-2-1.4-3.1-1.5z" class="cls-1"></path>
  <path id="path298" d="M139.9-5.6a11 11 0 0 1-.7 6.5c-1.6 6.6-5.3 11.3-12.4 12-8.8.9-16-6-20.5-13 3.4 11.6 16.1 20.6 27.8 13.6 4.2-2.6 6.1-7.7 6.6-12.3.2-2.2.4-4.8-.8-6.8z" class="cls-1"></path>
  <path id="path302" d="M283.4 131c8.7 2.8 18 2 26.8.6l3.8-.2a16.4 16.4 0 0 0-7.7-1.6c-7.7 0-15.3.2-23 1.3z" class="cls-1"></path>
  <path id="path304" d="M314 131.4a182 182 0 0 0-34 26.3 126.7 126.7 0 0 0 34-26.3z" class="cls-1"></path>
  <path id="path308" d="M289.5 161c4.4.4 8.6.9 13 .7a44 44 0 0 0-25.8-3.6c4.2 1.6 8.5 2.4 12.8 2.9z" class="cls-1"></path>
  <path id="path312" d="M374.2 196.5c-5.2 1.1-9.9-1.4-15-2.2-5-1.3-10.9-.7-15.7-1.5-2-.4-3.8-1.6-4.5-3.3 1.7-1.5 5-1.7 7.2-2.7 4.6-1.7 7-8.5 12.7-7-5.3-2.5-9 3.9-13.3 5.3-3 1-6.6.7-9 3.2l-.3.4c.3 3.6 3.4 6 6.5 6.8 2.8.8 5.5.6 8.2.8 2.6.1 5.1.4 7.7.9 10.2 2.2 13.6 4 23.6-1.3 4.7-2.4 9.2-5.3 14.5-5.8-8-.6-15 5-22.6 6.4z" class="cls-1"></path>
  <path id="path314" d="M354.7 186.2c1.5-1.1 4.1-1 5.8-2.5-2.1 1-4.3.3-6.5 1.4-1 .5-2.1 1.4-2.4 3-.4 5.8 12.3 4.5 15.7 4.2a421 421 0 0 0 19.4-2.2c2.3-.3 5.1-1.1 6.2-3.6l.4-1c-3.1-1.7-6.3 0-9.5-.4-.9-.2-1.8-.5-2.4-1.1 1 1.7 3.3 2 5.2 2.2 1.4 0 2.7 0 3.9.3a8 8 0 0 1-4.1 1.2l-13 1c-3.7.4-9.2 1.2-12.8 1.4-2.5.1-10.5 0-6-4z" class="cls-1"></path>
  <path id="path316" d="M389.1 171.8c.7-.6 2-1 2.9-1.8.4-.3.9-.7 1-1.3 0-.3-.2-.7-.5-.7.2.2.1.4 0 .5-.4.5-1.1.5-1.7.6-1.3.1-3.3.5-4.4 1.7-1.7 1.8-1.3 5 1.3 5.6 1.5.4 2.5 0 3.4-.1 2.5-.6 4.8-.4 7.5.4-1.6-2.5-5-3.7-8-3.2-1 .1-1.8.3-2.3 0-.2-.5.3-1.4.8-1.7z" class="cls-1"></path>
  <path id="path318" d="M401.8 180.6c-4.6-2-8.9.2-13.5-.9 1.8 2.8 5.8 3 8.7 3 1.9.1 4-.3 5.4.7.3.3.6 1 0 1.6 1 0 1.6-1.2 1.4-2.1-.2-1.2-1.2-1.9-2-2.3z" class="cls-1"></path>
  <path id="path320" d="M409.9 175.8c2.6 2 6.9 1 6.8-2.8 0-2.1-2-3.1-4-2.8a12 12 0 0 0-3.5.9c1.3 1 3.3 1.4 4.5 2 0 1.9-2 2-3.8 2.7z" class="cls-1"></path>
  <path id="path322" d="m410.1 182 .8.2a34.8 34.8 0 0 0 20.8-2.1 9.9 9.9 0 0 0 4.4-3.2c1-1.4 1.4-3.6-.3-4.8-6.3-3.6-14.4.4-20.1-4.7 2.3 3.8 7.4 4.8 11.5 5.3 2.4.4 4.9.5 6.8 1.6-1 2.5-3.8 3.2-6.3 4.2a56.8 56.8 0 0 1-16.7 3.3c-.4 0-.8 0-1-.3 0 0-.1-.2 0-.2-.3 0 0 .5.1.6zm24-7.6z" class="cls-1"></path>
  <path id="path324" d="M387.9 201a6 6 0 0 0-.7 4l2.6-2.7c2.5-2.4 5.9-4.2 8.3-7-4.1 0-8.3 2-10.2 5.6z" class="cls-1"></path>
  <path id="path326" d="M328.7 194.1c-3 1.4-4.4 4.9-7.8 5.7 1.4.4 2.8 0 4-.6 1.8-1 3.1-2 4.8-2.7 1.6-.5 3 0 4.7.6 2.2.7 4.4 1.9 6.7 3 2.4 1 4.7 2 7.3 2.8-4.5-3.9-13.5-11.6-19.7-8.8z" class="cls-1"></path>
  <path id="path328" d="M324 189c-1.8-1-3.8.3-5.7 0 1.6.9 4 .3 5 1.3.4.4.8.9.5 1.3-.2.3-1.5 1-1.8 1.2a45.6 45.6 0 0 1-15.2 5l-5.5.7c-3.9.5-7.5 2.6-9.8 5.6 3.1-2 6.6-3.2 10-3.3l5.6-.1c6.3-.6 12.4-3 17.3-6.8 1.9-1.3 1.8-3.8-.3-4.8z" class="cls-1"></path>
  <path id="path330" d="M302.7 186c-3.5 0-7.1.4-10.5 1.3-2.4.8-5.5 1.2-6.8 3.8-.7 1.5.7 4 2.4 3.3-1 .2-1.6-.8-1.6-1.7-.1-.8.4-1.4 1.1-1.8 1.7-1.4 23.3-4 21 .5-.8 1.3-2.8 1.3-4.4 1.6l-2.9.4c-2 .4-3.9.7-5.8 1.2l6 .3c1.8 0 4 .1 6-.1 2.8-.3 5.3-3.4 3.5-6.1-1.5-2.3-4.3-2.5-6.5-2.6h-1.5z" class="cls-1"></path>
  <path id="path332" d="M358.6 166.6a8 8 0 0 1-3.2 3.3c-4.1 2.3-8.7 3.7-13 5.8-3 1.2-5.8 2.6-8.7 3.8a41.4 41.4 0 0 1-8.7 3c-5.8 1.2-12.1-.5-18.6-.6-6.5 0-12.9.8-19.1 2 6.4 0 12.7-.2 19 .4 6.3.5 12.8 2.4 19.3 1 6.5-1.3 12-4.6 17.8-7.5 4.2-2.4 8.7-4.3 12.5-7.2 1.3-1 2.3-2.4 2.7-4z" class="cls-1"></path>
  <path id="path336" d="M323.8 123.5a247 247 0 0 1-1.2 12c-.4 2.2-.3 4.7-2 6.4 2.3-1 3-4 3.8-6l.6-2.2c.9 3 1.6 6 2.3 9l6-6.7c0 1.7-.2 3.4-.5 5.1a21 21 0 0 0 2.4-9.9l-1.8 1.6c-1.5 1.2-3 2.6-4.4 4-.7-3-1.7-5.9-3-8.6zm11.4 7.7z" class="cls-1"></path>
  <path id="path338" d="M546.3 203.5c11.6-5.8 26.2-7.8 37.6-.8 1.5 1 2.9 2.4 3.7 4.1a9 9 0 0 0-2.8-5.2c-10.6-9.7-28.5-7.7-38.5 1.9z" class="cls-1"></path>
  <path id="path340" d="M523.3 199.3c-4.3-3-9.7-3.4-14.7-2.7-4.8 1-4.7 6.5-2.5 9.8-.3-4-.3-7.8 4.8-7.2 3.8.1 7.8.4 11.2 2.1 2.2 1.1 4.3 2.8 5.7 5.2-.2-3-2.1-5.5-4.5-7.2z" class="cls-1"></path>
  <path id="path342" d="M524.8 193.8c-5.6-.8-11-2.6-16.7-4-5-1-14.3-3.4-17.7 1.8-1 1.5-1.2 3.9.1 5.3 2.1 2.5 6 1.4 8.3 3.1 1 .8 1.4 2.6.2 3.5 1.5-.7 1.4-3 .4-4-1.1-1.3-2.8-1.7-4.1-2.1-2.5-.5-4.7-2-3-4.5 1.7-2 4.4-1.8 6.9-1.6 8.5.7 16.7 4.3 25.3 4.8 3 .2 5.9 0 8.7.2 2.8.2 5.5 1 8.3 1.7a31.6 31.6 0 0 0-8.1-3.2c-3-.5-5.9-.6-8.6-1z" class="cls-1"></path>
  <path id="path344" d="M547.6 190.3c-12.7-1.4-26.2-6.2-38.8-1.5 13.2-2.2 25.5 3 38.5 4.5a87 87 0 0 0 38.8-5.6c-12.8 1.9-25.6 4.3-38.5 2.6z" class="cls-1"></path>
  <path id="path346" d="M577.3 171.6a16 16 0 0 1-3.2 8.4c4.6 1.4 7.5-6.4 3.2-8.4z" class="cls-1"></path>
  <path id="path348" d="M358.3 172.4c-1.3 3.5 2 6.2 4.2 8.1 1.6 1.3 2.8 3.8 1.2 5.6 1.6-1 1.7-3.4.9-5-1.1-2.4-4-4-4.3-6.7 0-1.7 1.8-2.3 3.2-1.8.7.2 1.3.8 1.8 1.5 1.2 1.6 1 3 1.8 4.7.7 1.2 2.5 1.3 3.5.7 1.2-.7 1.5-2.1 2-3.3v1.1c-.1 1.6 1.3 3.5 3 2.7 1.3-.5 1.8-2 2.8-2 .2 0 .4.3.4.7.4 1.6-1 2.8-1.7 4.2-.3.6-.4 1.3-.3 2 .4.2.8 0 1-.4.2-.2.2-.6 0-.8.1.3 0 .5-.1.7l-.4.2c.3-1.6 2-2.5 2.8-4 .6-1.3.7-3.3-.7-4.2-.8-.5-2-.4-2.6 0-.7.3-1.2.8-1.6 1.2v-2.2c0-2-2.3-3.1-4-2-1 .6-1.4 2-1.8 3-.6-2.8-2.2-5.8-5.1-6.5-2.2-.6-5 .2-6 2.5zm14.2 3.2z" class="cls-1"></path>
  <path id="path350" d="M367.4 168c1 0 2-.3 2.6-.7.7-.4 1.4-.8 2.1-.4-1.1-1.3-3 .2-4.5-.4-1.5-.4-2.7-1.7-2.6-3 .3-.7.8-.7 1.7-1 3.8-1 7.5-2.5 11.2-3.4 3.8-.6 6.8 2.5 9.5 4.7-5.7-11-12-7-21.5-4-5.7 1.5-3.4 8 1.5 8.2z" class="cls-1"></path>
  <path id="path352" d="M412.8 161.6c.2-1.2-.8-2.8-2-2.6 1 .5 1 1.7.6 2.3-.3.6-1 .9-1.9 1-1.8 0-3.8-1-5.8-1.1-1.8-.1-3.6 0-5.2.6-1 .3-2.3 1-3.2.8-1-.2-1.7-1.7-.8-2.4-1.4.1-1.5 2.1-.8 3.2 2 2.2 4.6.9 6.9.8 3.2-.6 6.2 1.2 9.5.3a3.7 3.7 0 0 0 2.7-2.9z" class="cls-1"></path>
  <path id="path354" d="M449.4 168.2c1.9-1.3 3.6-3.5 2.6-6-1.3-2.3-4-1.8-6-1.6-1.3.1-2.5.4-3.6.8-2 .6-4.6 2.5-6 .1 0 .6.5 1.1 1 1.5 1.7 1 3.8 0 5.4-.2a17.6 17.6 0 0 1 6.3 0c.4.2.5.3.5.5.2 1-1 2-1.8 2.6-3.6 2.3-8.4 1.7-12.6 1.5l-7-.4c-1.8 0-4.9.1-6.5-.7-2-.7-2.7-4-.5-4.9-2 .2-2.6 3.1-1.6 4.7 1 1.8 3.1 2.4 5 2.8l10.3 1.3c4.8.5 10.2 1 14.5-2z" class="cls-1"></path>
  <path id="path356" d="M458.1 156.7c-2 0-3-1-5-1.3-2-.4-4.3.1-5.6 1.9l5.1 1c1.7.4 4.8.5 5.5-1.6z" class="cls-1"></path>
  <path id="path358" d="M454.7 172.8c3-.6 6.9 1.3 9.5-1-3.5.5-6.2-2.3-9.8-1.8-2.5 0-5.7 2.5-4.7 5.5 1.3 3.5 8.7 3 11.4 1.5-2.9-.2-5.3-.8-7.7-1.8-.5-.2-1-.4-1-.6.1-1.1 1-1.6 2.3-1.8z" class="cls-1"></path>
  <path id="path360" d="M460.6 160c-1.1 2-.6 4.8 1.6 5.7 1.8.6 3.3-.2 5-.3 3.4-.4 6.9.2 10.1 1.6a18 18 0 0 0-13.7-3.4c-.7-.1-.9-.6-1-1.3.5-2.7 4.5-3.4 7.1-3.8 8-.9 16.5-2.3 24.1.9.7.3 1.7.5 1.7 1.5 0 .2-.1.5-.4.6.7 0 1-1 .5-1.6-.8-1-1.9-1.5-3-2.2-7-3.8-15.6-3-23.3-2.2-3 .5-7 1.4-8.8 4.6z" class="cls-1"></path>
  <path id="path362" d="M489.4 161.7a6.6 6.6 0 0 0-9.7 0c3.3 1.2 6.4 1.2 9.7 0z" class="cls-1"></path>
  <path id="path364" d="M493.6 151.3c-5.1-.1-10.2 0-14.9-2.3 4 3.3 9.7 4.1 14.7 4.6 2.4.3 16.2 1 15 4.6-1 3.3-4.7 4.3-8 5.3-4.8 1.3-9.8 2.7-14.6 4.4 5-.5 10.1-1.2 15.2-2 3.2-.7 7.1-1.9 9.2-4.9 5.7-9.6-11-9.6-16.6-9.7z" class="cls-1"></path>
  <path id="path366" d="M526.8 177.5c-3.2.3-6.1 1.3-9.2 1-2.1-.2-4.2-1.3-2.4-3.3 1.6-1.6 5-1.4 7-1.7 4.3-.6 8.6-1 12.9-1.7-4.3 0-8.6 0-13 .2-2 .1-4.6 0-6.6.7-2.8.8-4.4 4.8-1.8 6.9 4 2.9 9.1 1 13.4.7 8.7-1.1 16.6 1 25 2.8 5.4 1 11.8.8 16.4-2.9 3.5-2.6 3.7-7.5-.7-9.1-2.2-.8-4.5-.8-6.6-.8h-6.5c4 .7 8.7.6 12.5 2.1 4.5 2.3.9 6.4-2.6 7.5-8 3-16.3-1.3-24.6-2.3-4.4-.6-8.8-.7-13.2-.1z" class="cls-1"></path>
  <path id="path368" d="M541.7 161.8c-7.7-2.4-15.5-3-23.3-5.4 6 6 15.2 7.2 23.2 6l-.4 2.6c-.4 2.3-.4 4.3-2.2 5.7l-1 .8c-.4.3-.7.8-.7 1.3 1-1 2.5-.4 3.6-1.2 4.5-2.9 4.1-12 2.2-16.2-.6 2.1-1 4.2-1.3 6.4z" class="cls-1"></path>
  <path id="path370" d="M552.3 172.8c1.1.2 3 .9 2.4 2.2 0 .2-.5.3-1.2.2l-4.3-.2c1.8.7 3.3 1.6 5.2 2 1.7.1 3-1.9 2.6-3.5-.4-2-2.4-3-4-3.4-1.3-.4-2.3-.5-3.1-1.4a6.5 6.5 0 0 1-1.5-2.9c-.3-1-.5-2.1-.6-3.2 7.1 1 14.3 1.8 21.4 2.6 3.6.4 7.6.3 10.8 1.6 3.1 1.3 4.5 4.8 4.2 8-.2 3.3-2.5 6.1-5.4 8-6.3 4-14.3 3.3-21.5 3.2l-11.5.1c3.8.6 7.6 1 11.4 1.4 7.6.8 16 2 23-2.3 2.7-1.6 5-4 6.2-7 2-5 .1-12-5.2-14-4-1.5-7.8-1-11.8-1.4-7.2-.3-14.4-.5-21.7-.4-.3-2.8-.4-5.7-.3-8.7-2.9 6-4.1 18.2 4.9 19.1z" class="cls-1"></path>
  <path id="path372" d="M443.4 192.8c-3.3-.4-6.3 1.1-8.5 3.4 2.8 0 5.5-.8 8-.4 2 .3 4 1.4 4.8 3.4-.3 0-.4.4 0 .6 1 .2 1-1.2 1-1.8-.2-2.7-2.7-4.7-5.3-5.2zm4.3 6.4v.2c.1 0-.1-.1 0-.2z" class="cls-1"></path>
  <path id="path374" d="M449 191.7c3.5 2.5 8.3 3.6 8.6 8.7 1.2-.8 1.5-2.5 1.3-4-.8-4.3-6.1-6-10-4.7z" class="cls-1"></path>
  <path id="path376" d="M418.1 193.7c18.2-5.5 39.8-6 55 6.8 2.1 1.8 3.8 4 4.7 6.7-.2-2.9-1.7-5.6-3.6-7.8-14.1-15.2-38.8-15.2-56-5.7z" class="cls-1"></path>
  <path id="path378" d="M472.9 188c-11.6-7.1-25.8-7-38.8-5.9-4.3.5-8.8 1-13 2.2-2.2.5-4.3 1.2-6.3 2-2.1 1-4.6 2-5.6 4.3-1.5 3.7 2.7 6 2.8 9.4 0 1-.4 2.2-1.4 2.6 1.1-.2 1.7-1.4 1.8-2.5.3-2.3-1.3-4.3-2-6.3s.4-3.6 2.2-4.5a63 63 0 0 1 21.7-4.4c8.5-.5 17.2-.8 25.6.9 12.3 2.3 24.5 10.5 27.3 23.4-.6-9-6.8-16.7-14.3-21.3z" class="cls-1"></path>
  <path id="path380" d="M496.4 171.4c-3 .7-8 1.4-11 2.5-4.3 1.8-2.7 7 1 8.6 4.1 2 8.7 1.2 13 .7 2-.2 4-.2 6 0 8.2.8 16.6 1.7 25 2.1a473 473 0 0 0-24.7-4.4c-6-1.3-12.5 1.5-18-1-1-.6-2.4-1.8-1.7-2.8.2-.4 1-.7 1.9-1 3-.7 6-1.2 9-2 10.2-2 19.4-9 30-6.3 2 .4 4.2.8 6.2.1-2 .4-4-.3-6-1-6.1-2.3-13-.9-18.9 1.1-3.4 1.1-8.3 2.8-11.8 3.4z" class="cls-1"></path>
  <path id="path382" d="M379 146.5c-2.7.4-6 1.2-7.3 4-.6 1.4.6 3 2 3.3 2 .7 4 .1 5.8-.4 4.7-1.5 9.7 1.6 14.4-.7 1.9-.7 3.4-3.3 1.5-4.9-1-.8-2.1-.8-3-1-1.7 0-3.5-.3-5.3-.3a50 50 0 0 0 5 1.8c.7.3 1.5.5 2 1v.3c-.2.4-.7.7-1.2.8-2.8 1-5.5-.1-8.5-.3-1.8-.3-4 0-5.7.6-2.2.8-7.4 2-4-1.3 1.2-1.2 2.7-2.1 4.3-2.9z" class="cls-1"></path>
  <path id="path384" d="M423 149c-4 0-7.3.7-11.1 2 3.3 3 9.1 1.9 11.2-2z" class="cls-1"></path>
  <path id="path386" d="M452.5 148.3c-2.3-1-4.8-2.1-7.5-2.7-7.7-1.6-15.5-1.2-23.4-1-5 .2-10 .8-15 2l-.6-3.2-.4-1.8c-1.7 2.2-3.5 4.5-4.6 7-1.5 3.1-1.7 7.2 1 9.8 3.6 3.2 6-1.7 5.7-4.9 0 1.8-.7 4.3-2.6 4.8-2.5.4-2.8-3.5-2.4-5.3a65 65 0 0 1 2.6-7c1.2 2.4 2.3 4.9 2.4 7.5-.1-2.2-.5-4.5-1-6.7a375 375 0 0 1 23.4.5c-.2 3-.7 6-1.8 8.5-1-2.6-5.4-3.9-6.4-.7-.2 1.1 0 1.9.3 2.5 1 2.2 2.3 4.3 4 6l-1.8-6.7v-1s.1 0 0 0v.1c.3 0 .9.5 1 .7l.2.6c.5 1.2 1.8 2.7 3.4 2.1.8-.2 1.5-1.2 1.6-1.8 1.2-3.3 1.2-7.2-.3-10.3 3.9.1 8 .3 11.1.6l-1 .8c-.9.9-1.4 1.5-2.5 1.7-.5.1-1 0-1.4-.5 0 1.6 2.2 1.7 3.3 1.3 1.2-.5 2-1.3 3-1.4l.6.1c.3.4.3 1.2 0 1.7-1.1 2.2-3.5 2.8-6.1 4.2-2.1 1.1-4.6 3.1-4.6 5.7 2.8-4.4 8.9-3 12.3-7 1.5-1.4 2-4.1.8-5.9 4.6 1.1 9 3.7 13.8 3.2a33 33 0 0 0 7.7-1.7c-5.2.5-10.1.7-14.8-1.7z" class="cls-1"></path>
  <path id="path388" d="M912.3 164.6c5.7-8.2 10.6-16.8 14.7-26a18.9 18.9 0 0 0-17.6 1.6c6 .6 11.8.2 17.6-1.5a54.5 54.5 0 0 0-15.3 25.8l-1.2-.2 1.1.6-.2 1 .6-.8a214 214 0 0 0 33.7 14.7 84 84 0 0 0-33.4-15.2z" class="cls-1"></path>
  <path id="path390" d="M908.6 103.7a146 146 0 0 0 22-12c7-4.6 13.7-9.5 19.8-15.3-7.5 3.8-14.5 8.3-21.4 12.8a226 226 0 0 0-20.3 14.5z" class="cls-1"></path>
  <path id="path392" d="M930 29.4c9.2-6.3 18.6-13 27.1-20a331.2 331.2 0 0 0-28.8 17.5c-9.1 6.3-18.6 13-27 20.1A356 356 0 0 0 930 29.4z" class="cls-1"></path>
  <path id="path394" d="M862 43.8c8.4-4.2 16.2-9.5 23.7-15 7.4-5.6 14.7-11.6 21.1-18.4a361 361 0 0 0-22.9 16c-7.3 5.6-15 11.3-21.8 17.4z" class="cls-1"></path>
  <path id="path396" d="M867.8 3.2c9.9-5.2 20-10.7 29.2-16.8-10.3 4-20.6 9-30.5 14.2-9.9 5.1-20 10.6-29.3 16.8 10.4-4 20.7-9.1 30.6-14.2z" class="cls-1"></path>
  <path id="path398" d="M815 35.5a124.6 124.6 0 0 0 48.4-16.7c-7.2 2-17.2 5.6-24.4 8-7 2.5-17.2 6-24 8.7z" class="cls-1"></path>
  <path id="path400" d="M840.3 51.7a200.5 200.5 0 0 0 23-32.9s.1 0 0 0c-7.2 9.1-17.8 22.3-25.3 31-7.5 8.8-18.7 21.1-26.7 29.8a201.5 201.5 0 0 0 29-27.9z" class="cls-1"></path>
  <path id="path402" d="M830.4 73.5c-6.5 1.6-13.1 3-19 6.2 13-2 27-3.2 38.4-10.4l-19.4 4.2z" class="cls-1"></path>
  <path id="path404" d="M853.7 65.6c-7 7.4-13 15.6-17.7 24.5 8-6.3 14.2-15 17.7-24.5z" class="cls-1"></path>
  <path id="path406" d="M834.8 3.4c4.6-7 9-14 12.6-21.5a178.8 178.8 0 0 0-15 19.8c-4.6 6.9-9.1 14-12.6 21.4 5.5-6 10.4-13 15-19.7z" class="cls-1"></path>
  <path id="path408" d="M824.2-10.6a238.8 238.8 0 0 0-37.5 23 119.7 119.7 0 0 0 37.5-23Z" class="cls-1"></path>
  <path id="path410" d="M785-5.7a31 31 0 0 0 1.1 18.2A25 25 0 0 0 785-5.7z" class="cls-1"></path>
  <path id="path412" d="m741.8 21.3-.1.2h.1v-.2z" class="cls-1"></path>
  <path id="path414" d="M758.8-10.7A87.4 87.4 0 0 0 745 10.6a32.8 32.8 0 0 0-7.8-17.9 33 33 0 0 0 7.7 18.1l-.8 1.8a48 48 0 0 0 14.7-23.3z" class="cls-1"></path>
  <path id="path416" d="M737-17c-1.8 6.4-4 15.3-5.7 21.7-1.5 6-3.8 14-5.3 20.2A112.5 112.5 0 0 0 700.3-7c4.1 6.4 9 12.5 13.5 18.6 4.7 6 9.3 12 14.5 17.7l-2-4A84 84 0 0 0 737-17z" class="cls-1"></path>
  <path id="path418" d="M688.3 37.9c-8.4-3-17-5.2-25.7-6.9l-1.3-3a109 109 0 0 0 11 38.3 156 156 0 0 0-9.6-35c7.5 5 16.7 7.7 25.7 7.3v.2-.1l1.8-.2-1.7-.5c1.4-8.3 1.7-16.7 1.7-25.1 0-8.7-.5-17.4-2.1-26a296.7 296.7 0 0 0 .2 51z" class="cls-1"></path>
  <path id="path420" d="M402 51.7c3.5 3.2 6-1.7 5.7-5 0 2-.7 4.4-2.6 5-2.5.3-2.8-3.6-2.4-5.4a65 65 0 0 1 2.6-7c1.2 2.4 2.3 4.9 2.4 7.5-.2-3.3-1-6.8-1.7-10l-.4-2c-1.7 2.3-3.5 4.6-4.6 7.2-1.5 3-1.7 7.1 1 9.7z" class="cls-1"></path>
  <path id="path422" d="M430.2 57.6v.2l-.2.2.4-.2h-.1c-.3.2 0 0 0-.2h-.1z" class="cls-1"></path>
  <path id="path424" d="M573.8 105a30.3 30.3 0 0 0-4.6 7c-1.5 3-1.7 7.2 1 9.7 3.6 3.2 6-1.6 5.7-4.9 0 1.9-.7 4.3-2.6 4.9-2.5.4-2.8-3.6-2.4-5.3.4-1.7 1.6-4.7 2.6-7 1.2 2.4 2.3 4.8 2.4 7.4-.2-3.3-1-6.7-1.7-10l-.4-1.9z" class="cls-1"></path>
  <path id="path426" d="M614.4 20c0 1.7-.8 4.2-2.6 4.8-2.5.4-2.8-3.6-2.5-5.3.4-1.7 1.7-4.7 2.6-7 1.2 2.4 2.3 4.8 2.5 7.4a87 87 0 0 0-1.7-10l-.5-1.9c-1.6 2.2-3.4 4.5-4.5 7-1.6 3.1-1.8 7.3 1 9.8 3.5 3.2 5.9-1.6 5.7-4.9z" class="cls-1"></path>
  <path id="path428" d="M568 66.4c0 1.8-.8 4.3-2.6 4.8-2.5.4-2.8-3.5-2.5-5.3.4-1.6 1.7-4.6 2.6-7 1.2 2.4 2.3 4.9 2.5 7.5-.2-3.3-1-6.8-1.7-10l-.4-2c-1.7 2.3-3.5 4.6-4.6 7.2-1.5 3-1.7 7.1 1 9.7 3.5 3.2 6-1.7 5.7-4.9z" class="cls-1"></path>
  <path id="path430" d="M619.4 158.2a34.7 34.7 0 0 0-4.5 7c-1.6 3.1-1.8 7.2.9 9.8 3.6 3.2 6-1.7 5.8-4.9 0 1.8-.8 4.3-2.6 4.9-2.6.3-2.8-3.6-2.5-5.3.4-1.7 1.7-4.7 2.6-7 1.2 2.3 2.3 4.8 2.5 7.4a87 87 0 0 0-1.7-10l-.5-1.9z" class="cls-1"></path>
  <path id="path432" d="M472.2 166.3c-1.7 2.3-3.4 4.5-4.5 7.1-1.6 3-1.8 7.2.9 9.8 3.6 3.1 6-1.7 5.8-5 0 1.9-.8 4.3-2.6 4.9-2.6.4-2.8-3.6-2.5-5.3.4-1.7 1.7-4.7 2.6-7 1.2 2.4 2.3 4.8 2.5 7.4a87 87 0 0 0-1.7-10l-.5-1.9z" class="cls-1"></path>
  <path id="path434" d="M446 96.7v.1h.1zm-3 12z" class="cls-1"></path>
  <path id="path436" d="M523 127c-1.6 2.3-3.4 4.6-4.5 7.2-1.5 3-1.7 7.1 1 9.7 3.5 3.2 6-1.7 5.7-4.9 0 1.8-.8 4.3-2.6 4.8-2.5.4-2.8-3.5-2.5-5.2.5-1.7 1.7-4.7 2.6-7 1.2 2.2 2.2 4.4 2.5 6.9-.3-3.2-1-6.4-1.7-9.6zm2.2 11.5v.5-.5z" class="cls-1"></path>
  <path id="path438" d="M367 139.4v1-1z" class="cls-1"></path>
  <path id="path440" d="M367 140.4c-.5 2-2.7 4-4.4 2-.8-1-1-2.4-.6-3.6.4-1.1 1.7-3.7 2.6-5.5 1.2 1.9 2.3 3.9 2.5 6-.4-3.2-1.4-6.4-2.2-9.6-2.6 2.6-5.3 5.4-5.8 9.1 0 6.2 7 7.6 7.9 1.6z" class="cls-1"></path>
  <path id="path448" d="M414.8 77.7c-1.7 2.3-3.4 4.5-4.6 7.1-1.5 3-1.7 7.2 1 9.8 3.6 3.1 6-1.7 5.7-5 0 1.9-.7 4.3-2.6 5-2.5.3-2.7-3.6-2.4-5.4.4-1.7 1.7-4.7 2.6-7 1.1 2.2 2.1 4.5 2.4 7-.3-3.2-1-6.5-1.7-9.6l-.4-1.8Zm2.1 11.4v.6-.6z" class="cls-1"></path>
  <path id="path452" d="M346.5 58.7c0 1.8-.7 4.2-2.6 4.8-2.5.4-2.8-3.6-2.4-5.3.4-1.7 1.6-4.7 2.6-7 1.2 2.4 2.3 4.8 2.4 7.5-.2-3.4-1-6.8-1.7-10l-.4-2c-1.7 2.3-3.4 4.5-4.5 7.1-1.6 3-1.8 7.2.9 9.8 3.6 3.1 6-1.7 5.8-5z" class="cls-1"></path>
  <path id="path454" d="M355 24.3c0 1.8-.7 4.3-2.5 4.9-2.6.3-2.8-3.6-2.5-5.3.4-1.7 1.7-4.7 2.6-7 1.2 2.3 2.3 4.8 2.5 7.4-.3-3.3-1-6.8-1.7-10l-.5-1.9c-1.6 2.2-3.4 4.5-4.5 7-1.6 3.1-1.8 7.2 1 9.8 3.5 3.2 5.9-1.7 5.7-4.9z" class="cls-1"></path>
  <path id="path456" d="m342.5 114.5-.5.6.6.2zm-3.4 7.2z" class="cls-1"></path>
  <path id="path458" d="M252.4 23.4c0 1.8-.8 4.3-2.6 4.8-2.6.4-2.8-3.5-2.5-5.2.4-1.7 1.7-4.7 2.6-7 1.2 2.3 2.3 4.8 2.5 7.4-.3-3.3-1-6.8-1.7-10l-.5-2c-1.6 2.3-3.4 4.6-4.5 7.2-1.6 3-1.8 7.1 1 9.7 3.5 3.2 5.9-1.7 5.7-4.9z" class="cls-1"></path>
</svg>