<svg class="quest-illustration" xmlns="http://www.w3.org/2000/svg" id="Warstwa_3" viewBox="0 0 940 200">
  <defs>
    <clipPath id="clippath">
      <path fill="none" d="M0 0h940v200H0z"></path>
    </clipPath>
    <style>
      .cls-1{fill:#eed699}
    </style>
  </defs>
  <g id="g1742">
    <path id="path11" d="M341 76c5.9 15.8 17 8.6 24.7 19.7 2 2.9 4 6 6.3 9-.5-1.8-1.2-3.5-2-5.2-2-5.3-5.2-11-11-12.8-3.6-1.4-7.2-2-10.2-3.5-3-1.5-5.3-4.4-7.7-7.2z" class="cls-1" clip-path="url(#clipPath3027)"></path>
    <path id="path13" d="M262 31.4h.1s.1 0 0 0h-.1z" class="cls-1" clip-path="url(#clipPath3017)"></path>
    <path id="path15" d="M262 31.4z" class="cls-1" clip-path="url(#clipPath3007)"></path>
    <path id="path17" d="M348.3 69.5a43.6 43.6 0 0 1-14.4-14c-1.7-2.9-3-6.2-5-9-2-3-4.4-5.7-7.2-7.8 3.4 5.1 6 10.4 8.4 16 3.5 7.2 10.3 13 18.2 14.8z" class="cls-1" clip-path="url(#clipPath2997)"></path>
    <path id="path19" d="M267.9 200.4a15.6 15.6 0 0 0-3.2 4.5l4.6-2.6c4.2-2.5 9.3-5.2 13.4-7.8a19.8 19.8 0 0 0-14.8 6z" class="cls-1" clip-path="url(#clipPath2987)"></path>
    <path id="path21" d="M285.4 145.8c0-5.4-2-10-2.2-15.5-4 4.5-1.7 11.8 2.2 15.5z" class="cls-1" clip-path="url(#clipPath2977)"></path>
    <path id="path23" d="M294.5 159.3c0 5.4 1.8 10.6 5.2 14.8.6-5.4-1.4-11-5.2-14.8z" class="cls-1" clip-path="url(#clipPath2967)"></path>
    <path id="path25" d="M301.9 100a42.8 42.8 0 0 0-7.7 20 33.8 33.8 0 0 0 7.7-20z" class="cls-1" clip-path="url(#clipPath2957)"></path>
    <path id="path27" d="M321.8 157.5a6 6 0 0 0 5 6.1 6 6 0 0 0-5-6.1z" class="cls-1" clip-path="url(#clipPath2947)"></path>
    <path id="path29" d="M312.5 146.2c1.6-1.2 1.2-2-.8-1.5-1.6 1.2-1.2 2 .8 1.5z" class="cls-1" clip-path="url(#clipPath2937)"></path>
    <path id="path31" d="M278.1 88.2a16 16 0 0 0 10.8-8.6 16.2 16.2 0 0 0-10.8 8.6z" class="cls-1" clip-path="url(#clipPath2927)"></path>
    <path id="path33" d="M231.6 76.3a11 11 0 0 0 9.6-8.3 19 19 0 0 0-9.6 8.3z" class="cls-1" clip-path="url(#clipPath2917)"></path>
    <path id="path35" d="M230.5 57.1c-2.1.2-4 2.3-3.5 4.4a8.6 8.6 0 0 1 7.8-.9c.1-2.2-2.2-3.7-4.3-3.5z" class="cls-1" clip-path="url(#clipPath2907)"></path>
    <path id="path41" d="M529 17.3c.4 1.1.9 2.2 1.5 3.2-1.5 2.3-1.4 5.3-.7 8l1.4-.6a5.2 5.2 0 0 0 3.2-3v.1c1.5-3.6-1.7-8-5.5-7.7zm3.3 7.8v-.2c.3 0 .5-.2.7-.4l.2-.6 1.2 1-2 .2z" class="cls-1" clip-path="url(#clipPath2877)"></path>
    <path id="path43" d="M402.5 42.1c-.2-5-2-9.4-3.8-12.8-1.3-2.6-3-5.6-5.6-8a18 18 0 0 0-7.5-4.2c-1.9-.5-3.7-.6-5.4-.3-2.8.5-5.4 2.2-7.6 4.7a30 30 0 0 0-4 7.4c-1.3 3-2.5 6-3 9.3a7.2 7.2 0 0 0-3 5.8c.8-1 3.7-4.5 4.9-3.4.7 1 1.1 2.4 2.1 3.3.8 1 2.5 1.6 3.8 1.3 1-.3 1.6-.8 2.5-1 1.1-.2 2.4.2 3 1.4.2-1-.3-2-1-2.5a13 13 0 0 1 5.4-9c1-.8 1.8-1 2.5-1 1 0 2.2 1 3.2 3 1.3 2.1 2.2 4.5 2.8 6.9-.9 1-1.6 2.1-2.3 3.3 1.9-.6 3.4-1.5 5-2.4a2.4 2.4 0 0 0 3 2c2-.8 3.5-1.7 5-3l1-.8h-1zm-30.2.3c-1.2-.8-1.7-3-3-4a4 4 0 0 0-.7-.4c.5-2.7 1.6-5.4 2.6-7.9l.7-1.4c2 2.1 4.2 4 6.6 5.7a16 16 0 0 0-3.6 7.8l-.8.1c-.7.2-1.2.4-1.8.1zm9.3-10.9c-.7.5-1.4 1-2 1.7a8 8 0 0 0-7.2-5.6 21 21 0 0 1 2.6-4.2 10 10 0 0 1 5.7-3.6c1-.2 2-.2 3.1 0l1.4 5.6 1.2 4.8-.5-.1a7 7 0 0 0-4.3 1.4zm6.8-.6c.7-3.6-.2-7.6-2.4-10.5 1.9.7 3.6 1.7 5 3a25 25 0 0 1 5 7.3l.2.3a20.5 20.5 0 0 0-3.5 5.6l-1-2a10 10 0 0 0-3.3-3.7zm8.5 12.2zm.4-.1v-.5a2.2 2.2 0 0 0-3-1.9l-.9-2.3a7 7 0 0 0 4-4.8 24 24 0 0 1 2.1 9l-2.2.5z" class="cls-1" clip-path="url(#clipPath2867)"></path>
    <path id="path45" d="M789.3 77.1c-2.5.5-5 1-7.6 1.8-7.3 2.2-11 8.4-14.5 14.7l-1 2.2c-.2.9.2 1.9 1.1 2.2l1.6.5c.8.2 1.4.4 2.2.8l.9.4.8-.4c4.4-2.6 9.2-3.9 14.4-4.6 5-.8 11-2.2 14.3-6.7-4.3 3.7-9.6 4-14.9 4.2-3.5-1.2-6.6-4-7.3-7.3l-.2-.7a30 30 0 0 1 10.2-4.3 18 18 0 0 1 12.1 8 16.8 16.8 0 0 0-12-10.8zM772 95.6l-1-.4.7-1.2 2.6-4.3a12.6 12.6 0 0 0 5.1 3.4l-.5.1c-2.4.5-4.7 1.4-6.9 2.4zm10.7-3.2c-2.8-.8-5.5-2.5-6.7-5l.8-1c1.2 2.6 3.3 4.7 6 6z" class="cls-1" clip-path="url(#clipPath2857)"></path>
    <path id="path47" d="M876.3 217.8c-9.9-36.7-19.1-71.5-39.4-104-2.8-4.3-6.1-9-9.3-13.6l-2.4-3.5a1 1 0 1 0-1.6 1.1l2.4 3.5c3.2 4.5 6.5 9.3 9.2 13.6 20.1 32.2 29.4 66.8 39.1 103.5l1.5 5.3a1 1 0 0 0 1.2.7c.5-.1.8-.7.7-1.2l-1.4-5.3z" class="cls-1" clip-path="url(#clipPath2847)"></path>
    <path id="path49" d="M826.5 115.5a1 1 0 0 0-1.4-.5 1 1 0 0 0-.4 1.4c4 8.7 7.6 17.7 10.3 27a1 1 0 0 0 2-.6 197 197 0 0 0-10.5-27.3z" class="cls-1" clip-path="url(#clipPath2837)"></path>
    <path id="path51" d="M692.2 136a46.5 46.5 0 0 0-11.4 20.2 1 1 0 1 0 2 .6c2-7.6 5.6-14 10.8-19.4a1 1 0 1 0-1.4-1.4z" class="cls-1" clip-path="url(#clipPath2827)"></path>
    <path id="path53" d="M749.5 142.6a1 1 0 1 0-1.3 1.5c12 10.4 23.3 21.9 33.6 34a1 1 0 0 0 1.4 0c.4-.3.5-1 .1-1.3a326.3 326.3 0 0 0-33.8-34.3z" class="cls-1" clip-path="url(#clipPath2817)"></path>
    <path id="path55" d="M846.9 171.2a1 1 0 1 0-1.8 1c1.5 2.5 2.7 5.2 3.5 8a1 1 0 0 0 2-.6c-1-3-2.2-5.8-3.7-8.4z" class="cls-1" clip-path="url(#clipPath2807)"></path>
    <path id="path57" d="m733.4 157.3.2.1a99 99 0 0 1 1.8 3.6c.8 6 1.5 12 1.9 18a15 15 0 0 0-9.1-6.4c-1.4-.3-3-.8-4.2.5-.7.9-.7 1.6-.8 2l-.3 1.6c-1.5 8.7-2.9 17.9-3 26.8 2.9-9 4.7-18.5 6.1-27.8l.1-.7c4.4.1 8.5 2.4 11.3 5.9.1 3.8.2 7.7.1 11.6a29 29 0 0 0-3.7-10.8l-1.2 1.6c-1.9 2.6-1.7 5.3-2.3 8.1-1.2 7.9-2.1 15.7-2 23.7a157.6 157.6 0 0 0 5.6-28.1 42 42 0 0 1 3.6 8.5v4.4c-.1 4.4-.3 8.9-.1 13.4 3.8-16 4.8-33.5-.6-49.3a49 49 0 0 1 1.9 5.4c1.3 4.6 2 9.5 4.1 13.9l2 4c.2-1.6 1-5 .6-6.5 0-2-1.3-4.3.2-5.9-.6.2-1 .6-1.3 1.1-.5-2.6-1-5.2-2-7.8a22 22 0 0 0-9.3-11.7l.5.9zM726 175z" class="cls-1" clip-path="url(#clipPath2797)"></path>
    <path id="path59" d="m752.6 189.6.6 2.7 1.6 4.1 1.2 3 1.6-2.5c1.4-2 2.2-4 4-5.4l.6-.3a217 217 0 0 0 24 23 470.4 470.4 0 0 1-47.8-61c-5-7.5-11.5-18.6-16.2-26.5a55 55 0 0 0-9.8-12.3c4.8 5.8 8.2 13.5 11.4 20.2a240.7 240.7 0 0 0 26 42 9.5 9.5 0 0 0-4.2-1.7c5 3.7 5.7 9.2 7 14.7zm8.8.8c-1 .1-1.9.5-2.7 1l-1.6 1.4-.4-1.4c-.1-2.8-.7-6-2-8.8l6.7 7.8z" class="cls-1" clip-path="url(#clipPath2787)"></path>
    <path id="path61" d="M927.4 112.7c1.2-7.4 2.8-14.7 3.5-22.3-5.7 13.9-9.7 29.8-5.6 44.7.2-7.6 1-15 2.1-22.4z" class="cls-1" clip-path="url(#clipPath2777)"></path>
    <path id="path63" d="M891.4 190.4c4.1-6.9 8.2-13.3 12.7-20a23.3 23.3 0 0 0-12.7 20z" class="cls-1" clip-path="url(#clipPath2767)"></path>
    <path id="path65" d="M930.3 160a17 17 0 0 0 9.4.3 4.6 4.6 0 0 0-2-1.8c-2.4-1.2-5.7-.9-7.4 1.4z" class="cls-1" clip-path="url(#clipPath2757)"></path>
    <path id="path67" d="M911.8 172.7c-3.2-5.3-8.6-8.8-12.3-13.5-7.5-10.5-4.5-24.4-8.7-36.1-3.4-11.7-14.1-13.6-19.5-2.1a65.6 65.6 0 0 0-4.4 30.6c.7-11 1.1-22.7 7.4-32 3.4-4.8 8.5-5.8 11.9-.5a22 22 0 0 1 2.5 5.8c0 5.3-1.3 10.7-2.4 15.7a48 48 0 0 0-1 13.3c.6 5.9 2 11.5 3.7 17.1a61 61 0 0 0-4.7 14.3c-.9-8.6-2-17.1-3-25.5a328.3 328.3 0 0 1-2.5-42.8 165 165 0 0 0-.4 43c1.2 11.6 3 23.1 4.7 34.6l-.2 5.8.7-2.3 2.5 16.7c0-7.2-.4-14.6-1-22 3.2-11.9 6-21.8 11.6-32.4l.4.5c2.6 3.5 6 6 9 9.1 2.3 2.8 4.3 5.7 6.2 8.8-11 5-20.8 14.7-23.7 26.7a140 140 0 0 1 24-26.3 147.8 147.8 0 0 1 19.5 57.6 131 131 0 0 0-20.4-64.1zm-22.3-2.7c-.4-7.6-2-15-1.2-22.5.5-4.8 1.6-9.9 1.8-14.9l.2 2c1 8.6 1.1 18 6.2 25.4-2.8 3-5.1 6.3-7 10z" class="cls-1" clip-path="url(#clipPath2747)"></path>
    <path id="path69" d="M889.9 110.3c1 1.4 1.8 3 3 4.4.5-8.7-8-16.2-15.2-8.7 5.7-1.2 8.8-.6 12.2 4.3z" class="cls-1" clip-path="url(#clipPath2737)"></path>
    <path id="path71" d="M930.7 198.5c.6-4.2-1-8.5-4.2-11.3-.6 4.2 1 8.5 4.2 11.3z" class="cls-1" clip-path="url(#clipPath2727)"></path>
    <path id="path73" d="M938 113c1.6-1.8.8-4-1.5-4.3-1.4 1.7-.7 3.9 1.6 4.2z" class="cls-1" clip-path="url(#clipPath2717)"></path>
    <path id="path75" d="M854.7 97.4c1.2-2.4-.7-5.7-3.6-4.8-2.5 1-3.5 4.9-2.8 7.2 1.5-1.4 2.6-3 3.7-4.4 1-.4 1.8 1 2.7 2z" class="cls-1" clip-path="url(#clipPath2707)"></path>
    <path id="path77" d="M575 34a4 4 0 0 0 .7-2.7 9.4 9.4 0 0 0-6.6 4c1.3 3.2 6.6 2.6 7.2-.7l-1.1-.2a1 1 0 0 0-.3-.5z" class="cls-1" clip-path="url(#clipPath2697)"></path>
    <path id="path79" d="M127.5 46c-.5.3-1.2.7-1.7 1.5-.8 1.3-.7 2.5-.8 3.8-.2 4-.7 8.1-1.5 12.2L120.3 53a118 118 0 0 0 2.4 14.3l.7 3.3 1.1-3.2c1.5-4.1 2.5-8.4 3-12.7.4-1.5.2-4.5.8-5.6.2-.3 1.6-1.1 2-1.4.8-.4 3-1.6 3.7-2.2 2.3-1.9.3-5-2.3-5.3-1.3 0-2.2.3-3.3.3-2.2-.2-2.4-2.9-2.6-4.8a27 27 0 0 0-4-11 30.4 30.4 0 0 0-3.4 15 36 36 0 0 1 3.3-10.8 23 23 0 0 1 1.2 4c.4 2.3.2 4.2.8 6.5.5 2 2.4 4 4.6 4 1.1 0 2.2-.3 3-.2.2 0 .5 0 .6.2l-3 1.8-1.4.8z" class="cls-1" clip-path="url(#clipPath2687)"></path>
    <path id="path81" d="M112.6 47.1c.5.5 1.7.8 2.1 0-.5-.5-.2-1.3 0-1.7.1-.7.3-1.4.2-2.5-2.5-.6-4.2 2.6-2.3 4.2z" class="cls-1" clip-path="url(#clipPath2677)"></path>
    <path id="path95" d="M160.7 66.7c-4.5-2.6 3-11.7-3.7-17.2a13 13 0 0 0-9.2-3c-6.6.2-12.8 5-14.5 11.5-3.5 10.9 9.4 20.3 5.4 26 4.7-4.4-4-15.2-3.3-21.2-.1-10 11.6-17.4 20.1-11.6 2.3 1.7 3 4.4 2.8 7.2.1 2.6-.8 7.3 2.4 8.3z" class="cls-1" clip-path="url(#clipPath2607)"></path>
    <path id="path97" d="M144.6 70.2c1.8-2 3.7-4.2 6.4-2.5.5-1-.3-2.3-1.3-2.8-3.2-2-7.1 2.1-5 5.3z" class="cls-1" clip-path="url(#clipPath2597)"></path>
    <path id="path99" d="M119.1 130.7c.6-.3 1-.8 1.2-1.4v-.5c-1 1-2.1.4-3.3.3-1.5-.3-3.5-.7-5.2-.3-2.4.4-5.6 2.6-4.7 5.4 1.3-2 3.2-2.1 5.2-2.5 2.2-.3 4.7.2 6.8-1z" class="cls-1" clip-path="url(#clipPath2587)"></path>
    <path id="path101" d="M154.4 101.5c.6 0 1-.5 1-1l-.5-4.3c0-.6-.5-1-1-1a1 1 0 0 0-1 1.2l.5 4.2c0 .5.5 1 1 1z" class="cls-1" clip-path="url(#clipPath2577)"></path>
    <path id="path103" d="M141 129.6c-1.6-.4-3.2-.6-4.8-.6a1 1 0 0 0-1 1c0 .5.4 1 1 1a19.7 19.7 0 0 1 4.6.6 1 1 0 0 0 1-.8 1 1 0 0 0-.8-1.2z" class="cls-1" clip-path="url(#clipPath2567)"></path>
    <path id="path105" d="M139.8 151.3c.2 0 .4 0 .6-.2.4-.2.7-.5 1.1-.6h.6a1 1 0 1 0 1.3-1.5c-.6-.5-1.5-.7-2.5-.4-.7.2-1.2.6-1.7 1a1 1 0 0 0 .6 1.7z" class="cls-1" clip-path="url(#clipPath2557)"></path>
    <path id="path107" d="M209.2 111.2a53 53 0 0 0-3.6 5.6 1 1 0 0 0 1.7 1c1-1.9 2.3-3.7 3.5-5.4.4-.4.3-1-.2-1.4a1 1 0 0 0-1.4.2z" class="cls-1" clip-path="url(#clipPath2547)"></path>
    <path id="path109" d="M200.8 120.1c0 2 .5 2 1 .2.1-2-.4-2-1-.2z" class="cls-1" clip-path="url(#clipPath2537)"></path>
    <path id="path111" d="M164 114.4a1 1 0 0 0-.8 1.2c.5 2.6.7 5.2.5 7.8 0 .6.4 1 1 1s1-.3 1-.9c.2-2.8 0-5.6-.6-8.3a1 1 0 0 0-1.2-.8z" class="cls-1" clip-path="url(#clipPath2527)"></path>
    <path id="path113" d="M265.2 89.1c-1.4 0-3-.7-4.5-.3-.8.2-1.3.6-1.7.9a39.8 39.8 0 0 0-6.2 6c-.3.4-.6 1.1-.5 1.6 0 .5.4 1 0 1.3.6 0 .7-.8.9-1.2 0-.4.3-.5.6-.8 2.5-1.2 4.9-2.9 7-4.5.6-.5.7-.6 1.5-.6 2.8.4 6.6-.6 8.1-3a16 16 0 0 1-5.2.6z" class="cls-1" clip-path="url(#clipPath2517)"></path>
    <path id="path115" d="M187.8 184.3c-.4-1.6-2.3-3.7-4-2.3-.8.7-1 1.4-1.1 2a9 9 0 0 0 .5 6 9.8 9.8 0 0 1 0-3.8c1.5-6.4 3.5-1.4 2.8 2.1-.3 2-1.6 4.3-3.3 5.2-1.3-1.2-1.4-3.4-1.6-5a14 14 0 0 1 1.4-6.9c.5-.8 1-1.9 1.7-2.1 2-.6 3.5 1.8 4 3.7 1.2 3.6.6 7.6-1.6 10.9 4-3.8 5.2-10.9 1.7-15.5-2.8-3.1-6.6-2-8.3 1.7-2 3.9-2.4 8.5-1 12.7.7 2.5 3.4 4.5 5.8 2.5 3.2-2.7 4.4-7.3 3-11.2z" class="cls-1" clip-path="url(#clipPath2507)"></path>
    <path id="path117" d="M101 76.8c3.5-1.3 5.8.8 9 2 2.5 1.1 6.7 1.4 8.5-1.2.6-.9.8-2 .4-2.9-.5 1.6-2 2.3-3.4 2.3-3.3 0-6-2.2-9.5-2.5-1.9-.1-4.2.5-5 2.3z" class="cls-1" clip-path="url(#clipPath2497)"></path>
    <path id="path119" d="M94.5 88.8c1.7 1 3.2-1.2 4-2.5 3-5.5-3.4-12-9.2-10-7.5 2.1-9.3 12.6-3.2 17-2.4-4-2.3-8.8.7-12 1.8-1.9 4.6-3 7-2a5.4 5.4 0 0 1 3 7.5c-.5 1-1 2.3-2.3 2z" class="cls-1" clip-path="url(#clipPath2487)"></path>
    <path id="path121" d="M58.5 182.6a49.3 49.3 0 0 0-7.4-12v.1l-1.2-1.4 1.2 2.1c-.2 4.7.8 9.1 3 13.2.6-1.6.9-3.4.8-5.2a70 70 0 0 1 4 13l-.9.3 1-.1 1.7 7.3.1-7.7 2.8-.5h.4v-.6c0-8.2.9-16.6 2.3-24.8l-3.4 4.4c-2.7 3.5-4 7.6-4.4 11.9zM62 179a82.9 82.9 0 0 0 .8 11.7l-2 .8c0-4.2.2-8.6 1.2-12.5z" class="cls-1" clip-path="url(#clipPath2477)"></path>
    <path id="path123" d="M55.4 192.2c-.1 0-.2-.2 0-.2 0 0 .1.2.1 0 0-1-1.3-2-2.1-2.2l-1.3-.1c.7-.9 1-2 .2-2.7 0 .6-.3 1-.6 1.1-1.3.7-2.7.3-4 1.3-.8.5-1.3 2.2-1.7 3l4.7.2 2.7-.2.2.1c.5 1.2 1.7 1.4 2.6.7.4-.2.6-.6 1-.3 0-.8-1.3-.6-1.8-.7z" class="cls-1" clip-path="url(#clipPath2467)"></path>
    <path id="path125" d="M40 189a5 5 0 0 0-.8-2l.6-.9c1.8.9 3.7 1.7 5.6 2.3.6-2.6-2.1-4.6-4.5-4.4.7-1.8.8-3.9.5-5.7l-.7-3.7a53.2 53.2 0 0 0-5 8.7l-.2-.2a21 21 0 0 0-5.3-12.8l-1.9-2.2-.6 2.8c-1 3.9 1.3 7.1 2 10.7-5.9.1-9.1 7.6-8.1 12.9 1.2-4.1 4.2-10.6 9-9.9 1.7.1 3.2.7 4.5 1.5l.2.6v-.4a10 10 0 0 1 2.2 2v.2-.1c.6.6 1 1.3 1.4 2l-.2.4.4.1.4 1.3c-1 0-2.2.1-3.2.3l-6 .8-9 1.4-1.5.3c-.5.2-1.3.2-1.5.8.4-.4 1 0 1.5 0 6.6 1.7 13.7.5 20-2.1l.1.7.3-.8c.8-.2 1.5-.2 2.3.3-.2-.6-.7-1-1.2-1.3l-.9-.2v-1.1c2.1.2 4.1-.8 5.3-2.6a5 5 0 0 0-5.6.3zm-9.1-7.4h-.2a19 19 0 0 0-.3-5.8c1.3 2 2.3 4.2 3.2 6.4-.8-.3-1.8-.5-2.7-.6zm6 2.5 1.7-1.7-.4 3-1.4-1.3z" class="cls-1" clip-path="url(#clipPath2457)"></path>
    <path id="path127" d="M764.2 130.4a13 13 0 0 0 3.4 9c2.3 2.5 4.8 3.6 7 6 .1-3.3-2.8-5.8-4.8-8-2-2.1-3.4-4.7-5.6-7z" class="cls-1" clip-path="url(#clipPath2447)"></path>
    <path id="path129" d="M770.9 123.8a7.8 7.8 0 0 0 4.8-6.6 5.3 5.3 0 0 0-4.8 6.6z" class="cls-1" clip-path="url(#clipPath2437)"></path>
    <path id="path131" d="M686.4 65.8c0-1.1-.3-2.6.3-3.4.4-.5.8-.5 1.4-1 1.1-1.1.8-3.2 1.1-4.3.3-.4.5-.5 1-.8.6-.5 1.3-1.3 1.6-2l.8-2.1a23 23 0 0 1 3.6-6.7l.2-.5-.2 1.5c-.3 2.7-.5 5.3-2.5 7.3 4.7-3.2 3.4-10 7-14l1.2-1.5c.8-1 1-2.7-.1-3.5-1.5-1.3-3.8-.6-4.6 1-1 1.5-.9 3.2-1.7 4.8-1.7 3.6-4.6 6.8-5.6 10.8-.2.9-.4 1.6-.9 2.3-.3.5-.8.7-1.3 1.3-.4.3-.7.9-.8 1.3-.5 1.4 0 2.6-.4 3.5-.4.4-1.3 1-1.5 1.6-.8 1.6-.3 3 0 4.5a9 9 0 0 1-1.9 7.2 8.9 8.9 0 0 0 3.3-7.4zm13.4-29-.4.7.2-.3c0-.3.1-.3.2-.4z" class="cls-1" clip-path="url(#clipPath2427)"></path>
    <path id="path133" d="M670.4 57c-.8-4.7-6.8-2.5-5.4 1.7.7 1.7 2 2.6 3.2 3.7l1.4 2c.6.9 4.5 6 4.9 6.8.8 1.5.1 3.6 1.5 5.1.8 1 1.9 1.4 2.5 2.2.4.4.4 1.4.7 2.8.3 1.3 1.2 2.4 1.9 3.4 2 2.6 2.8 6 2.5 9.3 1.3-3.2.9-7.2-.9-10.4-.6-1-1.1-2-1.2-2.7-.1-1.2 0-2.7-.8-3.9-.7-1-1.9-1.6-2.5-2.4-.4-.7-.3-1.6-.4-2.6-.1-1.4-1-2.8-1.7-3.8l-4.3-5.5-1-1.3c-1-1.3 0-2.1-.4-4.3zm-3.9.1c.3-.4 1-1 1.3-.6.7 1.3-.2 2.2 0 4.3-1-1.2-1.7-2.3-1.3-3.7z" class="cls-1" clip-path="url(#clipPath2417)"></path>
    <path id="path135" d="M714.4 71.2a4 4 0 0 1 3.2 0 4 4 0 0 0-3.5-.8c-3 .7-4.8 3.7-6.6 6l-.9 1.5c-7 12.3-7.3 26.8-9.2 40.5 5.3-13.3 5.5-28.1 12-40.9 1.4-2.2 2.4-5.1 5-6.3z" class="cls-1" clip-path="url(#clipPath2407)"></path>
    <path id="path137" d="M705.3 204.3a26 26 0 0 0-.1-21c-.7 7-1.6 14 .1 21z" class="cls-1" clip-path="url(#clipPath2397)"></path>
    <path id="path139" d="M689.6 199.7a34 34 0 0 0 .1 8c.9-2.6 1.5-5 2.2-7.6a61 61 0 0 0 3-23.2c-2.4 7.5-4.5 15-5.3 22.8z" class="cls-1" clip-path="url(#clipPath2387)"></path>
    <path id="path141" d="M629.8 99c.9-2.7 1.6-5.5 2.3-8.3.5-1.5 1-3 1.8-4.2 1.1-1.4 3-2.5 3.1-4.7.1-1.4-.5-2.6-.8-3.8-.5-1.2 0-1.6 1-2 2.3-.6 5.6-2.2 4.7-5.2-.2-.7-.9-1.6-1-2 0-.8.7-1.4 1.2-2 1.5-1.2 3.1-4 1-5.4-2-1.1-3.7 1.1-4.1 2.7.8-1.2 2.2-2.7 3.5-1.7.2.2.3.5.2.9-.5 1.5-2.2 2-3.2 3.3-.5.5-1 1.3-.9 2.2 0 1.3.8 2.1.8 3-.6 1-2 1-3.1 1.4-1.5.4-3.1 1.7-3.3 3.4-.3 1.8 1.1 3.9 1 5 0 .7-.6 1.2-1.2 1.9-.8.8-1.4 1.8-1.9 2.8.2-2.5.1-5-1-7.2a6 6 0 0 0 .8-6.6c-.3-.5-.5-.8-.4-1.3 0-.4.4-1 .7-1.9.6-2.3.2-4.7.1-6.8l-.3-4.4c0-.6 0-1 .3-1.6.4-.7 1-1.2 1.1-2.2 0-.5-.2-1-.3-1.3-.7-1.3.8-2.3 1.4-3.4.4-1 .1-2.9-1.2-2.6.8-.1 1 .8 1 1.4-.2 1.6-1.9 2-2.3 3.7-.3.7.3 1.6.2 2.1-.1.7-1.6 1.7-1.7 2.7-.2.9-.1 4.7-.2 5.6 0 2.1.2 4.2-.5 6-.1.6-.6 1.1-.8 2.2-.5 1.5.8 3 .8 4.4 0 1-.6 2-1.3 2.6l-1.2.8.8 1.2c2.3 3.5.6 8.1.4 12.2-.2 1.8-.3 3.7-.3 5.5a66 66 0 0 0-3.5-10.7c-2.4-5.2-6-10.6-11.3-13-1.2-.4-2.4.7-3.1 1.3a33 33 0 0 0-6 6.4c2.6-2 5.4-4.3 8.3-5.8.4 0 1.6 1.2 2 1.4 5 4.5 7.6 11 9.8 17.2 1.4 4.1 2.8 8.2 3.8 12.3.2 8.7.1 17.5 2 26-.5-11 .6-22.3.8-33.4z" class="cls-1" clip-path="url(#clipPath2377)"></path>
    <path id="path143" d="M605.7 136.2c2.5-3.6 5-5.3 9.4-5.2 4.6.2 11-.3 13.4 4.4.5.8.7 1.9.5 2.9 1.3-4.6-3.7-8-7.6-8.5-5.8-1-9.3-1.2-12.1 0a297 297 0 0 0-.8-9.4l-.5-4.3c.6-.1 1.2-.1 1.5.2.5.4.4 1 .5 1.8 0 1.4.5 3.5 2.4 4 .9.2 1.8 0 2.5-.1 1.6-.2 3.3-.1 5 0l4.6.5c1.3 3.4 2.8 6.7 4.4 10-1.1-5.1-2.7-10-3.5-15-1.5-7.7-1.4-15.7-4.6-23a31.2 31.2 0 0 0-4.3-6.8c-2.3-3-5.2-7-9.4-7.1-1.4 0-2.8.3-3.7 1.2 1.1-.6 2.4-.6 3.6-.4 3.8 1 5.5 4.5 7.6 7.7 3 4.2 4.7 8.6 5.6 13.7 1 4.9 1.4 10.1 2.9 15.2l1 3.6c-3.1-2.1-7-3.2-10.9-2.4h-.2c0 .1-.2-.1-.3-.4l-1-2.7c-1-1.6-2.5-1.5-3.8-.6a43.3 43.3 0 0 0-4-15.4c-1.8-3.4-6.3-9.4-10.7-6.5-1.3 1-1.9 2.5-2.5 3.7A124.6 124.6 0 0 0 583 115a5.4 5.4 0 0 0-4.3-.6l-.3.2a8 8 0 0 1-.6-3l.5-8.2-3.3 7.6c-2 4.6-7.4 6.2-12 4-.1-2.3-.6-4.5-1.5-6.5 3.7.8 7.8 0 10.5-3 1.2-1.4 2.8-3.4 2-5.3-.6-1.1-1-1.3-1.7-2a21.2 21.2 0 0 0-4.4-3.6c2-.4 3.8-1.6 5.2-3.2 2.8-3.3 3.3-7.6 3.1-11.6v-1.2c0-.7-.8-1.8-1.7-2l-1.5.1c-2.4.4-4.7 1.2-6.9 2.2 2.6-3.9 3.2-8.8 2.8-13.4a23.9 23.9 0 0 0-13.7 9.6v-1.5a17 17 0 0 0-3.4-9 25.3 25.3 0 0 0-6.5 9.1c-.6-1-1.5-2-2.5-2.7-.8-.6-1.6-1.2-3-.8-.8.3-1.1.9-1.4 1.2a16 16 0 0 0-1.9 4.2 10.4 10.4 0 0 0-5.3-1.7c-.4 0-1-.1-1.8.4-2 1.4-1.3 5.5 0 7.7a22 22 0 0 0-3.3-1.7c-.9-.3-1.8-.6-2.9-.4-3.6 1.1-3 6.7-1.8 9.7-3.3-1.7-8.3-1.5-10.5 1.3-1.3 2.2-.2 5.5 1.7 7.4-5 .8-7.8 6.8-7.4 11.6 0 .5 0 1.1.4 1.7.2.6 1.2 1 1.7 1a33 33 0 0 0 3.3-.8 16 16 0 0 0-7 8.7l-1.5-2.4c-5.3-8.4-14-4-19.7 1.4a43.4 43.4 0 0 0-10.3 21c.2-3.2-.5-6.6-1.9-9.5.3-4 4.4-6.6 6.2-10 1.5-2.7 2.5-5.7 4.3-8 1.8-2.5 4-4.3 6.5-6.3 1.6-1.2 3.3-3.7 2-5.8l-.8-1.3-1.2.7c-3.2 1.8-6.8 4.2-8.4 7.8-.5 1.2-.9 2.1-1.5 2.5l-1.6.7c-1 .6-1.6 1.8-2 2.9l.1-.4.7-4.5c1.8-4 3.7-7.9 5.7-11.7 1-1.4 2.5-1.6 3.3-3.3.4-.7.2-1.8.2-2.5.4-.8 1.5-1.2 2.1-2 1.8-2 2-4.7 3.6-6.5.8-1 2.4-1.8 3.4-2.8 1.5-1.4 2.5-3.6 1.5-5.6l-.6-1.2c-2.4 1-5 1.7-7 3.4a7.6 7.6 0 0 0-3 5.4c-4 1-5.3 9.7-5.8 13 1.1-3.5 2.5-7 4.5-9.9.7-.9 1.6-1.4 2.2-1.2l.6.3c-.4 1-.8 2.2-1.6 3.1-.6.8-1.5 1.3-2.2 2.3-.6.8-.6 2-.4 3 0 .3-.2.4-.6.8-.7.6-1.9 1.5-2.3 2.4-1 2.1-1.8 4.3-2.7 6.4l1.9-14.4c.2-2.1 1.6-4.3.6-6.4l-.1-.3a4 4 0 0 0 1-1.5c.2-.8.2-1.7 0-2.4-.7-2.4-1.4-4.6-1.3-7 2.2-.5 3.4-3.2 3.2-5.3-.2-2-1.2-3.9-1.1-5.5 0-.6.2-1 .4-1.8s-.1-2.1-.8-2.6c-.7-.6-1.3-.8-1.6-1-1.6-2.1 2-4 2.2-6 .5-1.4-.6-3.6-2.2-2.7-.6.2-1.1 1-.6 1.6-.4-.6.2-1.2.7-1.4 1.3-.4 1.8 1.3 1.3 2.2-.9 2.1-3.9 3.5-3.2 6.2.1 1 1.6 2 2.1 2.4.3.3.3.4.2.9-.2.5-.6 1.3-.6 2-.5 3 2 5.9-.2 8.3-.3.2-.4.2-.7.1l-1.4-.2-.2 1.3a15 15 0 0 0 .5 7.6c.4 1.1.6 2 .5 2.5h-.2l-.6-.3-3.6-1.5 1.7 3.6c.4.6.9 1 1.5 1.2.3.4.6 1 .6 1.5 0 .7-.5 1.6-.7 2.5-1.3 8.4-1.6 17-2.2 25.5l-.6 2.6c-.1-5-1-10-1.3-14.7 0-2.9-.7-6-1.7-8.7-.7-2.7.2-5.1 0-8.3-.3-2.3-1.2-4.7-3.4-6l-2.2-1.3a114 114 0 0 0 5.7 33.2l-.6-5.8c1 5.7 2.5 11.1 2.7 16.8-.8-1-2.3-1-3-.2-.5-1.6-1.1-3.2-2-4.6-.6-1.4-1.4-2.5-1.9-3.6-.7-1.7-.5-4-1-6-.5-2.2-2.3-4.4-4.8-4.7-.8 0-1.7.3-2.4.6l-.2.9c0 .7.2 1.4.5 1.9.6 1 1.5 1.4 2 2.2.6.9 1 2 1.6 3.2a284 284 0 0 0 8.9 21.4c-.3 3.8 0 7.5.8 11.2-1.3-2-2.8-4-4.6-5.8a25 25 0 0 1-6.4-9.7c-1.3-3.6-1.7-7.6-2.3-11.7-.6-4-1.4-8.3-3.3-12.2a46.2 46.2 0 0 0-7.3-10.2c-5.5-6.1-11.8-11.6-15-19.2a28 28 0 0 0 2.6 6.2 811 811 0 0 0 11.8 51.3c1.3 4.3 2.8 8.9 6 12.6 3.1 3.6 7 6 10.2 9 1.2 1.1 2.4 2.5 3.5 3.9a7 7 0 0 1-2-.7c-4.6-2.6-8.7-5-13-.1-2 2.4-2.6 5.7-3.3 8.6l-2 8.6c-1.3 5.7-2.9 11.3-4.4 17-1.3 4.6-2.6 9.4-5.7 13.1-2-6.5-3.7-13-4.6-19.7-1.5-11.4-.2-23.9-6.2-34.3-.9-1.4-3.1-1.8-4.5-1.7l-7.7-.4c-1 0-2.1.2-2.8 1-1.3 1.8-1.6 4-2.3 5.9A95.7 95.7 0 0 0 402 189c-2-2.2-4.4-4-7.4-5-6.6-2.2-9 4-11.1 8.7-5.7 12.8-10 26-14.4 39.3 6-12.5 11-25.5 17-38 .8-1.7 2-4.5 3-5.9 2.7-3.6 7.4-.3 9.9 2 6.5 6.4 7 16.2 7.2 25v.4a41.6 41.6 0 0 0-5.8-13.1c-2.3-3.3-6.7.1-8.6 2.2-3.6 4.1-4.4 9.6-5.8 14.6-1.3 4.8-3 9.6-4.7 14.4 2.9-4.3 5.1-8.9 6.9-13.7 1.8-4.6 2.8-10.4 6.3-13.8 2 5 2 10.3 2.5 15.6.4 6 .5 11.7.7 17.7 3.4-8.3 3.7-26.3-2.8-33.7.9-.8 1.8-1.4 3-1.8a53.8 53.8 0 0 1 7 13.3 16 16 0 0 1 1.4 4l.1 2.3-.2.9.2-.5.6 12c.6-9.3 1.2-18.4 1.2-27.8 0-2.5-.3-5.1-.9-7.7l2.4-5.7c-1.5 15.2-2 32.9 4.8 46.1-3.6-16-2-32.2-3.8-48.4l1-2.7c2-5.1 3.7-10.3 4.5-15.7 1.9 14.4 2.5 33 18.9 43.3a45 45 0 0 1-12.2-21c-3.3-10-3.3-34-12.5-39.1 3.5 3.5 4.8 9.4 5.7 16.3a56 56 0 0 0-4 7.4c-1.2 2.6-2.2 5.3-3.2 8l-.1.2c-1 2.8-1.8 5.7-2.2 8.6-1-3-2.4-6-4.4-8.4a115 115 0 0 1 8.5-39.9c.1-.2 7.9.4 8.3.4 1 .1 1.8-.1 2.3.6 5.3 10 4.3 21.8 6.3 32.8 1.2 7 3.4 13.7 6.1 20.3l-1.2 1.1 1.3-.8 3.7 8.4c-1-3-2-6-2.8-9 3.9-3.2 6-8.5 7.7-13a166.3 166.3 0 0 0 7-25.7c.7-4 1.2-8.5 5.2-10 2.6-.9 5.3 1 7.9 1.7a8 8 0 0 0 2.7.3l1.6 2.3c-2 6.5-6.2 11.9-9.2 18a79.4 79.4 0 0 0-8.7 34.8 185 185 0 0 1 14.3-40.1l.4-.8c1.2 1.9 2.7 3.5 4.3 5 0 8.4-2.2 16.3-2.7 24.7 0 2.8 0 5.8.8 8.6l1.6-8.4c1.5-7.9 3.6-16.6.7-24.4 1.5 1.6 3 3.2 4.4 5 .8-5.3-3.9-9.9-8.7-11.4a34 34 0 0 0 3-10.6c3 4.8 5 10.3 5.8 16 .2-9-3.5-18-9.9-24.8-3.1-3.3-7-5.8-9.6-9a30.7 30.7 0 0 1-5.2-11.6c-4.4-16.5-9-33.7-14.4-50 2.9 5 7 9.4 10.4 13.8 2.6 3.1 4.9 6.4 6.6 10a40 40 0 0 1 2.8 11.5c.5 4 1 8.2 2.3 12.3a29 29 0 0 0 7 10.7c12 11.2 11.3 28 10 43.1a76 76 0 0 0 2-23.4 117 117 0 0 1 2.5-5.4c4-6.9 7-15.1 14.4-19 4.5 1.8 5.8 8.2 7 13.2a51.6 51.6 0 0 0-3.6 14.1c-3-3.7-9.1-6.2-12.9-2.4-1.2 1.4-1.8 3.2-2.5 4.8-2.4 6.1-4.6 12.2-6 18.7l-.4-1.3c-.4 5.5-1.5 13-2.2 18.5a62.9 62.9 0 0 0-.3 18.9c2-11.8 5.6-24 2.9-35.9 3.5-5.6 6.3-11.6 8.8-17.7.5-1.1 1.2-3.3 1.9-4.2 2.6-2.6 7.5-.9 10.6 1.5-.5 4.7-.4 9.4.4 14l5 .4c-1.8 11.4-2 23-.4 34.4 2.3-11.2 2.7-23 .8-34.3h4.2a15.9 15.9 0 0 0 0 12.3 17 17 0 0 0 1.2-12.5c2.5-.3 5-1 7.3-2.3l.3-.2-.5 4.3-.1.1c-4.1 4-7 9.3-7.7 14.8-.5 3.2-.6 6.3-.5 9.4.3 2.7-.5 7.3 2.6 8.6-1.4-.8-1.6-2.5-1.5-4a149 149 0 0 1 1.7-13.5c.9-4 2.7-7.7 5.2-10.8-.4 9.6.7 19.3 4.7 28.1a905 905 0 0 1-1.5-19.4c-.3-3.7-.5-7.4-1-11.1l1.7-1.5c4.3-4 9-8 14.9-9.1 2.5-.4 5.7.1 6.7 2.9.8 2.4-.3 5.5.5 8.1-3.2-1-7-.1-9.7 1.7a37 37 0 0 0-9.1 9.3c3.2-1.4 6-3.5 8.8-5.5a31 31 0 0 1 9.6-.1c.3 4 1 7.8-.1 11.6-.5 2-1.4 4-2 6.2-.7 2.1-1.3 4.3-1.7 6.6 2.9-3.8 5.2-7.5 6.6-12v-.4l-.2 13c2.5-14.7 4-30.2 5.2-45.2a564 564 0 0 0 1.5-22.7 62 62 0 0 0-2-21.1c.8-2.9 1-5.9.4-8.8a34.8 34.8 0 0 1-9.9 19.3 30.7 30.7 0 0 1-6.7-12c0 1.3 0 2.7.2 4v.3a44.2 44.2 0 0 1-12 11.4 30 30 0 0 1-2.7-11.8c1-1 2-2 2.8-3.2a51.7 51.7 0 0 1-11.1 5.6l-1-2.2c.4-5 2.8-9.6 6.6-13l1-.4-.5-.1.1-.1h-.2c-1.5-.3-3.7-.5-5-.6.5-4.4 1.7-8.7 5.3-11.4.8.5 1.6.9 2.5.9l1.6-.2c.4 0 .9-.1 1.2.3 0-1.2-1.9-1.2-2.6-1.6-.7-.3-1.2-.8-1.6-1.5-.6-1-1.3-3.3-.9-4.1l.6-.4c3-1.5 6-1.7 9.4-1.2a7 7 0 0 0-1.5-1.1l1-3.7c.2-.7.6-2.8 1-3.2.2-.2.2-.2.6-.2 2 .3 4.2.6 6.4.3a16 16 0 0 0-.9-.6l1.2-5.6c1.7 0 3.4 0 5.1-.2-.2 1.2-.2 2.5 0 3.7 1.9-2.4 3.2-4.8 4.7-7.4v-.1c1.4.3 2.7.8 4.1 1.2a18 18 0 0 0-1.1 6.7c2.2-4 4.6-8 7.5-11.6 1 1.5 1.8 3 2.5 4.7l.8 1.8-.2.3-1 2c1.3-.9 2.3-1.9 3.5-2.8a46 46 0 0 1 9.2-5.6c.1 3.2-.1 6.4-.6 9.6l-2.5 1.6c3.4-.7 6.7-1.3 10.1-1.4.1 5.6-1 12.3-6.6 14.6a9.3 9.3 0 0 0-4-.8 11.9 11.9 0 0 1 2.4 1.4 30 30 0 0 1 6.3 6.6c-2 4.3-6.6 5.7-11.1 5.1-.8-1.3-1.8-2.4-3-3.5l1.5 3.3a17 17 0 0 1-3.6-1.2c1.1 1.3 2.6 2.3 4.2 3a21.4 21.4 0 0 1-1 15.6 54.2 54.2 0 0 1-11.7-9.4 27 27 0 0 0 7.7 10c-4.5 27.9-9 58.4-12.7 86.3 1.1-4 2.2-8 3.1-12v2.3c0 1.1 0 3.2 1.5 3.2-1.3-.4-.8-2-.6-3.1l.6-3.7c.8-6.8 2.6-6.8 8.9-8.3 2.6-.6 4.7-2.8 6.5-4.5 5.2-5.5 13.4-2.3 17.3 3.3 1.2 1.8 3.3 4 2.3 6.4l.3-.4.1 4.3a115.3 115.3 0 0 1 23.9-61.7zm-114-58.8v.2c-1 1.5-2.9 2.2-4.3 3.7-.6.6-1 1.4-1.4 2.1 0-3.3 2.6-5 5.8-6zm-17 39.6.7-1.7c.4-.9.7-2 1.6-2.3l1-.3a51 51 0 0 0-3.2 7.2c-.6 1.4-1.5 2.7-2.4 4.2l.6-3.4 1.7-3.7zm-3.3 3.4v2c.6-2.3.8-4.7.8-7.1l.4-1-.2 6.4-.7 2.9.6-1.4v2.1a12.1 12.1 0 0 0-2.3 5.6l-.5-.9c.2-2.5 0-5-.5-7.6 1 .5 1.7.1 2.4-1zm-2.3 9.8c-.9-3.8-1.9-7.5-3-11.2a31 31 0 0 1 3 11.2zm19.6-.4c-8.2.7-14.4 8.2-16.3 15.6 3.9-5.9 9.3-11.8 16.5-12.6h1.6c-5 1.4-9 6-11.3 10.3-2 3.5-3.7 7.3-4.6 11.3-.6-3.3-1.5-6.4-3-9.4.4-1.2.6-2.3.7-3.5 4.5-9.4 8.8-20 18.8-24.3 6.3-3 8.3 1.3 11.7 5.6l.4.8c-.2 1.8-.2 3.6.2 5.4l.3 1.6 3-1c1.3 2.3 2.4 4.6 3.4 7-1.8 0-3.6.5-5.3 1.8.7-3.8-.8-8.3-4.5-9.8.8 3.8 1.4 7.4 3.5 10.7a19 19 0 0 0-4.1 5.7c0-7.1-2.3-15.5-11-15.2zm25 40.2c-3.3 2.9-8.2 3.2-12.6 3l-2.8-.3a56 56 0 0 1-.1-12.8c1-7 3.7-22.1 12.9-21.8 3.9.3 7.4 3.6 11.3 4.2-.9.5-1.7 1.2-2.4 2-1 1.1-1.8 2.3-3.2 3 1.6 0 3-1.1 4.2-2 1.7-1.3 4.4-1.9 7-1.8 3.8 3 5.8 7.5 7.5 11.9 1 2.5 1.6 3.6-.6 5.4-4.6 3.4-11.7 1.3-16.6 4.8-2 1.3-3 3-4.5 4.4zm26.1 6.6c1.8-6.3-1.6-10.1-8-9.7a21 21 0 0 0-9.2 3.4 50.6 50.6 0 0 0-7.5 5.9l-.5-3.2c2-1.4 3.4-3.8 5.3-5.2 4.5-3.1 12-1.4 16.3-5.5 2.7-2.5 2.2-4.5.7-7.5-2-4.2-4.4-8.7-8.3-11.3 3 0 6 1 7.8 2.3a10 10 0 0 1 2.6 3c1.4 2.4 3.3 4.6 5.6 6.2a797 797 0 0 0-2 27c-1-.8-2-1.3-3.1-1.7-.2-1.2 0-2.5.3-3.7zm2.7 5.4-.2 3.6a10 10 0 0 0-6.4-3.3c2-.6 4.1-.8 6.6-.3zm-3 3.7 2.8.6-.3 6a19 19 0 0 0-2.5-6.6zM529 128.6c.6-1.1 1-2.2 1.4-3.4.9 4.1 3 8 6 11 4.7-3.3 8.2-8.3 9.7-13.8 1.4 10.3-.5 21.5-1.4 31.6v.6a38.5 38.5 0 0 1-3.6-6.8c-.6-1.4-1.5-3-2.9-4.1a15 15 0 0 0-15.5-1.5c-1.7-.3-3.3-1.3-4.7-2.2l-.4-.3c4.8-2.4 9-6.3 11.4-11zm-14.1-3.9c-1.4 4.7-.6 10 1.7 14.3a14 14 0 0 0-6.3-2.2c-.5-2.6-1.2-5.2-2.1-7.7 2.4-1.1 4.7-2.6 6.7-4.4zm16.6-48.2zm9.7-3.7c-.3 0-.3 0 0 0zm32.9 6.5zM609 130c-.6.2-1.2.6-1.7 1a28 28 0 0 0-5.5-13.3c-.8-1.2-1.9-2.5-3.3-3.3.6-1 1.2-1.8 2-2.6.7-.8 1.4-1.4 2.4-1.5.6 0 1.3.2 2 .4l1 5c1 4.6 2 9.7 3.1 14.3zm-10.8-15 1.6 3.8.6 1.5h-2.7l-2.6-.1a115 115 0 0 0 3-5.3zm-5-16.3c.6-1 1.1-2.6 2.2-2.8 1-.1 2.3 1 3.2 1.9 3.2 3.2 4.8 7.4 6 11.8-7-4.9-14.4 13.2-16.5 19.7a12 12 0 0 0-4.4 2.4c.2-2.2-.8-4.3-2.1-6l-1 .8c3.7-9.5 7.8-18.8 12.6-27.8zm-1.6 32.8c.1 1.8 0 3.6-.2 5.5l-1.9.4 5.5 2.6a8.6 8.6 0 0 1-4.5 5.6l-1.5-1.2c0 2 .7 3.6 1.4 5.3.2.5.4 1 .4 1.4.2 0-.4.3-1 .4l-2.6 1a8.9 8.9 0 0 0-2.1-2l.5 2.7c.5 2.2.8 4.3 1 6.4a8 8 0 0 1-4-.6 9.6 9.6 0 0 0-1.6-5c0 3.6-.8 7.2-2.5 10.3a9.1 9.1 0 0 1-4.2-5.6 6 6 0 0 0 .4 5.2c-1 1.5-2 3-3.4 4.2-.8-1-1.9-1.7-2.6-2.7-1-1.2-.8-3.2-1-4.9a6.6 6.6 0 0 0-1.5 4.5l-3.7 2.5a8 8 0 0 1-3.3 1.4c-.8-3.3-1.3-6.7-1.3-10h.1c.3-.4-.2-.6-.4-.4l-.3.5c-.7-1.7-2-3.2-3-4.6l-.3-.8.3-.4c1.5-1 3.4-1.5 4.8-2.8l-1.7-.2c.3-1.8.2-3.7-.3-5.4l6.9-1c-.6-.5-1.2-.8-1.8-1 .4-1.6.4-3.7.5-4.8 2.5-.9 5-.8 7.6 0-.5-1.2-1.4-2-2.4-2.6.3-1 .6-2.1 1.2-3 2.2.4 4.3.6 6.5 1.3-.1.6-.2 1.2-.1 1.8l1.8-1.8 4-4a57 57 0 0 1 2 2.4 7 7 0 0 0-1 1.2c1.6-.4 3-.8 4.6-1l4.7-.8zm0-.9zm-3.8 22.9c1 .2 2.1.4 3.1.3l-1.6 3.5c-.3-1.4-.8-2.7-1.5-3.8zm-11.1 18.1-.5 1.5-1.5-5.4c.4-.8.6-1.8.7-2.7.8 1 1.8 1.9 3 2.5a26 26 0 0 0-1.7 4.1zm-16.1 7c1.2-2.7 2-5.6 2.5-8.6 1.3-1 2.4-2.5 3.3-4a6 6 0 0 0 2 3.2l-2.6 3.1c-1.8 2-3.7 4.1-5.2 6.4zm-2.9 5.5-.5.4.7-1-.2.6zm1-15.2s-.1 0 0 0zm-.8-10.2v.1-.1zm-5-8 .7-7.2c1 2.4 2 4.7 3.6 6.7-1.4-.2-2.8 0-4.2.6zm6.5-23.2c2.6-3.4 3.8-7.6 3.7-11.8 3.4 3.8 9.4 3.2 12.8-.4l1.4 2 1.6 1.6.3-2c.2-1.3 2-1.4 3-1.4h.7c-1.4 4-2.5 7.8-3.4 11.8a11.8 11.8 0 0 0-3.7 5.6c-1.6-2.7-5.4-3.6-8.3-3.8-1 1.7-1.5 4-.8 5.9a7.3 7.3 0 0 0-4.2 0c-1 .2-2.1.7-2.5 1.8-.3 1 0 1.4 0 1.7a20 20 0 0 0 1.7 4c-2.5-1-5.4-.8-8-.1.5-6 .8-12 1-18.1a26 26 0 0 0 4.7 3.2zm-12.5 62c2.3-11 4.1-22 5.5-33.1a13 13 0 0 0 4.8 2.8 17 17 0 0 0-1 10.2c.2.8.4 1.7 1.2 2.2.8.5 1.4.3 1.6.3.3 0 .6 0 .9-.2a9 9 0 0 0 1.1-.4 44.4 44.4 0 0 0-6 14.6l-.7.3c-2.7.8-5.6 1.4-7.4 3.3zm33.3-2.7c-2.9-5.8-10.2-10-16.6-7.3a38 38 0 0 0 4.1-5.9c.6-1 1.1-2.3 1.4-3.6.7.9 1.1 1.8 1.6 2.7l1.4-1.3c.6-.6 1.2-1.2 1.7-2-.3 3.3 0 6.7 1.8 9.7l2.4 3.9 1.3-14v-1h.3a13 13 0 0 0 3-7.6 6.3 6.3 0 0 0 4.7 1.9 88.8 88.8 0 0 0-5.6 27.7c-.4-1.1-1-2.2-1.5-3.1zm13.1-37.6c-.4-1-1-2-1.9-2.8 3.7-.1 7.4-3.8 6.4-7.6-.7-1.6-3.5-2-5.9-1.8 1.6-1.7 2.4-4 2.5-6.4l-.2-1.2c-.3-.6-1.3-1.1-1.9-1-.7 0-.9 0-1.4.2-.7 0-1.4.2-2 .4a82 82 0 0 0 5.3-7.4c1.7 2.2 5.2 2.3 6.9.2a99 99 0 0 0 5.3 9.8 91.6 91.6 0 0 0-13 17.6zm2-9.1z" class="cls-1" clip-path="url(#clipPath2367)"></path>
    <path id="path145" d="M613.6 134.7c-13 9.3-18.7 27-20.8 42.4 1.7-3.7 3-7.4 4.5-11.1 4.2-11 8.8-22 16.3-31.3z" class="cls-1" clip-path="url(#clipPath2357)"></path>
    <path id="path147" d="M617.5 162.2c-4.5 2.6-7 7.6-8.6 12.4-1.4 4.8-2.9 9.9-2 15 1.5-4.9 3.4-9.3 4.8-14 1.5-4.8 3.1-9.2 5.8-13.4z" class="cls-1" clip-path="url(#clipPath2347)"></path>
    <path id="path149" d="M593.6 108.8c-5 2.6-8.2 8.4-7.7 14 3.4-4.3 6-8.8 7.7-14z" class="cls-1" clip-path="url(#clipPath2337)"></path>
    <path id="path151" d="M633 124c3.2-4.6 5.1-9.7 6-15.2a16.2 16.2 0 0 0-6 15.2z" class="cls-1" clip-path="url(#clipPath2327)"></path>
    <path id="path153" d="M666.8 109.4c-.8.4-1.7.9-2.6 1.2a7 7 0 0 0-3.8-1.5c-1.8-.1-4 1.1-3.9 3 2.7-1.9 5 .5 7.5 1.9l.7-.4a8 8 0 0 0 3-3.3c.7-1.6.6-1.7-.9-.9z" class="cls-1" clip-path="url(#clipPath2317)"></path>
    <path id="path155" d="M650.6 120.7c2 .3 2.9-1.2 1.6-2.8-2.1-.3-3 1-1.6 2.8z" class="cls-1" clip-path="url(#clipPath2307)"></path>
    <path id="path157" d="M691.6 99.5c1.2-1.7.5-2.5-1.3-1.6-1.2 1.6-.5 2.4 1.3 1.6z" class="cls-1" clip-path="url(#clipPath2297)"></path>
    <path id="path159" d="M661 143.9c2.6-6 4-12.4 4-18.9-4 5.3-5.5 12.4-4 18.9z" class="cls-1" clip-path="url(#clipPath2287)"></path>
    <path id="path161" d="M659.2 162.2a4.6 4.6 0 0 0 1-6.7 4.6 4.6 0 0 0-1 6.7z" class="cls-1" clip-path="url(#clipPath2277)"></path>
    <path id="path163" d="m583.8 140.5-.3-.6c.2 0 .3-.2.5-.4l-.7.2a8.4 8.4 0 0 0-2-2.1c1-.5 1.9-.8 3-.7-1.3-.8-3-.6-4.3-.3a4 4 0 0 0-.3 0l-.7-.2.1.5c-9 2.8-17.8 10.7-17.4 20.7.6-1.7 1.4-3.2 2.3-4.7l1 .7c-.6 1-1.1 2.1-1.5 3.2l2.7-2.5c.6.4 1.2.6 1.7.7l-.4.8a21 21 0 0 1-5 1.5c2.4.6 4.9.5 7.2-.2v.8l.2-.9c3.1-1 6-3 8.3-5.2a37 37 0 0 0 5.1-6.6c.4.5.8 1 1.4 1.4a7 7 0 0 0 .1-3.2l-.2-.9c.7-1.8 1-3.7.9-5.6-.5 1.3-1 2.4-1.7 3.6zm-1.8 2.7-1.6 2c-.2-.8-.5-1.5-.9-2.1l1.6-1.3.8 1.4zm-11 1.5.3.3.4.5-2 1.9a8 8 0 0 0-1.1-.3l2.5-2.4zm5.3 2.3-.5-.9 1.4-1.1.9 1.3-1.8.7zm-2.3-3-1-.7 2.3-1.7.6 1.1-2 1.3zm-.3 4c0 .2.2.4.3.5l-1.2 1-.4-.4 1.3-1zm6.9-7.4-2.2.9-1.3-1.2 2.6-1.7.9 2zm-15.3 10.6 1.8-2.3.8.6-1.4 1.9-1.2-.2zm3.4 1.2 1.4-1.3.5.4-1.2 1.5a5 5 0 0 0-.7-.6z" class="cls-1" clip-path="url(#clipPath2267)"></path>
    <path id="path165" d="M268.3 145.7c2.5-3.5 2.5-8.8-.5-11.9 3.5 7.5-2.9 15.4-10.6 12.1-3.8-1.4-4.3-5.8-6.9-8.6-1.5-1.7-4.4-2.8-6.5-1.3-1.8 1.2-2.9 3.7-1.7 5.7-.5-2 .9-3.8 2.4-4.4 1.5-.7 3 .2 4 1.6 1 1.3 1.6 3.1 2.6 5 1 2 2.8 3.8 4.9 4.7 4.1 2 9.7 1 12.3-3z" class="cls-1" clip-path="url(#clipPath2257)"></path>
    <path id="path167" d="M254.5 128.7c.6 1 1 3 2.3 3.8.7.5 1.8.7 2.5 0-2.4-.5-1.3-3.2-2.3-5-1.5-4-7.5-5.7-10.3-2.3 3-.3 6.2 1 7.8 3.5z" class="cls-1" clip-path="url(#clipPath2247)"></path>
    <path id="path169" d="M77 87.6c-.1-.5-.5-1.2-1.8-1.5l-3.3-.5c-.2-1.9-.4-3.7-.9-5.6a2 2 0 0 0-1.2-1.4c-.5-.2-1 0-1.3.3-.4.3-.5.7-.5.8l-.8 3.6c-.1.6.2 1 .7 1.2.6.1 1.1-.2 1.2-.7l.4-1.5c.2 1.4.4 2.8.4 4.2v.8l4.6.8c-.7.4-1.4.9-2.2 1.2-.3.1-.8.3-1 .7-.4.5-.4 1-.5 1.4a37 37 0 0 1-.3 4.7c-.5-1.4-.8-2.8-1-4.2a1 1 0 0 0-2 .3c.4 2.7 1.2 5.4 2.4 8l1.2 2.5.7-2.8c.6-2.8 1-5.6 1-8.5v-.2h.3l3-1.8c.9-.7 1-1.4.9-1.8z" class="cls-1" clip-path="url(#clipPath2237)"></path>
    <path id="path171" d="M66.2 86c0-.5-.6-.9-1-.8h-1c-.7 0-1.7 0-2.3 1-.2.3-.3.8-.1 1.3.3.8 1.4 1.4 2 1.5l.7.3a19 19 0 0 0 1.3.3 1 1 0 0 0 .3-2l-.9-.2-.4-.1h.6c.5-.2 1-.7.8-1.2z" class="cls-1" clip-path="url(#clipPath2227)"></path>
    <path id="path177" d="m342.7 116.8.8-6.1c5.3.7 11.2 3.4 16.7 2l.1.8c.9 4.7.6 9.8.5 14.6a204 204 0 0 0 17.8-22c2.2-3.6 7.1-8.8 3-12.8-1-1-1.7-1.3-2.2-2.5-1-2.6.6-5.8 2.1-8.1 2-2.8 4.6-5.5 5.7-9 .7-2 .4-4.3-.2-6.4l-1.5.6a43 43 0 0 1-18.5 2.3c.7-4 1-8 1.3-12.2a44 44 0 0 1-15.2.4c-5.1-7.9-8.5-18-18-21.5 6.5 6 9.4 15.1 16 21-3.2-1.2-6.2-3.3-11.6-6.5-4-5.3-7.8-10.7-12-15.6a16 16 0 0 0-6-5c-1.2-.6-2.5-.9-3.6-1.2-3.7-1-6-3.8-9-6.1-5.7-5-13.7-3.7-20.3-1.6l-.3-.7-.4-1c-.8-2-1.7-4-2.7-5.5-2-3-4.4-5.2-7.1-6.3-2.1-.8-4.4-1-7-.7l-1.7.3c-3.8 1-7 2.7-9.2 5.2a28 28 0 0 0-3 3.6 20 20 0 0 0-2.7 6l-.1.5.1.5a93.6 93.6 0 0 0 4.8 10 12.2 12.2 0 0 0-3 4.9c-.3 1.1-.5 2.3-.6 3.5a41.2 41.2 0 0 0-7.5 6.6c.1.6.3 1.2.6 1.7-1.4.7-2.7 1.5-3.9 2.4l.5 1.8c-1.8.8-3 2.5-3.3 4.4a17 17 0 0 0-2.1-.4l-.8-.1-.5.7c-4.2 5.8-8.9 11.3-13.8 16.4l-1.2 1-1.8 1.4 1 .9c-2.2.4-4.1 1.1-6 2-.7.4-1.5.7-2 1.5l-.4 1c-.7 2.8-.8 5.4-.5 8.1-4.5 2-8.6 5.1-11.3 9.3l-.2-.5a15.4 15.4 0 0 0-6.7-6c1-3.2 1.4-6.5 0-9.2v-.5a1 1 0 0 0-.8-.7l-.6-.6.3-1.5c.2-.3.4-.5.4-.9.2-2.2-4.7-2.8-6.8-3-2.1-.2-7-.3-7.2 1.8 0 .5.1.8.4 1.1v1.6c-3.2-.8-4 4.8-3.6 8.7a21 21 0 0 0-9.4 3 17 17 0 0 0-5.5 6.7 5 5 0 0 0-2.6-2l-.2-.2c-1-2-.1-5.4-1.8-7.6-.2-.4-1-.9-1.5-.9l.2-1.6c.3-.4.4-.7.4-1.2-.1-1.6-2.6-2-4.7-1.8-2.1.2-4.5 1-4.4 2.5 0 .3.2.6.3.8l.4 2.3-.6.3c-.6.7-.5 1.8-.4 2.6.2 1.5.3 3.2.2 4.7 0 .6 0 .5-.6.8-5.3 1.9-4.6 8.7-4 13.2v.6l-.4-.3c-1.1-.4-2.3-.6-3.4-.8a9 9 0 0 1-2.6-.6c0-1.2-.3-2.5-.9-3.6.7-.7 1-1.9.6-2.8-.5-1.5-2.3-2.3-3.5-1.6v-1c.4-.3.6-.7.5-1.2-.1-1.6-2.6-2-4.7-1.9-1.9.2-4 .8-4.3 2.2h-.2.2v.4c0 .5.3 1 .8 1.2l.3 1.3c-1 0-2.1 1-2.2 2.2-.2 1.3.6 2.5 1.7 3.1a5 5 0 0 0 0 3.4l-1.2.8-.6.3c-1 .6-1.8 1.3-2.5 2.3-.9-1.5-1.7-2.9-2.3-4.3-1.8-4-2.5-8.5-3.2-12.9-.2-1.1-.5-2.4-1.1-3.6a4.4 4.4 0 0 0-3.5-2.2v-1c-.2-.5-.7-1.6-2.8-2-1.3-.1-2.8 0-4.5.3-3.1.7-6.3 2.4-5.8 4.6 0 .1 0 .3.2.5-2.1 1-3 2.9-2.8 5.4 0 1.1.4 2 .6 3l.3 1c.7 2.2.7 4.7.3 7l-1 3.3-1 3.4a54.1 54.1 0 0 0 .4 16c-1.7.5-3.4 1.3-5 2.4a14 14 0 0 0-5.4 6.8 162 162 0 0 0 8.6 8.1 9.1 9.1 0 0 0-5 2.6c-1.3 1.3-2 3.1-3.4 4.1-1.7 1.3-4.3 1.2-6.2.2-3.2-1.7-7.5-8.7-5.4-12.5.8-1.2 2.6-2.3 4.3-1.4-1-1.1-2.7-1.1-4-.5 1.2-6.5-2-14.6-8.7-16.9-2.3-.8-4.5-1.2-6.3-2-3.7-1.5-7-4.5-7.8-8.3-.9-4 1-8.6 5.1-10.2a8 8 0 0 0-5.7 3.6c-4.5 6.4 0 14.5 6.6 17.4a14 14 0 0 0 .6 11.6c2-3.5 2-8-.1-11.4l.2.1c1.8.7 3.5 1 5 1.5-1 4.2-3 13.2 1.6 15.5 1.5.7 3.1.1 4.4.4.8.1 1.6.5 2.4 1-.2-1-1-1.7-1.8-2.4-1.2-1-3.4-.6-4.2-2-.7-1.2-.7-3-.8-4.5a33 33 0 0 0-1.4-8l1.2.4c6.1 1.9 9 8 9.5 14.3-.5.2-.9.5-1.2.9-4 4.5.4 13.5 5 16 3 1.5 6.9 1.5 9.5-.8 1.5-1.4 2-3.3 3-4.8a9 9 0 0 1 4.3-3.2c5.7 4.9 12 9.8 19 14.7-3 7-.7 15.2 2.4 21.8a14 14 0 0 0 14.5 8.6c8.3-1 13.3-8.9 14.3-16.5l2.5.4.8.1c2 .3 4.3.6 6.6.6 1.1 0 2.2 0 3.2-.2a29 29 0 0 0 6.2 20.8 28.6 28.6 0 0 1 12.4-41.4c4.8-2 10-2.8 14.4.1-1.7-.5-3.6-.5-5.6 0-14.2 3.3-22.7 20-16.4 33.2a25.7 25.7 0 0 1 17-30.5c8-2.1 14.1 5.7 14.7 13.1.2-1.4.2-3 0-4.4l.2.6a37 37 0 0 1 1.5 15.9c-1 11-6.2 21.9-16.1 27.5 5.3-2 9.9-6 13.1-10.8a43 43 0 0 0 6.6-25 27 27 0 0 0-6-16.8l5-2.7c8.3-4.6 17-10.6 19.4-20.2.8-3.1.8-6.3.7-9.3v-1.7c9-9.6 20-16.8 32-22l.3-.2a41 41 0 0 0 2 4.2h.6a98 98 0 0 0 11-1.4c1.1-.2 2-.2 3.1-.8 1.3-.6 1.4-2.3 1.5-3.5l.6-3c2.2.2 4.4-.6 6-2.3 1.5-1.6 2.3-4.5 1.3-6.5l2.2-.5 6.9-1.5 1.4 2.8.6-.2-.4.8c-3.6 8-7.3 16.3-9.9 24.6l-2.8-1.3-.7 1.2c-3 4.7-4.9 10.5-3.3 16a48 48 0 0 1 5.2-13.5 21 21 0 0 0 11 1.3c-1 5.3 3.4 12 9.2 11.2l1.4 2a31.4 31.4 0 0 0-8.5 12.7 33 33 0 0 1-9.7.7c-2.5-4.4-6-10.3-8.6-14.4a41.6 41.6 0 0 0 7 17.2l3-.1c2.6 8.5 5.2 17.1 8.9 25.3a11 11 0 0 0-5.7 7.2l.4-.1-.2 1a8 8 0 0 0-7.5 4.5h.5c-1.7 7.8 8.2 9.5 8.1 16.3 2.8-3 0-7.6-2.5-9.8-2.4-2-3.8-3.7-4.9-6.5a8 8 0 0 0 6.3-3.4c0 1.7.6 3.4 1.9 4.7 1.7 1.7 4 2 5.8 3.3 1 .6 2 1.5 3 2.6-1 .4-2.2 1-3.1 1.8 6.3-3.1 14.4-1 20-6-.4-1.4-.9-2.6-1.5-3.7 2.5-.9 5.2-1.2 7.8-1.2 4.6 0 9 1.8 13.6 1.8s9.2-2.3 13.4-2.5l2.1-.1-.9-2c-.8-1.8-2-3.3-3.6-4.6a165.6 165.6 0 0 1-9.6-30c-.7-3-1.4-6.3-4-8.5-1-.8-2-1.3-3-1.8l-1-.6a13 13 0 0 1-4.9-4.7l.5-4.6.8-10.7.2.6 2.1 4.5c2.4-2.7.9-7.3-2.2-8.6 0-2 0-4-.2-6v-.4c1.9-3.2 3.6-6.7 4.9-9.4.6 2.7 1.6 5.3 3 7.7a19 19 0 0 0-2.8-14.8 26 26 0 0 0-4.3-16.8 68 68 0 0 0-1.3-6.5c2.2 3 4.7 6 7.6 8.5 1.3 3 3 6 5.1 8.6a74 74 0 0 0-3.3 21.4c3.7-6 5.2-13.6 4-20.7l1.9 2.2-.8 7.4c-.3 7.5-2.6 16.4.8 23.5 0-2 .1-3.8.3-5.7 2 4.2 5.4 7.8 9.3 10.4h-.3c-2.1-.2-4.9-1.2-7 0-1-.8-2.5-1-3.6-.4-.9.4-1.2 1.6-1.6 2.2-.6.5-1.4-.1-1.9-.8l.2-2-1.7 1.6c.8-4.4 1.4-8.7 1.8-13l.4-5-2.9 3.9c-2.6 3.6-4.3 8-4.3 12.4 1-2.2 2-4.3 3.2-6.3-.4 3.6-.8 7.2-.9 10.8l-.2 3.8 3.7-5.5.4 1.7.3-1.9c.5 1 1.4 1.8 2.5 1 .8-.4.9-1.2 1.6-1.5.7-.2 1.9.2 2 .8l.2 1.6 1.5-1.2c1.5-1 4 .3 5.9.5 4.3 1 10.6.1 15 0l-7.2-2.5a35 35 0 0 1-16.2-11.9zm2.2-9c1.3-3.9 1.5-8.3.2-12.3a42 42 0 0 0 2.2 1.8c6.8 4.4 11 7 12.8 15-5.4-.8-9.9-3.5-15.2-4.4zm21-46.9c0 3.1.3 6.2.7 9.3-8-.9-15.6-4.2-20.9-10.7l-3.4-4.4c6.8 6.2 12.4 8.2 23.5 5.8zm-71.4-40c4.8-.7 10 0 13.8 3.4 1.8 1.5 3.5 3.4 5.6 5 2 1.5 4.8 2 7 2.8 2.1 1 3.7 2.9 5.2 4.8 4.6 5.9 9 11.9 13.3 18a47 47 0 0 0 10 11.6 40 40 0 0 0 35.3 4.7c-.3 4.5-4.8 7.8-6.8 11.7-1.9 3.3-3 8.2.2 11.2 1.3 1.4 2.7 1.7 2 3.7-.7 2.2-2.6 4.5-3.9 6.6-4 5.7-8.1 11.2-12.6 16.5-.2-6.6-1.2-13.5-5.8-18.5-2.8-3-6.3-4.7-9.3-6.7a37.5 37.5 0 0 1-13.6-17c-1.4-3.4-2.3-7.1-4-10.6a51.5 51.5 0 0 0-14.7-16.9l2-1.9.6-.5a29 29 0 0 0-4.6-6.6l2.7-3.8a15.8 15.8 0 0 0-5-6.1 17 17 0 0 0-21.7 1.8c2.4-2.4 5.2-4.4 8.4-5.6 3-1 6.5-1.4 10-2-2.5-.6-5-.8-7.2-.7a8 8 0 0 0-2.4-1.1c-3-.6-6.2.1-9.1 1.2l-1.3-3.9c2-.4 4-.9 5.9-1.1zm1.2 50.5c-2.3-.3-4.6-.4-6.8-.1-3.1 1.8-6 4-8.8 6.3-4.5-3.7-8.1-8-10.8-13.2-2.8-5.2-2.1-13.3-1.2-17.2a24 24 0 0 1 5 2.3c.5.3 1.1.7 2 .7l.6-.1v.4c0 .3.1.6.3.8.4.4 1.2.7 1.5.7.4.1.4.2.5.4l-1 2.8-.2.5c.6 1 1.4 2 2.1 2.8.8.9 1.5 3 3 2 .6-.4.6-1 .9-1.6l1.4-3.8c0 .5.2.9.3 1.3-1-8.2 1.8-17.4 9-21.8 5-3.3 11.8-3.5 16.6 0 1.3 1 2.5 2.2 3.3 3.6l-4.8 7.1c-.8 1.1-3 4.8-3.9 5.6-.4.4-1 .6-1.7.8l-9.2 2.6-4.6 1.3c-1.5.5-3.1 1-4.7.6 1.1.4 2.5.4 3.9.3-.6 2.1-.4 4.5 0 6.7l.9-.2a6.5 6.5 0 0 0 1.8 8.1c1-2.9.7-5.8-.7-8.4l1.7-.5c0 1.2 0 2.5.2 3.7h.6c4.9 0 9.8-.4 14.6-1 1.4 0 3-.2 4.2-1.3.7-.5 1-1.1 1.4-1.7l3-3.8a58 58 0 0 1-5.4 22.4c-3.3-5-9-8.3-15-9.1zm-33.5-40a35 35 0 0 0 12.3-5.8v1.2c-1.6 2-3.5 3.8-5.7 5l-.9.4c2 4.5 3.4 9 5 13.7l-.6-.3-.4-.2c-1.1-4-2.6-8.2-4.3-12.1l-.3-.8c-1.5.5-3 .7-4.6.6h-.1l-1.2-1.5.5-.1.7-1c0 .2 0 .5-.2.6l-.3.3h.1zm28-4.7a29.8 29.8 0 0 1 5.1.3h.3c-1.7.7-3.3 1.5-4.8 2.6l-.7-3zm-5.6 15c.7-1.4 1.5-2.6 2.3-3.8a23 23 0 0 0-2.9 16.6l-1.4 2.7c-.3.4-1 2.2-1.3 2.3-.7-1.3-1.7-2.7-2.3-4l1.1-3.1c-.2-.6-.3-1-.8-1.6-.4-.5-1-.6-1.5-.8l2-6 2.7-3.5c-1.3 3.3-2 6.8-2 10.5 1.3-3.3 2.5-6.4 4.1-9.4zm-18.5-6.8c1.5 3.2 2.9 6.5 4 9.8l-2.3-.7-2.3-5-1.8-3.8 2.4-.3zm23.4 26.3c-.6-1.5-.9-3-1-4.7 2-.2 4-.8 5.6-1 3.1-.5 6.2-1 9.4-1.7.8-.2 1.8-.4 2.6-1 .9-.7 1.4-1.5 1.8-2l2.9-4 3.1-4.3c1 1.9 1.8 3.8 2.5 5.8-3 2.2-6 4.6-8.8 7.2-.2.3-2 .5-3.3.8-5 1-10 2.7-14.8 5zm25.4-5c-2 1.4-3.5 3.5-5 5.2-.7.5-1.7.5-2.7.6-4.7.6-9.4 1.4-14 2.5l-.4-1.3c0-.4-.2-.7-.3-1a250 250 0 0 1 14.4-3.4c1 0 2.6-.7 3.4-1.8l2.1-2 3.5-3.5a14 14 0 0 1 1.6 2.9c-1 .6-1.9 1.1-2.7 1.8zm-57.4-33a19.3 19.3 0 0 1 4.9-8 15.3 15.3 0 0 1 9.2-4.5c2-.2 3.8 0 5.4.5 2.2.9 4 2.6 5.7 5.1.9 1.4 1.7 3.1 2.5 5l.3.9c1.2 3.4 2 6 2.7 9.2v.4l-1.9 2a18.9 18.9 0 0 0-10 12l-1.3.4c-1.4-4.4-2.8-8.8-4.6-13a23 23 0 0 0 6-5.6v-.3c.3-1.8-.2-3.6-.8-5.3l-1.1 1a33 33 0 0 1-13 6.5h-1.2l-2.8-6.4zm1.8 14 .7-2.6.2.3 2.6 5.4 2.6 5.5a34 34 0 0 0-1 7 11.9 11.9 0 0 0-2 1.3c-.7.2-1.5.6-2.2 1-1.2-6-2.3-12.3-.9-18zm-7.7 12.3c1.5-1.6 2.9-3.4 4-5.3.2 4 1.6 8 4 11.3l-1.1.7c-.8.6-1.5 1.2-2.2 2a39.9 39.9 0 0 1-4.7-8.7zm2.2 7.5c-1.6.1-2.7 1-3.3 2.6l-1.8-4.8-.5-1 1-1.3.2-.5c1 2 2.5 3.7 4.4 5zm-7.4-.1a8 8 0 0 0 4.4 3.6l-.1-.3c1.9 1 4.2-.4 4.2-2.5l1.5.7v-.1c1 .3 2 .2 3 0a11 11 0 0 0 4.4-1.9c.2 0 .3-.2.4-.3l.1-.3c0 1.9.3 3.8.7 5.6-.6 0-1.2 0-1.8.2a19.7 19.7 0 0 0-9 7.2 19 19 0 0 0-10-9c1-.8 1.8-1.8 2.2-3zm-20.6 20-.4.1.4-.1zm.3-.6c0 .2 0 .4-.2.5l.2-.5zm-8.7 7.8a24 24 0 0 0 5.8-4.8l1.6 1.4 2.6 2.6-2.2-3-1.6-2a132.3 132.3 0 0 0 2.3-1.4 97.4 97.4 0 0 0 14.5-15.2 16.5 16.5 0 0 1 12.2 10.8 63.8 63.8 0 0 1-11.7 6c-4.4 1.8-8.9 3.8-13.5 4.8 3 0 6-.7 8.8-1.4-.4 1.7-.7 3.4-1.4 4.8-1.2 2.4-3.7 3.8-4.5 6.5-.5 1.4-.3 3.5-.6 4.6-.2.5-.4.5-1 .6-.5 0-1.2 0-1.8-.2-.6-3.6 0-7.3 1-10.9l-.7 1c-4 .4-8 1.3-11.9 2.8a44 44 0 0 0 2.1-7zm21.9.6c.3 1 .6 2 .6 3 .2 1.8-1.5 2.3-2.9 3l-3.5 2.1c.4-.8 1-1.5 1.6-2.4a9.7 9.7 0 0 0 1.7-5.3c.8 0 1.6-.2 2.5-.4zm-15 11.4c-3-.2-6 1.3-7.7 4a17 17 0 0 0-7.1-2.6c5.7-3.3 11.8-5.8 17.6-9a17 17 0 0 0-2.7 7.6zm-9.7 14.4c-2.3 3-5 6.6-4.3 10.7l2-2.5c.4 2.2 2.4 4 3.8 6a62 62 0 0 1-7 4.6l-5.7-1.5c-4.5-1-7.7-2.2-10.2-4a11.5 11.5 0 0 0 3-3.3c-.8-.4-1.6-.5-2.4-.4a5 5 0 0 0-2.7 1.6 27.7 27.7 0 0 1-3.8-5.7 17 17 0 0 1 7-3.5c1-.2 2.4-.2 3.6-.6-.1.7-.3 1.3-.5 1.7 2.7-.9 4-3.8 4.8-6.2l.8-2.2c.3-.3.5-.6.5-1v-.4c.2-.5.6-1 1-1.3l.1.8c0 .2.2.5.5.7h.1l.3.6.6 1c1.4 2 4 2.7 6.4 3.2l1 .2.4.5.6.1c.3 0 .6-.1.8-.4l.5-.8h.1c0 .8-.8 1.3-1.3 2.1zm-103.1 5.8c2.2 0 4.8.5 7 1.5a45.8 45.8 0 0 0 1.8 3.2l.2.4c-.8.4-1.7.7-2.6.8l-3-.1-1.1-2.9a1 1 0 0 0-1.3-.4 1 1 0 0 0-.5 1.3l.6 1.6c-2-.4-4-.9-6.2-.6a12 12 0 0 0-9 6.4 33.2 33.2 0 0 1 0-5c3-4.1 9-5.8 14-6.2zm-14.4 29-5-1.4c.9-1.7 2.2-3.3 3.7-4.4l1.3 5.7zm3.3.7a89.8 89.8 0 0 1-2.8-15.7c2-3.3 5.3-5.7 9-6.3 2-.2 4.4.2 6.8.3v.2c.1.5.5.8 1 .8h.2c.5-.1.8-.6.8-1 1-.1 2-.3 3-.7.8-.4 1.7-1 2.3-1.8 2.5 4.6 4.2 9.7 5 14.8l-.7 1.2a28.6 28.6 0 0 0-11.7 10.2l-.3.6a262 262 0 0 1-12.6-2.6zm77.5-19.8c.1-1.2.2-3.2.1-5.5a20 20 0 0 1 8.6 6.8c-3.2.7-6.5 1.3-9.8 1.3-4.5 0-8.7-1.6-13-3-5.8-1.5-10.9.1-14.9 3.9 2.2-3.9 6.2-6.2 10-8l.8 3.3a15 15 0 0 0 1.5-10.3c-.2-1.4-.7-3 .1-4l.5 2h.1l-.2.5c1.8.7 3.7.9 5.5.9h1.8c1.6-.1 3.8-.2 5.4-1.5l.4 4.8c.4 3 1.1 6.3 3.1 8.8zm-15.8 4.3a1 1 0 0 0-1.4.4c-.5.8-.9 1.8-1.2 2.8a22 22 0 0 0-7.9 2c-1.3.7-3 1.5-4.5 1.1v-1c.2-1.7.6-3.3 1.1-4.7 2.3-1.7 4.7-3.2 7.4-3.7 3.5-.6 7-.3 10.2 1.1a25 25 0 0 0 16.6.9c1.5-.4 3-1 4.4-1.6l.7 1 .3.7c-.1 1.6-.5 3.3-1 4.7-1.3 3.7-5.3 6.9-9 5.5-1.7-.7-3.4-2.2-5.6-3.4a23.7 23.7 0 0 0-10.5-2.7c.2-.6.4-1.2.8-1.8.2-.4 0-1-.4-1.3zm-40.4 12.9c1-.8 2.2-1.6 3.4-2.2l.4 1.5 1.3 3.7a1.5 1.5 0 0 0 2.8-1l-1.2-3.7a6 6 0 0 1-.5-2.8c.2 0 .4 0 .5-.2l.2.9-.5 1c.8.4 1.6.5 2.4.5l1.5-.1c2.7-.3 5.7-1 8-2.7.3 1.2.5 2.4.6 3.7 0 .7.7 1.3 1.5 1.3h.1c.9 0 1.5-.8 1.4-1.6l-.4-3 .9.4c0 1.7.3 3.4.6 5-.7-.3-1.5-.4-2.1-.4-4.3 0-8.4 2.7-12.1 3.7-2.9.8-6.2.4-8.4-1.7-.5-.7-.6-1.5-.4-2.3zm25.5-16.6a16.7 16.7 0 0 0-3 9l-2-.3a2.8 2.8 0 0 0-2.4-1.4l-.1-.5.2-.1h-.3c-.4-.6-1.2-1-2.3-1.1a15.3 15.3 0 0 0-8 1l-1 .6-1-4.3a28 28 0 0 1 9-2.4c1.7 0 3.3.6 5.2.8 2.2.3 4.4-.7 5.3-2.4l.4 1zm-9.7 7.7c-.7.3-2 .8-3.9 1-1.9.3-3.3.2-4 0 .7-.4 2-.8 3.9-1 1.9-.3 3.3-.2 4 0zm-7 4.6-.3-1.5a13.5 13.5 0 0 0 3.7 0 15 15 0 0 0 3.9-1v.7a16.8 16.8 0 0 1-7.2 1.8zm41.6-27.5a21.9 21.9 0 0 1-8.5 0l-.4-2 1.9.1a17.6 17.6 0 0 0 7-1.5v3.4zm2 .4v-2l.2.8.1 1.7-.3-.5zm-6.4-4.5a12 12 0 0 1-5-.1c.5-.5 2-1.3 4.7-1.8a10 10 0 0 1 5 .1c-.5.5-2 1.3-4.7 1.8zm-7 .2c0 .2 0 .4.2.6l.3 1.5c-.9.1-1.7.8-2.1 1.6a16 16 0 0 0-6.4-3.2h-.9a24 24 0 0 1 2-.6c2.3-.7 4.6-.7 7-1-.2.4-.2.8-.2 1.1zm-8.5 3.4c2 .5 4.3 1 6.5 1l-.2.6v5.8c-4 2-8.3 4.2-11.2 8.1 0-2.6-.2-5.1-.4-7.6.3-.4.4-.9.3-1.4l-.4-1-.4-5c2-.2 4.2-.5 5.8-.5zm-5.5 14.4c-1.2.6-2.4.8-3.6.6-2.2-.6-4.5-2-7-1.8-3.5.2-7 1.9-9.1 4.6l-1-2.8c6-3 13.2-4.8 19.6-2.3l.7.4.4 1.3zm-26.6 19.3c-.1.6 0 1.3.3 2 2.2 3.5 7 4.5 10.9 3.5 3.5-.5 9.9-5.8 13.5-5.3a110.3 110.3 0 0 0 1.8 7.5H145c-7.8.5-15.5-1-23.2-2.4l-5.5-1c1-1.5 2.4-3 3.9-4.3zm29.7 7.4a55.3 55.3 0 0 1-2.7-14v-.9c1.5.7 3.7.3 5-.2a25 25 0 0 1 6.4-1h.6c-.2 2 0 4 .7 5.8.1.4.5.6.9.6h.3c.6-.2.8-.8.6-1.3a12 12 0 0 1-.5-5c3.4.2 6.7 1.1 9.7 2.8 2 1 3.7 2.6 6 3.3 5.3 1.7 10.5-2.7 11.4-7.7.2-1.4.3-2.7.2-4 1.2 2.4 2 5.1 2.2 8a151 151 0 0 1-34.2 12.5 93 93 0 0 1-6.6 1zm43.7-15a29 29 0 0 0-3.4-10c-1.9-3-4.4-5.5-7.3-7.4 1-1.1 2-2 3.2-2.9l.8-.5c.3 3.5 1.5 6.2 3.3 8.2l.1.7.4-.2c4 4.1 10.3 5.3 17 5.1-2.5 1.4-5 2.6-7.4 3.8l-6.7 3.3zm19-35a9.5 9.5 0 0 1-4-2.7c.6-.1 2.3 0 4.7 1 2.3 1 3.6 2 4 2.6-.7.1-2.4 0-4.7-1zm-6-2.8-1.2 2.3c-.8-.3-1.5-.3-2.2-.1l3.3-2.3zm7.9 7.5h-1.5c-2.2-.5-4.2-1-5.2-2.5a7 7 0 0 1-.4-.8l-.4-.7.7-1.4.2.2c1 .8 2.3 1.6 3.9 2.3 1.3.5 2.7 1 4 1l-1.3 2zm-22-24-.3 1.8c-2 .5-4 .7-6 .7-1.6 0-2.6-.3-3.2-.9h.7V82a21.4 21.4 0 0 0 8.9.7zm-4.2-2.8c1.8.1 3.2.4 4 .7-.8.2-2.2.2-4.1 0a18 18 0 0 1-4.1-.7 18 18 0 0 1 4.2 0zm-7.3 4.9c0-.8 0-1.6.7-2.1V84l-.3.1a1 1 0 0 0-.1 1.4c1.2 1.6 3.4 1.8 4.9 1.8h.1a30 30 0 0 0 7-.9l1-.2c-.3 2.4-.8 4.7-.8 7a33.5 33.5 0 0 0-13.1-2.2c.6-2 .7-4 .6-6.1zm-2.3 9.2.1.2.1-.2a28.5 28.5 0 0 1 15 2.6l.6 1.6.4-1.1c2.1 1.2 4 2.7 5 4.6.5.8.7 1.5.7 2-.7 1.2-1.2 2.7-1.6 4.1-9.8-3.2-18.8-12.3-29.5-10.7l.8-.6a18 18 0 0 1 8.4-2.5zm-10 3.9c8.3 1 14.8 6.4 22.6 9.1 2.5.8 5 1.4 7.6 1.4l-.6 2.4c-1.4-.1-2.5-.8-4-1-5.1-.3-10.9 4.5-11.9 9.5a31 31 0 0 0-4.5-2.1c-.4-3.9-1.4-7.6-3.6-8.3v-2.6c.3-.4.3-.8.2-1.1 0-.7-.7-1.6-2.8-1.9a15.5 15.5 0 0 0-6.8.7 21 21 0 0 1 3.8-6.1zM153 87.7a8 8 0 0 1 1.8 0 8.2 8.2 0 0 1-3.6.3c.4-.2 1-.3 1.8-.3zm2 2-.1 1.2c-1.3.3-2.5.3-3.8.1l-.2-1a9.8 9.8 0 0 0 4-.3zm-6 12.2c.3-.2 1-.7 1.3-1.4.3-.6.2-1.2.2-1.7-.1-1.3-.5-2.5-.8-3.7-.3-1.1-1.4-2.8-.6-3.6 0 .3.2.7.5 1 .3.3.7.4.9.4a13.2 13.2 0 0 0 4.9 0l1-.5c.4-.4.4-1 .4-1.2v-.4c.7.6.4 2.5.3 3.2-.1 1.4-.5 3 0 4.9.3.8.6 1.6 1.4 2.2.5.5 1.3.6 1.8.7.7.3 1.3.6 1.8 1.1-.4.8 0 1.7.7 2l-.2.1-.1.1c-3.2-.9-6.4-1.4-9.5-.4a13 13 0 0 0-6.7 4.4c0-2.8-.2-6 2.6-7.2zm-19.5-.2a8 8 0 0 1 1.8 0 8.2 8.2 0 0 1-3.6.3l1.8-.3zm-.7 2.4h.9l1.8-.3v1.5c-1 .5-2 .7-3 .6l-.5-1.8h.8zm-3.5 13 .5-.2 1.4-1c.2.1.4 0 .5-.2l.1-.3c.3-.4.6-.8.7-1.4.1-.3 0-.7-.1-1a5 5 0 0 0-.8-2.7c.3 0 .6-.2.8-.5-.9-.9-1.1-1.5-1.4-2.3.3.3.7.3.8.3a8.3 8.3 0 0 0 5.3-1l.5-.3v-1.6l.6 1.4c.2.8.5 1.4.2 2.5h.2c-.8 2.6 0 5.6 2 7.5l.5-1.4 2.4.5c1 .1 1.9.2 2.6.5a4 4 0 0 1 2.2 2.6c0 .3.3.6.5.8l1 3.6c-5.2-5.4-15.8-3.3-20 2.6l-2.5-5.2-.2-.5a5.5 5.5 0 0 1 2.3-2.7zm-9-3.3.5 1.2-.8-.4c-1.4-.7-3-1-4.5-1.1h-.5a32.6 32.6 0 0 1-1.8-9.7c0-.6-.5-1-1-1a1 1 0 0 0-1 1c0 3.4.7 6.7 1.7 9.8a17 17 0 0 0-10.9 5.2l.6-2a19 19 0 0 0 1-3.6c.6-2.8.5-5.7-.2-8.4l-.4-1-.5-2.4v-.5c.5.3 1 .7 1.6.9.5.2 1.1.3 1.7.3.9 0 1.7-.2 2.4-.4 1.5-.4 3-1 4.5-1.6l3.8-1.5.3 1.4v.2c.8 4.5 1.5 9.2 3.5 13.6zm-6.8-18v.2l.3 1.5-1.8.7c-1.4.6-2.9 1.2-4.3 1.6a5 5 0 0 1-2.7.1l-.3-2v-.3h.2c.5.2 1 .2 1.5.2a14 14 0 0 0 7-2zm-10.6 3.7v.1l-.3.5.3-.6zm5.5-6.4 2.5-.3c1.4 0 2.2.3 2.4.5-.1.4-1.5 1.6-4.4 2.2-2.9.6-4.6 0-4.8-.2 0-.3 1.4-1.6 4.3-2.2zm-9.2 42.6v.6a14.7 14.7 0 0 0-6 6.7l-.6-.2c1.2-3 3.7-5.5 6.6-7.1zm34.4 59c-4.8.3-8.6-2.2-10.8-6.6a34 34 0 0 1-5.3-19.6c4.9 3.3 9.7 6.1 14.6 8.3a11 11 0 0 0 2.4 9.2c.8.8 2.5.9 3.3-.3 1-1.9 1.3-4.2.8-6.3 3 1 6 1.9 9 2.5-2.6 6-7 12.3-14 12.8zM132 183c-1.1-1.7-2-3.5-2.5-5.5l3.8 1.5a17 17 0 0 1-1.3 4zm88.5-49.8c0 2.9 0 5.6-.6 8.2-2 8.2-10 13.5-17.5 17.7-2 1.2-4 2.2-5.9 3.2a18.3 18.3 0 0 0-13.2-5.6 28.9 28.9 0 0 0-25.3 22v-.1c-2.3 1.2-6.9.5-9.9 0h-.8a74.8 74.8 0 0 1-31.9-13.6 215.8 215.8 0 0 1-21.7-17.2c12.8 4 26 6.1 39.1 8.4 16.3 2.5 32.7-2 47.4-8.5 11-5 21.6-10.3 32-16.6a52 52 0 0 0 9-7.4c-.4 1.7-.6 3.4-.7 5.4v4zm4-2.9v-1c0-2.8.5-4.8 1.3-7.3.6-1 .2-2-.2-2.8l4.2-4.4c8.5-8.1 19-14 30-18 .7 1.8 1.2 3.2 1.5 5 0 1.7 0 3.4.2 5.2a50.3 50.3 0 0 0-37 23.3zm47.4-21.6c-3.7.7-8.5 1.8-12.4 3a55 55 0 0 0-2.5-2.5l4.5-2v.6c4.1-3 3.6-10.3-1.9-11.4l.2.4a80.1 80.1 0 0 0-31.4 16.6c-3 2.7-5.8 5.5-8.6 8.2l-2.2 2-.1-.7c-.5-2.5-2.2-4-4-5.6a22 22 0 0 0 3.2-5.6c.3-1 .7-3.2-.4-3.8a77.7 77.7 0 0 1 2.8-3.9c.4-1-.3-2.1-1.5-3.1 2.5-.4 4.8-1.3 6.7-3l.1 2.3.7.3c2.4 1.3 6.5 1.5 7.5-1.7.5-1.9.2-3 .4-4.5 2.5-.2 4.8-.8 7.2-1.9 3.8-1.7 2.8-6.7.6-9.3l-.6-.8-3.4 2.3c0-1 0-1.9-.2-2.8l5-1.5a51 51 0 0 0 14.2-6.6c-.3-1.3-.6-2.6-1.2-3.8a28.5 28.5 0 0 0 9.8-6.7l1-.6a16 16 0 0 0 1.2 3.3c2.9 5.3 6.6 10 11.3 13.9a50 50 0 0 0-7.8 9.4l.6-.3a33 33 0 0 0 4.4 7.6h.3l2.2.1a23 23 0 0 0-5.7 12.1zm4-5.4c.5-2.3 1.3-4.5 2.2-6.7 1.3 0 2.5-.3 3.7-.5-1 3.2-3.4 5.2-6 7.2zm8.6-10c-2.9.7-5.8 1.8-8.7 1.8-1.9-1.9-3.5-4-5-6.2a55 55 0 0 0 18.1-17.5c8 .7 16.6 4.4 20 12a63.8 63.8 0 0 1-15.5 7.2c-2.9 1-6 1.7-9 2.6zm9.2 2-1.3-1.5a54.3 54.3 0 0 0 19.2-8.8l.9-.7c-.4-1.1-1-2.2-1.6-3.2a21 21 0 0 0 5.8-23.4l2.7-2.8a13 13 0 0 0-.8-1.3l1.9 2c0 7.2 1.8 14.4 5.1 20.9a63.4 63.4 0 0 1-5.4 12.7 63.6 63.6 0 0 0-23 4.3c-.2 0-.3 0-.4.2h-.1l-1.4.6-.4-.1-.2.4-1 .7zm30.9 21.6c0 5.3-.4 10.8-1 16.2l-.3 3.9a202 202 0 0 0-7.9-8.7c-.8.4-1.5.6-2.3.8l1.2-1.1a96.2 96.2 0 0 0 10.3-11zm-13.2 13.8.8-.7h2.6c2.4 3.8 5 7.4 7.8 10.8-2 3.6-3.9 7.4-5.2 11.4l-5.4 2.1c-1.4-6.2-4-12.2-8.6-16.5a131.1 131.1 0 0 1 8-7zm4.7 48 .3 1 .2.9c-1.2 0-2.2.6-2.9 1.7-.2-6.3 0-12.7-.4-19.2-.1-2.2-.4-4.6-.9-7 3.2 4.3 6.6 8.4 9.9 12.5l3.4 4.2c-3.2 2-6.3 4-9.6 5.9zm-21-27.2c4.8-2.2 8.3-7.2 8.7-12.4 4.5 7.3 6 15.8 6.6 24.3.6 8.2.4 16.8 2.8 24.7a19.2 19.2 0 0 0-13.2-5.7c-4.7-8.8-8.3-18.6-12.8-27.5 2.9-.4 5.8-1.4 8-3.4zm19.8 43.5c-2 1.5-4.4 2.3-6.9 3-.2-1.2-.5-2.2-.8-3.1-1-2.9-2-5.7-2.5-8.7a18 18 0 0 1 10.2 8.8zm-15.3.7c-1.3-1.9-3.8-2.5-5.6-3.7-1.6-1.2-2.3-2.9-3.3-4.7a8.7 8.7 0 0 0 5.8-5.4l1.3 2.7.4.8c1.8-.2 3.6 0 5.3.4-1.6 3.2-.5 7.5 1.6 10.2.7.8 1.4 1.5 2.2 2.1-2 .5-4.2 1-6 1.8a7 7 0 0 0-1.7-4.2zm16.6-3.7c-.4-.8-1-1.6-1.5-2.3l-.5-.6a75 75 0 0 1-.4-5.5c1.3.7 3 .2 3.9-1 1.3 2 3.3 3.5 5 5.3l1.7 1.9a22 22 0 0 0-8.2 2.2zm8.6-2.3-.9-2.7c-1-2.5-3.3-4.5-4.3-7 2.1-1.4 4-3.1 5.5-5.1-2.3 7.9 3.8 10.9 9.1 15.4l-5.4-.6h-4zm12.9.7h-2.4a9.8 9.8 0 0 0-2.2-4c-2.2-2.8-5-4.6-6.1-7.9-.5-1.4-.8-3-1.2-4.6l.4-.5 2.8 3.7c.7.9 1.5 2.1 3 3l2 .7c-.6 4 2.6 7.2 6 9.2-.7.2-1.5.4-2.3.4zm11-2.7c-2.5.5-4.9 1.4-7.3 2-.6-1.9-2-3.4-3.2-5-1-1.1-1.9-2.3-2.7-3.6h.4a27 27 0 0 1 9.6 3.6 13 13 0 0 1 3.2 3zm-19-42.5c.3.3.7.5 1.2.7.8.4 1.6.8 2.3 1.4 1.8 1.5 2.4 4.3 3 7 1.6 6.9 4.2 16.7 8.1 26.4a32 32 0 0 0-8-2.4c-2.5-.3-3.6-.8-5.1-3-5.9-7.3-12.6-13.9-19-20.7l-.1-.2 6.3-.9 5.6-9.2 1.5-2.4c1.1 1.3 2.6 2.4 4.1 3.3zm1.4-46h-.2l-.6 1v.1a91.7 91.7 0 0 1-6.9 13l-.2.5-2.2 2.9a84.2 84.2 0 0 1-8.8 9.1l-2.9 2.8-4 3.5-4 3.6 1 1.1c-4.1-3.1-6-7.3-9.2-11.2l-6.7-2.4c2.6-8.3 6.3-16.6 9.9-24.6l1.4-3.2h-.2l.2-.1c8-1.4 16-3.5 24-3.4a36 36 0 0 0 4.3-14.7c.7 1.2 1.4 2.5 2.2 3.6a83 83 0 0 0 1 9.5c.6 3 1 6 1.9 9zm-5.3-30-.4-1.2c-1.4-4.2-2.6-8.3-4.7-12.2 3.8 3.8 7.2 8 9.3 12.8.9 2 1.5 4 2.1 6-1.7-2.2-3.9-4-6.3-5.4zM344.4 95c0 2-.2 4-.5 5.9v-.5c-.3-2.4-.7-4.8-1.4-7.2l1.9 1.8z" class="cls-1" clip-path="url(#clipPath2197)"></path>
    <path id="path179" d="M234.6 186.9c-.6-3.9-1-7.7-1.4-11.6l-.7-7.2c2.5-1.3 4.6-3.2 6.2-5.6 4.5-6.7 3.3-16.9-3.2-21.7 6.3 7.6 4.5 20.1-4.3 24.6-4 2.2-9 2.8-13.6 1.5-4.2-1.2-10.2-5.6-14.4-1.7 5-2.6 9 2.2 13.7 4a19.1 19.1 0 0 0 14.9-.8c-1 5.6-2.1 12.1-2.3 17.3l1.4-3.5c.2 2.4.6 4.7 1.1 7l.5 1.9 1.6-1a10 10 0 0 1 4.4-1.3l-1.9 1.6c-.2.2-.7.6-.5 1 0 .3.4.2.5 0 0-.1 0-.2-.2-.2.3 0-.3.4 0 0 .5-.4 1.4-.6 2-1l4.9-2.4-2-.7c-2.2-.8-4.5-.9-6.7-.2z" class="cls-1" clip-path="url(#clipPath2187)"></path>
    <path id="path181" d="M228.8 188.4c0-1-.2-2-.4-2.9-.8-4.7-5-8.7-8-12 .9 3.4 2 8.3 3.3 11.7.3 1 .7 1.9 1.2 2.8.4 1 1 1.7.9 2.8.7-.8.6-2.2.5-3.2l-.3-3.1 1.2 1.6 1.6 2.3z" class="cls-1" clip-path="url(#clipPath2177)"></path>
    <path id="path183" d="M229.3 193.8a3 3 0 0 0-.5-.6 5 5 0 0 0-3.3-1c-1.9 0-3.8.5-5.3 1.5 2 .5 5 .6 6.7 1.7v.3h.1l2.1 2c1.4-1.5 3.1-2.7 4.9-3.7l2-1a8.6 8.6 0 0 0-6.7.9zm-2.2 1.8z" class="cls-1" clip-path="url(#clipPath2167)"></path>
    <path id="path185" d="M446.6 102.8c1.6 7.4 1.5 14.9 4.1 22.1.9 2.4 2.1 4.8 4 6.6-.8-2.5-1.3-4.8-1.7-7.2-1.4-7.3-1.7-15.4-6.4-21.5z" class="cls-1" clip-path="url(#clipPath2157)"></path>
    <path id="path187" d="M460.2 141.1c-.6 1.5.3 3 2 3.1.6-1.4-.4-3-2-3z" class="cls-1" clip-path="url(#clipPath2147)"></path>
    <path id="path189" d="M452.5 176a18 18 0 0 0 5.3-12.8c-3.7 3.1-5.7 8-5.3 12.8z" class="cls-1" clip-path="url(#clipPath2137)"></path>
    <path id="path191" d="M487.9 178c-2 1.6-2.7 3.7-4 5.7-3.2 5.6-6.1 11.4-8.3 17.4 3.8-5.2 7.2-10.5 10.7-16 1-1.2 2.2-3.8 3.4-4.7.5-.3.6-.4 1 0 .4.3 1 1.4 1.5 2.2 3.2 5.5 5 11.4 5.8 17.8a31 31 0 0 0-4.1-20.6c-1.2-2.3-3.8-3.6-6-1.8z" class="cls-1" clip-path="url(#clipPath2127)"></path>
    <path id="path193" d="M486.3 171.3c.5-.6.8-1 1.5-1.2 1.7-.1 2.9 1.6 4.3 2.8.2-1.2 0-2.5-.7-3.7-1-2.1-4.6-3-6.3-.7-1.4 1.6-.9 3.4-1.7 5.1 1.3 0 2.2-1.3 2.9-2.2z" class="cls-1" clip-path="url(#clipPath2117)"></path>
    <path id="path195" d="m563.2 99.4 1.1-.5c.5-.4.6-.9.5-1.3-.5-1.4-2.7-1-2.4.7.5.6.6 1 .6 1.3l.2-.2z" class="cls-1" clip-path="url(#clipPath2107)"></path>
    <path id="path197" d="M567.4 88.1c0-2.2-2.6-2.5-3-.3 1 1.8 1.5 1.9 3 .3z" class="cls-1" clip-path="url(#clipPath2097)"></path>
    <path id="path199" d="m557.7 82-.4 2c-1.4-1.7-3.8-2.3-6-2.4-16.9.6-32 16-32.7 32.8 1-3.2 2.3-6.3 4-9.3.2 1 .7 2 1.3 3-.8 2.2-1.4 4.5-1.7 6.8h-4.4a31.7 31.7 0 0 0 14.9.6l1.3-.3 1.6.1-.5-.4a31.8 31.8 0 0 0 22.6-33zm-20 28.8 3-2.7 1 .4a19 19 0 0 1-3.9 2.3zm-1.2-1.3-2.6-2.6 2-2 2.5 2-2 2.7zm-6.6-7.2 1.8-2.3 2.1 2.8a40 40 0 0 0-1.7 2.2l-2.3-2.7zm.5 5.3a35 35 0 0 0-1.2 2l-2.7-2.6 1.6-2.4c.6 1.1 1.4 2.1 2.3 3zm15.5-23 1.3 1.4c-1.8.6-3.6 1.3-5.3 2.2a13 13 0 0 0-2.3-.6c1.7-1 3.5-1.9 5.4-2.6l.9-.3zm3.8 5 1.3 1.9-2.8 1a16 16 0 0 0-3.4-3l3.6-1.8 1.3 2zm4 5.2-.9 1.7-1.7.8c-.4-1.2-1-2.3-1.7-3.3l2.4-1.4 1.9 2.2zm.3-3.4 1.6-.9-1 2.6-.6-1.7zM541.5 96c-1-.8-2-1.5-3.2-2.1 1.2-1 2.5-2 3.8-2.8l3.2 2.7-3.8 2.2zm-1.9-6.6-4.3 3a23 23 0 0 0-1.9-.5c1.5-1.2 3-2.4 4.7-3.4l1.5 1zm-5.5 4a35 35 0 0 0-2.7 2.6l-1.2-1.2 2.8-2.5 1.1 1.1zm2.2 2 2.7 2.4-3.1 2.8-2.4-2.5 2.9-2.6zm3.7 9.6-2-2.2 3.4-3 2.3 2a34 34 0 0 0-3.7 3.2zm3.7-7c1.1-.9 2.2-1.7 3.4-2.4l2.2 2.6a25 25 0 0 0-3.5 2.1l-2-2.3zm6.5 2.4-2.5 3c0-.3-.2-.5-.3-.7l2.8-2.3zm7.1-16.1c-.4 2.1-1 4.2-1.7 6.2l-1.9.3a16 16 0 0 0-2.6-4.3c2-.7 3.8-1.3 6-1.3-2-.7-4.3-.5-6.4-.1l-.8.2c-.7-.6-1.4-1-2-1.3 3.1-1 6.6-1.7 9.4.3zm-27.7 11.2.7 1.8-2.2 2.7-1.1-1.6 2.6-3zm-6.3 8.3c.8-1.4 1.8-2.8 2.7-4.1l.8 2.4a28 28 0 0 0-1.8 3.4l-1.7-1.7zm-1 11 2.6-5.2 3 2.9-.6 1.8c-1.7.3-3.3.5-5 .6zm5.8-.6.7-1 1.1.5-1.9.4zm2.4-3.3 1.5-1.8a16 16 0 0 0 3.6 2.1l-.4.8-2.4 1-2.3-2.1zm12.2-3-.7-.8 4.2-3.4.7.5a34.7 34.7 0 0 1-4.2 3.7z" class="cls-1" clip-path="url(#clipPath2087)"></path>
    <path id="path201" d="M509 121.4c2 .7 3.7-1 3-3-2-.7-3.7.9-3 3z" class="cls-1" clip-path="url(#clipPath2077)"></path>
    <path id="path203" d="M522.5 126.9c2.4 0 3.1-2.8 1-4-1.9 1-2.2 2.2-1 4z" class="cls-1" clip-path="url(#clipPath2067)"></path>
    <path id="path205" d="M535.8 126.9c2.6-1.5 2.2-5.6-.5-6.7a6 6 0 0 0 .5 6.7z" class="cls-1" clip-path="url(#clipPath2057)"></path>
    <path id="path207" d="M537.7 121.2c.1.7.5 1 1 1.8 2.6 0 2.6-3.6.1-3.5-.6.8-1 1-1 1.7z" class="cls-1" clip-path="url(#clipPath2047)"></path>
    <path id="path209" d="M552.3 110.2c-.9 2.3.3 4.3 2.7 4.6a3 3 0 0 0-2.8-4.6z" class="cls-1" clip-path="url(#clipPath2037)"></path>
    <path id="path211" d="M555.8 109.8c-.6 2.3-1 1.5 1.2 2.3 2.3-.7.7-3.7-1.2-2.3z" class="cls-1" clip-path="url(#clipPath2027)"></path>
    <path id="path213" d="M511.7 104.8c1.8 1.4 1.7 1.4 3.5 0 0-2.6-3.6-2.5-3.5 0z" class="cls-1" clip-path="url(#clipPath2017)"></path>
    <path id="path215" d="M563.6 190c1 1.5 1.6 2.5 3.2 3.2l1.7.6c.4-.7.3-1.5.1-2-.7-2-3.3-3.2-5-1.8z" class="cls-1" clip-path="url(#clipPath2007)"></path>
    <path id="path217" d="M520.5 151.6a8.2 8.2 0 0 0 .4 9c2.2-2.7 2-6.6-.4-9z" class="cls-1" clip-path="url(#clipPath1997)"></path>
    <path id="path219" d="M417.9 155.3c2 3.1 2.6 6.6 3 10.1 1 7.2 1.3 14.5 3 21.6 1 3.6 2.3 7.1 4.2 10.2-.8-3.6-1.4-7-1.9-10.6-1.2-8.6-1-25.8-8.3-31.3z" class="cls-1" clip-path="url(#clipPath1987)"></path>
    <path id="path221" d="m167.6 10-1.1-1.6V11a58 58 0 0 0-9.2 16c-2.3 1-4.3 2.5-5.9 4.5 8.5-5.6 21.2-5.3 28 2.6 1.7 2.3 2.3 5.5 2.7 8.5.3 3 1 6.4-1.4 8.9 4-2.5 3.4-8.3 3.2-12.4-.2-2.1-.8-4-1.7-5.7l1-4.2c1.3-5.4 3-11.7 4-17.2.8 3 1.7 5.8 2.6 8.6a50 50 0 0 0 1.9 20.3c-2.1-.4-4.3.1-5.8 1.7 5-.9 9.3 2.4 10.5 7.1.5 1.6.7 3.2.7 5.1 2.2-2.7 2.2-7 .1-10.2 1.7-2.4 4-4 6.5-5.2 2.8-1.2 6-2.3 9-2.5 3.2-.3 5.3 1.5 7.2 4 1.6 2.2 3.3 4.4 4.1 7a10 10 0 0 0-2.5 6.7c-1.8-.6-3.7-1-5.5-1-.9-4.1-2.4-8-4.4-11.8-2 3.5-3 7.7-2.3 11.6-2.4-1-5.4.1-7 2.2l-.7 1c1 1.2 2.6 2.1 4 1.3l-.8-1c1.8-.9 3.4-1.9 5.1-3.2l-.5-.3a17 17 0 0 1 2-7.5c1 3 1.7 6 2 9.2l.2 1 1.2.1c1.4.1 2.8.4 4.2.7a4 4 0 0 1-2.5 1.8c-2.5.2-4.5 1-3.8 4 .5 3 .3 6-.5 8.8-1.3-3-2.2-6.2-2.8-9.4-.2 4.3.5 8.5 2 12.5l.7 2.1a21 21 0 0 0 3.4-14.9c.6 0 1.8 0 2.4-.4a6.6 6.6 0 0 0 4.5-5.3l.1-1.3h-.2c1.5-3.5 4.1-6.4 7.9-7a8 8 0 0 1 9.3 6.2c.3-1.2.3-2.5-.1-3.7a8.4 8.4 0 0 0-9.7-5.5c-.7 0-1.3.3-2 .5a25 25 0 0 0 2.6-12.1l.9 2.6c1.5-6.6-2-16.8-9.6-18a7 7 0 0 0-5 1.6c.8-2.8 1.5-5.7 2-8.6 4 .7 7.5 3.2 9.6 7-.5-4.9-5.6-9.8-10.7-9.8l-.6.2c-.4-3.9-1.6-7.8-3.5-11.2-.1 6 .3 12 1.3 18-1.4 6.2-2.6 12.5-3 19-1.6.1-3 .5-4.6 1.1.4-5.7-1.5-11.6-5.2-15.9l2.2-4.5a18 18 0 0 0-9.6 15l2.5-3a29 29 0 0 0 .5 16.1l-.6 1.3-.2-.3a7.9 7.9 0 0 0-4.5-2.8 34 34 0 0 0-2-20.6c0-2.2-.1-4.3-.4-6.5l.5 1.3c1.3-6.7.4-13.8-2.5-20.1-.6 3.5-.7 7-.2 10.5-1-.8-2.6-1-3.8-1.5-1-.2-1.8-.6-3-.4-1.3.2-2.2 1.4-2.6 2.5-.8 2.4-1.4 5-1.7 7.5-1-8.3-3.3-16.8-7-20.2 1.6 3.7 2.1 7.7 2.6 11.6-1.6 1.5-3.1 3-4.6 4.7zm61.3 19.5.7 1.8a25 25 0 0 0-3.1 14.8c-.7.4-1.4.9-2 1.5 0-2-.8-4.1-1.7-6a24.5 24.5 0 0 0 2.8-17.8 30 30 0 0 1 3.3 5.7zm-3.7-6.3a40 40 0 0 0-2.4 18.3l-1-1.8a10.3 10.3 0 0 0-4.7-4.8 40 40 0 0 0 5.4-14c1 .6 1.9 1.4 2.7 2.3zm-9-2.2a5.7 5.7 0 0 1 5-.7l.7.3a16 16 0 0 0-5 14.2c-1.5-.7-3.2-.9-5-.7a107 107 0 0 0 4.4-13.1zM199 24a54 54 0 0 0 2.6-4.2c.6 5.5 2.2 10.8 4.7 15.7-1.2.6-2.5 1.2-3.7 2A14.9 14.9 0 0 0 198 42a58 58 0 0 0 1-18zm-40.6 2.7c2.8-3 5.2-6.2 7.5-9.6l1.2-1.9c.6 3.6 1.6 7.1 3 10.5-3.9-.7-8-.4-11.7 1zm22.9-19.9c0-.1 0 0 .1 0h.5l1 .3 2.3.7c.6.2.5 0 .7.5l1 3.3a30 30 0 0 0-5.9 20.2 15 15 0 0 0-4-3.6c.2-2.6.2-6 0-9.6 1.2-4 2.4-8.1 4.3-11.8zm-8.2 4.8c1 5.4 1.9 10.8 3.1 16.2a20 20 0 0 0-5.2-2c.7-4.5-.1-9.3-2.1-13.5 1.2-2 2.4-4.1 3.3-6.4.3 2 .5 3.8 1 5.7z" class="cls-1" clip-path="url(#clipPath1977)"></path>
    <path id="path223" d="M164.7-2.3a69.6 69.6 0 0 0-11.6 32c2.8-5 4.7-10.3 6.6-15.7 1.9-5.4 3.8-10.7 5-16.3z" class="cls-1" clip-path="url(#clipPath1967)"></path>
    <path id="path227" d="M190.8 19.2a2833 2833 0 0 1 4.3-3v-.4l6-4.4.6 2.4 1-2.7c.6.7 1.1 2 1.5 2.9 3 6.2 5 12.6 7 19.3a47.6 47.6 0 0 0-5.6-23.1 8 8 0 0 0 3.5-5.5c.1 1.9.7 3.7 1.8 5.2 1.8-3.4 1.6-7.6-.7-10.8-.6 1.1-1 2.3-1 3.6l-.2-.9a8 8 0 0 0-4 7.7 4.4 4.4 0 0 0-1.9-1.4c.4-3.7-.4-7.6-2.3-11-.8 3.8-1 7.7-.4 11.5a34.2 34.2 0 0 0-4.7 4.2c1-6.1.4-12.5-1.6-18.4a38.7 38.7 0 0 0 .4 19.8 51 51 0 0 0-3.8 5z" class="cls-1" clip-path="url(#clipPath1947)"></path>
    <path id="path229" d="M143.2-5.6c3.7 11.3 6.4 22.5 8.5 34.1 2.2-11.8-1-24.7-8.5-34z" class="cls-1" clip-path="url(#clipPath1937)"></path>
    <path id="path231" d="M153.6 17.3a66.8 66.8 0 0 0 6.8-25.1c-4.6 7.5-7 16.3-6.8 25z" class="cls-1" clip-path="url(#clipPath1927)"></path>
    <path id="path233" d="M98.6 16.1c-2.9 3-4.8 6.8-5.2 11.1-1 8.4 5.5 17.1.3 25 6.3-6.9.7-17 2-24.7 1.2-8 8.3-14 16.2-15.3 3.9-.7 8-.5 12 .3 2 .4 4 1 5.5 2 5.3 3.7 4.5 10.8 7.2 16.5 1 2 2.5 3.9 4.7 4.6 2.1.7 4.8.1 5.9-1.9-1.3 1.7-3.8 2-5.6 1.2a8.4 8.4 0 0 1-3.5-4 96 96 0 0 0 4.8-18.6c1.9 6 4 11.9 6.3 17.7 0-11-3.6-22.1-10.1-31 1 4 2.2 8 3.4 12-4.2 5.5-5.9 13-4.4 19.7-1.6-3.7-1.4-8.7-3-12.7l-.6-1.3a36 36 0 0 0 4.1-18.5c-3.5 5.3-5 11.8-4.3 18-.5-1-1.2-1.8-2-2.5a17.3 17.3 0 0 0-9.1-19 60 60 0 0 1 8.1 18 16 16 0 0 0-6.8-3h-.6c0-3.7-2-7.3-4.7-9.8l.3-2c-.5.4-1 .7-1.3 1.1-.7-.5-1.5-1-2.3-1.3l1 2.6a18.1 18.1 0 0 0-3.2 5.7c.5-3 .6-6.1.2-9.3a11.7 11.7 0 0 0-2 12.5l-.6.1a23 23 0 0 0-10.5 4.8 66.3 66.3 0 0 0 6-17.7 34.4 34.4 0 0 0-8.2 19.8zm24-6.7c-2.7-.5-5.3-.7-8-.5a18 18 0 0 0 3.7-5.8c1.2 2.2 2.6 4.3 4.2 6.3z" class="cls-1" clip-path="url(#clipPath1917)"></path>
    <path id="path235" d="M96.2 9.9a14 14 0 0 0 4.7-12c-3.4 3-5.1 7.5-4.7 12z" class="cls-1" clip-path="url(#clipPath1907)"></path>
    <path id="path237" d="M55.7 13.8A46 46 0 0 0 66-2.2a22.8 22.8 0 0 0-10.3 16Z" class="cls-1" clip-path="url(#clipPath1897)"></path>
    <path id="path243" d="M65.8 150.2c-.5 0-1.1 0-1.7.4a9.5 9.5 0 0 0-1.8-1.7 13 13 0 0 0 .8 5.4l2-1c2-.2 4 1.2 6.2 1.1-1.2-2.1-2.9-4-5.5-4.2z" class="cls-1" clip-path="url(#clipPath1867)"></path>
    <path id="path245" d="M19.6 114.4c4.4-2.2 7.8-5.7 10-10.1a14 14 0 0 0-10 10.1z" class="cls-1" clip-path="url(#clipPath1857)"></path>
    <path id="path247" d="M23.5 36.2a6 6 0 0 0-3.5 8.2c2.5-2.1 3.7-5 3.5-8.2z" class="cls-1" clip-path="url(#clipPath1847)"></path>
    <path id="path249" d="m19.4 159.8-1-.4c2.8-1.3 7 .6 9.9-1.3-3.5.9-6.8-1.5-10.5-.7-.4 0-1 .3-1.4.7a2 2 0 0 0-.3 2.2c.4.9 1.1 1.2 1.7 1.5L7.6 165l.2-.3c.5-.8 1-1.3 1.5-2.3 0-.3.2-.8 0-1.3-.2-.6-.8-1-1.2-1H7c-3.4.6-6.7 2-9.5 4 3-1.1 6.2-1.9 9.2-2l-.2.2-6.5 8.1c6-1.8 12.2-3.6 18-5.7 1-.4 1.6-.4 2.5-1.3 1-1.3 0-3-1.2-3.6zm-1 2.4.1.1z" class="cls-1" clip-path="url(#clipPath1837)"></path>
    <path id="path251" d="M3.9 21.1a19 19 0 0 0 3.4 11.3c1.8-4 .2-9-3.4-11.3z" class="cls-1" clip-path="url(#clipPath1827)"></path>
    <path id="path253" d="M5 90.5c-.9-.2-2.6-.2-3.4.8A53.1 53.1 0 0 0-6 113.8a106.4 106.4 0 0 0 9.2-20.5c.2-.4.2-.7.5-1 1.4-.5 3.6-.6 5.2-1.2L5 90.5Z" class="cls-1" clip-path="url(#clipPath1817)"></path>
    <path id="path255" d="M6.2 96.3A29 29 0 0 0 0 111.8c4.2-4 6.5-9.8 6.2-15.5Z" class="cls-1" clip-path="url(#clipPath1807)"></path>
    <path id="path257" d="M.9 148.4C3.7 144.7 6.7 141 9 137l1-2-.3 2.7a16 16 0 0 0 1.3 7.8l4.2 8.7-1.4-9.6a11 11 0 0 1 .6-5 64 64 0 0 0 .6 10.6 47 47 0 0 0 11 4.3 36.5 36.5 0 0 0-8.3-6.1c-.3-4-1-8-2.2-11.8l.6-1.5a99 99 0 0 1 7.2-14.6c-1.4 7.5-2 15-2 22.5a40.3 40.3 0 0 0 3.3-24.5c2-2.9 4.2-5.5 6.9-7.7-1.6 2.3-3 4.9-4.1 7.6-.8 2-1.3 4.3-.7 6.6l.7 3 .4-.8c-1.2 5-1.2 10.3-.1 15.4a35 35 0 0 0 2-18.7 53 53 0 0 0 3.2-6.4c-1.2 1-2.3 2.2-3.3 3.4.7-2.3 2-4.5 3-6.7l4-8c0 1.7 0 3.7.2 5.6a10 10 0 0 0-3.8 5c1-1.6 2.3-3 3.9-3.8l.1 2.7.7-2.2.3.7c-1 5.4-1.4 11-1.3 16.6-.3-5-1.3-9.9-3-14.5a129 129 0 0 0 1.6 30.6c1-4.3 1.5-8.7 1.5-13.1.2 5 1 10 2.1 15l.4-3.9c.1.8.3 1.6.6 2.3.5.8 1.9 1.2 2.7.6.7-.6 1-1 1.3-1.5 1.7 2.2 5.2 4 7.4 1.7-2.4 0-3.8-1.6-5-3.3-.2-.5-.4-.8-.8-1.2-1.7-1.6-3.6-.2-4.2 1.6-.6-1-1.1-1.9-1.8-2.8.6-9.3.2-18.6-1.4-27.8 1 2.4 1.7 4.8 2.5 7.2 1.7 5 1.8 10 4 15 2.7 5 7 9.5 11.3 13.7l-.2.2c-.9.7-1.2 2-1.9 2.6-.2-1-.8-1.8-1.5-2.4-2-1.8-5-.5-7.1.3a91.3 91.3 0 0 0-8.3 3.7c-1.4.6-2.5 1.5-4 1.8-.4.1-.9 0-1.2-.3 1 2 4.2.6 5.9.3 3-.8 5.8-1.7 8.6-2.7 1.4-.5 2.5-1.1 3.7-1.1.8 0 1.5.8 1.6 1.6v1l.7.2c1.2.6 2.5-.2 3.2-1.1.5-.7.6-1.5.8-2.3l.5-1 3.3 3.2-1.7-3.5.3.6c.2-.6-.2-1-.7-1.3l-1.4-2.9a56.9 56.9 0 0 1-5.7-23.3 44.5 44.5 0 0 0 .9 17.7 89 89 0 0 1-1.9-2.4 18.8 18.8 0 0 1-4.1-8.5 68.6 68.6 0 0 0-7.4-19c1-2.6 2-5.3 3.3-7.7 2.7 2.3 5.4 5 7.8 7.6 1.1-4.3-3-8.8-7.2-8.7a42.4 42.4 0 0 1 5.2-7 26.8 26.8 0 0 0-7.8 7.5c.6-4.6 1.7-9.1 2.8-13.6.9-3.2 1.5-6.4 2.6-9.4.8-3.2 3.6-5.7 3.8-9.1-1.1 3.2-4.2 5.2-5.5 8.3-1.6 3.1-2.5 6.3-3.5 9.5a68.3 68.3 0 0 0-3.1 14.8v.6l-2 2C37 94.1 39.3 81.1 42.4 69c.8-3.1 2-6.3 4-8.8-3.8 3.3-5.3 8.4-6.9 13L36.1 85a220 220 0 0 1 3-25.6l1-6.4c.4-2 .5-4.4 2.3-5.8-2 1-2.6 3.6-3.2 5.6l-1.6 6.3a133 133 0 0 0-4.2 23.5l-3-10.2c3.2-11.2 5.2-22.6 6.1-34.2a67 67 0 0 0-2.2 5.5c-.5-5-2.7-9.7-6.2-13.3-1.4-1.5-4-2-5.7-.6-3 2.2-4 5.7-5.5 8.8l-2 4.7-.7-1-1.7-1.9c.6-3.9 1.8-7.6 4.2-11 2.3-3 5-5.8 8-8.6-.8 2.5-.6 5.4.6 7.8 1.6-2.7 2.4-5.8 2.1-9 2.1 2.7 4 5.5 5.4 8.5 1.3 2.8 2 6.1 3.9 9.1 2 2.8 4 4.8 5.6 7.8 4.3 8.5 6 18.2 9 27.3-2-9.5-3-19.3-7.2-28.3-1.3-3-3.6-5.6-5.3-8.1-2.2-3.8-3-9.4-5.7-13.3C29.8 17.4 25.4 13 21.9 8l1.2.8a72.3 72.3 0 0 1 24 27c1.7 3.2 3.2 6.5 3.9 10-.4 9 .2 18.1 1.8 27A29 29 0 0 0 48 97.5c1.8 7.6 6 6.9 11.4 9.9a8.9 8.9 0 0 1 3.7 7.5 9 9 0 0 0-3-8.4c-2.2-2-5.7-2.6-7.6-4.6a9.4 9.4 0 0 1-2.2-4.9C48 85.8 52.6 73 63.6 68c5.3-2.5 11.5-4 16.6-7.4 5.1-3.3 9.3-9.8 7-16 .9 4.4-.9 8.1-3.7 11 .8-3.6.3-7.5-1.4-10.9a51.3 51.3 0 0 0 7.2-22l.7 2.5c.4 5.6 1.7 11.1 4 16.2a95.4 95.4 0 0 1 4.2-47.7c-4.3 6.2-7 13.7-8 21.5-1-3.3-2.2-6.6-3.8-9.7-1.5-2.7-3-6.3-6-7.6C82.7.3 83 3.5 84.3 6.4c1.6 4.7 3 9.4 4.4 14.1-1.1 6-3 11.9-5.8 17.3.7-13 .1-27-7-38a18 18 0 0 1 2.5-5 16.2 16.2 0 0 0-3 4.1l-1.6-2.2 1.4 2.8-.7 1.4c.2-.7.3-1.4.3-2.2-5 6-9.3 12.7-11 20.3a19 19 0 0 0-3.7-4.4c-2.5-1.7-4.9.3-7.3 1l-2-20.8-.6 12A30.8 30.8 0 0 0 39-6C42.1.3 46.5 5.6 50.2 11.5c.1 5 .3 10 .7 15l-.7-1.1c-1.6-2.6-4.4-4.1-5.8-6.8-1.8-3.4-2.7-7.6-4.1-11.3C38.9 3.5 37.5-.3 35.7-4 36.3 0 37 4 38 8c1 4.1 1.7 8 3.7 12 1.4 2.9 4.4 4.5 6.3 6.9 1.3 1.8 2.3 4 3.3 6.1l.4 3.3-.7 7.4c-.5-2.9-1.6-5.7-2.7-8.4a67.3 67.3 0 0 0-15.4-22A26 26 0 0 0 31.4-.5v-.2c.1-.8.2-3.8-.2-5.5l-1.4 2.4-.6-1v2.7a15.4 15.4 0 0 0-.3.9 26 26 0 0 0-1.3 10c-2-1.7-4.2-3.2-6.5-4.5 2-3.2 2.5-7 1.4-10.7a11.9 11.9 0 0 0-2.7 10l-1.6-1-1-.6 1.3-9A52 52 0 0 0 15 .7l-.8-.4.6 1.1c-.6 1.8-1.2 3.5-1.6 5.3l-.1-.4C11.2 1.7 9.5-2.8 6.8-7.1a22 22 0 0 0 5.9 16.6c-.6 3.7-.9 7.5-.7 11.3l-.4-1c-1.3-3.4-2.8-7-4.9-10.1-1-1.6-2-3-2.7-4.6C2 .1 1.5-5.4-.3-10.6-.3-5-.5.8 1.5 6.2c.7 2 1.7 3.6 2.7 5.1 2 3 3.6 6.2 5.3 9.5 1.6 3.1 3.6 6 3.8 9.5a23.1 23.1 0 0 0-3.2 7.2l-.7-.8.5 1.5a53 53 0 0 0-.4 12c-.8-1.9-2-3.7-3.2-5.4.5-3-.4-6-1.3-8.8l-3-9.6C0 20-1.5 13.4-3.3 6.8A57.4 57.4 0 0 0 2.9 37c1 2.3 2.2 4.5 2.7 7 0-.2-.2-.3-.3-.4-1-1.3-2.2-2.5-4-2.4-2 .1-2.7 2-3.5 3.2a41.2 41.2 0 0 0-7.6 21C-7 57.7-2.6 50.9 1.4 43.9c.1-.1 0 0 .1 0 .3-.2 1 .2 1.3.4 2.5 2.2 4.6 4.6 6.8 7.2a188.6 188.6 0 0 0 3 19.7l.3 3c-.7 5.7-1 11.3-1.2 17-.4-.6-1-1-1.1-1.3-.2-.3 0-.9 0-1.7.6-9.2-.8-18.7-4.6-27l5.3 7.5a43.1 43.1 0 0 0-7.9-16A46.8 46.8 0 0 0-5 75c2.8-5.8 5.5-11.5 8.7-17.1l2 2.7c.4 8 1.8 17.6 2.7 25.6l.2 2.1c.2.8.2 1.7.8 2.5.6.7 1.3.8 2 1.2l.3.4v4.9c-7.2 8.1-9.2 19.3-15.5 28 4.6-2.8 7.5-7.1 9.7-12-.2 3.8.2 7.5 1.2 11.1a61.1 61.1 0 0 0-13.4 15.3c4.9-4.9 10-9.5 15.6-13.6-.4 3.4-1.3 6.7-2.8 9.7-2 4-4.7 7.7-7 11.6l-4.4 8c2-2.2 4-4.6 5.8-7zm41-2.5-.3-.2.2.2zm11.3 7.6zm30-97.6c-.5.5-1 1-1.5 1.3 0-2.8-.7-5.7-2.2-8l.7-1.2 3 8zm-3.4-14.7a12 12 0 0 0-2.9-2.6L80.1 22c.3 6.4 0 12.8-.3 19.2zm-3.7 2 .6-3.5c1 2.2 2 4.4 2.8 6.6v2.6a13 13 0 0 0-3.7-3.8l.3-1.8zm4-22.4c-2.4 6.4-4.3 12.9-5.8 19.5-1-8.2-1.2-16.6-.6-24.8.5-5 .6-10.1 2-14.8A62.6 62.6 0 0 1 80 20.8ZM57.6 16c1 .3 1.3.8 1.9 1.8l1 1.6c3.1 5.3 6.2 10.6 10 15.6a41.5 41.5 0 0 0-6.8-15.8 45.9 45.9 0 0 0 10-15.8C73 6 72.5 8.9 72 11.6a100.4 100.4 0 0 0-.5 30.4c-1.5-1.5-3-3-4.3-4.6-3.1-3.5-5-7.5-7.4-11.6-1.2-2-4.3-3.4-6.1-2l-.8-7.9c1.6.4 3.3-.2 4.8 0zm-4 8.5v.2-.2zm2.9 11.4-2.8-11.4c1.7-.5 3.4 1 4 2.6l1.2 3.3c-1 1.7-1.9 3.6-2.4 5.5zm1 31.8a3108 3108 0 0 0-2.1-24l1.7 5.4-1 1.3 1.2-.6 1 3.2v-3.6c6.5-2.6 7 .7 10.6 7a38 38 0 0 0 3.7 5.3 44 44 0 0 0-2.7-9.4c-1-2.2-2.1-4.5-4.4-5.7-2.6-1.3-5.2-.4-7.2 1.3a105 105 0 0 1 .8-17c1.5 3.1 3.6 6.1 6.4 8.3 1.7 1.4 3.8 2.6 6 3.3.4 3 1 6.1 1.6 9.2L76 51l-.2-1c-.2-1.3-.2-2.5-.1-3.7a57 57 0 0 0 3.7 9.7l1 2.1c-2 1.4-4.3 2.5-6.5 3.2l-6.5 2.3c-.7-5-5.6-9.5-10.9-9.1 3.4 3 6.6 5.8 9.5 9.2l.3.3a65 65 0 0 0-3.8 1.5 22.7 22.7 0 0 0-8.5 6c.3-6.7.3-13.5 0-20.3.9 5.5 2 11 3.5 16.4zM30.1 6.2c.4 2 .9 4 1.6 6l-3-2.7c.5-1 1-2.1 1.4-3.3zM19.3 23.8a28 28 0 0 0 1.3-12.5l5.4 6.5-1 1.9a49 49 0 0 0-5.7 4zm-6.6-1.2c1.6-5.7 3-11.5 4-17.3.8 1.5 1.7 3 2.7 4.3-2 4.7-2.3 10-1 14.9a30.7 30.7 0 0 0-4.8 5.3c.5-2.4-.1-4.9-1-7.2zM32 110.1c-3 1.7-5.5 4-7.8 6.6v-.3l-.2.5a73 73 0 0 0-10.2 17.2l-1 2 .8-5.2c1.7-10.4 4-21.4 11.2-29.4.7-.6 1.8-.5 2.8 0l2.1 1.1.5 1-.3-.9c1.3.8 2.7 1.4 4 1l.4 3.5L32 110zm2-6.4c-1.7.1-3-1-4.5-2-.5-1.8-.8-3.7-1-5.7-.5-5.2-.2-10.6-1.6-15.7-.6-2.6-1.5-5.1-2.3-7.6a1374 1374 0 0 0-7.3-22c.7 1 1.5 2.1 2.1 3.2 6 9.3 10 19.7 14 30-.3 2.5-.4 5-.3 7.4 0 3 .4 8 .8 12.4zm-17.7-23c-.6-4.1-.8-8.3-1-12.5-.2-4.9-.6-9.7 0-14.3l4 11.3c-1.3 5.1-2.3 10.3-3 15.5zM23.1 55c1.2-3.5 2.3-6.9 3.8-10.2a27 27 0 0 0 4 12.1 69 69 0 0 0-.5 15.2A99 99 0 0 0 23 55zM28 42.3c1.9 1.3 3.6 3.1 5.1 5a69 69 0 0 0-1.4 5.4c-.6-3.5-2-6.8-4-9.8l.3-.6zm-8.7-2.7c1-2.3 2.3-6.7 4.3-8.2 2.6-2 5.1 1.9 6.7 3.8a25 25 0 0 1 4 8.5l-1 3.1c-.5-2.5-1.9-4.8-3.7-6.6-.4-.4-1.4-1-2.2-.9-.9.1-1.6 1-1.9 1.5l-1.2 2.3a22.8 22.8 0 0 0-2 10.3 66.6 66.6 0 0 0-5.2-7.7c.6-2 1.4-4 2.2-6zm-6 8.8a35 35 0 0 0-.9 4.3l-.1-2.9-.1-4.7 1.1 3.3zm2.2 40 1.9 5.9c.2-5.8.5-11.6 1-17.5l.3 3.6c1 6.8 2 15 3.4 21.7A43.4 43.4 0 0 0 18.6 74l.8-8.6 5.5 15.4c2.2 6.6 1.5 14.1 4.3 20.6-1.6-1.2-3.2-2.1-5.2-1a38 38 0 0 0-9.8 15.5c.4-7.5.4-15 .5-22.5v-7.9l.8 2.8zm-7.7 20.5c1.4-3.8 2.6-7.8 4-11.4 0 7 .5 14 1.6 21l-1.1 4-.1-2a91 91 0 0 0-3.9 2.8c1-4.8.8-9.7-.5-14.4z" class="cls-1" clip-path="url(#clipPath1797)"></path>
    <path id="path259" d="M4.2 135.8a9.4 9.4 0 0 0-6 8.4 9.4 9.4 0 0 0 6-8.4z" class="cls-1" clip-path="url(#clipPath1787)"></path>
    <path id="path261" d="M938.8 32.6v-.4c35.9 2.4 72.3 5 108.6 7.8l.1-2c-36-2.8-72.3-5.4-107.9-7.7a295 295 0 0 0 8-23.5c-4 7.2-7.5 15.3-10.8 22.9l-.2.4h-.1a46 46 0 0 0-9.7-22.5l-3-3.7c.8 8.3 1.4 16.9 2 25.5l-5-.3c0-.3-.2-.5-.3-.8-2.5-5.3.8-11.7-1-17.4 2.6-1.6 1.8-6 1.2-8.7-.5-2.4-.6-4.9-.5-7.4 10-3 21.7.2 28.9 10.1a25.6 25.6 0 0 0-38-8.8 26.6 26.6 0 0 0-8.6 10.6 11 11 0 0 0-10 3.7c-2.2-2.5-6-3.1-9.1-2.3l-1 .4c.2-.3.3-.7.3-1 .1-1.1-.6-2.2-1.5-2.6 1.1-1.6 1.9-3.8-.2-5-.6-.4-1.6-.4-2 .2 1.1-1 2.8.6 2.6 1.7-.1 1.3-1.2 2.3-2.2 3.2L877 7.2l3.2-1.2c.5-.2 1 .8 1 1.3-.3 1.2-2.7 2.7-3.7 3.6h1a23.5 23.5 0 0 0-3.4 3.8c1.4-1.4 3-2.7 4.6-3.7h.4c1 .1 1.9 1.5 1 2.3-.2.3-.5.5-.8.5l-3.4.2 3 2c.6.5 1 1.3.9 2.2 0 1.4-.8 2-1.8 2.4l.2 6-3.7-.2c-.8-2-2.8-3.5-3.3-5.4-.3-1 0-2.3-.3-3.7-.3-1.4-2.8-2.2-3.2-.6.5-1.3 2.4-.2 2.4.8.1 1-.5 2.2-.4 3.7.2 1.5 1 2.7 1.6 3.7l.3.6c-.4 0-.5.2-.3.7l-9.1-.5a14 14 0 0 0 .5-12.9 22 22 0 0 0-1.4 4.7c0-1.5-1-2.8-2.6-3.2-1.4 2-.4 4.6 2 5.2l.4-.8c-.3 2.3-.3 4.6.2 7l-2.5-.2-.1-.8-.1-.3c-1.1-1.3-2.9-1.2-4.2-1.8-1.7-1 1.7-3 2.4-4.1 1.4-1.7 1.4-4.3-.1-5.8l-.9-.6 1-3c.7-2 3.9-3 5.6-1.9l4.4 3-2.3-4.7a2 2 0 0 1 0-1.4c.6-2 2.9-1.8 4.1-.5 2.4 2.2 1.6 5.6 1 8.5l-.4 1 1-.3c1.4-.7 3 .6 3.9 1.9-.4-.8-.8-1.6-1.5-2.2-.5-.4-1.1-.7-1.8-.7 1.8-4.2 1.9-9.7-3.2-11.5-2.7-1-5.4 1-6 3.6a7 7 0 0 0-6 1.9c-1-.8-2.4-1.2-3.6-1-2.4.3-3.8 2.4-4.5 4.5-.6-.3-1.3-.4-2-.4-6 .9-5.2 11.3-2.9 15.2-1-3.6-1-10.5 2.3-12.8.6-.3 1.9 0 1.9.8l2.5.3c.5-1.6 1-3.5 2.3-4.5.5-.4 2.3-.3 2.4.6l-.2 3.2c-1 0-1.8.5-2.3 1.2a3 3 0 0 1 2.3-.8l-.3 6.5 2.1-5.9.5.5c1 1.3.8 3.4-.3 4.4-1.3 1.4-4 2.5-3.6 5 .1.6.6 1.3 1.1 1.6.8.6 2 .8 2.9 1.1l-25-1.3c-2.4-9.3-10.5-18.7-21.3-18.9h-.7l-1 1.2c-1.6 2.2-1.2 5 1.3 8.3A9.7 9.7 0 0 0 818 18a16 16 0 0 0 7-1.7c1.8 2.3 3.1 5 3.9 7.5l-32.3-1.6c-2-3-4.2-5.5-6.7-7.6-7.4-6-19.4-9-28.3-2.7l-.6.4v1.5c-.1 2.7 2 4.9 5.8 6 2.6.7 5.7.1 8.2-1.7 1.8-1.3 3.4-3.1 4.7-5.6A24.7 24.7 0 0 1 793 22a6166 6166 0 0 0-104.8-4.3l-.2-.5c-.4-1.6 1-3.2 0-5-.4-.8-1.2-1.2-2-1.6-.4-.2-.9-.3-1-.8.3-1.6 2.1-3.2 3.6-4.1-1.9.5-6.3 3.2-4.2 5.5 1.3 1.2 2.6 1.2 2 3.1-.4 1-.8 2.2-.6 3.4l-14-.5c1.3-2.6-1-5.6-3.7-6.2a5 5 0 0 0-2.4.3c-.1-4-6-6.1-8.9-3.4A8 8 0 0 0 646.2 5c-.4-2.2-3-3.8-5.2-3.8-2.7.1-4.8 1.5-6.9 2.3-4 1.7-8.5 1.9-12.6.8-.7-3.6-5.2-5-8.4-4.4-5.8 1.3-10.4 8.4-16.1 4.4-1-1-.8-2-.9-3.5.1-2-1.4-4-3.1-4.8-3.3-1.5-6.5-1.4-10-1.4a37 37 0 0 0-25.4 11.3c-3-.5-6 .4-8.3 2.2l-.6-.5a5 5 0 0 0-3-1c-1 0-2.1.3-2.8.3-1.2-.1-1.1-.5-1.7-1.4-1.7-3-5.6-4-8.6-2.6-2.6-4-8.1-5.6-12.8-4.4a19.8 19.8 0 0 0-10.3 7.6c-.4-.5-1-.8-1.5-1.1a7.8 7.8 0 0 0-9 1 8.6 8.6 0 0 0-9.9-1.5 6.7 6.7 0 0 0-8-3.7c-1.9.5-3.5 1.5-4.8 2.6-1 .9-1.8 2-3 1.3-1.1-.7-2.7-2.3-4.2-2.8-4.8-2-10.8-.3-13.7 4-1-.8-2.2-1.3-3.3-1.6-4.5-1-9.2 0-13.6 0a163 163 0 0 1-35.2-2.7c-2.4-.4-3.6-2-4.7-4a6.8 6.8 0 0 0-10-1.2c2.2-2 5.8-1.9 8.1-.1 1.2.8 1.8 2.2 2.6 3.4a6 6 0 0 0 3.8 2.5A143.8 143.8 0 0 0 438.5 6c5.8.1 13.3-2 17.4 3 1.9-4.7 7.6-7 12.3-5 1.7.7 2.2 1.8 3.9 2.9 1 .6 2.5.7 3.5.1 2.2-1.2 3.7-3.2 6.1-3.7 2.2-.8 5.6 1 5 3.5l-2 6.4c-12.7-.2-25.4-.3-38.2-.3-3.3-.6-6.7-.7-10 0l-13.4-.1.3-.8a1 1 0 0 0-.7-1.2 1 1 0 0 0-1.2.7l-.7 1.3c-29.4-.1-58.9 0-88.2.2v2c28.5-.2 57.1-.3 85.7-.2a1 1 0 0 0 1.2 1.4c.8-.4 1.6-.8 2.2-1.4h8.3a28 28 0 0 0-4 2 31.6 31.6 0 0 0-13.7 26.3c-1.1-.1-2.3-.2-3.5-.1a27 27 0 0 0 8.9 4.4c1.6.4 3.5.7 5.3.2 1.7-.3 2.8-1.8 4.6-1.6-.7-.9-1.7-1-2.8-.8 1.3-4.8 4.3-12.2 10.8-15.4a8.3 8.3 0 0 1 5-1c1 .2 1.9.6 2.6 1A27.3 27.3 0 0 1 456.6 46c-1 .6-1.7 1.4-2.3 2.3 1.8-.5 3.4-1 4.8-1 1.2 0 2.5.7 3.8.7 2.1 0 3.6-1.4 5.3-2.3.3 0 .5-.2.7-.4h.2c1.4-.6 3-1 4.8-1a6.9 6.9 0 0 0-4.5-1.4c0-7-2.2-14-6.3-19.5a28.2 28.2 0 0 0-10.3-8.6c19.4.2 38.8.3 58.1.6a30.4 30.4 0 0 0-4.7 4.4 45.2 45.2 0 0 0-7.5 15.4c-.8 2.5-2 5.7-1.6 9l-3.2-2.5c1 3.2 3.4 5.7 6.2 7.4 3.1.7 6-1.2 8.8-.8 2.3.4 6.4 3 8.5.4-.9.4-1.7.2-2.5-.1l.4-.7 2.6-10.7c.5-2 1-4.2 2.2-5.8 1-1.3 2.9-2.3 4.4-1.8.9.4 1.7 1.1 2.5 2 1.4 1.3 3 2.8 5.3 2.7 2.4-.2 4.3-2.3 5.2-5.6 1.3-4.8.7-9.3-1.7-12.3l-.5-.7 27.7.5.2.3c.8 1.1 2.3 1.3 3.6.8a10.6 10.6 0 0 0 6.4 8.2c-4 3-7.2 7.2-8.2 12.1l.2-.2c.7 9.2 12 5.7 16.6 1 .3.8.7 1.5 1.2 2.3-6.9 2.7-10.4 4.8-17.6 3.4a3.6 3.6 0 0 0-3-2.7 4 4 0 0 0-4 3l.5-.2a3 3 0 0 0 .8 4c2 1.3 4.8.5 5.7-1.8l.1-.7c5.9 3.7 13.5 1 17.9-4.5.7 1 1.7 2 2.7 2.8-.8 0-1.6.3-2.4.7a9.1 9.1 0 0 0-5.1 7.7l-.2-.1c-.2 2.4.5 5 1.6 6.8.1 1-1.7 1.2-2.5 1.6 1.5 1.6 4.6 1.5 5.3-1.1.2-.8-.1-1.7-.4-2.4-.8-1.6-1.8-3.1-3.2-4.3 5-.3 10.8-2.2 13.4-6.6 1.6.2 3.2.2 4.7 0-3 2.5-5.5 5.8-5.7 10v4l.7-.8c0 1.1.1 2.3.4 3.2v.6c0 .2-.3.5-.8.5 0 .6.8 1 1.4.9 3.1-.7 2.3-5 .7-7.4l.2-.2c4-5 9-9.1 14.2-12.8-4.9.8-9.4 3.4-13 6.9.7-1.7 1.6-3.3 2.4-5l1.8-.2c4.8-.9 9.5-2 14.2-2.8 2.9-.5 5.8-.8 8.7-1.1-3.8 4-9.1 5.8-13.7 8.7a29.3 29.3 0 0 1 4.7-6.6A19.8 19.8 0 0 0 604 55l-2 5.2c.9-.6 2.2-1.8 3.5-3 .2.8.6 1.6 1 2.4-2.3 1.1-3 4.8 0 5.5 2.7.4 3.9-2.2 2.8-4l.9-.9-.7-.9c-1-1.4-2.2-1.9-3-3a44 44 0 0 1 2-1.5c4.8-3.8 12-6.5 14.3-12.7l6.2-.8-.2-.9c-2-10.6-9.7-16-19-17.3l5.5-2.6 5.9-3v.2c23 .6 44.4 1.2 65.3 2 0 .3.2.5.1.7 0 1-1.2 1.5-1.8 2.5-.6.7-1 2-.8 3 .3 1 .6 1.5.5 1.7 0 1-1.2 2.7-1 4 .4 3.3.7 6.5.6 9.9-.2 7.8-.6 16.4-.2 24.2 1-5.3 1.7-10.6 2.3-16 .6-5.4 1.1-11 .6-16.4l-.3-2c0-1.4 1-2 1-3.8-.2-1.2-.6-1.8-.7-2.2V25c.2-.8.8-1.2 1.4-2a4 4 0 0 0 1-2.8l-.2-.4c17 .5 34.6 1.2 54 2h1.9c4.5 2.7 8.8 5.4 13 8.4 4.9 3.3 9.5 6.8 11.7 11.8 2.3 5 2.8 11 2.3 16.6a20.7 20.7 0 0 1-6.7 13.6l-1-.7a37.3 37.3 0 0 0-7.6-4.4c-.8-1.1-1.5-2.3-2.4-3.4A360 360 0 0 0 738 95.8c1.1-2.4 1-5.3.4-8-.4-2.2-.9-4.5-1.1-6.8.7-5.5 4.2-10.4 7.5-15 2.6-3.6 5.5-7.4 7.4-11.6.4-.9.7-1.6 1-1.9.6-.5 1.5-.7 2.3-1.7a3 3 0 0 0 .5-2.5l-.5-1.4v-.3l.4-.4c.4-.4 1-.7 1.6-1 1.2-1 2-2.3 1.8-3.8-.1-1.6-2.2-2.6-3.6-2-.7.4-1.1.8-1.5 1.2a72.4 72.4 0 0 0-12 18.3c-1.4 2.8-2.2 5.9-3.7 8.6l.3-1a6 6 0 0 0 .2-2.6c-.1-.7-.6-1.5-.8-2l.3-.9c.3-.5.8-1.3.8-2.5 0-1.1-.4-2-.7-2.6-.5-1.2-.6-1.3.1-2.3.5-.7.9-2.2.6-3-.4-1.4-1-1.9-1.3-2.8 0-.2 0-.1.3-.5.2-.2.6-.6.8-1.2a3 3 0 0 0 0-2c-.1-.7-1-1.9-1-2.3 0 0-.1 0 0-.2 2.1-2.1 1.5-4.5 0-6.5l.8-1.1a3 3 0 0 0-.4-3.2l-1.3-1.2.1-.5.7-.7c1.4-.9 2.3-3 1.4-4.6-.8-1.7-3.4-1.6-4 0 .7-1.4 3-1 3.4.3.3 1 0 2-.8 2.7-.5.5-1.2.8-1.8 1.4a2 2 0 0 0-.5 1.6c0 .7.5 1.1.8 1.4.7.6 1.1 1 .6 1.9-.2.4-.6.6-.8.5l-3-.8 2.2 2.6c.9 1.2 2.1 2.7 1.2 3.8-.6.6-1.4 1.5-1.3 2.6 0 1.6.8 2 1.1 3.1v.1l-.3.4c-1.3 1-1.4 3-.5 4.4.4.8.8 1.2.7 1.7-.4.9-1.3 2-1.2 3.1 0 1.7 1 2.7 1.2 3.8 0 .5-.8 1.7-1 2.5-.1.5-.2 1.2 0 1.7.2.9.6 1.2.8 1.8.1.7-.3 2-.6 3.3a31 31 0 0 0-.5 2.7c-.3-6-2.1-12-5.2-17.3-.7-1.4-.7-3.2-1.8-4.5-1-1.2-2.6-2.1-3.3-3.1-1.2-1.4-.9-5.2-2.5-7.2-.8-1.1-2.5-2-2.8-3.1-.4-1.8 1.5-4.2.5-6V29h-.1c-2-1.6-4.5.6-3.2 2.6-.8-1.7 1.2-3.2 2.4-2 .4 2-1.7 3.4-1.3 5.8.2 1.3 1.1 2.2 2 3 2.4 2.3.9 5.7 2.8 8.5 1 1.5 2.3 2.1 3.2 3.3.8 1.2.8 2.9 1.5 4a49.4 49.4 0 0 1 4.3 11.2l-.2-.5a85.3 85.3 0 0 0-4.4-8.5c2.8 8.1 5.5 17 7.7 25.4l.2-3.9c0 .8.2 1.5.3 2.2.6 4.7 3.2 9 3 13.5l-1.4 2.3c.2-4.7-1.7-9.2-4-13-4.2-6.8-8-13.7-12.5-20.2-4-4-9.6.5-12.7 3.5l-.4.4a85 85 0 0 0 3.7-21.3l.3-7.2c-2.7 5.8-6 13.1-8.9 18.8-2 4-4.2 7.9-6.8 11.5-2.6 3.6-5.6 7.3-7.3 11.7a16 16 0 0 0-1.1 7l.3 4.3a15.5 15.5 0 0 0-3.4 4 71.7 71.7 0 0 0-14.7 19.4c-1 1.8-1.8 3.5-3.8 3.2l-2-.8a7.3 7.3 0 0 0-5.9.4c-4.9 2.5-6 8.1-8.2 12.7a390 390 0 0 0-3.9 9.4l-1.7-2a196 196 0 0 1 6-25.1c1.1-3.3 1.9-7.4 4.9-9.2 2.7-1.5 4-.2 6.2 1.7 1.5 1.4 4 1.8 5.7.4a9.8 9.8 0 0 0 3-4.1c.8-2 1-4.1 1.2-6.1.4-2 .5-9.6 3.9-7.7a23 23 0 0 1 7.5 8.5 21 21 0 0 0-6.7-9.8c-2.5-1.8-5 .4-5.6 2.8-1.7 4.4-1 9.7-4.1 13.4-1 1.3-2 1.3-3.1.3-1.4-1.4-3.7-3.3-6-3h-.2a36.5 36.5 0 0 0-7.6-20.2l-3 4a94 94 0 0 0-16.7 43.2c3.6-11.7 8.3-23 14.3-33.8l2.1 8 1.2 4.5A72.6 72.6 0 0 0 631 146c-1-3.4-3-6.6-6-8.8-1.8-1.5-4.5-.7-6.1.5-7.3 4.8-10.6 13.2-14.8 20.4-6.8 13-12.2 28.1-9.3 43-.6-18.7 8.4-35.4 17.2-51.3a31 31 0 0 1 7.9-10.2c.8 2.4 1.1 5 1.3 7.5l.4 5a10 10 0 0 0-7 1.5c-5 3.2-7.3 8.6-9.7 13.7a65.8 65.8 0 0 0-4 40.5 105.4 105.4 0 0 1 9.9-46.8 20 20 0 0 1 4.6-6.2c1.7-1.4 3.9-2.3 6.2-2.4l.7 12.2.3 3.7c-2.5 2-4.3 5-5.7 7.8a56 56 0 0 0-6 33.2c1.8-11 4.1-21.8 8.1-32.2 1-2.8 2-5.5 3.6-8 .7 13.1.7 26.4 2 39.4 1.8-17.6 2-35.4-.5-52.9-.8-5.4-1.3-11.3-4-16.1 1.3-1 2.5-1.8 4-.9 3.2 2 5.6 5.1 6.8 8.8v3.3c0-.5.2-1 .4-1.6-.2 3.3 0 7.6-.2 11.5-.2 3.8-.6 7.6-1 11.4a132.6 132.6 0 0 0 1 38.6c.3-9 .7-21.8 1.3-30.7.4-6.5 1.2-13.7.8-20.3 2-1.5 4.5-3.6 7-4.5 5.6 12.8 4.7 26.9 4.2 40.4-.2 4.8-.3 9.5 0 14.3 3.2-17.4 7.2-39.4-3.9-54.8 1.8-.5 3.6-.4 5.2 1a45.5 45.5 0 0 1 5.6 8c.7 5 1.1 9.8 1.4 14 .7 10.5.1 20.8-.7 31.3a112.8 112.8 0 0 0 3-40.5 363 363 0 0 1 5 36.6c.9-10.8.2-21.8-1.5-32.6-2.7-17-7.2-35.2-1-51.8.8-.5 1.5-1 2.2-1.1 2 3 5.2 5.1 8.9 5.8 1 .2 1.9.4 2.3.8.5.5.6 1.2.5 2.1a50 50 0 0 1-.6 5.8c-2 11.5-8 22.5-9.5 34.4-1 8.1.1 16 1 24l1.6 11.9c.3-10.4-1-21-.2-31.3 3 12.3 6.1 24.5 6.6 37.3a55 55 0 0 0-6.5-39.4l.3-2c1-7 3.5-13.6 5.6-20.4 3.5-2.6 5.8-6.2 9.5-8.6l.4 3.3a82.3 82.3 0 0 0 .2 72.2l3.2-1.5.4 1.7.4-.1a54 54 0 0 1 .7-26c-.3 5 .1 10 1.2 15 2.5-6 2.4-13 0-19 .7-1.8 1.4-3.6 1.6-5.6.2-2.4-.8-4.3-.6-6.5a10 10 0 0 1 4-7.2l1.3-1-1-1.6c-1.4-2.2-1.2-5-.1-7.5 5.4 14.1 5.3 29.3 6.3 44.2l.5 6.8c.6-2.2.8-4.5 1-6.8 1.2-15 1.1-31.8-7.5-44.8 1-1.7 2.4-3 4.2-3.6l1.1-.3.6-3.5c2.1 1.5 2.8 4.3 3.9 6.7 1.3 3.3 2.2 6.5 3.3 10a16 16 0 0 0-.5-11c-1-2.7-3.3-6.5-6.4-6.9.8-3 2-6 3.5-8.9l.3.1a187.3 187.3 0 0 1 13.2 42.5 114 114 0 0 0-3.3 29.6c1.2-10 4-20.6 6.3-30.3 1.5-6.8 3.2-13.5 3.5-20.6.6-10.2-3.6-20-8.3-28.8 1.1-.8 2.5-1.3 3.8-.8a107 107 0 0 1 3.5 10c2.8 9.8 4.3 20.8 10.9 29.2l1.9 2.4-.1-2.9c0-4.2-.6-8.3.5-12.4a23.3 23.3 0 0 0-2.1 8.9 65.3 65.3 0 0 1-3.6-11.2 94 94 0 0 0-10.1-29.5 60 60 0 0 0-9.3-12l.1-.2c2-2.8 4.7-5 7.6-6.7 1.9 2 3.7 4.2 5.8 6.3 7.1 6.7 16.4 12 24.3 17.8a206 206 0 0 1 67.7 78.8c1.7 5.7 3.3 11 5 16l3.8-1.1-.6-1.8a2 2 0 0 0 1-2.5c-1.7-4-3.5-8.1-5.5-12a764.3 764.3 0 0 1-18-73.3l-.5-2.5c-1.5-7.5-3-15.3-5.5-22.8l4-1.4c11.6-4.5 20.1-16.8 15.5-29a53.5 53.5 0 0 0 16.6-25.6c2.5-7 3.8-13 4-18.5 0-2.9-.1-5.6-.6-8.2l23.6 1.3c-.8 1.6-.2 3.4 1 5 .6.9 1.3 1.4 1.5 2.5 0 .4 0 .9-.2 1l-3.9.7 3 1.9c.4.3.7 1.3.7 2.5.1 9.3 0 18.6.7 28 .6 8.2 2.5 16.2 3.8 24.3-1.2-2.6-2.7-5-4.6-7.7-.6-3.6-1.4-7.3-2.5-10.7-.4-2.4 1.3-5.1 0-7.5l-.8-1.9c0-.7.4-1 .5-2 .4-1.3-.7-2.9-1.7-3.4l-1.5-1.2c-.4-.5-.3-2.1-.6-3-.2-1-1-2-1.8-2.6.5-1.9-.3-4.2-2-5.2a6 6 0 0 0 1-3.9c-.2-1.7-2.6-3.2-4-1.8 1.4-1 3 .7 3 2-.1 1.7-1.7 3.2-2.8 4.5l1.3.5c1.4.6 1.9 3 .6 4l1.5 2s-.2 0 0 .1c.6.4.6 1.2.6 2s0 1.9.7 3c.8 1.2 1.8 1.6 2.3 2 .3.3.5.3.5.6-.2.7-.7 1.9-.5 2.8.3 1.7 1 2.2 1.4 3.5.2 1.9-.7 4.1 0 6.1l3 7.8-2.5-3-2.7-3a3.4 3.4 0 0 0-5.3 1c-3 5.4-3.1 11.8-3.7 17.7l-.7 8.9a151 151 0 0 0-6.6-8.4c-6.1-6.8-13.5-12.4-20.7-18 .7 4 1.6 8.6.6 12.7-1 5.2-3.8 9.9-7.3 13.9-1.4 1.4-3.5 4.2-5.2 4.7l-2.8.3c9.4 16 14.2 41.5 19.5 59.3 5.3 19.4 10.7 38.8 16.3 58-4.4-19.5-9-39-13.7-58.6-4.4-16.7-8.6-40.3-16.4-56.2a37 37 0 0 0 13.5-20.7c.3-1.4.5-2.9.5-4.4a91.7 91.7 0 0 1 14.3 13.4c28.3 34.2 40.4 77.9 51.2 120-2.4-12.4-5.3-26-8.5-38.2a285.1 285.1 0 0 0-14.2-41.8c1-10.4 0-21-2.8-31a42.8 42.8 0 0 1 6.8 17.6 410 410 0 0 0-.4 19.2c1-14.4 1.7-29 5-43 2.3-9.5 4.7-20.2 16.2-11.5 7 6.3 9.4 16.3 11.7 25 1.1 4.8 1.8 9.4 2.2 14.2.5 5 1.4 10.5 5 14.3 3.5 3.7 7.3 6.2 10.5 10a93 93 0 0 1 14.3 24.6c3.4 7.8 7.8 18.7 11.1 26.7l11.3 26.7c-6.5-18.2-13.1-36.3-20.2-54.3l-3-6.9a34.2 34.2 0 0 1 21 12c-1.8-9-12.5-15-21.2-12.6-3-6.4-6.6-12.6-11.2-18-2.4-3-4.7-4.9-6.6-6.6a45 45 0 0 1 4.6-1.5 40 40 0 0 1 29 1.4v.2-.1c4.2 2 8 4.7 11.2 8.5a25.2 25.2 0 0 0-11.7-11.7 93.2 93.2 0 0 0-11.2-30.9c.6-5.3 1.7-10.6 3-15.8a97.2 97.2 0 0 0 9.7 26.5c-1-9.9-4.2-19.5-9.2-28 2.8-10 6.7-19.8 11.5-29.1-15.4 20.8-22.8 49-15.3 74.2-4.7-.4-9.6.2-14 1.9.7-1.8.6-4-.5-5.6 1.4-32.6 13.2-63.6 28.5-92.1-7 10-13.2 20.9-18 32.4a20.4 20.4 0 0 0-5.1-8.7c3.3-9 7.7-18.6 11.1-27.4l3.5-8.8zM818 15c-2.2 0-4.2-.8-5.3-2.3-.7-.9-2.2-3.2-1.2-4.6 4.5.3 8.5 2.6 11.5 5.8-1.8.8-3.5 1.1-5 1.1zm-44.7.7a6.7 6.7 0 0 1-5.6 1.2c-1.2-.3-3.8-1.3-3.7-3 3.8-2.4 8.3-2.9 12.7-2.1-1 1.7-2.2 3-3.4 3.9zM423 41l-1.3-.4-6.1-1.6c.4-3 1.3-6 2.6-8.7a8.5 8.5 0 0 0 6.4 4.7l1.1.1c-1.2 2-2 4-2.7 5.9zm-8 2.5c.2-.2.3-.5.3-.7v-2a6.7 6.7 0 0 0 6.4 2.2l.6-.2-.6 2.2c-2.2-.3-4.4-1-6.6-1.5zm11.7-9.8c-2.6-1.7-5-3.3-7.9-4.6 2.2-4 5.2-7.4 8.9-9.8 2.1-1.4 4.5-2.4 7-3.1a9.9 9.9 0 0 0 .8 10.2l-1.2.5a20.2 20.2 0 0 0-7.6 6.8zm39.7 9.8-2.8 1.3c-.6.2-1 .3-1.8.2-.8-.2-1.6-.2-2.4-.1a29 29 0 0 0-2.2-5.4 25 25 0 0 0 8-5c.9 2.9 1.3 6 1.2 9zm-5.7-18.3c1.9 2.6 3.3 5.5 4.3 8.6-3.4-.5-7 1.4-8.6 4.4a30.9 30.9 0 0 0-5-6.4c2.8-2.7 5.4-5 8.5-7.5l.8.9zm-1.2-1.4c-4.2-.5-8.5 3-9.1 7.2a25.6 25.6 0 0 0-9.2-5.3 9.4 9.4 0 0 0-4 .1L436 16a23.1 23.1 0 0 1 23.5 8zM561 46.2c-.6 0-1.4-1-1.3-2.3 1.2-.5 2.4-.5 2.9.7.4 1-.7 1.8-1.6 1.6zm46.4 16.4h-.2c0-.2.1 0 .2 0zm.7-.6h.2c-.2.4-.4.7-.8.6l.6-.6zm-99.6-40.2a28 28 0 0 1 4.4-4 15 15 0 0 0 4.8 12c-1.6 2-2.2 4.6-2.7 6.8l-1 4a17 17 0 0 1-6.1-3.6c-1.8-1.7-3-3.7-4.6-5.6 1.3-3.5 2.8-6.8 5.2-9.6zm-3.9 24c-1.3.4-2.5.7-3.6.7-.2 0-.3-.2-.5-.3v-.6c-1-2.8 0-6 1.1-9.4l1-2.8c1.3 5 5.9 9.3 11.2 8.3l-1.4 5.5c-.8-.5-1.6-1.1-2.8-1.5a9.5 9.5 0 0 0-5 .1zm30-17.8c-.4 1.5-1.3 3.2-2.6 3.3-1 .1-1.7-.6-3-1.8-1-1-2-2-3.5-2.6-2.6-1-5.4.2-7.1 2a54 54 0 0 0-4.5-12l3-2c1.6-1 3-2 4.6-2.1 1.8-.2 3.7.6 5.4 1.3 2.3 1 5 2.2 6.5 4.2 2.6 3.3 1.7 7.9 1.2 9.7zm31.5-14.1-.3.5c-.8 1.2-2 0-2-1.2a2 2 0 0 1 2.2.2c.2.2.1.3 0 .5zm-2.5-1.3c-.6.4-1 1-1 1.7l-29.8-.5c-1.5-1-3.2-1.8-4.7-2.4-2-.9-4.3-2-7-1.6-2.3.2-4.3 1.6-5.8 2.6l-1.7 1h-.4l-28.3-.2 4.1-5.3c2-2.6 7.4-2 8.7 1.1l1.3 3 1.3-3c1.3-2.9 6.5-2.8 7.8.1l1 2.5c2.8-4.3 6.3-9 11.4-10.2 3.7-1 8.7.5 10.2 4.2l.8 2 1.6-1.5c1.4-1.3 4.5-1 5.5 1 1.6 3.2 4.2 2.9 7.2 2.5.5 0 1.3.3 1.5.7v-.1l1 3.6 1.4-2a8 8 0 0 1 8.8-2.7 35 35 0 0 1 24.6-11.8c2.8 0 6.1-.1 8.6 1 1.1.6 1.8 1.3 1.8 2.6 0 .7 0 1.6.2 2.6s.8 2 1.6 2.6c2.3 2 5.2 2 7.8 1.3 2.4-.7 4.4-2.3 6.4-3.6 2.5-1.6 5.2-2.6 8-1.4 1.5.6 2.2 1.8 2.1 3.3a21 21 0 0 0 15-.7c3.2-1.3 6.2-3.6 9.2-1.3.8.6 1.3 1.5 1 2.4l-.4 2 1.5-1.4c3-2.7 8.6-1.5 10.3 2.1l.3.7c.6-1 1.4-1.8 2.6-2 2.8-.6 6.4 1.5 6 4.6l.4-.2c1.4-1 3.5-.5 4.7.6 1.4 1 2.2 3 1.5 4.7l-11-.4c.3-.1.6-.5.6-1v-1.5c0-.5-.5-1-1-1a1 1 0 0 0-1 1V16c0 .4.2.7.6.9l-37-1.1c-1.7-.6-3.1-1.6-4.7-2.4-2-1-4.1-2-6.4-2.4-4.5-1-9.2-.6-13.6.6a38 38 0 0 0-7.9 3.4l-14.8-.3-.1-.3-.2-.4a3 3 0 0 0 1.5-1.6c1.3-2.4 1.1-6.5-2.4-6.6-2.2 0-3.5 2-3.6 3.9l.5-.5c-.7 1.4-.7 3.1.5 4.2a3 3 0 0 0 2.2.9l-.1.3h-5c.2-1.4-.5-3-2-3.3-1.2-.3-2.8.3-3.3 1.4zm18.3 10c-1.3-.2-2.6 0-3.9.4a24.8 24.8 0 0 0-1.7-6.4l11 .2a18.5 18.5 0 0 0-5.4 5.9zM572 8.5c.7-.4 1.3-.7 2-.4.4.1.4.3.5.6 0 .3 0 .8-.2 1.4l-.5 1.3-.2.1c-1.5 0-1.6-1.7-1.5-3zm-3.2 8h4.7c0 1.4.4 2.8 1 4a8.2 8.2 0 0 0 2.4 2.9l-.3.1-2.3 1.2a33.5 33.5 0 0 1-5.5-8.2zm3.9 23.5c-4.1 1.1-5 .2-7.6-2.6l4-4.2c2.7-2.8 5.6-5.3 8.7-7.7 1.1-.8 2.2-1.6 3.6-2a8.2 8.2 0 0 0-.5 6l-.4.3.2.3.8-.5c-1 2.7-1 5.6 0 8.2l-8.8 2.2zm6.1 12.8-.3-.3a25.4 25.4 0 0 0 8-8.1l1.7.9 2.6.8c-4.2 1.8-8.7 3.4-12 6.7zM620 30.4a57.3 57.3 0 0 0-32.8 3.2c5.3 0 12.5-.8 17.8-1.1 4.7-.4 11-.7 16-1.2 2.6 2.3 4.6 5.3 5.7 8.7-4.2 1-8.7 1.7-13.2 2.3-4.7.6-9.6.9-14.3 1.3-2.4.2-4.7.3-6.9 0-6.9-.5-11.5-7.3-10.3-14.2a37 37 0 0 1 11.7-3.2c8.6-.6 18.7-1.4 26 3.9l.3.3zm-12.4-7.6c-2.3-.2-4.7-.1-7.2.1-6.8.6-14.1 2.1-19.5 6.6 0-6.7 6.8-10.4 12.1-13a36 36 0 0 1 18.4-3.3c1.9.2 3.8.6 5.6 1.2a31.1 31.1 0 0 0-24.4 7.5c5-1.4 10-3 15-4.2l12-2.4 1.5.4v.2a18 18 0 0 0-13.5 7zm195.6 46a22.4 22.4 0 0 0-8.4-1.8c4-7.7 1-17.7-4-24.4a50.6 50.6 0 0 0-22.4-15.5 202 202 0 0 0-13.3-4.8l39.1 1.8c3 4.3 5.3 9.6 7.3 16.4a51.2 51.2 0 0 1 1.7 28.3zm-32.5-1.4c5-7.8 5-18.2 1.5-26.6a29.4 29.4 0 0 0-13.1-12.6 86.2 86.2 0 0 0-13-6.3l5.2.3h2.1c4.7 2.5 9.4 4.7 14 7a79.7 79.7 0 0 1 15.1 9.1c8.4 6.6 15.1 18 11.8 28.7-6.2 0-12 2.3-17.3 5.4a99.9 99.9 0 0 0-6.8 4.5 28.4 28.4 0 0 0-4.9-4.5c2.1-1.2 4-3 5.4-5zm-1.3 10a64 64 0 0 0-4.7 4 99.1 99.1 0 0 0-5.5-10.1c2.8 2.8 6.4 5 10.3 6.2zm-15-8.7 7 8.8c-7.7 1.4-10 10.5-14.3 16-3.4 5-7.5 10.7-8.2 16.9-.8-4.2-1.7-8.4-1.4-12.6 6.7-9 12-19 17-29zm-11.2-9.1c2.6-4.4 5.7-9 9-13 0 .8.3 1.5.7 2.4-.4.4-1.4.7-2 1.4-1 1-1.3 2.1-1.6 2.8-1.7 4.1-4.2 7.7-6.7 11.5A40.5 40.5 0 0 0 737 77a27.4 27.4 0 0 1 1.3-8.9c2.1-2.5 3.3-5.7 5-8.5zm-6.7 36.6c-3.7 7.4 0 16.3 2.4 24.1l-7-4.8c.6-6.7-.1-13.5-1.8-20-1.8-6.3-4-14.6-10.1-17.8 4.6-.4 10.7 5 12.3 8.8l-.6-2.1a25 25 0 0 1 4.8 11.8zm-27.2-27.8c1.6-1.6 3.5-3 5.4-4 2-.9 3.1-.5 4.4 1.5l9 13.3c-2.6-2.5-6-4.3-9.4-3.9-5.4 1.1-6.8 7.3-9 11.5-4 9.6-6.3 20-6.2 30.3-1 .1-1.8.3-2.6.7a5.6 5.6 0 0 0-3 3.2l-1-1.2a80.5 80.5 0 0 0-5.3 5.5l.8-4.8c.8-.8.9-2.1.9-3.2v-1c1-5.3 2-10.6 3.2-15.8 2.7-11.3 4.4-23.7 12.8-32.1zm-24.8 66.3c1.7-10.6 1.2-23.6-4.7-31.7 1.8-.5 3.8-1 5 .4a51 51 0 0 1 5.8 11l1.2 3-.6 8.4a83.2 83.2 0 0 0-6.7 8.9zm3.2-47.6c.1-2.2.7-4.3 1.7-6.3 2-3.9 5-7.2 7.8-10.8 4-5.1 7.2-10.8 10-16.6a102.5 102.5 0 0 1-3.3 16.8 53 53 0 0 0-8 20.8 4 4 0 0 0-1.6-1.3c-2.3-.9-4.7 0-6.8 1.5.2-1.4.2-2.8.2-4zm-4.6 10.6c2.5-1.5 4.7-3.2 7.2-4.7 1.7-1 3.2-1.7 4.8-.4l.4.5-1.3 6.9-1.8 11.7c-.7-2.6-2-5.2-3.6-7.4-2.5-3.8-5.8-4.8-9.1-1.5l-.2-.2 3.6-4.9zm-39.3-5.6 4.1-6.9.7-1a45 45 0 0 1 7.2 15.7c-3.3.4-5.4 2.8-6.8 5.6a20 20 0 0 0-5.2-13.4zm3.8 16.9-.8 2.9a127 127 0 0 0-4.4 24.7 22 22 0 0 0-6.3-4.4 253 253 0 0 1 10.6-26l1 2.8zM631 149.2zm16.5 4.7c-2.6-2.6-7-2.3-9.7-.3a18.2 18.2 0 0 0-4.9 5.3l-.2-2.1c-.3-3.1-1-6-1.4-8.4 1.4-5.4 3-10.8 4.7-16 2.4 1.6 4.5 3.7 6.2 6a106 106 0 0 0-.2 8.6l1.2-7.2 1.2 2-2.4 6.5 3-5.3a57 57 0 0 1 4.8 13.6c-.7-1-1.4-1.8-2.3-2.7zm5.2 3a49.7 49.7 0 0 0-6.6-15.8l5.1-9.8c1.5-2.7 2.7-5.8 4.4-8.3a9 9 0 0 1 1.3-1.5 57.6 57.6 0 0 0-4.2 35.5zm18.5-13.4c1-3.8 1.8-7.7 2-11.7.1-4 .2-7.3-4.6-7.5a13 13 0 0 1-8.8-4.4c.8-.1 1.6 0 2.4.2 3 1.5 5.9 1.4 8-1.6 1.6-2.6 2.9-5.2 4.3-7.8a141 141 0 0 1 3.2 17.2l1.3 11.7c-3-.3-5.7 1.4-7.8 3.9zm3.6-33.4 1.3-2.2c1-1.7 2-3.3 3.2-4.9 2 5.9 2.6 11.8 3 18l.7 16-2.1 3.9c.9-10.5-.4-21.8-6.1-30.8zm43.1 49.6c-.6 5.8-1.7 11.5-2.9 17.2a66.6 66.6 0 0 0-13.6-38.2c.5.2 1 .2 1.6.1 4-.2 6.3-4 8.3-6.6a7 7 0 0 1 1-1c3 9.3 6.4 18.6 5.6 28.5zm-.4-57.8-1.3-1.4a28 28 0 0 0-9 11.6c-.1.2 0 .4.1.5.1.1.3.1.4 0 3 5.4 5.8 10.8 8 16.4a5.4 5.4 0 0 0-4.6-.3c-3 1.1-4.7 4.5-7.3 5.8-1.8.8-2.7.5-3.5-1.3-.8-2.4 0-4.9-.4-7.3-1.3 2.5-3 4.8-2.6 7.9 0 1.8 1.2 3.5 2.8 4.4a25.1 25.1 0 0 0-6.6 11.1c-6.3 1.8-9.7 9.8-6.8 15.6a13.8 13.8 0 0 0-3.3 8.8c-.2 2.3.9 4.5.9 6.5-.2 3.1-1.8 6.3-2.3 9.4a51.9 51.9 0 0 0 .2 22.4 79 79 0 0 1 15.9-87.8c.3.7 1 1.3 1.8 1.7-.5-1.4-.4-2.7.1-3.5 1.4-2.3 4.6-2.5 7-3.8 1-.6 1.8-2.3 1-3.3-.4 1.4-1.5 1.5-2.7 1.6l-1.5.1c2-10 4.7-19.7 8.7-29 1.5-3.3 2.6-7.4 5.3-9.6l1.5-.6c2.5 2.1 3.8 5 4.9 7.9 2.3 6.9 4 14 5.5 21.1l1.4 8.1c-5.2-3.7-9.4-8-13.6-13zm25.2 21c2.2-3.2 6.1-5 9.4-2 3 2.6 3.4 6.5 4.5 10.5l.7 2c-3-2.3-6.2-4.6-9.4-6.8l-5.2-3.6zm16.9 12.3c-.4-1.3-.5-2.8-.7-4.2-.3-2.8-.6-5.8-2-8.7a9.4 9.4 0 0 0-2.9-3.6c1 .5 2.2.3 3.2 0 1.3-.3 2.5-.8 3.6-1.5 4 5 4.3 12 9.4 16.4 1.7 1.6 3.8 2.4 5.3 4 2.9 3.1 3.7 7.7 4.9 11.8.7 2.7 1.6 5.4 2.7 8-7.3-8-15.1-15.4-23.5-22.2zm1.6-24h5.1c-3.8 1.6-7 4-10.9 5-.5.1-.4.1-.8-.4l-2.2-3c2.5 2.4 7.3 1.7 8.8-1.5zm24.6 5.3.5 3.1c2 14-.6 28.3.9 42.3l-2.4-2.7c-.9-3.4-1.6-6.8-2.1-10.3-.8-4.6-1.6-9.7-5-13.3-1.5-1.5-3.3-2.5-5-3.6a68.5 68.5 0 0 1 13-15.5zm22.5 74.6a228.2 228.2 0 0 0-9-13.6c0-5.2 1-10.4 1.5-15.6 2.3 9.7 4.8 19.5 7.4 29.2zm-13.7-58.9.4 2.6c1 5.2 2.2 10.7 3.4 16l1 4.3a43.8 43.8 0 0 0-1.6 20.2c-3.2-4.4-6.6-8.6-10.2-12.8.8-11.3 2.7-22.9 2.4-34.1a64 64 0 0 0-1.4-11.5c-.2-1-.6-2.6-1.9-3-2.2-.6-3.5 1.7-4.8 3-4 4.4-7.2 9.6-9.2 15l-.7-.4c-4.6-3.8-6-10.9-10.8-14.6a17 17 0 0 0 5.1-5.6l6.7-.1c-4 2.1-6.8 6.7-6.6 11.3a49 49 0 0 0 8.3-11.4l4.4-.2c3.4-.2 6.7-.6 10-1.3 2.5 7.3 4 15.1 5.5 22.6zm8.2-32.4c-6.6 5.8-15.2 8-23.9 9.2l-14.9 2a17 17 0 0 0-5-7c-2.4-1.9-3.8-2.9-5.8-5.3a6.2 6.2 0 0 0 0 4c-3.4-.5-8.3.1-10 3.9-1 2.5.5 6 3.7 5.5 2.1-.2 3.5-2.6 4.3-4 .8-1 2-2 3.5-2.7 2.2 2.7 5.9 4.8 8.9 5.6l-2.4.3a23 23 0 0 0-9.4.7l.1.2-.4-.5c.1 1.8.5 3.4 1 5.2.1.4.4 1 .9 1.4-4-2.5-9.4-1.3-10.7 4.6L740 121c.2-2 0-4-.2-5.9l-.4-2.5c1.9-6.7 6.4-11.8 10.3-17.5a56 56 0 0 0 5.4-9.9 15 15 0 0 1 6.4-7.6l3.2 3.9a36.6 36.6 0 0 0-11.4 17.2 49 49 0 0 1 21.5-21.4c6-3.6 12.9-6.9 20-6.6 5.2.3 10.8 2.6 13.3 7.3 4 7.1 1 16.6-5.2 21.8zm-48.7 4.8c-1.6 0-3.3.8-4.7 2-1.3 1.2-1.7 2.3-3 2.6l-.3-.1c-.2 0-.4-.9-.2-1.5 1.3-3 4.4-3.5 7.3-4.8l1 1.8zm76-70.5c-.2 5.1-1.5 11-3.8 17.6a51.5 51.5 0 0 1-15.1 23.8c-1.4-2.2-3.2-4-5.3-5.3 2.6-8.3 2-18.6-1.5-30.5-1.8-6.2-4-11.2-6.5-15.4l31.5 1.5c.5 2.6.8 5.4.7 8.3zm103.2 80c2.3 10 5.6 19.9 10 29.2a32 32 0 0 0-9.8-2.4c-1.3-9-1.2-18-.2-26.9zM928 20.4a191 191 0 0 0-.5-7.2 55.3 55.3 0 0 1 8 16.8l-7-.4-.5-9.2zm-8.7 12.7c0 .3-.1.5-.4 1a5.7 5.7 0 0 0-1.1 4.5c-1.2-.8-3.2.2-3.6 1.7a5 5 0 0 0 .6 3.6c-1.2.5-2 2-1.8 3.4 0 1.1.8 2.7.6 3.5-.1.4-.3.8-.5.8l-3.3.6 2.9 1.9c.4.3.5.8.6 1.4 0 4.6-1.8 9.2-2.7 13.8-.4 1.6-.8 3.2-1 5L909 66a446.5 446.5 0 0 0-4-35.9l13.5.9c.4.7.8 1.4.9 2.2zm-10 42.7.1.5v.3l-.1-.8zm-9-35.8c1-1.3 1-3.2 0-4.6-.1-.3-.4-.6-.7-.8a5 5 0 0 0-1.2-4.9l4 .2v1.6l.4 3.2.6 6.3c.6 5.3 1.4 11.1 2.2 16.6l-1.2-5.3c-.3-1.6-1-3.6-2.5-4.7a8 8 0 0 0-1.5-7.6zM883.7 9.5c3-.5 6.7.4 8 3.3l.7 1.8 1.2-1.7c2-3 6-4.4 9.4-3.3l1.2.4.5-1.2a25.2 25.2 0 0 1 15.3-14 28 28 0 0 0-.4 9.8c0 1.5.1 4.3-1.7 4.5l-1.4.1.5 1.5c1.9 5.7-1.9 12 .5 18v.2L906 28c-.8-2.2-2-4.3-2.4-6.6 0-.6 0-1.2.6-1.5l1.4-.5-1.3-.5c-1.7-.7-1.6-3.8.1-4.5-2 .5-2.6 3.3-1.4 4.8-1.3 1-1 3.5-.5 5l1 3.7-6-.4.2-1.4c0-1.3-.6-2.6-1.8-3.3-.7.4-1.1 1-1.2 1.7.2-.5.7-1 1.2-1.2a3.5 3.5 0 0 1 .4 4.2l-8.4-.5.4-1c.8-1.6.7-4.2-1.2-5-.5.1-.8.6-.8 1 .1-.4.4-.6.7-.6.5.5.7 1.3.6 2-.2 1.4-1 2.4-1.9 3.5l-3.4-.2-.3-4.7c1.8-1.7 2-4.7.7-6.8a3.6 3.6 0 0 0-.3-5.4l1.3-.3zm-4.8 33.2c-.3-1.4-1-2.4-1.4-3.6-.3-1.7 1.4-3.7.4-5.6-.3-1.2-2-2-2.6-2.6v-.3c0-.7.4-1.5.5-2.2l3.5.2c0 2.6-.1 5.3-.4 8v.4l.2.5c2.9 5 3.3 11.6 4.6 17.3l.3 2a37 37 0 0 0-4.9-9.4c-.4-.6-.7-1-.6-1.5.3-.8.7-2.2.4-3.2zm5.8 2.9c.3.8.8 1.2 1 1.9v.9l-.4 1.8-.7-4.6zm-.4-8.4c-.7 1.5.4 3.5.7 4.5v.4c0 .2-.4.5-.6 1.3v.4a24 24 0 0 0-2.5-7.4c.3-2.6.4-5.1.4-7.7l2.2.2c-.2.4-.3.8-.3 1.3a4 4 0 0 0 1 3.4c.3.4 1 .9 1 1.2-.6.7-1.5 1.3-1.9 2.4zm-38.6 49c.7-2.3 1.4-5.3 3.1-7h.2c.1 0 .6.3 1.1 1l1.7 1.9c9.6 11 11.2 17 13.6 31.1l.8 5v.6a30 30 0 0 0-7.8-14.8c-3-2.6-5.8-.5-6.6 2.7a32.7 32.7 0 0 0-1.6 11 171 171 0 0 0-8.4-12.7c1.5-6.2 2.5-12.6 4-18.7zm14.9 51.2c-2.9-6.3-6-12.4-9.5-18.3.6-4 1.6-7.8 3.2-11.5.4-1 1-2.6 2.1-1.4l1.6 2c.2 9.8 1 19.5 2.6 29.2zm43.2-6.4c-.3-3-.7-6.2-1.3-9.5a62 62 0 0 0 12.4 23.2l-3.5 2.2c-4.1-3.7-7-6.5-7.6-16zm12 13.2-.7.4c-2.8-5.9-5.2-11.9-7.5-18a75 75 0 0 0-7.3-14.8A47.3 47.3 0 0 0 890 91.5c-1-7-5-13.3-10.3-17.9-2-1.6-3.9-3-5.6-5 1.5 5 5.7 8.3 8.3 12.4 2 2.8 3.8 5.7 5.6 8.6-4-3-10.4-4.9-14.1-.5-3.4 4.1-3.9 9.2-5 14-1 4.2-1.5 8.3-2 12.5V113a71 71 0 0 0-2.7-16.4c0-3.2.4-6.4 1.3-9.5.9-3.7 4-7.7 2.6-11.6a4.7 4.7 0 0 0 .6-5l-.6-1v-.1c0-.1 0-.3.2-.5a7.5 7.5 0 0 0 1-6.6c-.4-1-.8-1.4-.6-2 .3-.5 1-1 1.4-1.6.4-.4.7-1.1.6-1.8 0-.8-.4-1.3-.5-1.6-1.6-2.8 2.8-5.1 3-8.2.2-1.6-1-3.6-2.8-3.3 1.6 0 2.2 2 1.9 3.1-1 2.8-5.1 4.5-4.6 8.1 0 .6.6 1.6.7 2l-.9.8c-.8.6-1.6 1.7-1.6 2.8 0 1.3.5 2 .6 2.6.4 1.5.2 3-.7 4.1L865 69c-.1.8.2 1.6.4 2 .5 1 1 1.1.7 2.1-.1.9-1.2 1.3-1.8 1.8l.8 1.2c1.4 2.3-.4 5.1-1 7.5l-.8 3.7-1-10.6c-1.1-11.9-.6-24-1-35.9-.1-1-.3-2-.7-3l.5-.8a5 5 0 0 0-.7-4.7c-.7-1-2.4-2.7-2.1-3.7 0-.3.3-.7.6-1l3.6.1h.4l10 .6h.4c-.3 1.2-1 2.4-.5 3.7.5 1 1.3 1.5 1.7 1.9 1 .8.9.6.7 1.7-.4 1.3-1 3-.6 4.4.3 1.5 1.3 2.5 1.4 3.9 0 .5-.4 1-.5 1.7-.2 1.3.6 2.8 1.3 3.6a54.3 54.3 0 0 1 8.7 16.8l1.2 7.2a120.7 120.7 0 0 0-.6-15.2l.3.8c0-3.5.3-6.7 1.4-9.8.4-.9.3-2.6-.2-3.3-.3-.6-.6-1-.6-1.4 0 0 .3-.3.6-1s.3-1.5.2-2c-.2-1.2-.7-2-.7-2.5-.1-.6 0-.4.3-1l1-1c.7-.7 1-2.5.2-3.4-.7-1.2-2.1-1.5-2-2.9 0-.4 0-.9.2-1.4l6.7.4-.5.2 2.6.2c1.9.1 3.2 3.2 2 4.5l-1 1 1.4.7c.8.4 1 1.7.6 2.4-.3.5-1.6.9-2.4 1.3l1.6 1.4a5.3 5.3 0 0 1 1 6.6l-1.3 2 2.6.3.3.1c.8.7 1 1.7 1.2 2.9l1.3 5.4 2.7 11.1a30.1 30.1 0 0 0-4.6-6.2c-1.2-1-3.2-3.7-5-2.5-.5.5-.5 1.8.3 1.7-.5-.2-.1-1 .2-1 .9.2 1.2 1.2 1.8 2l4.4 7c2.3 3.6 4.1 7.3 6.2 11.1a269 269 0 0 0 2.6 8.4l1 4.2c-.5.3-.8.8-1 1.3 0-.2-.2-.3-.4-.4a74.6 74.6 0 0 0-14.8-32.9c3.9 10.8 8.5 21.6 13.6 32-2.7-2.1-5.5-4-8.6-5.1a76.8 76.8 0 0 0-12-11.7c.2 0 .3-.1.4-.3.6-.6.7-1.5.7-2.3 0-1.4.4-2.6.9-3.8l.5-1.2c.4-.6.5-2 .2-2.9 0 0 0-.2.4-.5.8-.9 1.9-1.7 2-3.2 0-.8-.3-1.4-.6-2-.7-.8-.2-3 1.7-3.7-2-.6-4.7 1.8-4 4.6.3.6.3.9.2.8 0 0 0 .2-.4.4l-1 1c-.4.3-1 .9-1.2 1.8-.2.6 0 1.6.1 2v.7c-.3.8-.7 2-.7 3-.1 1.6.5 3 .8 4.5l-.1 1c-5-3.8-10.2-7-15.8-9.5 21.6 14.5 38.7 35 42.6 61.3a85 85 0 0 0-10.6-19.7 89.6 89.6 0 0 0 12 27c-1.3 2.3-.7 5 1 6.7-1 .3-1.8.7-2.6 1.2zm1-13.2-.6-1.5A60.4 60.4 0 0 0 904.3 93l.5.5 6 5.3c3.6 3.1 7 6 9 10.3a122 122 0 0 0-1.9 25.6l-1.2-3.7zm6-34.8-.1-10.5c.5 1.6 1.1 3.1 1.8 4.7l-1.8 5.8zm5.9-17.2c-1.2 3-2.4 5.9-3.4 8.9a40 40 0 0 0-1.8-9.6 43.4 43.4 0 0 0-6-13.6c.4 4.1 2.1 11.3 3 13.6l.6 2.1a21.7 21.7 0 0 0 1.1 17.8l-2 8.5a21 21 0 0 0-6-9c.5-1.2.2-2.5-.8-3.3l-.6-7.7c-.3-4-1-7.7-.4-11.3 1-6 3.4-12.2 3.8-18.5 0-1.3 0-2.7-.8-3.8 1-1.4.8-3.6.1-5-.4-1.1-.6-1.9.1-2.6.2-.2.3-.2.5-.2l2.2.2c-1.2-1.4-3.2-3.1-3-5 .1-1.2 1.6-2.3 2.7-1.8.4 2.2 1.7 4.3 2.2 6.6.3 2-.4 4.4-.4 7-.3 4.9.5 9.9 2.4 14.3-1-4.7-1.1-9.5-.5-14.2.3-2.5 1.2-4.8 1-7.4-.1-1.5-.6-2.7-1-3.8-.6-1.6-1.2-2.9-.8-4.3l.8-1.4c.8-1 .9-3 .3-4.4l4 .3 1.3 23.7a97.9 97.9 0 0 0-3.4 13.4c-1.8-1.8-4-3.1-6.5-3.8 2.8 3.8 6.3 7.9 9.1 11.6l2.1 2.7zm-1-25c.8-7.5 1-15 1-22.4l7.2.4-3.2 8.3c-1.7 4.5-3.5 9-5 13.6z" class="cls-1" clip-path="url(#clipPath1777)"></path>
    <path id="path263" d="M403.6 54.6c-2-.6-4.7.3-5.2 2.4 1.8-1.2 4.3-.8 5.2 1l2-1.3.5-.3c.1 0 .4.4.3.5l1.6 4.6 1-3.5c0-.2.2-.4.4-.6 1-.7 2.5-.8 3.6.3-.1-2-2.3-3-4.1-2.6a3.6 3.6 0 0 0-2-1.6c-1.3-.2-2.5.2-3.2 1.1z" class="cls-1" clip-path="url(#clipPath1767)"></path>
    <path id="path265" d="m467.7 58.4-.3-.5c-.3-.6-1.5-1-2.2-.7h-.3c-1.2-2.3-4.2-.9-4.4 1.5.8-.4 1.5-.7 2.2-.6.2 0 .2.2 0 .2-.1 0-.2-.1-.2 0s0 .4.4 1.2c.3.7 1.6 1 2.2.8h.4l.4.3c.8.7 1.8.6 2.6.4.7-.1 1-.5 1.7-.2.2.1.4.3.2.6.4 0 .6-.5.6-1a2 2 0 0 0-1.7-1.6c-.6-.1-1.2-.1-1.6-.3zm-2.6-.7c.1.2.1.3 0 0zm0 2.1h.1z" class="cls-1" clip-path="url(#clipPath1757)"></path>
    <path id="path267" d="M505.7 57.7v-.2c-.8-1.2-2.3-1.4-3.5-1a4 4 0 0 0-2.4-.8c-1.6 0-2.9 1.5-2.5 3 1.2-1.4 2.8-1 3 .4l3 .2.3-.2s0-.2.3 0c.3.4 1.1.8 1.6.7.6 0 .9-.3 1.2-.5l.7-.6c.3-.1.4-.4.7 0 .1-1.3-2-.6-2.5-1z" class="cls-1" clip-path="url(#clipPath1747)"></path>
    <path id="path269" d="M540 53.5c1-1 2.8-1.2 4.2-.5.1-2.3-2.8-3.4-4.8-2.6l-.5.2c-1.4-1-3.5-.8-4 1 1-.3 2.4.4 2.4 1.4l-.6 4 3.3-3.5z" class="cls-1" clip-path="url(#clipPath1737)"></path>
    <path id="path271" d="M356 33.5c.7-.4 1.5-.7 2.4-.9h2.9c-1-1.5-3-2.1-4.8-2a2.9 2.9 0 0 0-2.4-1.2c-.6 0-1.6.4-1.9.4-.1.1-1.1-.5-1.5-.6-2-.6-4.6.5-5 2.6 1.5-1 3.1-1 4.4 0 .5.4 1.1.9 1.9 1 .9 0 1.5-.2 1.9-.3h.4v-.2c-.1 0-.2-.5 0-.7l1.8 1.9z" class="cls-1" clip-path="url(#clipPath1727)"></path>
    <path id="path273" d="M403 27.4c1.8 2.3 5.6 1.7 6.6-1a5.7 5.7 0 0 0-6.6 1z" class="cls-1" clip-path="url(#clipPath1717)"></path>
    <path id="path275" d="M647 15.2c-.2.5.2 1 .7 1.1h.2a1 1 0 0 0 1-.8 7 7 0 0 0-.6-4.2 1 1 0 0 0-1.3-.5 1 1 0 0 0-.5 1.4c.5.9.6 2 .4 3z" class="cls-1" clip-path="url(#clipPath1707)"></path>
    <path id="path277" d="M377.5 10.7a1 1 0 0 0 2 0c0-1.9-.6-3.7-1.7-5.2a1 1 0 0 0-1.4-.3 1 1 0 0 0-.2 1.4 7.7 7.7 0 0 1 1.3 4.1z" class="cls-1" clip-path="url(#clipPath1697)"></path>
    <path id="path279" d="M386.4 11a1 1 0 0 0 1.3.6c.5-.2.7-.7.5-1.3l-1-2.5a1 1 0 0 0-1.3-.6 1 1 0 0 0-.6 1.3z" class="cls-1" clip-path="url(#clipPath1687)"></path>
    <path id="path281" d="M350.2 12.1c-1.3-2-.2-4.8 1.7-5.6 1.8-.9 4.1-.2 5.6 1.1L360 10l-.2-3.5c-.1-1.5.3-3 1.2-4.4 1.8-2.9 5.2-4.3 8.6-4.6 1.2 0 2.8-.3 4 0 .1.1.3.2.3.4s0 .5-.3.5c.5.1.8-.9.3-1.3-1.3-.9-2.8-1-4.3-1.3-4.1-.5-8.7 1-11.1 4.6a9.7 9.7 0 0 0-1.6 3.8c-3.5-1.2-8 .2-8.3 4.4-.2 1.4.4 3 1.5 3.6z" class="cls-1" clip-path="url(#clipPath1677)"></path>
    <path id="path283" d="M647.7 42.4 653 39a5 5 0 0 1 5.8 1c.2-3-3-4.7-5.6-4.2l-.4-.6a3 3 0 0 0-2.7-1c-1.7.4-2.8 2.5-1.7 3.8.3-1.3 1.5-1.7 1.8-1.4.3 0 .7.7.5.9z" class="cls-1" clip-path="url(#clipPath1667)"></path>
    <path id="path285" d="M648.3 53.3c.1.3 0 .5 0 .4l2.5.7c.5-.1 1-.3 1.6-.3.4 0 .7 0 1.2.5 1-2-1.6-3.7-3.4-3.1l-.6.2c-.8-.4-1.8-.3-2.3.6.6.2.9.5 1 1z" class="cls-1" clip-path="url(#clipPath1657)" transform="translate(7.8 17.7)"></path>
    <path id="path3037" d="M540 53.5c1-1 2.8-1.2 4.2-.5.1-2.3-2.8-3.4-4.8-2.6l-.5.2c-1.4-1-3.5-.8-4 1 1-.3 2.4.4 2.4 1.4l-.6 4 3.3-3.5z" class="cls-1" clip-path="url(#clipPath1737)" transform="translate(-114.9 75)"></path>
    <path id="path3039" d="M356 33.5c.7-.4 1.5-.7 2.4-.9h2.9c-1-1.5-3-2.1-4.8-2a2.9 2.9 0 0 0-2.4-1.2c-.6 0-1.6.4-1.9.4-.1.1-1.1-.5-1.5-.6-2-.6-4.6.5-5 2.6 1.5-1 3.1-1 4.4 0 .5.4 1.1.9 1.9 1 .9 0 1.5-.2 1.9-.3h.4v-.2c-.1 0-.2-.5 0-.7l1.8 1.9z" class="cls-1" clip-path="url(#clipPath1727)" transform="translate(44.5 77.4)"></path>
    <path id="path3041" d="M647.7 42.4 653 39a5 5 0 0 1 5.8 1c.2-3-3-4.7-5.6-4.2l-.4-.6a3 3 0 0 0-2.7-1c-1.7.4-2.8 2.5-1.7 3.8.3-1.3 1.5-1.7 1.8-1.4.3 0 .7.7.5.9z" class="cls-1" clip-path="url(#clipPath1667)" transform="translate(-232.6 46)"></path>
    <path id="path3043" d="m467.7 58.4-.3-.5c-.3-.6-1.5-1-2.2-.7h-.3c-1.2-2.3-4.2-.9-4.4 1.5.8-.4 1.5-.7 2.2-.6.2 0 .2.2 0 .2-.1 0-.2-.1-.2 0s0 .4.4 1.2c.3.7 1.6 1 2.2.8h.4l.4.3c.8.7 1.8.6 2.6.4.7-.1 1-.5 1.7-.2.2.1.4.3.2.6.4 0 .6-.5.6-1a2 2 0 0 0-1.7-1.6c-.6-.1-1.2-.1-1.6-.3zm-2.6-.7c.1.2.1.3 0 0zm0 2.1h.1z" class="cls-1" clip-path="url(#clipPath1757)" transform="translate(-88 97.2)"></path>
    <path id="path3045" d="M356 33.5c.7-.4 1.5-.7 2.4-.9h2.9c-1-1.5-3-2.1-4.8-2a2.9 2.9 0 0 0-2.4-1.2c-.6 0-1.6.4-1.9.4-.1.1-1.1-.5-1.5-.6-2-.6-4.6.5-5 2.6 1.5-1 3.1-1 4.4 0 .5.4 1.1.9 1.9 1 .9 0 1.5-.2 1.9-.3h.4v-.2c-.1 0-.2-.5 0-.7l1.8 1.9z" class="cls-1" clip-path="url(#clipPath1727)" transform="translate(-88.7 142.8)"></path>
  </g>
</svg>