<svg class="quest-illustration" v="" xmlns="http://www.w3.org/2000/svg" data-name="Warstwa 3" viewBox="0 0 940 200">
  <defs>
    <clipPath id="clippath">
      <path fill="none" d="M0 0h940v200H0z"></path>
    </clipPath>
    <style>
      .cls-1{fill:#eed699}
    </style>
  </defs>
  <g clip-path="url(#clippath)">
    <path d="M75.3 31c-.3-4.5 6.1-7.4 9.2-4.1a83.8 83.8 0 0 0-9.2 4zm18-5.1c2.4-2.5 6.7 1 4.8 3.8-.7-.4-2.1-1-2.7-1.5-.6-.5-1.5-1.8-2-2.3Zm7.4-2.7c2.6 3 2.6 7.5 2.9 11.2.5 2 2.2 3.9 2.6 6 2 6.2.2 13.8-4.9 17.8 3-5.5 3.9-12 1.7-17.9-.6-1.9-2-3.5-2-5.7 0-3.9.9-7.5-.3-11.4ZM74.4 35.1c1.5 1.2 2.6 1 4.1.8 1.7-.3 3.5-.8 5.3-.4a7.3 7.3 0 0 1-4.8 3.3c-2.1.6-5.4-1.1-4.6-3.7Z" class="cls-1"></path>
    <path d="M96.2 34.6c2.5-.3 4.1.3 5.7 2.2-1.9 2.3-5.8.7-5.7-2.2Zm-4.3 2.6c1.5 1.8 2.6 3.8 3.8 5.7 1 1.7 1.9 3.3 1.8 5.4 0 1.8-1.6 3.6-3.5 3.6-2 0-3-1.1-4.9-1.1-2.3.3-4.6-1-3.9-3.7.2-.6.7-1.1 1.3-1.3-.9 1-.4 2.5.5 3l1.8-.3a8 8 0 0 1 3.9.2c1.5.4 2.2.2 1.8-1.8-1-3.2-2.2-6.3-2.6-9.7ZM67.2 18a7.9 7.9 0 0 0 6.6.4c1.5-.7 3.2-2.2 5-1.8 2.2.2 3.4 1.7 4.8 2.8a6 6 0 0 0 8.7-1.3c1.7-2.4 2.5-5.6 3.3-8.8.2 1.6.3 3.3.1 5-.5 9-9.6 12.7-15.7 5.8-1.2-1-1.8-1.3-3.2-.7-3 1.6-7.4 1.3-9.6-1.4Z" class="cls-1"></path>
    <path d="M80 8c.8-1.4 2.7-2 4.2-1.8 2.9.2 5.2 2 7.4 3.5 1 .6 2 1.2 3.5 1.3-1 1.1-2.9 1.2-4.3.9-4-.8-6.4-4.6-10.7-3.9Zm7.5 8.1a1 1 0 0 1-.7-.3c-1.4-1.3-3-2.2-4.9-2.6a1 1 0 1 1 .5-2c2.2.6 4.2 1.7 5.7 3.2a1 1 0 0 1-.6 1.7Zm5.9-18.3c2.6 0 4.7 2.5 6.7 3.7a9 9 0 0 0 6 1.3l2.2-.4-.4 2a12 12 0 0 1-6.3 8.4A26 26 0 0 0 105 4l1.8 1.7c-3 .7-6.1-.1-8.3-2-2.1-2-2.8-4.2-5-5.8Z" class="cls-1"></path>
    <path d="M93 19.2c2 .7 3.6 2.2 5.3 2.7 3.4 1 7-1.3 8-4.6.5-1.6.6-3.5.2-5.2l2.1.7c-3.4 2.4-8.5 2.4-11.6-.3 2.7.8 5.4.6 8-.5 1.2-.5 2.4-1.7 3.5-2.6l.6 2c2.6 7.2-3.8 15.7-11.5 12.1-2-1-3.1-2.8-4.7-4.3Zm-29.7-13C61.7 0 69.4-4.5 75-3.8c-4 3.6-9 5.1-11.7 10zm-13 14.7a18 18 0 0 1-3.7-15.1c1.3-5.6 6.6-9 11.7-10.3-2 1.8-4 3.4-5.5 5.1-5.3 5.6-4 13.4-2.5 20.3z" class="cls-1"></path>
    <path d="M55 16.4a1 1 0 0 1-1-.7 15 15 0 0 1 .4-8.4 1 1 0 0 1 1.9.7c-.8 2.3-1 4.8-.3 7.2a1 1 0 0 1-1 1.2Zm-7.1-9.6a23 23 0 0 0-4.6 17.4c.5 4 3.4 7.9 1.9 12-.6 1.6-1.6 2.8-2 4.3-1 3.7.3 7.1 0 11.4-.1 8.7-10.8 11.4-16.4 5.5a15.3 15.3 0 0 1-4.1-9.2l1.9.6c-2.3 2.4-3.2 6-2.8 9.3a12 12 0 0 0 5.2 8.7c-1.6-.8-3-2-4.2-3.5a13.2 13.2 0 0 1 .2-16l1.4-1.7.4 2.3c.7 3.6 2.4 7 5.5 8.8 2.7 1.6 7 1.3 8.8-1.3 2.5-4 .4-8.3 1-13.1 0-1.7.7-3.6 1.6-5 3-4-.1-8.4-.4-12.9A21.8 21.8 0 0 1 48 6.8Z" class="cls-1"></path>
    <path d="M27.8 55.7a12 12 0 0 1 .4-10.9l2.3-4.2.4 4.9c.6 4.8 6.5 6.3 10 2.5-.6 3-4 5-7 4.5a7.2 7.2 0 0 1-5.9-7l2.7.8a19.6 19.6 0 0 0-2.9 9.4zm13.4 12a1 1 0 0 1-.8-.4 1 1 0 0 1 .2-1.4c3.6-2.7 6.3-6.6 7.7-10.9a1 1 0 0 1 1.3-.7c.5.2.8.8.6 1.3-1.5 4.7-4.5 9-8.4 11.9a1 1 0 0 1-.6.2ZM53 30.2c2.8.4 4.5 3.2 5.3 5.7.5 1.3.5 3 1.2 4 1.4 1.6 3.6 1.5 6 2-2.7 1.8-7.5 2-9-1.5-1.4-3.6-.9-7.1-3.5-10.2Z" class="cls-1"></path>
    <path d="M65.8 16.2c3.2 2.9 2.5 7.5.3 10.9a14 14 0 0 0-1.9 9.4c.3 2.2 1 4.3 2.4 6.5-4.6-2.7-6.4-9-4.7-14 1.7-4.7 6-7.1 4-12.9Zm-10.1 17c-5-.4-7 5-5.5 9.1 1 4.2 4.8 8.4 9.4 6.3-1.6 2.3-5.2 2.4-7.5 1-4.8-2.7-7-9.9-3.8-14.6 1.7-2.2 5-3.5 7.4-1.8z" class="cls-1"></path>
    <path d="m54.3 38.6 1.3 2.7c.3 1 .2 1.6.6 2.8-3.3 1.3-5.3-4.4-2-5.5Zm8.7 3.6c-1.5 5.7.3 11.7 5.4 14.6 1.6 1 3.4 1.7 5.6 2-4.2 2-9.5-.2-12-4-2.6-3.8-2.3-9.5 1-12.6ZM59 49c1 5.1.6 10.5-1.9 15.1-2.4 4.6-7.9 8.4-13.1 7.1 10.3-2.7 12.7-13 15-22.1zm11.2 14.6c4.2 1.3 9 3.6 13.2 3.5 2.1-.3 3.8-2 5.8-3 2.3-1 4.8-1.8 7.3-1.8a42.6 42.6 0 0 0-6 3.9c-1.4 1-2.8 2.5-4.6 3.3-5.2 2.2-12.1-2.2-15.7-5.9zm10.4-14.1c-.3 1.2-1 2.6-.6 3.8.1 0 .1 0 0-.2h-.3c.2-.4.5-.8 1-1.1 1.4-1 3-.5 4.3.3 1.1.8 2 2.4 2.9 2.9.8.4 2 .4 2.9-.1.7-.6 1.5-1.4 2.4-1.8.5-.3 1.2-.3 1.6-.1-1 .2-1.3 1.1-1.8 2-.5 1-1.3 2-2.4 2.5-2.5 1.2-5.2-.2-6.6-2.2a4 4 0 0 0-1.5-1.2c-.6 0 0-.4-1.7.8-1 .6-2.6-.2-2.7-1.3-.2-2 1.2-3.3 2.5-4.3Zm32.2 10.2a8.7 8.7 0 0 0 1.7-8.6c-.2-.5-.5-1-.7-1-.2-.1-.4 0-.7.1-.8.7-1.2 1.9-1.9 2.8-2.3 4-6.4 6.9-9.7 9.6C94 69.2 93.9 81.4 87.2 89c3.6-7 4-14.9 7.4-22 1.2-2.4 2.8-4.6 4.9-6.5 2-1.8 4.1-3.1 6-4.8 1.4-1.2 2.6-2.5 3.7-4 .8-1 1.4-2.4 2.8-3.2 2-1.2 3.8.3 4.2 2.3.8 3.3-.6 7.2-3.4 9Z" class="cls-1"></path>
    <path d="M102.4 71.7A17 17 0 0 0 104 66c0-.9 0-2 .6-3.4a6.3 6.3 0 0 1 2.8-2.7c3.1-1.6 10.7-3.2 10.5 2.3 0 .1.3.3.4 0 .2.3-.4.6-.7.4l-.5-.8c-.6-1.2-2-1.4-3-1.1-2.3.7-5.5 1.4-7 3.3-.3.5-.5 1.4-.8 2.5-.7 2.1-2 4-3.9 5.2Z" class="cls-1"></path>
    <path d="M108.8 72.3c.8-1.8.2-3.5 1-5.7a8 8 0 0 1 4.7-4.3c1.4-.6 2.8-1 4.2-1.2.7-.1 1.1-.3 1.9-.2 1.4.2 1.8 1.4 2.6 2.3l1.5 2.5c-1.5-.7-2.9-1.7-4.2-2.5-2.6 1.2-6.8 1.9-8.6 4.4-1 1.4-1.4 3.8-3 4.7Z" class="cls-1"></path>
    <path d="M113 74.2c1-2 .2-4.6 2.2-6.2.8-.8 2-1 2.9-1.2 1.7-.4 3.4-.6 5.3-.3a13.7 13.7 0 0 1-4.5 3c-.8.4-1.6.4-2.2 1-1 1.2-1.8 3.5-3.6 3.7Z" class="cls-1"></path>
    <path d="M96.3 100c1.7-3.4 3.8-6.6 6.7-9.2l3.4-2.8c3.2-3 5-7.8 9.1-10 4-2.4 8.4-2.4 10.9-6.1.7-1.2.9-2.3.5-3.4l1.6.6c-5 2-10.8 4-16 5.6l3.8-2 12.3-6.4.5 1.2c1.7 3.2-.8 7.6-4 9.4-2.8 1.7-5.8 2.3-8.1 3.6-3.6 2-5.7 6.7-9.2 9.3-1 .8-2.5 1.7-3.6 2.4-3 2.2-5.5 5-8 7.8zM46.5 72c3.7 4.1 8.8 6.6 13.6 9.2 1.5.8 3 .9 4.7.8 5.5-.5 11-.7 16.3-2.1a38 38 0 0 0 4.5-1.6c.1-.2.2-.4 0-.6l.2.3c0 1-1 1.3-1.7 1.8a27.9 27.9 0 0 1-7.9 3.4 47 47 0 0 1-14.4 1.7c-3-.6-5.4-2.6-7.8-4.3-3-2.3-6-5-7.5-8.6Z" class="cls-1"></path>
    <path d="M86.4 68.5c1.1 3.4.7 7-1.4 10a7.8 7.8 0 0 1 1.4-10z" class="cls-1"></path>
    <path d="M92.8 76.5a14 14 0 0 1-7.1-4.8 4 4 0 0 1 2.5-.4c2.5.3 4.8 2.4 4.6 5.2Zm10.7 15.1a70.6 70.6 0 0 1 7.2 31.5c-.2 8.1-.7 16.9-.5 25 .2 19 2.7 38 6.8 56.6a178 178 0 0 1-9.8-56.6c-.3-9.4.8-19.2 1-28.6a86 86 0 0 0-4.7-28Zm-2 56.4c1 7.2 1.7 17.5 2.3 24.9.6 7.3 1.5 17.6 1.7 25-2.6-8-4-16.4-4.6-24.8-.6-8.4-.7-16.8.6-25.1Zm-11.8-7.7c.9 7.9.6 15.8-.1 23.7a120 120 0 0 1-4.4 23.4c0-8 .7-15.8 1.4-23.6.8-7.8 1.6-15.8 3.1-23.5ZM81.5 154c.5 14-2.8 28-9.3 40.3 2.6-13.6 5.7-26.9 9.3-40.2zM62 161.7a172 172 0 0 1 3.2 26.8c-4.4-8-5.6-18-3.2-26.8zM18.1 132c5.3 21.8 8.5 46.6-2.4 67.2 6.8-22 3.6-44.7 2.4-67.1zM34 155.7c.4 7.5.2 15.1.2 22.5-.1 7.6-.1 15-.7 22.5-1.8-7.3-2.4-15-2.3-22.5a90 90 0 0 1 2.8-22.5Z" class="cls-1"></path>
    <path d="M28.5 149.3c3.6 17.3 1.9 36-5 52.4 1.3-9 3-20.4 3.7-29.4.5-6.1 1-16.8 1.3-23z" class="cls-1"></path>
    <path d="M25.3 157c3.6 1.7 6.8 3.9 10 6.2 2.7 1.7 5.5 5.9 2.1 8.6-1.4 1-2.9 1.1-4.4 1.2-2.7 0-5 .4-7.3 1.6 1.2-1.7 3-2.9 5-3.5 1.5-.5 4-.6 5-1.5 1.7-2-3.8-5.3-5-6.8a54.9 54.9 0 0 1-5.5-5.8Zm-1.6 23.8c4.2-1.3 9.1.4 11.7 4-4.3.1-8.4-1.3-11.7-4ZM53.5 79.3c6.3 3 7.3 12 3.7 17.4a17 17 0 0 1-7.5 6.3c-3 1.4-6.2 2-9.4 1.7 3-1 5.8-2.2 8.3-3.7 2.4-1.6 4.6-3.5 6-5.9a13 13 0 0 0-1.1-15.8zM4.2 90.9c1-8.2 6.8-15.4 14.4-18.5l7.5-3-6 5.4c-7.4 6.8-9.7 18-6.6 27.3-6-9-3.6-22.5 4.6-29.5l1.6 2.5A27.8 27.8 0 0 0 4.2 90.9zm15.2 12.4c2.2 0 4.7.3 6.8.4 2.2.2 4.6.2 6.8.6-3.6 3.6-10.5 3.1-13.6-1Z" class="cls-1"></path>
    <path d="M44.5 72c-2-2.2-4.8-3.5-7.7-3.7l.2-.5.4.2-.2.5c-4.1-1-8.3-1.9-12.5-2-7.9-.6-17.3 2.7-19.3 11.1-1.3 7-1 18 5.5 22.1 2.5 1.7 6 2.6 9 1.8l.2-.6c1.4-6.3 2.5-13 6.4-18.5 2-3.3 6.5-5.7 9.8-7.7l-2.7 5a33.8 33.8 0 0 0-4.2 19.5c.2 2.7 2.5 3.3 4.8 3.6 3.5.4 8.3-.3 10.1-3.5 1.2-2 .7-4.8.6-7.6A140 140 0 0 0 42.2 73a17 17 0 0 1 3.6 28.4c8-7.5 6.6-20.6-2.8-26l1.2-.9c1.3 5.6 2.3 11.2 2.9 16.9.2 3 .9 6.1-.7 9-3 5.4-12 6.4-17 3.6-3.2-1.9-3-5.9-3-9 .2-5.9 1.7-11.7 4.6-16.9l2 2c-3.2 2-5.4 5.5-6.9 9.3a85 85 0 0 0-2.5 9c-.4 1.5-.5 4.3-2 5.3-.9.5-1.6.6-2.2.7-3.5.5-7.2-.5-10-2.5-6-4-7.1-11.8-7-18.4C2 70.4 12.7 63.8 24.9 65.2c4.4.4 8.5 1.6 12.6 2.7l-.2.6-2-1 1.7.2c3 .4 5.8 2 7.6 4.3Zm-32.9 32.5c.8 9.8 5.8 18.1 11 26.1 4 6 7.5 12.4 13.4 16.5.9.7 5.9 3.5 6.3 1.9 0 1.3-2.5.7-3.4.6-8.9-1.9-14-10.4-18.8-17.3-5.2-8.1-10.2-18-8.5-27.8Z" class="cls-1"></path>
    <path d="M40.1 150c17.7-4 20.1-6.6 31.2-20.2a704 704 0 0 0 24-30.7l-.1.8A18.9 18.9 0 0 0 86 88.4c5.2 1.7 9.1 6.2 11 11.3l-.3.4a255.8 255.8 0 0 1-23.3 31.6c-11 13-15.7 17.1-33.4 18.4zm3.7-45.2c1.2.3 2.2 1.4 2.4 2.9l.1.8h-1.1c-6 0-10.5 4-15.7 6.4a18 18 0 0 1 6.4-6.8c2.9-1.7 6.5-2.5 9.6-1.3l-1 .9c.2-.8 0-2-.7-2.9Z" class="cls-1"></path>
    <path d="M44.1 108.1c1.8 0 2.4 2.3 2 3.8-.6 1.5-2.2 2.5-3.4 3.2-3.8 2-6.6 4.5-9.4 7.8.1-3.8 2.6-7.2 5.7-9.2 1.7-1 3.9-1.3 5.2-2.7.6-.8 1-2 0-2.9Z" class="cls-1"></path>
    <path d="M46.2 111.8c2.9-1.3 5.3 1.5 2.8 3.9l-2 2.1c-1.8 2-3.3 3.9-5.3 6-.2-3 1.1-5.9 3.1-8 .9-1 2-2 3.2-2.5 0-.6-1.2-1.1-1.8-1.5Z" class="cls-1"></path>
    <path d="M48 114.1c8.4-4.5 17.9-7.3 25-13.9 2.9-2.6 5-5.8 7.7-8.6 1.4-1.4 3-2.7 4.8-3.5-4.4 4-6.3 9.9-10.5 14.1a49.8 49.8 0 0 1-27 12z" class="cls-1"></path>
    <path d="M67.7 84.8c3.8 4.6 5 11.4 2.8 17-2-5.6-3-11.2-2.8-17zm13.7-3.6c1.9 3.5 1.7 8-.5 11.3-1.9-3.6-1.7-7.9.5-11.3Z" class="cls-1"></path>
    <path d="M70.6 89.6a14 14 0 0 1 9.5-3.9h3A39.8 39.8 0 0 1 70 98a77 77 0 0 1 9-11.8l1.1 2.3c-3.2-.1-6.3.3-9.5 1zm44.1-9c6.5 7.5 4.3 21.5-4.6 26.1-.3 0-.8 0-1-.3.7.3 1-.3 1.4-.7 5-7.3 6.4-16.5 4.2-25Z" class="cls-1"></path>
    <path d="M120.5 78.5c9.2 9.9 3.1 27.5-10.2 29.6a23.6 23.6 0 0 0 10.2-29.6zm-8 30.1c3.2 2 4.7 6 5.5 9.5.2.9.5 2 .2 3.2-.3 1.3-.9 2-1.4 2.8-1 1.5-2 3-3.5 4.3a27 27 0 0 1 1.4-5.4c.8-1.8.9-2.3.3-4.2-.6-3.1-1.3-7.2-2.5-10.2Z" class="cls-1"></path>
    <path d="M117.4 122.5c1.5-1 3.3.8 3.4 2.4.2 3-2.2 4.8-3.8 7l-2.6 2.8a11 11 0 0 1 2.5-7.4c1-1.5 2-2.1 1.6-3.7-.2-.5-.4-1-1.1-1.1Z" class="cls-1"></path>
    <path d="M120 125.3c2.2-1.7 5.2 1.5 3.3 3.5-1-.4-1.7-.5-2.3-1.1-.6-.7-.6-1.3-1-2.4Z" class="cls-1"></path>
    <path d="M117.3 138c3.9-10.7 14.3-17.1 20-26.5.8-1 1.2-2 2-3.1 1.1-1.2 2.8-1.4 4.1-1.3 4.9.3 8.8 3.2 12.3 6.2-2-1-4-2-6.1-2.7a14 14 0 0 0-7.5-1c-1 .4-1 .9-1.4 1.7a40 40 0 0 1-4.8 7.3c-5.9 6.8-13.4 12-18.6 19.4Zm-6 22.7c9.3 3.4 16.8-4.7 21.7-11.5l16.8-21.9c-1.7 4.4-4 8.4-6.5 12.3-2.4 4-5.2 7.7-8 11.4a34 34 0 0 1-10.2 9.8c-4.2 2.3-9.9 2.9-13.8-.1zm37.4-85.4c-.4-3.1-.8-6.7-2.6-9.3-1.5-2-4-4.2-4-7.2-.2-1.9 1.5-4 3.6-3.4 1.6.6 3 1.3 4.4 2.2 2.5 1.6 4 4.5 4 7.4 0 2.5.2 5.2 0 7.7-.8-2.4-1.4-5-2-7.5-.5-3.8-3.6-5.4-6.8-6.8l-.3-.1c.2 0 .2-.2.1 0-.3.7 0 1.4.4 2.3.6 1.3 1.7 2.6 2.6 4.2a15 15 0 0 1 .6 10.5Z" class="cls-1"></path>
    <path d="M157.1 78.2c0 2.6-3.6 8-6 4.2-.4-.8-.5-1.7-.5-2.2l-.3-3.9c0-.8 0-1.8.6-2.6 1.3-1.5 1.8-1.1 2.7-2.5.6-1.1 1.9-2.6 3.3-3 3-1 6.4 1.4 5.9 4.5-.8-2.2-3.1-3.4-5-2.3-1.7 1-1.6 3-3.3 4.2l-1.1.8c-.3.2-.1 2.3-.1 2.8 0 .7-.2 2.6 0 3.2v.2s-.2.1 0 0c1.5-.6 2.8-2 3.8-3.4Z" class="cls-1"></path>
    <path d="M161.2 84.5c-1 1.5-2.4 2.8-4 3.9l-.5-.3c-1.3-.5-1.9-2-2-3.2 0-2.2.6-3.8 1-5.7.2-1 .4-2 1-3 .9-1.3 2-1.7 2.8-2.1 1.8-.8 4-1.6 6-.9 1 .4 1.8 1.1 2 2-.6-.6-1.5-.8-2.3-.8-1.7 0-3 1-4.4 2-.8.5-1.4 1-1.6 1.3-.5 1.1-.8 3.4-1.3 4.8-.3 1.4-1 2.8-.3 4h-1l4.6-2Z" class="cls-1"></path>
    <path d="M174.3 83.2c-.4-2.2-1.4-4.4-3.2-5.5-.5-.2-.6-.1-1 .1a47 47 0 0 0-5.7 6.7c-1 1.3-1.7 2.4-1.6 3.2.2.7.5 1.2 1.3.6 2.2-2 3.8-4.6 6.7-6.3-1.3 2-2.6 3.9-3.6 6-.4.7-.8 1.4-1.6 2.1-2 2.1-5.2.7-5.6-2-.3-2.2.9-3.8 2-5.3 1.4-2 3-3.8 4.8-5.4 1-.8 2.3-2 3.9-2 3.2.5 4.3 5.1 3.6 7.8Zm-24.7 8.4c-3-.7-5.6-2.8-7.8-4.8-2-1.6-3.4-4.5-6-3.5l.3-.2-.2.1.4-2c2 2.6 1 6 3 8.2 1.4 1.2 3.2 2.1 4.4 3.7 3.3 4.1 3.2 11-.8 14.5 2.4-4 1.8-9.5-1.2-12.8-1.7-1.9-4.7-2.5-5.8-5.1-1.2-2.3-.8-5-2-6.9l-.7-1.2 1.4-1c3-1 5.8.7 7.3 3.1 2.2 3 4.5 6 7.7 7.9zm15.6 8.4a29.8 29.8 0 0 1-8.4 14l.3-1v.8a28 28 0 0 1-3.2 5c0-2 .4-3.8.9-5.8v.7l-.3-.7c3.4-4.3 6.3-9.4 10.7-13Zm-31-58.8c-8.2-5.3-4.9-16 .3-22.3a12 12 0 0 1 5.5-3.7c2.2-.7 4.2-.8 6-1a19 19 0 0 0 9.9-5.5 15.6 15.6 0 0 1-9.3 7.7c-3.9 1-7.3 1.2-9.8 4.5-4.6 5.7-8.3 13.7-2.6 20.3Z" class="cls-1"></path>
    <path d="M139.5 36.8c-2.3-3.6-1.3-8.6 1.6-11.6 2.8-3.1 7-3.3 10.3-5.5-.3 1-1 1.8-1.6 2.5-2 2-4.9 3.2-6.5 5a14.9 14.9 0 0 0-3.8 9.6Zm7.6.3c-1.9-1.3-1.4-4.2.4-5.3.5-.4 1.3-.6 2-.4 0 .8 0 1.4-.2 1.8-.3 1.7-1 2.5-2.2 3.9Zm19.7-4.8c-2.1 1.2-5.4 0-6.1-2.5-.9-2.6 1-5.5 3.8-5.9 1.8-.2 3.5.6 4.9 1.8a8.7 8.7 0 0 1-6.3 15.2c-8 0-11.2-10-9-16.4a8 8 0 0 1 3.7-4.4c1.7-.9 3.3-1.2 4.6-1.8 2.6-1.2 4.5-3.5 5.6-6.2 1.3-3.3 1.5-7.3.4-10.7-.4-1-.8-2.8-1.8-2.2-1.3 1.1-1.5 3-2 4.5l-.7 4.7c-1.4 12.7 1.3 25.6-.5 38.4-.5 3.3-.8 7-3.3 9.5a7.9 7.9 0 0 1-4.7-9.1 7.6 7.6 0 0 0 4.8 8.3h-.5c1.9-2.4 2-5.8 2.3-8.9.3-3.1.2-6.3.1-9.5-.4-9.6-2-19.3-1-29 .5-3.4.6-7 2.6-10 2.9-3.8 6.5-1.6 7.5 2.3a19 19 0 0 1-.4 12.9 14.3 14.3 0 0 1-7.2 7.6c-1.7.8-3.2 1.1-4.4 1.7-4.7 2.6-3.6 11.6.2 14.7 3.2 2.6 9 1.4 10.5-2.5 1.1-2.6.5-6-1.5-8.1-2.1-2.4-5.7-2.4-7 .8-1.4 3 2.5 6.2 5.4 4.8Zm12.4 19.6c-5.5 7.7-5.8 16.9-6.7 26-3.5-8.7-2.2-21.2 6.7-26z" class="cls-1"></path>
    <path d="M180 62.3c-4.8-11.9 7.1-25.4 19.6-22a26 26 0 0 0-7.9 2.4 21.7 21.7 0 0 0-11.6 19.6zm14.4-9.7c-4.4 3.9-1.3 12.8 2.1 16.3 1.5 1.5 3.4 2.6 5.2 4-4.8-.3-9.5-3.1-11-7.9-1.7-4-1.7-11 3.7-12.4z" class="cls-1"></path>
    <path d="M201.8 73c-3.7-2.7-3.5-8.6 0-11.7 2.8-2.9 7.2-4.5 9.8-7.3 1.7-1.8 3-4.2 4.2-6.6 1.2-2.2 1-4-.7-6-.7-1-1.7-1.8-2.8-2.6-2-1.8-3.8-2.8-6.5-1.8-3.6 1.4-7.3 3.8-8.5 7.8.2-4.4 4-7.7 7.8-9.6 1.4-.7 3-1 4.7-.7 1.7.4 3 1.4 4.1 2.2a22 22 0 0 1 3.4 2.8c1.6 1.6 2.8 4.6 2 7a25.3 25.3 0 0 1-5.7 9.5c-4 4-10.3 4.6-12.9 9.7-1 2.2-.7 5.2 1 7.4Z" class="cls-1"></path>
    <path d="M205.3 42.3c6.8-.9 11 9 5.6 13.3a14 14 0 0 0-5.6-13.3Zm-9 27.3c3.4 2.6 1.6 9-2.7 9.4l2.7-9.4zm19-18.9c4.6.6 8.6 4 10.3 8.3.8 1.9 1 3.9 2.7 5a5 5 0 0 0 4.7.7l1.7-.8c.5 2.8 1.3 5.5.6 8.6-.9 3.7-4.5 5.5-7.7 6.7-2.4 1-5.5-1-5.2-3.7 0-1.2.7-2.3 1.7-2.7-2.3 2.2-.1 6 2.8 4.6 5.4-2.8 6.7-5 5.2-11l2 1a7.6 7.6 0 0 1-7.6-1.1c-2-1.6-2.6-4.4-3.1-6.5-1.2-4-4.2-7.4-8-9Zm6.9 35.6c3.7-.5 6.3-1.6 9.3-3.8 1.1 4.8-6.7 8-9.3 3.8z" class="cls-1"></path>
    <path d="M230.8 79a64 64 0 0 1 3.2 6c2.5 4.8-1.4 8.2-5.6 10-5.2 2.4-12.6 4.5-17.8.7 6 1.4 11.3-1 16.6-3.5 2.6-1.2 5.2-2.5 5.2-4.7-.2-2.6-1.4-5.8-1.6-8.6Zm-11.2-11.3a18.2 18.2 0 0 1-6.6 7.7c-.2-1-.1-2 .2-2.9.9-2.7 3.4-5 6.4-4.8Zm3.8-5.1c-.5-2 .3-2.3 1.6-.7.5 2-.3 2.3-1.6.7Zm-9.3-1.1A34 34 0 0 1 209 70c-2-3.6 1.2-8.6 5.2-8.5zm5.5-4.2c-.4-1.3.8-2.2 2-2.2 1 0 2.1 1.2 1.6 2.4-1 .1-1.2.5-1.8.6-.7-.2-.8-.6-1.8-.8Z" class="cls-1"></path>
    <path d="M219 112.4a1 1 0 0 1-1-1.1c.9-7 4.3-13.7 9.6-18.7a1 1 0 1 1 1.3 1.5c-5 4.7-8.1 10.9-8.9 17.4 0 .5-.5 1-1 1Z" class="cls-1"></path>
    <path d="M200.6 109.8c6 3.6 13.1 1.5 19.5.1 6.4-2.2 7.1-10.2 8-16.3a24 24 0 0 1 .2 10.7c-1.7 6.6-6.2 9-12.6 9.5-5.2.7-11.6.4-15.1-4ZM229.2 95c4.4-4.6 11.7-6.8 17.2-2.3 4.8 3.9 9.4 8.2 11.1 14.5 1 4 .4 8.8-2.6 11.7 1.9-3.6 1.6-7.6.4-11a37 37 0 0 0-10.7-13c-4.4-4.2-10.7-2.4-15.5.2Z" class="cls-1"></path>
    <path d="M239.2 101.6c2-.6 3.5 1.8 4.7 3a18.7 18.7 0 0 1 3.2 16c-1.3-3.4-2.2-6.6-3.4-10l-1.9-4.8-1-2.4c-.3-.7-.7-1.5-1.6-1.8Z" class="cls-1"></path>
    <path d="M255 118.7a49.3 49.3 0 0 0-15-17c8.3.5 15.5 8.7 15 17zm-14.8 4.3c-3.4-4-7.1-8.9-10.4-12.8-1.2-1.4-2.4-2.8-3.5-4.5a22.1 22.1 0 0 1 13.8 17.2zM224 111c3.6 5.5 5 13.3 1.2 19l-.8-9.4c-.3-3.2-.7-6.3-.3-9.5Zm-.3 19.8c-1-1-2-2.7-2.8-4-1.4-2.2-3.4-5.3-4.6-7.7-.8-1.3-1.5-2.6-2.2-4.2a14 14 0 0 1 5.6 4.6 18 18 0 0 1 4 11.3Z" class="cls-1"></path>
    <path d="M216.3 121c2.1-4 5.9-7 9.9-9l.1 2.1c.5 4.2-4.5 6.8-5.4 10.1l-1.3-1.5c1.3 0 2.7-1.3 4.1-1.9 1.8-.7 3.8-.8 5.5-.3a11 11 0 0 0-4.6 1.9c-1.6 1.1-2.7 2.8-5 3H218l.2-1.6c.2-2.3 1.7-4 3-5.6 1-1.3 2.2-2.5 2.3-4l2 1.2a48.3 48.3 0 0 0-9.3 5.5zm-24-10.1a26.3 26.3 0 0 1 12.5 25.6c-.7 5-2.5 10.4-7 13.4a19.5 19.5 0 0 1-14.6 2c4.6-.1 9.5-1.2 13.2-4 3.4-2.7 4.9-7.5 5.4-11.8 1-9.3-2.6-18.7-9.5-25.2zm-33.9 40.7c-2.2-4.2-3.4-9-3.7-13.7a19 19 0 0 1 .7-7.4 15 15 0 0 1 4.2-6.4l5.6-5.2-3.3 7c-2.7 6.1 1.2 21 4.5 26.9.3.5.7 1 1.2 1.4-6.3-3.6-12-23-8.3-29.6l2.3 1.7a13.4 13.4 0 0 0-3.5 5.2c-2 6.3-1 13.6.3 20.1zm12.1 2.8c-3-4.6-2.3-10.7-1.6-15.8.8-5.4 2.2-11 6-15.4l3.6-4.1c-2 9-2.9 18.4-2.6 27.7l.3 7.6a68.1 68.1 0 0 1-1.7-30.5l2.6 1.3a31 31 0 0 0-5.8 13.8c-1.1 5-2.6 10.3-.8 15.4z" class="cls-1"></path>
    <path d="M174.3 110.7c.3 2.9-6.7 4.6-9 5.2-3.5 1-7.4.5-9.9 2.7-1.2 1-2.2 2.5-2.9 4a22.8 22.8 0 0 0 2.9 24c2 2.6 4.6 5 7.9 5.6 3.2.6 7.1.9 10.4 1.1 2.8 0 6.9-.6 8.5-2.9a27 27 0 0 0 4.2-11c1.2-5.7 1.4-12.1 1.8-18 3 9.8 6 21.4.2 30.8 3.6-8 2.2-16.9-.5-24.8l1.9-.2a89 89 0 0 1-.9 12.6c-.6 3.7-1.5 7.5-3.4 10.8a9 9 0 0 1-3.3 3.6c-4.2 2.5-9.5 2.2-14 1.6-1.8-.2-3.7-.3-5.6-.7-3.9-.8-7.1-3.6-9.5-6.6-6-7.5-7-18.4-2.4-26.8 1.7-3.5 5.1-6.3 9.1-6.3 3.6-.2 7.1-.5 10.5-1.7 1.5-.6 3.9-1 4-3Z" class="cls-1"></path>
    <path d="M156.3 150.5a19 19 0 0 1 1.4 14.7c0 .7-.2 1 .1 1.6 1 1.3 3.1 1 4.8 1-2.3 2-6.5 2.4-7.6-1.1-.4-1.8.3-3.2.4-4.9.6-3.8.7-7.4 1-11.3Z" class="cls-1"></path>
    <path d="M157 168.2c1.2.3 2 1.6 2.2 3 .1 1-.6 2.3-.6 3 .6 1 2 .6 3.5.6-.2.6-.6 1-1 1.4-1.9 1.8-5.6.7-5.5-2.2 0-1.5.8-2 1.2-3 .3-.7.5-1.6.2-2.8Z" class="cls-1"></path>
    <path d="M158.7 176.9a4 4 0 0 1 2 2.8c.3 1.9-.4 3.1-.6 4.6 0 .7.5 1.9 1.5 1.6 0 .3-.2.6-.5.8-1.8.9-3.8-.9-3.8-2.7 0-2.8 1.6-4.3 1.4-7.1Z" class="cls-1"></path>
    <path d="M159.6 186.5c2.5.3 3.4 3.5 1.4 5-2-1-2.6-3-1.4-5zm27.2-34.1c1.5 5.1 1 10.5-.2 15.6-3-.5-6.3-1.3-8.8.7.8-3.2 5-4 7.9-3.7l-1.7 1a68 68 0 0 1 2.7-13.7z" class="cls-1"></path>
    <path d="M184.2 167.3c3.8 1.8 4 7.4-.8 8-1.3.2-3.2-.2-3.6 1.5-.6-.5-.6-1.4-.3-2 .6-1.3 2.2-2 3.3-2.3 2.6-.6 1.5-3 1.4-5.2Z" class="cls-1"></path>
    <path d="M184.3 174.6c2.7-.8 5.1 2.8 3.9 5.3-.6 1.4-2.1 2.3-3.2 3a37.7 37.7 0 0 1-9.3 4.3c2.5-3.4 6.1-5.8 9.6-8 1.7-1.2.8-3.8-1-4.6Z" class="cls-1"></path>
    <path d="M185.9 181.1c1.7-1.8 4 .9 2 2.3-2.3-.4-2 0-2-2.3Zm-24.1 10.3c3 3.7 6 8.3 8.8 12.2 1 1.3 2 2.7 2.9 4.3a19.4 19.4 0 0 1-11.7-16.4Zm19-2.2a583 583 0 0 1 34.2-19.6l1.2-.6 7.7 12.8.9 1.4c.3.6.7 1.4.6 2.5-.2 1.7-1 2.4-1.7 3.7a47 47 0 0 1-16.1 13c-4 2.2-7.9 4.5-11.9 6.6 3.6-2.8 7.3-5.4 11-8 5.4-3.9 11-7.6 14.6-13.2.4-.6 1.2-1.8 1.2-2.3 0-.1 0-.4-.3-.8l-7.8-13 2 .5c-11.8 6-23.5 11.8-35.6 17zM309.6 71.7a8.2 8.2 0 0 0 6.8 1.7c1.2-.1 2.5-.3 3-1.5.2-.1.2-.3.2-.4 0 .2.1.3 0 .2-.7-.4-1.4-.6-2.2-1.3-1.3-1.3-1.2-3-2.1-4.2-1.2-1.6-3.7-3-5.4-3.7-.7.9-1.7 3.6-2.4 4.9l-2.7 5.4c-.9 1.7-1.8 3.6-1 5.5-.7-.7-1-1.9-1-3 .3-3 1.6-5.9 2.5-8.8.5-1.4 1-3 1.6-4.3.9-2.7 3.2-3.2 5.5-1.8 2 1 4 2.2 5.3 4.1.6.9 1 2.2 1.3 3.2.3.8.3.9 1.2 1.4.7.4 1.5.7 1.8 1.6.6 2.3-1.8 4.3-3.9 4.4L315 75c-2-.4-4.2-1.4-5.3-3.3Zm21 15.3c5-3.8 3.9-8.2-2.7-7.4-1.7 0-3.4.2-5.2.4h.2c-1.2.2-2.3.4-3 1.3-1.7 2.7 2.5 2.6 4.4 2.9l4.6.7c-3.2.4-6.4 1.4-9.7.6-2.4-.8-3-3.7-1.7-5.7 1-1.7 3.2-2.5 5-2.8 2.8-.2 7.9-1 11 1 4.2 3 1.2 8.2-2.9 9Zm1.2 1.3c1 .2 1.8 1.2 2.2 2.2 1.2 3.9-3.4 6.7-6.8 5.8-1.1-.2-2-.6-2.9-.7-1.1-.3-2.3.3-3.6.5-2.5.4-5-.2-6.4-.7-2.6-.9-4.5-4-2.4-6.4 1.7-2 4.6-1.6 6.9-1.5 4 .2 8.2.6 12.2 1.2-5 .8-10.2 1-15.2 1.3-.8.1-1.8.5-1.9 1.4.1.7 1.1 1 1.8 1.3h.3-.4c1.6.3 3 .8 4.6.5 1.5-.3 3.2-.7 4.7-.2 2.6.9 5.3 2.3 7.5 0 1-1 1.1-3.6-.6-4.7Z" class="cls-1"></path>
    <path d="M327.4 95.6c.8 2.2-1 4.4-3 5.2-2 .9-4.2.8-6 1-3 .6-6.6 1.5-8.7-1.3-1.3-1.6-.8-4.4 1.2-5.3 1.7-.7 3.2-.4 4.5-.2 1.2.2 2.4.5 3.6-.2-1 1.8-3.7 1.5-5.5 2-.8.1-1.8.5-1.9 1.2 0 .6.8 1.2 1.3 1.3 1.6.5 3.5-.3 5.2-.3 3.4 0 8.4 1 9.3-3.4Z" class="cls-1"></path>
    <path d="M318 102c4.3.3 6.4 7.3 10.4 6.7v.2-.4a20.6 20.6 0 0 1-2.9-7.4c1.5 1.6 2.7 3.2 4 4.8 1 1 2.2 2.3 1.6 3.9-1.4 3.2-6 2-7.7 0-2.4-2.4-3-5.7-5.5-7.8Zm-102.4 69c1.1-2.4 2.4-4.6 2.7-7 .3-2.6-.8-5.1.3-7.9 1.2-2.8 3.6-3.8 5.2-6a18 18 0 0 0 3.3-6.1l.5-1.9 1.6 1a8.6 8.6 0 0 1 4.3 7.9c-.1 1-.8 2-1.5 2.8-2.2 2.3-4 5.9-1.7 8.8-3.4-2.2-2-7.4 0-10 .6-.8.9-1.4.9-2 0-2-1.7-4-3.5-5l2.2-.9c-1 4-3.5 7.7-6.8 10.1-3.8 2.4-2.2 5.8-3.2 9.6-.8 2.7-2.6 4.7-4.3 6.5Zm14.8-8c4.4 1 9.6-.3 12-4.3 2-3 1-6.8 2.5-10.2.7-1.5 2-3.4 4-3.7a2 2 0 0 1 1.5.5c.7.8.7 1.3.8 1.8v1c0 4 0 7.9-.5 11.9a9.3 9.3 0 0 1-1.2 3.8 9 9 0 0 1-3 2.6c-2.2 1.1-4.6 1.7-6 3.9.2-.6.5-1.2.9-1.7 1.7-2.3 5-3.3 6.4-5.8 1-3.1.5-6.8.6-10.2l-.1-4.9v-.3c0-.1-.2-.2 0 .1l.8.3c.2 0 .2-.1.2 0-2.8 1.7-2.4 5.7-3.3 8.6-1.5 6.8-9.8 9.7-15.6 6.6Z" class="cls-1"></path>
    <path d="M251.6 155.5c-.3-.6.6-1.2 1.2-1.1 1.5.2 1.6 2.2 1.6 3.3 0 1.6 0 3.2-.2 4.8a10 10 0 0 1-.7 3.6c-1.1 2.3-3 3.4-5 4.8a36.7 36.7 0 0 1-5.5 3.4 45 45 0 0 1 6.2-7.4c2.4-2 2-5 2.9-7.9.2-.9.6-2 .7-2.9 0-.4 0-.7-.2-.9-.3-.2-1-.2-1 .3Z" class="cls-1"></path>
    <path d="M251.8 168c.1 3-.6 6.6-3.3 8.5a41.5 41.5 0 0 1-9.8 5.7c-2.3.8-4.7 0-7-.1-2.7 0-5.4.5-8.1 1.8 1.9-2.3 4.9-3.8 8-4.2 1.4-.2 3.2 0 4.5 0 1.1 0 2.2-.5 3.5-1.2l7.6-4c2.6-1.3 3.5-4 4.6-6.6ZM221.6 5.7c1 7.4 1.1 14.9.9 22.3 0 2.6-1.7 3.3-4.1 3.3-2.1.1-4.7-.5-5.8-2.6-1.3-2.2.5-4.9 2.7-5.5 2-.5 3.7 0 5.4.3-1.7.3-3.6.3-4.9 1-1.9 1.2-2 3.3.3 3.9.9.2 2.3 0 3.3-.1.4 0 .3-.2.1 0 .2-7.1.7-15.2 2.1-22.6Zm-.2-1.6c.2.4.4.3.7.3.3 0 .4-.2.7-.3l1.6-.8 3.2-1.5c2-1 4.5-2.2 6.7-3-1.5 4.6-6.7 7.3-11.3 6.7-.7 0-2-.5-1.6-1.4Z" class="cls-1"></path>
    <path d="M222.4 9.3c2.6 1.6 4.7-1 6.4-2.9a32 32 0 0 0 4.7-7.2 10.5 10.5 0 0 1-6.6 12.1c-1.6.6-4.2-.1-4.5-2Zm-45.6-1.8c2.5.5 4.6-.3 6.7-1.2 4.2-2 8.3-4.2 12.3-6.6l6.2-3.8a28.3 28.3 0 0 1-11 9.9c-4.1 2-10 5-14.3 1.7Zm1.8 7.3c6.2.6 10-4 15-6.8 2.6-1.5 5.2-2.8 8.1-3.6 2.9-.9 6.4-1.1 8.9.8-3-.7-5.6.2-8 1.4-2.5 1.2-5 2.6-7.5 4-4.6 2.7-10.9 7.4-16.5 4.2Zm1.8 7.2a27 27 0 0 0 15.2-3.1c2.4-1.3 4.3-3.1 6.7-4.5 2.6-1.4 5.6-2 8.4-1.4a18 18 0 0 0-7.1 3.4c-2 1.7-4 3.8-6.6 5.1-5 2.8-11.5 3.2-16.6.4Zm1.2 9.7c6.2-.6 12.5-1.2 17.5-5 1.8-1.5 4.2-3.6 6.4-4.5 1.3-.5 2.7-.9 4-.7-3.8 1.4-5.7 4.8-8.6 7.4a19 19 0 0 1-19.3 2.8Zm48.4-5.3c3.8-2 9.1 1.3 9 5.6-3.4-1.7-6-3.3-9-5.6zm2.4-8.4a12 12 0 0 1 12 7.3 33 33 0 0 1-12-7.3zm3-7.4c2.9-1.1 6.1.1 8 2.4a5 5 0 0 1 1.4 2.7l-2.7-.8a19.7 19.7 0 0 1-6.7-4.3Zm3.1-5.3a4 4 0 0 1 6.2 2.7c-2.6.7-4.9-.3-6.2-2.7Zm15.8-2.6A74.9 74.9 0 0 1 256 34a67 67 0 0 1-2 7.7c-.5 1.5-1.1 3.4-2.8 4-3.6 1.4-6.1-2.1-7-4.9-.7-1.3-1-3.5.4-4.6a7 7 0 0 1 7.9.1c-2.3-.8-5.2-.6-7 1-.6.8 0 1.8.4 2.7a8.8 8.8 0 0 0 2 2.8c1 .8 2.4 1 2.8-.2 1-3 1.8-6.1 2.3-9.1 2-10.2 1.5-20.5 1.3-30.8Z" class="cls-1"></path>
    <path d="M255.6 13.9a20.7 20.7 0 0 1 22-6 181 181 0 0 0-22 6zm-2.4-10.1a32 32 0 0 1 12.4-5.4c4.5-.9 9.1-1.1 13.6 0L272.7 0c-6.1 1.3-13.3 3-19.5 3.8Z" class="cls-1"></path>
    <path d="M278.7-.8a86 86 0 0 1-.1 27.2c-.6 3-.7 6.3-3 8.6-1.7 1.6-4.4 2.3-6.3.8-2.4-2-2-5.5 0-7.5 1.8-1.7 4.6-2.3 6.7-1.2-2.2-.5-4.4.6-5.6 2.2-1 1.3-1.1 3.7.3 4.6 1.3.7 3-.5 3.6-1.9.8-1.8 1-4.1 1.3-6.1 1.5-8.9 2.2-17.7 3-26.7Zm-29.2 87.4c-1.2-3.6 1.7-7 4.9-8.5 3.3-1.4 7-1.3 10.2-1.7 3.2-.4 5.5-1.4 6.5-4.7 2-6.5 3.2-13.5 7.2-19.3 3-4.4 8-8 13.7-7.8 5.2.3 10.8 4.8 10 10.4-.2-5-5.3-8.6-10-8.5-4.8.3-8.8 3.6-11.3 7.5a34 34 0 0 0-4 8.9c-1.4 4-2 8.5-4.3 12.3-4 5.7-12.1 2.3-17.5 4.3-3 1-6 3.7-5.4 7.1ZM295.7 9C309.3 13.3 330 .3 341-7.6 332.7 3.7 309 17.6 295.7 9z" class="cls-1"></path>
    <path d="M300.4 16.6c13.4 2.3 24-7.4 35.8-11.9a35.6 35.6 0 0 1 26.2-1.4c8.4 3.5 13.1 11.5 18.6 18.2 2.6 3.3 5.7 6.3 9.4 8.4-4-1.5-7.5-4.4-10.5-7.5-4.5-4.6-8.2-9.8-13.3-13.6-8.5-6.5-20-5-29.4-1.4-11.7 4-23.8 13.5-36.8 9.2z" class="cls-1"></path>
    <path d="M300.8 25c7.2-.7 14.5-1.5 21-4.2s12.8-6.5 20-8.6a25 25 0 0 1 29.4 11.4c2 3 4 6.2 7.7 6.9-3.9 0-6.6-3.3-8.9-6a24.2 24.2 0 0 0-27.4-9.4c-6.7 1.9-13 5.5-20 7.8-7 2.4-14.5 2.6-21.8 2.2Z" class="cls-1"></path>
    <path d="M302 32.9c9.5-1.6 18.8-3.6 27.8-6.6 7.6-2.5 16.1-6 24.1-2.7 8.2 3 10 13 17.4 16.6a12 12 0 0 1-4.3-2c-6.2-5-9.4-12.8-18.3-13-6.2-.4-12 2-18 3.8a93 93 0 0 1-28.7 3.9zm70.8-34C383.1.2 386.1 12 392 18.9c2 2.2 4.3 4.2 7.4 5.1-3.3.3-6.6-1.3-9-3.4-7.4-6.3-8.7-17.1-17.6-21.7zm15.5-2.5c5 1.5 8.8 6 10.8 10.6 2.2 4.5 4.4 8.3 8.6 11.2C399 17 397.1 8.2 393 2a35 35 0 0 0-4.7-5.6zm27.9 17.8c2.5 7.8 4 15.8 4.9 23.9.2 4.2 2 9.5-1.7 12.8-4 3.5-10.6.6-11.8-4.2-1.9-6.8 6-12.1 11.2-7.4l-.2.2-.5-.9.7.7-.2.2c-4.7-3-10.5 1.4-8.7 6.5.7 2 2.8 3.6 4.9 3.6 4.2 0 4-4 3.8-7.3l-.3-4c-.3-5.4-1.6-18.5-2.1-24Zm.8 0c5-2.4 11.2-4.5 14.1-9.4l2-3.3.7 3.8a14.6 14.6 0 0 1-8.4 16.2c-2 .8-4 1.2-6.1 1 7.5-1.7 13-9.1 11.6-16.7l2.7.5a13 13 0 0 1-3.4 3.6 26.1 26.1 0 0 1-13.3 4.2zm-51.5 44.6c7.1-2.1 15.8-4.7 18.1-12.5l1.4-5.1 1 5.2a145 145 0 0 1 2.7 35.5c-.1 2.2-.5 4.7-2.3 6.3-2 1.9-5.2 1-6.7-1a6.9 6.9 0 0 1-.6-8.2c1.7-2.4 5.2-3 7.4-1.5a5.1 5.1 0 0 0-6.4 2.1c-1.7 2.8.3 7.6 3.6 7.5 3.2-.9 2.2-6.5 2.3-9.1 0-10.5-.9-20.9-2.4-31.2l2.4.2c-3 8.4-12.5 11-20.5 11.8z" class="cls-1"></path>
    <path d="M364.5 58.8c.7 3 1 6.2 1.3 9.4l-1.3-1.3c7.8-.9 15.3-3 20.7-9a16 16 0 0 1-8.3 9c-4.4 2.1-9 2.6-13.6 2.6.2-3.6.5-7.2 1.2-10.7z" class="cls-1"></path>
    <path d="M364.9 68.2a74 74 0 0 1 1.6 20.6c-.1 3.7-1 8.8-5.4 9.8-2.9.7-6-.6-7.4-3.2-1.3-2.4-1-5.6.6-7.7 1.9-2.4 5.5-4 8.3-2.5.6.3 1 .8 1.1 1.4-.6-1-1.8-1.2-2.8-1-3 .3-5.8 3-5.7 5.9 0 2.9 2.5 5 5.2 4.2 2.9-.8 3-4.5 3.3-7.1.7-6.8 1-13.5 1.2-20.4Zm-51.1 87.4a121 121 0 0 1 2.3 21.7c-.2 5.5 2.1 17-6.5 16.7-7-.9-6.3-11.5.3-11.9a4 4 0 0 1 3.4 1.7c-4.3-3.3-8.8 3-5.8 6.5 1.1 1.2 3.4 1.6 4.5.2 1.2-1.5 1.1-3.9 1.2-6l.1-7.1c.1-7.1.1-14.8.5-21.8Z" class="cls-1"></path>
    <path d="M313.6 155c5 0 9.4-2 13-5.3l.5 2.2c2 7-3.2 14.7-10.5 15-.7 0-2.2 0-2-1 .1-.2.5-.5.7-.2-.2-.1-.4.2-.4.3 0 .2.2.2.3.2a11 11 0 0 0 3.5-1.4 12 12 0 0 0 5.7-12.3l2.2.8a13.7 13.7 0 0 1-13 1.7Zm29.2-14.5c.6 9.6.1 19.3-.8 28.9-.3 2-.1 4-1.2 5.9-2.8 4.2-10 1.8-11-2.6-1.4-5.4 5.8-9.1 9.6-5.6h-.3c.4-.3.4-1 0-1.4.5.3.8 1.1.4 1.8l-.1.1c-2.8-1.9-7.2-.1-7.6 3.1-.6 3.4 6.6 6 6.9 1.9 1.1-10.8 2.2-21.5 4.1-32.1Z" class="cls-1"></path>
    <path d="M342.6 140.5c4.3.3 8.6-.3 12.5-2l2.8-1.1-.8 3c-1.4 6.1-7.8 12.8-14.5 10 6.3-.3 10-5.4 11.7-10.9l2 1.8a16.5 16.5 0 0 1-13.7-.8zM466.2 21.6a13 13 0 0 1-.8-13c3-6.3 10.5-9.8 17.4-9 7 .4 13 7.5 12 14.2-1-6.2-6-11.1-12.2-11.4-10.5-.7-20 8.4-16.4 19.2Z" class="cls-1"></path>
    <path d="M491.4 15c-4.7-1.3-12.4 1.3-10.7 7.1a4 4 0 0 0 1.4 2c-1 0-2-.4-2.7-1.2-2.3-2.4-1.5-6.7 1.2-8.6 3-2.4 8.2-2.5 10.8.6Z" class="cls-1"></path>
    <path d="M486.6 52.6a29.7 29.7 0 0 1-6.7-14.2c-.5-6.8 1-13.9 5-19.4 6.4-8.3 19.5-8.5 27-1.6 8.8 7.5 10 20.8 5 30.8-3.8 8.4-14 10-21.5 5.6a26.6 26.6 0 0 1-6.3-4.7c7.7 5.9 20.4 8.5 25-2.3 1.8-4.4 2.6-9.5 1.8-14.2-1.2-9.3-9.8-17.6-19.4-16.2-10.4 1-14.6 12.7-14.6 21.8 0 5.2 2.4 9.9 4.7 14.4Z" class="cls-1"></path>
    <path d="M488.8 70.8c-7 5.6-16.6 1.6-24-.5-2.8-.7-5.4-1.2-8-1l-1-.4-1-.4v-1.2c-.3-9.1 5.8-17.3 13.6-21.5 9-5.4 18.6 1.3 21.5 10.2a19 19 0 0 1 .2 15c0 .3-.4.7-.8.7-.2 0-.4 0-.3-.3 0 .3.2.3.3.2.5-.2.5-.7.7-1.2 1.8-8.3-4.1-21.4-13.1-22.8-4.8-.7-9.3 3-12.6 6.3a20.4 20.4 0 0 0-6 13.4l-1-1.7.5.3-.7-.2c11-.2 20.8 10.5 31.7 5Z" class="cls-1"></path>
    <path d="M482.8 59.4a1 1 0 0 1-1-.7 11 11 0 0 0-4.6-5.6 1 1 0 0 1-.3-1.4 1 1 0 0 1 1.4-.3c2.4 1.6 4.4 4 5.4 6.6a1 1 0 0 1-.9 1.4Zm2.1 8.1a1 1 0 0 1-1-1c0-1-.2-2.1-.5-3.2a1 1 0 0 1 1.9-.6c.4 1.3.6 2.5.6 3.8 0 .6-.5 1-1 1ZM512.2 52c3 5.3-1 12-6.3 13.8a14 14 0 0 1-8.4.3c-2.7-.7-5.1-2-7-4 2.5.8 5 1.5 7.4 1.7 7.2 1 14.7-3.9 14.3-11.7Zm4.7-3.4c15.2 12.9 15 36 9.1 53.5-1.9 6-4.3 12-7 17.6 1.5-6.1 3.3-12.1 4.8-18.2 4.5-17.6 5.3-38-7-53z" class="cls-1"></path>
    <path d="M517.5 44c2.3-3.1 7-3.4 10.4-1.7 5.7 3 9.4 10.4 9 16.7 0 3.2-3.1 5-5.2 6.8a74 74 0 0 1-4.7 3.6l.1-.6c.2-1.3.2-1.2.5 0l-.4-.2 2.9-4.3c.8-1.3 2.1-2.8 3-4 .2-.5.3-.9.3-1.5-.6-7.4-7.1-18.8-16-14.8Z" class="cls-1"></path>
    <path d="M528.6 54a1 1 0 0 1-1-.9 5.4 5.4 0 0 0-4.3-4.4 1 1 0 1 1 .3-2c3.1.5 5.6 3 6 6.2.1.5-.3 1-.8 1h-.2ZM518 34.4c-1.6-1-3.6-1.2-5.3-1.6-6-.8-12.1 1-16.9 4.6-1-2.4-2-4.8-2.7-7.3l-.2-.7c4.2-5.6 13.1-6.5 19.2-3.9 2 .9 3.8 2.3 5 4-5.7-4.8-16.4-4.1-21.4 1.1l.2-1.3c.6 1.8 1.2 3.6 2 5.3l-2.3-.6c5-3.3 11.6-4.2 17.3-2.4 1.8.7 3.8 1.4 5 2.8zm-48.4-7c2.2-.2 3.4 1.6 2.3 3.5-2.2.3-3.4-1.5-2.3-3.5Zm-4.2-15.9c-8.9 4.8-15.1 14.9-9 24.2.8 1.2 2.2 2.4 3.4 3.9 1 1.4 1.8 3.5 1 5.2.1-1.8-1-3.2-2.1-4.2-13.6-8.4-7.9-26.4 6.7-29.1Z" class="cls-1"></path>
    <path d="M454.9 37c-3.1 5-.2 10.7-2.4 16-2.9 5.3-11 6.2-16.1 3.9l1.8-2c2.5 4.8 8 7.8 13.5 7.6 1.3-.1 2.9-.1 4-1 .3-.3.5-.8.5-1.3.2.5 0 1-.3 1.5-3.8 4-12 2.5-16-.7a14.6 14.6 0 0 1-4.3-4.8l-1.8-3.5 3.7 1.5c3.3 1.4 7.2 1.2 10.4-.4 2.3-.9 3-3 3.4-5.4.6-3.8.4-8.6 3.6-11.3Zm25.6-6.5a8 8 0 0 1-5.1 5.4c-1-3 2-6.2 5-5.4z" class="cls-1"></path>
    <path d="M476.5 34.5c4.7 2 3.7 10.2-1.3 11.2 1.3-3.9 1.8-7.2 1.3-11.2zm-57 50.2c.5-4 3.3-7.3 6.4-9.6 3.1-2.2 6.6-3.8 10.5-4.4a36.7 36.7 0 0 1-4.4 3.6c-4.3 3.2-8.9 6.4-12.5 10.4zm-6.8 17.6c-5.5-6.3-8.4-15-7.7-23.4 3.4 7.6 6 15.3 7.7 23.4z" class="cls-1"></path>
    <path d="M450.7 75.2c-10.4 2.5-14.7 13-21.2 20.4-6 7.3-15.5 11.3-24 5.4-7.7-4.7-10.1-18.2-.4-21.8-6.2 3.2-6 12-1.8 16.6 7.6 8.3 17.3 5.7 24.1-2 6.6-7.1 12.5-18 23.3-18.6z" class="cls-1"></path>
    <path d="M402.3 80.9c-5.3 6.3-10 14.4-7.8 22.7a14 14 0 0 0 6.9 9.3c3.5 1.7 9.3 2.2 11 6.6-3-3.8-7.8-2.8-12-4.5-6.8-2.7-10.2-10.7-9.2-17.7a25 25 0 0 1 11-16.4z" class="cls-1"></path>
    <path d="M403 116.6c4.7 2.8 6.5 9 9.5 13.2 1.4 2 3.4 3.8 5.6 5.1 2 1.4 4.1 1.4 6.3.3 4.9-2.6 8.9-7 14.7-7.7 6.4-1.3 10.3 4 14.2 8.2-4.2-2.7-8.3-7.5-13.8-5.9-5.4 1.3-8.7 5.5-13.8 8.1a9 9 0 0 1-7.1.5 18.2 18.2 0 0 1-8-7.4c-3-4.8-3.6-10.4-7.6-14.4Zm19.4.1c5.3-1.6 9.7-3.5 14.3-6.4-1.3 5.8-9 9.3-14.3 6.4zM458 68a49.9 49.9 0 0 1-5 6.8l.3-1.7a17 17 0 0 0 8.2 7c3.5 1.7 7.4 2.5 11.6 3.6l-.4.4c0-.3-.4-.6-.7-.5.4-.4 1.2-.3 1.4.3l.2.3-.5.2c-9 2.3-20.7-1.4-23-11.4a54 54 0 0 1 7.9-5z" class="cls-1"></path>
    <path d="M483.6 74c-3 5.5-7.5 10.1-13 13.2a25.7 25.7 0 0 1 13-13.3zm-31.6.8a17 17 0 0 0-5.4 8.8l-.4-1.6c2 1.7 3.9 3.4 6 4.8 2.9 2 6.1 3.8 9.6 4.3.4 0 .6 0 1-.2 2.6-1.8 5-4.2 7.5-6.3-1 2.5-2.5 4.9-4.2 7-2.2 3.4-5.2 3.2-8.7 2.3-5.5-1.5-10-5.4-13.5-9.7l-.7-.9c1.5-4 4.7-7.4 8.9-8.5z" class="cls-1"></path>
    <path d="M446.3 83.1c-.8 2.2-1.6 4.4-2 6.6-.1.2 0 .3 0 .2 1.5 1.6 3.3 3 5.2 4.2 2 1.3 3.5 2.7 5.8 2.3a32 32 0 0 0 7.2-2.9c-1.8 3.1-4.8 6.1-8.7 6.4-2.4.2-4.8-1.3-6.5-2.5-2-1.4-4.2-3.1-5.5-5.3a4 4 0 0 1-.6-1.6c-.1-1.2.4-2 .8-2.7 1.2-1.8 2.6-3.5 4.3-4.7Z" class="cls-1"></path>
    <path d="M444.9 93.2a34 34 0 0 0 6 15.3l-2.4-.7c3.6-1.7 6.8-4 10-6.5l4.9-3.9c1.5-1.2 2.8-3 1.5-4.8 1 .5 1.6 1.8 1.5 3a6.6 6.6 0 0 1-1.4 3.3 48.5 48.5 0 0 1-4.2 5 32 32 0 0 1-10.8 7.4l-1.6.6-.8-1.3a21.5 21.5 0 0 1-2.7-17.4zm22.1.8c6.5-.5 12.8 2.4 18.4 5.6.5.3 1.1 1.4 1 2l-.1 1.2c-.8 3.3-3.3 6.4-6.5 7.5a13.5 13.5 0 0 0 4-8.5v.2c-5.7-2.7-11-5.7-16.9-8Z" class="cls-1"></path>
    <path d="M479.9 110.3h-.2c-2 1-4.3 1.9-6.6 2.5-6.3 1.3-16.3 2.4-20-4.1 4.8 2 9.5 1 14.6 1 4 0 7.8-.3 12 .4l.2.2Zm-4.1-27.5a4 4 0 0 0 4.1 3c1.7 0 3.2-1.2 4.1-2.7 2-3.4 2-8 2.8-12a19 19 0 0 1 1.4 6.6c.4 4.8-2.7 11.1-8.4 10.5-2.5-.3-5-3-4-5.4Zm57.5-19.4c1.5 2.4 2.3 5 2.7 7.8a4 4 0 0 1-.3 2.8 4 4 0 0 1-2 1.7c-1.3.6-2.6 1-4 1.3a16 16 0 0 1 2.6-3.2c.6-.5 1-1 .9-1-.4-3-.8-6.4 0-9.4Z" class="cls-1"></path>
    <path d="M529.3 83.8a25 25 0 0 1 12.4-16 54.3 54.3 0 0 1-12.4 16zm7.2 23.2-1.6-2.5c4.4-2.8 8.4-7.2 11.8-12.8a117 117 0 0 0 8-17.2v-.1l2.8 1v.2c-2.4 5.9-4.8 12-8.2 17.6a41 41 0 0 1-12.8 13.8Z" class="cls-1"></path>
    <path d="M523 108.6c4.4 1 9 .5 13-2l-.6 1.9a55.1 55.1 0 0 1-6.7-22.5c0-.3 0-.6-.3-.8-.2 0-.4.2-.4.4-.3-.4.5-.9.9-.5.3.2.4.6.4.8l.6 1.5L532 93c2 5.2 4.1 10.4 6.5 15.3-4.6 3-11 3.4-15.6.2Zm-38.3 19.5c9.1.5 18.1-1.2 26-5.8 2.6-1.5 5.3-3.3 8.4-4-2.6 1.8-4.6 4-7.1 6a27 27 0 0 1-27.3 3.8z" class="cls-1"></path>
    <path d="M475.1 122.7c-1.3-1.7-4.1-3.6-6-2.1-.9.6-1.1 1.6-.7 2.4.8 1.8 3.6 3.4 5.2 4.1 1 .4 2.1.4 3.3.3l7.6-1h.3l1.1.2-1.5.5a35 35 0 0 0 7.2-13.4c1-3.4 1.3-5.7-2.2-7.6a9 9 0 0 1-3.5-4.9c1.3 2.4 3.5 3.7 6 4.9 4.8 3.1 1.2 11.9-.6 16a34.7 34.7 0 0 1-5.2 7.7l-1.8-.5h.6l-7.8.9c-1.4 0-3 0-4.4-.7-1.5-.6-2.5-1.5-3.5-2.3-7.4-5.9 1.8-12.7 6-4.5Z" class="cls-1"></path>
    <path d="M474.8 123a4.8 4.8 0 0 1 7-1 5.2 5.2 0 0 1-7 1zm5.7-6.4a24 24 0 0 1-4.8 2.4l-2.1.3a7.1 7.1 0 0 0-6-3h.3l-.6.1.5-.3c-1.3 1.1-1.5 3.4-.5 5-2.6-1-3.2-4.8-1.3-6.9l.3-.2.6-.3c3.2-.8 6.7.7 8.3 3.5l-1.1-.6 1.3.1h-.3c1.8-.1 3.6-.3 5.4 0Zm-4.3-2.5c-1-.2-1.6-.2-2.3-.7-.5-.5-.6-1.3-.8-2.2 1.8-1.7 4.7.8 3 3Z" class="cls-1"></path>
    <path d="M468.4 114.1c-2.4.1-2-3.3.4-2.5.4.8.8 1 1 1.5l-.4.3-1 .7Zm14-4.6c2.9 2.3 3 6.8 1 9.7-.7 1-1.6 1.8-2.7 2.3l.5-3.2 1.2-8.8Z" class="cls-1"></path>
    <path d="m465 120-6.9 13.6 1.7-6.6v-.2l.3-1 1 .7c4.8 3.2 10.3 7 15.9 8.3 2.8.8 5.7 1.1 8.7 1.1 9.1 0 17.9-2.5 26.7-4.9a43.9 43.9 0 0 0 16.3-7.3v1.3a82.2 82.2 0 0 1-6.9-8.9c3 2.8 5.8 5.6 8.9 8.2-4.5 5-11 8-17.3 10.1-5.9 2-11.9 3.7-18.2 4.7a36.9 36.9 0 0 1-35.2-11.5l1.3-.3v.2l-1.4-.6.6-1 4.5-6z" class="cls-1"></path>
    <path d="m529.3 125.3 4.4 5.6a59 59 0 0 1-77.3 10.3l-.7-.5c1.2-4.7 2.9-9.4 5-13.8-1.2 4.5-2.1 9-2.8 13.6l-.5-1.1a67 67 0 0 0 75.2-8.9v.7l-3.4-5.9z" class="cls-1"></path>
    <path d="M461.3 143.1c3.5 7 5.7 14.3 7.6 21.8 1.8 7.5 3.2 15 3.2 22.8a127 127 0 0 1-7-21.9 117 117 0 0 1-3.8-22.7zm13.1 23.5a1 1 0 0 1-1-.8c-1-5-2-10.1-2.5-15.2-.1-.5.3-1 .8-1 .6-.2 1 .2 1.2.8.6 5 1.4 10 2.5 15 .1.5-.2 1-.8 1.1h-.2Zm1.7 13.6a1 1 0 0 1-1-.8l-.8-4.3a1 1 0 0 1 .8-1.2 1 1 0 0 1 1.2.8l.8 4.3a1 1 0 0 1-1 1.2Zm19.5 6.7a1 1 0 0 1-1-1c-.6-12.2-1-24.6-1.2-37 0-.5.5-1 1-1 .6 0 1 .5 1 1 .2 12.3.6 24.7 1.2 37 0 .5-.4 1-1 1Z" class="cls-1"></path>
    <path d="M472.3 189.6c1.2-6 7.5-8.6 13.2-8 4.6 0 10.5 1.8 12.3 6.6.1.3.3.6.2 1.1 0 .3-.3.5-.6.3-.1 0-.3-.4 0-.4-.2 0 0 .2.1.2.1-.3-.1-.5-.4-.8-3-3.4-7.4-4-11.7-4-5.3-.6-9.8.6-13 5Z" class="cls-1"></path>
    <path d="M471.8 188.4c2.7 5.2 2.8 11.5.1 16.7a17.9 17.9 0 0 1-.1-16.7Zm24.5-1.4c6 6 5.4 17.6-1.5 22.8a84 84 0 0 0 1.5-22.9zm-14.3 4.3a1 1 0 0 1-.2-2c3-.5 6-.5 9 0 .5.2.8.7.7 1.2a1 1 0 0 1-1.2.8 22 22 0 0 0-8.1 0h-.2Zm19-44.7c9.4 2.4 18.7 9 24.1 17a61.8 61.8 0 0 1-12.9-7.3c-4-2.9-7.9-5.9-11.2-9.7zm39.2-.6a1 1 0 0 1-.7-.3 126 126 0 0 0-9-7.4 1 1 0 0 1-.2-1.4 1 1 0 0 1 1.4-.2c3.1 2.3 6.2 4.9 9.1 7.5a1 1 0 0 1-.6 1.8Zm-8.6-13.4c9 2.8 17.3 10.3 21 19a73.8 73.8 0 0 1-11.2-8.7 75 75 0 0 1-9.8-10.3zm23.2 20.6c5.8 8 .8 19-5.4 25.4-.3.3-.8 1-1.5.8v-.3c0 .2.2.2.3.1.2-.1.4-.8.5-1 3.3-8 7.7-16 6-25Z" class="cls-1"></path>
    <path d="M548.5 179c.1-.3.4-.1.4 0 .1.2 0 .4-.2.4-9.3 2.7-16.6-6-24.1-9.9h-.1l-1.2-.8.7-1.2a6 6 0 0 0 .6-3.8c3.7-4.8 9.3-7.3 14.6-9.5 5-2.1 11-4.2 16.2-1.9l.2.1-.1.1-.7.8.5-1v.2c-5.4-1-10.4 1.5-15 3.9-4.7 2.4-9.6 4.7-13 8.7l.4-1c0 1.7-.3 3.4-1.2 4.9l-.5-2 .2.1c7 3.6 13.3 12.8 22.5 12.2.3-.1 0-.6-.2-.4Z" class="cls-1"></path>
    <path d="M546.1 171.6a1 1 0 0 1-.8-1.6 15 15 0 0 0 3.3-11.3c0-.5.3-1 .9-1 .6-.1 1 .3 1.1.8.5 4.5-.8 9.1-3.7 12.7a1 1 0 0 1-.7.4ZM507.6 204a47 47 0 0 1 6-19.4c1.6-3 3.2-5.9 5-8.7 1.8-2.9 4-6.1 7.4-7.2-2.3 2.5-3.3 5.5-4.6 8.6-1.3 3.1-2.7 6.1-4.2 9.1-2.7 5.2-6.8 12.4-9.6 17.5zm37.2-24.4c-4 5.5-8.5 10.2-13.3 14.8A108 108 0 0 1 516 207a71.5 71.5 0 0 1 12.6-15.5 72 72 0 0 1 16-11.9zm-99.2-26.8c1.6 4.7 3.3 11.4 4.8 16.1 1.4 4.8 3.5 11.3 4.8 16.1-7-9-10.5-20.8-9.6-32.2zm-14.6 9.3a42.4 42.4 0 0 1 6.1 19.4 28.6 28.6 0 0 1-6-19.4zm-14.3-.4c2.5 3.2 3.8 6.8 3.9 10.8a8.9 8.9 0 0 1-4-10.8zm-18.7-4.2c1.6 6.7 2.5 13.4 3.3 20.2.1 2.5.7 4.5.2 7.2a7.5 7.5 0 0 1-10 4.8c-4.5-1.9-3.7-8.2.4-10a7 7 0 0 1 6.9.8c-3.7-1.7-9.3 1-8 5.3 1.5 3.4 7.2 1.4 7.8-1.6.4-1.8-.1-4.3-.2-6.3-.4-6.8-.7-13.6-.3-20.4Z" class="cls-1"></path>
    <path d="M397.7 156.5a73 73 0 0 0 13.1-8.7l.4 2.5c1 5.4-2 11-6.7 13.6a10 10 0 0 1-5 1.3c5.7-2.6 9.5-8.5 8.9-14.5l2.3 1a25.5 25.5 0 0 1-13 4.8zM345.4 190a27.6 27.6 0 0 0 15.2-13.7c1.7-3.1 3.1-6.6 5.4-9.6 2.3-3.1 5.7-5.5 9.3-6.3-6.7 4-8.8 10.7-12 17.3a21.6 21.6 0 0 1-18 12.3zm9.1-84.3c-1.6 7-.4 16.1 6.8 19 3.3 1.3 7.5 1.2 11.4 3.2 3.8 2 6.7 5.5 7.6 9.4-2-3.4-5.1-6-8.5-7.3-3.7-1.4-7.7-1-11.6-2.5-8.7-3.4-10-14.6-5.7-21.8zm19.5-8.2c-5.1 9.7 0 19.7 10.1 22.5 2.5 1 5.1 2 7.1 3.8 2.1 1.9 3.7 4 5.1 6.1 2.6 3.3 5.7 10.2 10.6 9-6.6 3.3-12.7-9.7-17.5-12.9-3.9-3.1-9.4-3.4-13.4-6.9-6.6-5.2-7.7-15.7-2-21.6zM495.2 74c5.4-1.2 11-3 16.2-4.8 1.8-.6 3.6-1.1 5.6-1.5a24 24 0 0 1-10 6.1c-3.8 1.3-8 1.7-11.8.2Z" class="cls-1"></path>
    <path d="M516.9 67.8c.5.2.9 1.1 1.2 1.7 4.5 9.2 4.6 21-.4 30 1-10.6 1.3-21.3-.8-31.8zM495.2 75a51 51 0 0 1 .9 28.7 105 105 0 0 1-1-28.7Zm-.8 29.6a178 178 0 0 1 23.3-5 25 25 0 0 1-11.1 5c-4 .9-8.2 1.1-12.2 0Zm9.2-22.2c-.6-.2-.6-1.1-.5-1.7.3-2 1.7-4.3 4.1-4 8 2 1.4 16.6-2.6 20l-1-2a48 48 0 0 0 8.4-.9 18 18 0 0 1-3.9 2c-2 .9-4.6 1.3-6.9 1.7l1.6-2.3c2.6-3.6 4.4-7.7 5.2-12 .2-1 .3-2 .1-2.8-.3-1.7-2.1-2.6-3.4-.8-.5.6-1 1.3-1.3 2 0 .3 0 .6.2.8Zm39.3-45.7c1.4 2.2.7 5.4 1 7.8.4 2.7 2.4 4.2 3.5 6.7 1.2 3 .4 6.1-.8 8.8a35 35 0 0 1-3.9 7l1.7-7.8c.6-2.5 1-5 .2-6.8-1-2.2-3.2-5-3-7.8.2-3 1.5-5.2 1.3-8Zm.4.3c.6-1 2-1.1 3-.9 4.7 1.5 3.6 7.6 5.5 11.1h-.1a.8.8 0 0 0-.7-.2c-.2.1-.1.1 0 0a7 7 0 0 0 2.8-4c.9 1.8.1 5.6-2.3 6.5-2.1.4-3.3-3.6-3.8-5.1-.7-2.9 0-5-2-7-.6-.4-1.4-.7-2.4-.5Z" class="cls-1"></path>
    <path d="M553.2 45.1a15 15 0 0 1-1-11c.6-3.4 3.9-9.2 8-6.6-1 0-1.7.4-2.3.9-1.8 1.6-2.1 4-2.8 6.4-1 3.4-1.3 6.7-1.9 10.3Zm3.2 18.1c3.1.8 5.3-.8 7.5-2.7.8-.6 1.6-1.4 2.7-2 0 2.5-1.1 4.9-3.3 6.3-2.2 1.4-6.1 1.1-6.9-1.6Z" class="cls-1"></path>
    <path d="M560.7 65c-1 3.5-2.5 8-3.6 11.4-6.1.1-12.7-3.6-14.6-9.6a24 24 0 0 0 13.7 6.7l-1.5 1a29 29 0 0 1 6-9.5zm-10.3-38.3c-1.6-4.3 2.1-9.7 6.7-9.7l-3.2 5c-1 1.5-2.2 3.2-3.5 4.7zm17.2-15c7-2 15.1 4.1 15.3 11.4a38 38 0 0 0-15.3-11.4zm-12-8.7c-6.3 2.2-8.5 9.4-11.3 14.8-1 2-1.7 4-2.3 6.1-1.3-4.5.6-9.2 2.5-13.3 1.9-4 6.2-8.5 11-7.6Zm17.3 0c5-2.2 11 1 14.2 5a33.4 33.4 0 0 1 6 14.2 66 66 0 0 0-2.2-3.1c-4.6-6.8-8.8-15.5-18-16Zm-7.8 45.4a22 22 0 0 1-8.3-10.4c-.6-1.7-1.4-3.3-.6-5.3.5-1 1.2-1.7 1.8-2.1.5-.4 1.2-.9 2-.8 1.8.1 2.4 1.9 3.1 3a44 44 0 0 1 4.3 10.3c-2.7-3.4-5.1-7-7.7-10.4-.2-.2-.1 0 .1 0h.4a5 5 0 0 0-1.3 1.3c-.3.7.3 2.1.6 3 1.3 4.1 3.2 7.8 5.6 11.4Z" class="cls-1"></path>
    <path d="M560.7 31.4c-1.6-1.7-2.3-6.5 1.1-6.6 1 0 1.7.5 2.2.9 1.4 1.2 2.3 2.6 3.3 4 2.4 3.7 4.2 7.8 4.6 12.3-1.4-1.8-2.5-3.6-3.7-5.4a1370.8 1370.8 0 0 0-6.5-9.5s-.1-.2-.4 0c-.7 1.2-.7 2.9-.6 4.3Zm7.9-4.4c0-1.3 1.4-2 2.5-2 4.2 0 5.1 5.9 1.5 7.5-.2-1.7-.2-3-.9-4.3-.6-.8-1.7-1.7-3.1-1.3Z" class="cls-1"></path>
    <path d="M573.3 33c1-2.3 4.4-1 5 1 .6 2-.6 4.3-2.6 4.6v-2.3c-.2-1-.2-1.4-.8-2.3-.3-.4-.6-.9-1.6-1Z" class="cls-1"></path>
    <path d="M558.7 39c-2.5 2.3-.4 5.6 1 7.9 1.3 2.2 3 5.6 4.5 7.6 1.3 1.8 3.2 3.2 4.6 5 2.4 3 3.7 6.9 4.7 10.5l-.9-1c2.5.7 5.3.4 7.6-.7a11 11 0 0 0 5.2-5.4l-.1.8v-.9l.2.4a33 33 0 0 1-3.3-7c-1.4-4.2-.7-10.1 3.4-13 1.2-1 3.4-2 2.7-3.7-.4-.4-1-.3-1.8-.2-1.7.3-3.6.4-4.3 2.2-.3.5-.5 1.4-1.2 2.2-1.6 1.6-4.4.3-5-1.6-1.5-4.7-3.6-9-6.2-13.2-.7-1.1-1.5-2.3-2.8-2.7-1.2-.3-3 .7-2.5 2.1-.4-.6 0-1.5.5-2 2-1.7 4.4.5 5.5 2.1a67 67 0 0 1 4.7 7.1c.7 1.3 1.3 2.6 1.8 4 .5 1 .8 2.8 2.1 2.8.6-.3.6-.8 1-1.7.8-2.5 3.7-3.5 6-3.8 3.6-1 6.2 1.8 4.6 5.3-1.2 2.7-4.5 3.4-5.5 6.1-2 4.6.6 9.5 2.8 13.6.4.5.3 1.2.2 1.7l-.1.6a13.7 13.7 0 0 1-16.9 7.2c-.9-3.8-1.8-7.5-4-10.6-1.4-1.9-3-3.3-4.3-5.3-1.5-2.2-2.8-5.6-4-8-1.2-2.5-3-6.5-.2-8.4Z" class="cls-1"></path>
    <path d="M573.1 70.5c2.5 6.2 4.4 12.4 6.8 18.5 2.5 6.1 5.3 11.7 8.7 17.4-11.3-7.5-16.5-22.7-15.5-35.9z" class="cls-1"></path>
    <path d="M612 101.6c0 5.3-4.9 9.6-10 10.6a25.3 25.3 0 0 1-15-2.3l-1.9-.7c3-6 5.6-12 7.8-18.3 2-5.4 3.4-11-.6-15.7-1.2-1.6-2.5-3.3-3.4-5.2-1-1.9-1.4-3.9-1.8-5.9.9 1.9 1.7 3.7 3 5.2 2.4 3.3 6.3 5.8 7.5 10 1.4 4.3 0 8.7-1.1 12.8a91.8 91.8 0 0 1-7.1 17l-1-2.6c8 4.2 20.1 5.5 23.5-4.9zm20.5-31.5c-.1 3.5-.9 7-1.8 10.3-8.4 1.3-16.2-2.4-23.5-6.1-2.7-1.4-5.4-3-8-4.6a25.4 25.4 0 0 1 8.3-9c-2 3-3.8 5.9-5 9.1l-.7-1.9 14 6c4.4 2 9 3.6 13.8 4l-1.1.8 4-8.6z" class="cls-1"></path>
    <path d="M627.4 79.2c0 3.7-1.4 7.2-2.7 10.6a47 47 0 0 1-26.9-9.4l-1-.7c1.4-3.5 3-7 5.2-10l-2 10-.7-1.7c8 3.7 16 7.3 24.6 9l-1.4.8c1.7-2.8 3.5-5.7 5-8.6z" class="cls-1"></path>
    <path d="M622.3 88.3c-2.6 5-5.8 9.7-8.8 14.4l.3-1v.4c0 .3-.3.7-.5 1l.3-2-3.6 1.2c0 .2.1.5.3.7-2-3.8-4.6-7.4-7.1-11.2a34.8 34.8 0 0 1-5.8-12.2c1.4 1.9 2.7 3.5 4.2 5.2a68.2 68.2 0 0 1 12.2 16.8l-3.7 1.1.2-2-.3 1v-.7c3.6-4.8 7.6-9.1 12.3-12.7ZM637.9 70c.5-5.3.3-10.7-1.7-15.5-2.7-6.7-9.7-12.3-17-10.8A24 24 0 0 0 604 58.5l-1-2.3c5 2.5 12 6.4 16.8 9 5.7 2.7 12 3.5 18.1 4.8zm0 0c-6.4 0-13-.1-19.1-2.5-5.8-2.3-13.1-6-18.9-8.6a26.6 26.6 0 0 1 18.6-19c9-1.6 17.6 5.5 19.9 13.9 1.6 5.4 1 11-.5 16.2z" class="cls-1"></path>
    <path d="M634 48.2c8.9.8 16.7-7.2 18.4-15.4.8-4.1.3-8.5-.5-12.9-.8-4-1-8-5.5-9.1-2-.7-4.2-1.3-6.3-1.6-6.3-1-12 2.6-15.6 7.7-5 7-6 16.7-2.4 25.1-2.6-3.8-4-8.4-4-13.2-.1-9.5 5.6-19.7 15-22.9 4.8-1.6 9.8-.3 14.5 1 6 1.6 7.5 7.3 8 12.4.3 2.3.6 4.7.6 7a22 22 0 0 1-9 19c-3.7 2.6-8.7 4.4-13.2 2.9Z" class="cls-1"></path>
    <path d="M621.9 18.7c5.7-1.1 11.6 2 15.2 6.4l-2.4.2 3-5.2.1 1.6a21.3 21.3 0 0 0-12.8-8c6-1.2 12 2.3 15.7 7l-4.6 8a22 22 0 0 0-14.2-10zm29.1-9c.5-.8 1.6-1.1 2.6-1 3 .6 4.6 3.6 5.6 6.2.7 1.8 1 4 0 5.9-.7 1.7-2.6 3.3-4.6 3 1.6-1 2.1-2.4 2.4-3.8.3-2-.6-4.3-1.5-6.3s-1.9-4.6-4.5-4Z" class="cls-1"></path>
    <path d="M652.6 9.3c-3.4-3.2-1.6-8.8 1-12 2.8-3.4 8.6-4.6 12-1.6-2.1-.2-4 0-5.6.7-4.4 1.5-8.6 8.1-7.4 12.8Zm4.6 13.4c10 7.5 13.2 3.8 18.6-5.7 1.2-2.6 3-5 2.7-8 1.6 2.7.3 6.1-.5 9-4 11.2-13.1 16.5-20.8 4.7Z" class="cls-1"></path>
    <path d="M668.9 27.8c3.9 1.6 7.5 3.7 11.3.8 1.3-.7 2.4-1.4 3.6-2.6-.1 2.6-2 4.7-4 6.1-4.1 2.6-9.2-.4-11-4.3Z" class="cls-1"></path>
    <path d="M693 17.1c3.2 2.4 4.6 6.7 3.7 10.6-.4 1.9-1.7 3.7-2.8 5.2-.9 1.2-1.7 2.7-1.3 4l-1.3-1a9 9 0 0 0 6-2.6l2.6-2.5v3.6c0 4-3.1 6.7-6 8.8-2.6 2-6.2 3.9-9.7 3.5-7.5-.5-12.4-8.6-8.9-15.2-2.2 8 5.5 15.3 13 11.8 3.3-1.9 8.5-5.2 8.6-9l2.5 1.1a11.2 11.2 0 0 1-8 3.2h-1l-.3-1c-1.3-4.5 3.6-6.7 5-10.4 1-3.3.3-7.3-2-10z" class="cls-1"></path>
    <path d="M684.9-1.8c2.8-1.3 5 2.4 6.2 4.4 4.4 8 5.5 15.5-1.4 22.3 1.7-5 3.1-9 1.5-14.2-.7-3-1.7-6-2.9-8.9-.7-1.5-1.4-3.6-3.4-3.6zm-29.9 35c1.3-2.8 4.9-4.6 8.4-4.3 10.3.9 14 16.7 8.4 24.1.2-3 0-6-.5-8.7-.9-3.9-2.5-7.9-5.3-10.6a9.2 9.2 0 0 0-11-.5ZM639.7 49c3 1.9 6.2 2.5 9.5 2.5 1.1 0 2-.1 2.6-.5 3.6-2.5 1.2-7.5-.4-11a12 12 0 0 1 4.5 5.8c1 2.8.2 6.2-2.6 7.8-4.4 2.2-11.4-.4-13.6-4.7Z" class="cls-1"></path>
    <path d="M655.6 34.3a39 39 0 0 1 18.8 27.2c2.5 13.7 7.3 29 21 35a23 23 0 0 0 10.5 2c-3.6 1.1-7.5 1-11.2-.1-15.7-4.6-22-21.5-24-36.2a46 46 0 0 0-15-27.9Z" class="cls-1"></path>
    <path d="M660.6 45.9a51.5 51.5 0 0 1 .6 38.6c-.4 1-.8 2.2-1.7 3-2.2 1.9-4.7-.1-5.8-1.8a33.8 33.8 0 0 1-6.6-14.3c2.2 4.7 5 9 8.4 12.8.5.6 1.4 1.5 2 1.4.6-.4.7-1.3 1-2 4-12.2 4.4-25.2 2-37.7Z" class="cls-1"></path>
    <path d="M652.9 67.3a8 8 0 0 0 3 2.2c.1 0 .2 0 0 0l-.6.1.6-1.4c1.4-3.5 2-7 2.8-10.7 2.1 3.6 1.7 8.3-.3 12-.6.9-1.2 2.4-2.6 2.3-.6 0-.9-.3-1-.5-1.2-1-2-2.5-2-4ZM668 76a52.4 52.4 0 0 0 7.3 18.4c3.6 5.5 7.4 11 14 13.3a12 12 0 0 1-5.2-1A26 26 0 0 1 672.8 96a30 30 0 0 1-4.8-20Zm5-32.5c3.8 4 8.2 6.5 12.5 9.8-.3 1.9-1.1 4-2.2 5.3a16.7 16.7 0 0 1-5.9 5.9c-1.3.6-2.9.8-4.2.4 2.5-.9 3.8-2.8 5-5 1-1.6 2.8-4.5 3.2-6.2l.7 2c-4-3-8.3-7-9.1-12.1z" class="cls-1"></path>
    <path d="M683.4 56.1c2 1.4 4 2.6 6 3.5.5.2 1.3.5 2 1.6.4.6.5 1.5.4 2-.4 2-1.8 3.3-2.9 4.6-2.7 3.1-6.4 6.7-10.9 7-.7 0-1.5-.4-1.7-1 .6.3 1 .1 1.5-.1 3.3-2.3 5.4-5.6 8.1-8.5.6-.7 1.7-1.8 2.1-2.5.3-.4.1 0 .3.1.2.2 0-.2-.6-.6-2-1.6-3.6-3.7-4.3-6Z" class="cls-1"></path>
    <path d="M688.8 67a21 21 0 0 1 7.7 7.5c.3.5.5 1 .6 1.7 0 .9-.4 1.7-.7 2.3-3 5.3-9.3 7.6-15 7.7 3.6-3 7.8-5 10.7-8.5l1.2-1.7v.5l-.3-.7c-1.3-3-2.8-5.7-4.2-8.9Zm17 31.1c.3 6-3 12-8.4 15-2.6 1.6-5.4 2.5-7.4 4.2a7 7 0 0 0-2.7 5c-.2 1.6-1.5 3.2-2.7 4.1-4.2 3.3-9 5.1-14.1 6.7-5.9 1.8-14 .5-16.8-5.7l2.7-.6c.4 5.8.5 13.1-4.2 17.7-8.1 7.5-22 4.2-27.8-4.6-9-14 3-32.2-7-45.8 8.3 9.3 4.5 22.8 5.7 34 .3 3.8 1.3 7.4 3.4 10.4 4.1 6 12.4 8.7 19.2 6.5 10.8-3.4 7.5-17.2 7.4-26l3.2 7.2c1 2.2 3.2 3.7 5.7 4.4 5.2 1.5 10.8-1 15.8-2.9 2.4-1 5-2.3 6.8-4.3.8-1 .7-2.4 1.3-3.8a9 9 0 0 1 3-3.7c2.5-1.9 5.4-2.6 7.9-3.9 5.1-2.5 8.7-8 9-13.9Z" class="cls-1"></path>
    <path d="M642.4 147.4c7.2 3.1 14.7-.7 20.8-4.2 3.4-2 5.8-4.5 9.1-6.8 3.4-2.2 7.5-2.7 11-4 3.6-1 6-3.3 8.8-5.7 2.8-2.4 5.4-5 7.8-7.8a25.7 25.7 0 0 0 6.5-20.4c1.5 3.6 1.6 7.7.8 11.5a44.4 44.4 0 0 1-17 23.4c-4.4 3.6-11.6 3.7-16 6.2-3 1.9-6 4.7-9.4 6.3-6.7 3.3-15.7 6.3-22.4 1.5Zm22.3-24.2a11 11 0 0 0 6.8-8.8c.3-1.4.4-2.8.5-4.3a8.6 8.6 0 0 1 1 9.2c-1.4 3-5.2 5.3-8.3 3.9Zm-32-14.9c2 5 1 11 1.2 16 .5 5 2.7 9.7 6 13.8-5.1-2.4-8.5-8-9-13.6-.3-3 .4-5.7.8-8.3l1-8Zm6.5 12.4a635 635 0 0 0 7 12.8 10.1 10.1 0 0 1-7-12.8zM613.8 99a25 25 0 0 1 4.5 14.4l.2.6c1.2 1.4 2.5 2.8 3.5 4.3-1.5 0-2.9-.6-4.2-1.2a5 5 0 0 1-2.8-2.4c-.7-1.6-.7-3-1-4.5a39 39 0 0 1-.2-11.2Z" class="cls-1"></path>
    <path d="M616.7 114.4c-.6 2.8-2.2 5.8-3.3 7.7v-.4c-.1-.2 0 0 .4.3 2.1 2 5.8 4.8 8.2 6.7-4.2.7-10.2-1.7-12.3-5.6-.7-1.6.4-3.2 1.5-4.2 1.6-1.7 3.3-3.2 5.5-4.5Z" class="cls-1"></path>
    <path d="M611.2 121.4a51.8 51.8 0 0 1-6.6 7.6l.2-2.6c3 2.5 6 4.6 9.4 6.6 3.5 2 7 3.5 10.7 5.2-4.2.6-8.5-.3-12.3-2a29.7 29.7 0 0 1-11.5-8.9c3.2-2.2 6.5-4.4 10.1-5.9z" class="cls-1"></path>
    <path d="M634.9 146.2c-5.2 9.3-16.1 13.1-25.8 15.8-13.4 4.3-20 .8-28.1-10l-.8-1.1a78.4 78.4 0 0 1 24-22.6c-7.7 7-14.6 14.8-20.3 23.6v-2.2c3 3.5 6.2 7.5 10.6 9.3 3 1.3 6.7 1 10 .3a210 210 0 0 0 11-2.6 37.8 37.8 0 0 0 19.4-10.5z" class="cls-1"></path>
    <path d="M582 150a25.8 25.8 0 0 0-2.3 24.3 35.4 35.4 0 0 0 17-5.3c2.3-1.2 4.9-2.3 7.4-1.8l-1 .8c.4-2.2.6-4.5.7-6.8a27 27 0 0 1 1.1 7v.8c-2.4-.3-4.4.8-6.5 2.4a29.7 29.7 0 0 1-16.5 6.8c-1.7.2-3.9.3-5-1.2a22.5 22.5 0 0 1 5-27Z" class="cls-1"></path>
    <path d="M603.9 168.5a34.4 34.4 0 0 1 29.6 22.9c1.5 4 2.5 8 4.4 11.9a22 22 0 0 1-4.2-5c-3.2-5.4-5.7-11.2-9.9-15.7a54.4 54.4 0 0 0-20-14.1zm-20.5 8.3a280 280 0 0 1 27.5 19.5 33 33 0 0 1 7.8 8.4c-3.2-2.2-6.4-4-9.6-5.8a82.5 82.5 0 0 1-25.7-22.1zm28.9 13.4a1 1 0 0 1-.7-.2c-4.7-4-10-7.6-15.2-11a1 1 0 0 1 1-1.7c5.3 3.5 10.7 7 15.5 11.2.4.3.5 1 .1 1.4a1 1 0 0 1-.8.3Zm-22.5-39.7a1 1 0 0 1-.7-.3 1 1 0 0 1 0-1.4l8.7-8.8c1.3-1.3 2.7-2.8 4.6-3.6.5-.3 1 0 1.3.4.2.5 0 1.1-.5 1.4-1.5.7-2.7 2-4 3.2l-8.7 8.8a1 1 0 0 1-.7.3Zm94.9-16.5c0 .5-.1.8-.3 1l-1.3 3a268 268 0 0 1-16.5 29l-2.3 3.5c-5.7 9.7-15.2 9.9-25.1 9l-.3-1.7 1.8 1.6h-1.5a43 43 0 0 1 5.6-31 51.4 51.4 0 0 0-2.4 29l-1.7-1.5h.7l1 1.5-1.6-1.3c5.1 0 10.7.2 15.1-2.4 2-1.2 3.6-3 5.1-5.3a415 415 0 0 1 4.7-7c5.6-8 13.7-19.2 19-27.3z" class="cls-1"></path>
    <path d="M659.7 173.2c2.5-.9 4.7 2.2 3 4.3-2.2-.7-3-2-3-4.3z" class="cls-1"></path>
    <path d="M663.7 176.2c-.4 7.6-2.6 20.6-11.2 22.7-.2-.2 0-.6.3-.5l-.1.2s0 .1 0 0h-.2c1.6-1.4 2.7-3.1 3.7-4.9 2.8-5.6 4-12 7.5-17.5Zm.6-1.2c13.7 4.4 23 18.5 27.7 31.5-4.4-4.4-9.5-11.4-13.5-16.3-4.3-5.4-9-10.4-14.2-15.1z" class="cls-1"></path>
    <path d="M654.7 198.3c2.5-1.3 5.6 1 5.3 3.8a5.3 5.3 0 0 1-5.3-3.8Zm-14-20.7c-1.3 0-2.5-.3-3.7-.5l.9-.5a21.7 21.7 0 0 0 15.2 21c-8 1-15.6-5.6-17-13.4-.5-2.9-.2-5.9.7-8.6l3.9 2Zm-53.5-84.5a1 1 0 0 1-.8-.5c-2.8-4.4-5-9.2-6.4-14.2a1 1 0 1 1 2-.6 53 53 0 0 0 6 13.8c.4.4.2 1-.2 1.3a1 1 0 0 1-.6.2ZM735 18.8c-3.4-2.3-1.6-7.7 1.7-9.2 3.3-1.9 8.3.4 8.4 4.2-2-1.9-4.7-2.7-7-1.5-2.3 1.2-3.8 3.6-3.1 6.4zm-10.5-3.2c-5-2-7-8.7-4.6-13.5 1.2-2.4 3.2-4.3 5.3-5.6 2.2-1.3 4.5-2 7-2.5-2 1.6-4 2.9-5.6 4.4-5.5 4.5-6.6 11.5-2.1 17.2zm20.2-20.1c1.5-.4 2.9.9 3.8 1.9 2.9 3.2 3.4 8.8.2 11.9-.3-3.8-.7-7.2-2.1-10.6-.6-1.2-.8-2.4-1.9-3.2Z" class="cls-1"></path>
    <path d="M748.7.6c5.2 1 7.8 8.5 4.3 12.5A52 52 0 0 0 748.7.6Zm-28.3 8.7c-2.4 0-3.8 1.7-5 3.7-1 2-2.1 4-2.5 5.9-.6 4.4 2.7 8 6 10.7a12 12 0 0 1-6.5-3.7 9 9 0 0 1-1-11.3c1.8-3 5.2-7.3 9-5.3z" class="cls-1"></path>
    <path d="M712.1 23.5c-2.3 1-4.5 2.5-5.6 4.7-.4 1.8.6 3.8.6 5.7.2 3.7-.6 7.7-2.8 10.9-1 1.4-2.7 2.7-4.5 2.2l1-2.8c6.8 3.2 14 4.7 18.3-3a9.4 9.4 0 0 1-2.7 5c-4.5 4.7-11.6 3-16.8.7L687.4 42l13.2 2.1.4-.1c3.4-3.4 3.8-8.8 3.5-13.5-.8-4.2 4.2-6.8 7.7-7z" class="cls-1"></path>
    <path d="M715.4 40.2c5.1-.5 9 1.9 13-1.3 1.2-.8 2.3-2 3.7-3-2 9.3-10 9.3-16.7 4.3z" class="cls-1"></path>
    <path d="M738 16.5c-8 6-6.4 17.6-.7 24.8 2.7 3.2 5.9 7.5 10 8.6 9.1 1.6 15.5-8.9 14.6-17.1-.2-4.6-1.7-9-3.7-13.3-1.9-4.3-5.1-7.3-10.1-6.2-2.3.4-4.6 1.2-6.8 2-2.1.8-4.4 2-5.7 4a11 11 0 0 1 5.4-4.8c4.3-2 9.7-4.6 14.4-1.8 2.3 1.4 3.7 3.6 5 5.8 4 7.5 6.4 17.2 2.3 25.2-2.9 6-9.4 10.6-16.1 9-2.8-.8-4.8-2.6-6.5-4.4a42 42 0 0 1-4.7-5.7c-2.7-4-4.7-9-4.4-14 .3-4.8 2.6-9.8 7-12.1Z" class="cls-1"></path>
    <path d="m737.6 26.5 2.7 5.2-1-.3c2.3-2.3 5.2-4.1 8.3-5.2 3.3-1.2 6.6-1.9 10.2-1.2l-1.8 2c-.7-2-1.5-3.8-2.4-5.7l1 .7c-6-1.3-11.6 1.7-17 4.5zm0 0c4.7-4.7 11.3-8.6 18.2-7.2 1.6 3 3 6.2 4 9.3-2.2-.6-4.4-1.2-7-.8-4.9.4-9.5 2.4-13.6 5.2l-1.6-6.5zm25.5 15c3-6.7 12.3-6 17.5-2.2 4.1 2.6 6.8 7.7 5.7 12.7-.7 3.8-2.6 7-4.8 9.8 1-3.4 2.3-6.8 2.5-10 .4-5-2.9-9.2-7.2-11.4-4.3-2.4-10-2.9-13.7 1.1ZM714 57.1c-1.7-5 4.3-8.3 7.7-10.8 9.8-6.9 20.7-3.1 23 8.8.7 3.6.3 7.2-.7 10.6-.3 1-.8 2.9-2.1 2.5 1.2 0 1.2-1.8 1.3-2.7l.1-3.4c0-12.5-8.5-20.7-20.4-13.8-3.4 2.2-9.2 4-9 8.9Z" class="cls-1"></path>
    <path d="M713.9 53.9c.7 3 2.6 5.3 4.8 7.2a32 32 0 0 0 15 8.3c2.7.3 5.7 0 8.3-1.8a8.8 8.8 0 0 1-3.7 3c-4.5 2.2-10 .9-14.1-1.7-5-3.3-11.1-8.3-10.3-15Z" class="cls-1"></path>
    <path d="M713 56.8c-.2.8-.6 1.6-1.2 2.4-.6.7-1.3 1.3-1.4 1.7 0 .4.3 1 .8 1.7 2.5 3.3 5.9 5.5 9.2 8 3.3 2.5 6.6 5 10.6 5 .7 0 .9-.3 1.4-1 3.9-4.8 3.8-4.9 1.2.8-.8 2.3-3.3 2.4-5.3 2.2-3.6-.3-6.8-2.4-9.7-4.5-3.7-2.9-7.9-6.2-9.6-10.9-.2-.5-.2-1.2 0-1.8.3-.6.8-.9 1.2-1.2 1-.6 2-1.3 2.7-2.4Z" class="cls-1"></path>
    <path d="m708.8 61.9-3 2.4c2.1 2.6 4.1 6 6.3 8.3a27 27 0 0 0 5.7 4.4c1.7 1 4.6 3 6.4 3.4l-.7.3 4.3-3.8a58 58 0 0 1-3.2 5.2c-1.7.2-3.3-.5-4.6-1-7-2.7-11.3-6.4-14.2-13.3-2.4-4.7-1.5-4.4 3-6Z" class="cls-1"></path>
    <path d="M704.6 65c-1.6.8-3.2 2.4-3.6 3.7v-.2l.3.2c4.4 4.3 9.4 8 14.8 11.2 1 .5 2.1 1 3.4 1a6 6 0 0 1-4 .4 28.8 28.8 0 0 1-16-11.1c-.2-.4-.7-1-.5-1.7 0-.4.2-.6.3-.8a6.7 6.7 0 0 1 5.3-2.7Zm-12.4 6.2c-.1-2.5 2.3-4.3 4.6-4 .7 0 1.5.3 2.1 1l-1.6 1.3c-1.7 1-3 1.4-5 1.7Z" class="cls-1"></path>
    <path d="M689.2 83.6c3.4 1.7 6.8 3.7 10.6 2.8 5.3-1 10.8-1.7 16-2.8.2-.7.1-2 .2-2.8l.8 2c0 .2.3.6.1 1.2-.1.5-.6.8-1 1a38 38 0 0 1-11.7 3.7c-2 .2-4 .7-6.2.6-3.6-.4-6.7-3-8.8-5.7ZM719 82c6.8-1.2 19 2 20.7 9.7-3-2.8-6.3-4-9.9-5.4-3.2-1.3-7.6-2.8-10.8-4.3zm-20 7.7c6 4.4 13.2 4.2 20.2 4.7 2.2.2 4.3-.6 6.5-.2 2.3.3 4.3 1.6 6 3-2.8-.7-5.6-1.6-8-.8-1.3.5-3.1.8-4.6.8-7 0-16-.7-20-7.5Z" class="cls-1"></path>
    <path d="M725.7 108.2c-1.5-1.7-1-4.4-.1-6.2 2-3.8 5.8-5.8 8.9-8.2a14 14 0 0 0 3.8-4.2c.1 1-.1 2.1-.5 3.1-2.3 6.5-12.2 8.3-12.2 15.5Zm13-17.7 4 4.4c.4.7.9 1 1.2 1.9.4.9 0 2-.2 2.7l-.7 1.8a90 90 0 0 1-5.3 12.5c-.2.3-.5.9-1.2 1.2-.6.2-1.1 0-1.6-.3-.9-.6-2.1-.8-3.4-.5 1-.9 2.5-1.2 4-.8h.3c1.1-5 3.3-10.2 5.4-14.9l.5-1a48.8 48.8 0 0 1-3-7Z" class="cls-1"></path>
    <path d="M722.8 95.4c2.6 1 4 3.8 3.8 6.5 0 1-.3 1.8-.9 2.7l-1.4-2.2a14 14 0 0 1-1.5-7Zm2.2 11.4c-1.3 1.5-3 2.7-4.7 3.7-.6-1-1.2-2.5-1.7-3.5-.2-.3 0 0 .2 0s0 .1-.3.4a3 3 0 0 0-.2.4c-.7 1-1.1 1.7-.4 2.9.3.6.9 1.1 1.6 1.7.4.3 1.3 1.2 1.8 1.4.6.2 1.2-.3 1.9-.6.7-.5 1.8-1.3 2.8-.8-1.5.3-1.8 2-3 2.8-1 1-2.8.7-3.8 0-1.5-.8-2.7-1.4-3.8-3-1-1.4-1.2-4 0-5.5 1-1.2 1.4-2 3.2-2.4 2.6 0 2.6 3 3 4.7l-1.3-.7 4.8-1.5Z" class="cls-1"></path>
    <path d="M723.5 114c1.6.5 3 1 4.4 1.7l-1.7.2c1.8-2.3 4-4.3 7-5.2a16 16 0 0 1-6 8 9.1 9.1 0 0 1-3.7-4.6Zm39-69.8c4.6 3 9.4 5.3 13.1 9.7 3.5 4.7 3.5 10.7 3.5 16.2 0 5.4-.4 11-2 16.2-1.5 5.2-3.5 10-4.1 15.4-1-8 2.6-15.8 2.9-23.7.2-2.6.3-5.3.2-8 0-5 .3-10.4-2.4-14.8-3-4.1-7.7-7.3-11.2-11Z" class="cls-1"></path>
    <path d="M750.1 63.4c3.4 1 6.7-.6 10-1.5l11.8-3.2v2a68 68 0 0 1-5 30.3c1.9-10 1.8-20.3 2.1-30.4l1.8 1.4-10.3 2c-3.3.4-7.4 1.5-10.4-.6z" class="cls-1"></path>
    <path d="M749.7 62.5c.2 9.5-.7 18.9-1.8 28.3l-.5-1.3A16.8 16.8 0 0 0 767 91c-5.4 6-15.5 6-21.4.7l-.6-.5v-.8c1.1-9.4 2.4-18.7 4.8-28z" class="cls-1"></path>
    <path d="M758.2 68.5a64 64 0 0 1 1.3 8l-2-.8c.6-.6 1.4-1 2.2-1 4-.6 6.1 4.2 5 7.5-1.5 4.1-4.9 10.2-10 8.4-1.3-.4-2-2.3-.8-3-.6.9.2 1.8 1 1.9 3.1.1 4.5-2.7 5.8-5.4.9-1.9 1.5-3.6 1.2-5-.2-1.4-1.7-2.4-2.8-1.7l-2 1.4c.2-3.4.4-7 1.1-10.3Zm1.1.8a5.3 5.3 0 0 1 6-2.7l.1.4c.1 0 .3-.2.1-.3 0-.1.3-.1.4 0 .9.5-.2 1.4-.5 1.7-1.7 1.5-4 2-6.1 1ZM786 55.9c1 1.2 1.8 2 3.1 2.7 1 .5 2.3 1.7 2.2 3.1 0 2-1.4 3.3-2.6 4.5-2.5 2.3-5 5-8.2 6.3-.5.1-1.2.1-1.6-.2 1 0 1.5-.8 2-1.6a58 58 0 0 1 5.6-6.5c.8-.8 1.8-1.6 2.1-2.6V61c-.2-.5-1.2-1.2-1.7-2.2-.6-.9-.9-2-.9-3Z" class="cls-1"></path>
    <path d="M789.5 63.8c1.8.7 3.6 1 5.5.8l.1 1c.2 3-2 5.3-4.1 7a45 45 0 0 1-6.3 4c-1.7.7-3.6 1.3-5.5 1.5.4-.5.9-1.1 1.5-.9-.3.1-.6.4-.6.6l-.3-.4c2.3-1.5 5.3-4 7.5-5.8 2.1-1.8 5.1-3.2 5.8-6l.9 1a7.4 7.4 0 0 1-4.5-2.8Z" class="cls-1"></path>
    <path d="M793.6 69.1c1.2-.2 2.6.7 3 2.2.3 1.3-.5 2.6-1 3.8-1.3 2-3 3.9-5 5.2-3.6 2.3-8 3.3-12.1 2.2-.6-.2-1.2-.4-1.7-.8 1.2.1 2.3-.2 3.4-.3 3-.6 6-1.9 8.7-3.6a22 22 0 0 0 5.7-5.3c1-1.1.5-2.7-1-3.4Z" class="cls-1"></path>
    <path d="M795.8 74.3a26 26 0 0 1 4 5.8c.9 1.6 1.7 3.5 1 5.4-1 2.5-4.5 3.4-5.8 4.6-1.3 1.7-2.6 2.5-4.6 1.2a93.1 93.1 0 0 1-12.5-8.8 90.9 90.9 0 0 1 14 6.5l1-1c2-2 4.1-1.8 5.4-3.5.8-1.8-.6-4-1-5.8l-1.5-4.4Z" class="cls-1"></path>
    <path d="M790.4 90c-1.7 3-4 5.2-6.5 7.3-2.4 2.2-5.2 3.4-7.8 5.4 1-5 9.6-11 14.3-12.6z" class="cls-1"></path>
    <path d="M779.2 99.9c1.5-.3 2.7 2 4.1 1.6.1 0 0 0 0-.2l2.2-4.2h.8c3.2-.3 5.2 3.5 4 6.1a7.5 7.5 0 0 1-3.3 3.7c-.5.3-1.2.5-1.7.3 1-.4 1.3-1.4 1.8-2.2.7-1.4 1.3-3 .5-4.3-.3-.4-.7-.7-1.1-.7l1.2-.7-1.8 2.7c-1 1.8-2.6 2.3-4.2 1.1-1.2-.9-1.3-2.4-2.5-3.2Zm-6.8 2.3c2.7 0 5.4.5 8 1.4-2 3.9-5.5 7-9.4 8.9a43.5 43.5 0 0 1-34.2 1.5c7.6 1 15 .8 22.4-1 7.2-1.3 14.6-3.5 19.3-9.4l.4 1.2c-2-1.1-4.2-2-6.5-2.6z" class="cls-1"></path>
    <path d="M739 107.7c5.7-.5 11.4-.1 17-.8 5.5-.7 10.7-2.4 15.9-4.7-8.2 9-22 9.4-32.9 5.5Z" class="cls-1"></path>
    <path d="m722 115.1-1 5-.1-.5c5.3 2 11 2.7 16.5 3 18.5.7 32.9-.6 46.5-14.5v.7l-3.6-4 4.6 3.5-.3.4a41 41 0 0 1-21.2 15 73.6 73.6 0 0 1-26.1 1.4c-6-.7-12-2-17.1-5l1.8-5Z" class="cls-1"></path>
    <path d="M786.3 130a16 16 0 0 1-3.8-.7 23.4 23.4 0 0 0-5-.7c-.8 0-1.6 0-2.5-.2a46.5 46.5 0 0 1-14.3-4.3l.9-1.8a44.2 44.2 0 0 0 16 4.3l3.4.3 2 .5c1.4.3 2.7.6 4 .5a12 12 0 0 0 4.8-2.3c3-2 6.5-4.2 9-7.2-4.7-4-11-7.2-17.1-8.5l.4-2c6.8 1.5 13.6 5 18.7 9.6l.5.5-.3.6-.2.4c-2.7 3.6-6.5 6-9.9 8.3-1.6 1-3.5 2.3-5.7 2.5h-.9Z" class="cls-1"></path>
    <path d="M803.6 118c7.6 5.7 11.4 15.6 1.6 21.4a221 221 0 0 1-5.8 3.7c-.4.3-1.1.8-2.2.9-1.2 0-1.9-.4-2.4-.7a51.2 51.2 0 0 1-11.4-8.3c-1.2-1.2-3.1-2.8-2.1-4.7.3-.6.9-1 1.5-1-.6.1-1 .6-1.1 1.1-.4 1.8 1.4 2.6 2.7 3.5 3.7 2.6 7.6 5 11.7 6.9 1 .5.7.4 1.7-.2 2.6-1.8 6.2-3.7 8.5-5.6 5.5-4.8.9-12.3-2.7-17Zm-21.8 11c-10.6 4.3-16.2 14.3-21.9 23.6-2 3-4 6.2-6.4 9.1 5.2-13 12.3-31 28.3-32.7z" class="cls-1"></path>
    <path d="M795.4 142.4a96.5 96.5 0 0 1-28.5 19.5c8.2-8.2 18-14.8 28.5-19.5zm-46 13.6h-2c0-6.5.9-13 1.7-19.2l1.4-11.8 2 .2c-.3 4-.9 8-1.4 11.9-.8 6.2-1.7 12.6-1.8 18.9Zm-22.2 2.2c-3-12.8-3-27-2.7-36.7l3 .1a142 142 0 0 0 2.7 36l-3 .6Z" class="cls-1"></path>
    <path d="M751.2 172.3c-.1.4-.5.7-.8 1a30 30 0 0 1-8 3.9c-5.2 2-11.8 1-13.6-4.9a68 68 0 0 1-3.8-15l-.4-2.9 2.6 1.3c3.3 1.6 7.8 1.2 11.6.8 4.4-.4 8.7-1.2 13-2.5 1.1 6 .9 12.4-.6 18.3zm0 0a33 33 0 0 0-.4-17.4l.7.4c-7 2.8-18.3 6.4-25.7 3l2.2-1.4c.6 5 1.4 10 2.7 14.8.6 3.2 3.3 5.3 6.6 5.6a22 22 0 0 0 13-4.1c.4-.2.8-.5.9-1z" class="cls-1"></path>
    <path d="M732 175.8a134 134 0 0 1 12.5 28.5 56.2 56.2 0 0 1-12.5-28.5zm23.5 32.6c-2.7-12.4 1.4-25.5-4-37.5 9.3 10.2 5.5 25.2 4 37.5zm-2.1-45.2a10.6 10.6 0 0 1 14.4-2c-2.3.5-5 .8-7.2 1-2.3.4-5 .9-7.2 1Z" class="cls-1"></path>
    <path d="M767.6 161.5c.9 2.1 1.4 4.4 2 6.7l-2.3.9c.1.2.5.3.6.3.1 0 0 0 0 .1l-.9.6c-4.1 2.6-8.6 5-12.1 8.4 1-4.5 5-7.7 8.8-9.9l3-1.5c.7-.4 2-.4 2.6.4l-2.3 1c0-2.4.1-4.7.6-7Z" class="cls-1"></path>
    <path d="M768.8 168c2 2.2 3.3 4.8 4.5 7.4l-1.9.4c-.5 0-1.2.6-2.2 1.3-2.6 1.7-5.4 3.2-7.5 5.6.2-4.2 4-7 7.3-9 .6-.3 1.3-.6 2.2-.6l-1.2 1.8c-.7-2.2-1.2-4.5-1.2-6.9Z" class="cls-1"></path>
    <path d="M772.3 174c3.8.6 6.7 3.6 8.5 6.9-3.1 1.2-6 2.9-8.4 5.2l-2.1 2.2c0-2.2 1-4.2 2.5-5.8 1.4-1.7 3.2-3 5.3-3.7l-.7 2.1a35 35 0 0 0-5.1-7Z" class="cls-1"></path>
    <path d="M778.3 180c6.5.5 12.6 3.7 17.4 8a40.3 40.3 0 0 1-8.2 2.8c-4 .9-8.2.7-12.3.5-2-.1-4.2-.2-6-1.3 2 .3 4 0 6-.4 5.9-.7 11.7-1.2 17.2-3.4l-.4 2.5a52 52 0 0 0-13.7-8.7Z" class="cls-1"></path>
    <path d="M755.4 181c6-1 12.6 3.1 14.6 9-2.4-1.3-5.1-3.1-7.4-4.5-2.2-1.4-5-3-7.2-4.5zm96.1-164.2a17 17 0 0 1 18.6 9c-2.3 2-4.6 4-6.9 5.8l-1.3 1-.9-1.4c-2.3-3.9-6.7-6-10.8-7.8l-4.5-1.8c4.8.4 10 1.3 14.1 4.3 1.4 1 2.7 2.3 3.7 3.8l-2.2-.3c2-1.8 4-3.4 6-5l-.3 1.8c-3.1-5.5-9.2-9-15.5-9.4z" class="cls-1"></path>
    <path d="M868.5 50.5c-15.4 7.8-32.4-7-28-23.6a18 18 0 0 1 7-9.5 46 46 0 0 1 9.4-6.1c7-3.4 17-3.8 22.2 2.9 5.7 8.3 6 20.1.5 28.4 2.8-6.6 2.9-14 .3-20.6-2.3-5.7-5-9.2-11.7-9.4-7-.3-13 3.7-18.3 8-2.7 2-4.9 4.1-5.8 7.4-4 14.5 10 27.2 24.4 22.5Z" class="cls-1"></path>
    <path d="M875.3 12.2c.4-1.7 2.5-2.6 4.2-2.4 3.8.5 5.6 5.2 4.4 8.5a9.2 9.2 0 0 1-2 3.5c-.1.2-.3.3-.5.3v-.5l.2-1.6c.2-2.9 0-6.4-2.7-7.9a4 4 0 0 0-3.6.1Z" class="cls-1"></path>
    <path d="M872.6 9.7c.5-7.2 11.9-6.2 17-5a17 17 0 0 1 4.5 2.2c2.7 2 3.9 5 6.3 7 1.1.8 2.5 1.5 4 1.3-1.4.9-3.3.6-4.8-.1-2.9-1.3-4.6-4.3-7.1-5.9a16 16 0 0 0-3.8-1.6c-2.7-.8-5.8-1-8.8-1.3-2.9-.2-6 .4-7.3 3.4Z" class="cls-1"></path>
    <path d="M894 7.9c2.5-6 13.7-6.2 18.8-3.8 6.7 3 6 11.9 11 16.2l-.3.1c1.2-1.1 1.2-1.1.4.3v.2a9.3 9.3 0 0 1-4.3-3.3c-2.9-3.5-4-8.6-8.2-10.8a22.1 22.1 0 0 0-8.7-1.6c-3.1 0-6.4.2-8.6 2.7z" class="cls-1"></path>
    <path d="M919.8 14c5.3 1.4 11 .5 15.8-2.1l.5 7.4c.1 1.9.2 3.8 0 5.9-1 8.3-10 15.2-18.2 12.2-3.8-1.3-7-4.5-7.8-8.2 3.3 6.6 12.4 8.8 18 4.1 6.6-5 5.1-12.3 5.3-19.6l1.6 1c-4.9 2-10.6 1.8-15.2-.8z" class="cls-1"></path>
    <path d="M883.5 29.9c11.6 2.8 20.4 2.1 29-6.7-4.5 11.9-19.5 14.1-29 6.7zm-48.6 25.8c-2.4-1-4.5-2.2-6.7-3.7a4 4 0 0 1-1.7-2.3c-.4-2.7 1.3-4.3 2.4-6.3 2.6-4.3 7.5-8.7 13-7.8-2.4 1.2-4 2.7-5.6 4.4-2.1 2.4-4.1 5.7-6 8.5l-.3.6.3.6c1.6 1.8 3.3 3.8 4.6 6Z" class="cls-1"></path>
    <path d="M845.1 44.4c-12.3 8.7-13.5 25-11.7 38.7a61.2 61.2 0 0 0 13 32.3 40 40 0 0 0 31 14.7 36 36 0 0 1-28-7.3c-8.2-6-13.7-15-16.8-24.6-5.3-17.5-6.4-44.2 12.5-53.8z" class="cls-1"></path>
    <path d="M839.8 58.8c7.1.8 14 2.6 20.8 5a78.7 78.7 0 0 0-3.9 20.2c-.5 6.9-.4 13.8-.6 20.8-5.7 1-11.6 0-16.4-3.2-1-.8-2.3-1.5-3-2.7-.2-.4-.2-1 0-1.3-.5 1.7 2.3 2.6 3.4 3.2a23 23 0 0 0 14.6 1.7l-1 1.2a92.9 92.9 0 0 1 4.3-39.6l.7 1.5a202 202 0 0 0-18.9-6.8zm-.2-.6c-.8 8.8-2.3 17.3-4.7 25.9a36 36 0 0 1 4.7-26z" class="cls-1"></path>
    <path d="M842.2 69.5c1.1-1.4 3.2-1.8 5-1.3 4 1.1 5.1 6.5 2.9 9.7-1 1.7-2.7 3-4.5 3.6l.3-2.5c3.3 2 6.1 6.2 5.2 10.3-1.1 5.9-8.4 8.6-12.5 4-.7-.8-1.8-2.5-.7-3.3-.7 1 .6 2 1.3 2.6 3.5 2.7 8.6.5 9.1-3.8.4-3-1.6-5.6-4-7.4l-2.3-1.7c2-.7 4.7-1.3 6-3.2 3-4-1-9.6-5.8-7zm-10.1-5c-5 .2-9.2-4-10.3-8.6a14 14 0 0 1 6.9-5.6l-2.2 3.4-2 3.2.2-1.2a21 21 0 0 0 7.4 8.8Z" class="cls-1"></path>
    <path d="M830.7 70c-4.5.3-13.1-3.2-13.5-8.4 0-3.3 4-4 6.5-4.6-.8 1.6-2.3 3-3.2 4.3h.2c.4.7 1 1.2 1.8 1.8 2.6 2 6 4.5 8.2 7Z" class="cls-1"></path>
    <path d="M819 61.8a30 30 0 0 1-4 4.9l.2-.6V66c1.1 1 2.5 2.4 3.9 3.3 3.5 2.5 7.5 4 11.6 5.4a15 15 0 0 1-14-2.1 16.2 16.2 0 0 1-3.8-4c-.2-.3-.4-.4-.6-1-.4-.5-.5-1.7 0-2.3.4-.7.8-.9 1.1-1a31 31 0 0 1 5.6-2.4Z" class="cls-1"></path>
    <path d="M813.6 66.8a10 10 0 0 0 .4 10.9c.8 1 1.8 1.7 2.8 2.7l1.4 1.3h-.3c-.2-.1-.4 0-.4 0 1.4-.7 2.8-1.6 4.4-2.3 2.7-1.4 5.8-2 8.8-1.7-2.7 1.3-5 2.7-7.2 4.4-2 1.3-5 4.8-7.6 2.8-1.3-1-2.3-2-3.4-3.1-4.4-3.9-4.2-12 1-15Z" class="cls-1"></path>
    <path d="M818.9 83.3c5.4 3.3 10 7.5 13.9 12.5a20.5 20.5 0 0 1-14-12.5z" class="cls-1"></path>
    <path d="M832.8 94.9c-2.1 3.2-1 7.4-4.1 10-1.2 1.1-4 .8-3.9-1.1.6.4 1 .3 1.5.2.4-.2.5-.4.7-.7l.9-2.8c.6-2.3 2.1-5.5 5-5.6Z" class="cls-1"></path>
    <path d="M828.5 101.1c-2.3-3.5-7.8-1.6-6.5 2.5 1 2.5 5.3 6.6 8.2 5.7.8-.3 2.4-1.7 3.2-2.3a23 23 0 0 1 3.6-2.5l-2.6 3.5-1.3 1.7c-3 4.3-8.2 2-11-1-1.8-1.7-3.5-4.4-2.9-7 .5-2.7 3.6-4.7 6.2-4 1.6.6 2.9 2 3.1 3.4Zm40.7-32.6c-.5 2-1 1.8 0 0l.5-1.4-.5 1.4Z" class="cls-1"></path>
    <path d="M869.1 68.5c-1.7 1.1-2.1-.1 0-.1 2 0 1.7-1.1 0 0Z" class="cls-1"></path>
    <path d="M879.6 42.6a16 16 0 0 0-11.6 14c-.2 3.9 1.3 7.6 2.7 11.1l-1.2-1c8 1.7 16.7.8 24.1-2.7l5.6-3c.3-.2.3-.3.1 0-.1.3 0 .3 0 0v-.8a18.3 18.3 0 0 0-19.7-17.6 17 17 0 0 1 7.1-.4c4.6.4 10.2 4 12.8 8.4a21 21 0 0 1 3.3 10.4c0 .4 0 1.1-.4 2-.5.7-1 .9-1.3 1-.5.4-2 1.2-2.4 1.6a37.2 37.2 0 0 1-31 4.3c-1.6-4.3-3-8.9-2.4-13.5 1-7.1 7.1-13.3 14.3-13.8Z" class="cls-1"></path>
    <path d="M901 62.8a91 91 0 0 1 6.6 4.8l-.8.8a32.8 32.8 0 0 1-17 8c-2.9.5-5.5 1.5-8.4 1.5-1.5-.1-2.7-1.5-3.4-2.5a86 86 0 0 1-4-5.8c2.4 1.8 4.5 4.3 6.9 5.9.7.5 2.8-.5 3.6-.7a175 175 0 0 1 9-2.4 38.2 38.2 0 0 0 12.3-5.4l-.1 1.3a84 84 0 0 1-4.8-5.5Z" class="cls-1"></path>
    <path d="M904.2 69.2a10 10 0 0 1 9 5.7l.6 1.3-1.5.3a73 73 0 0 0-15.1 4.8c-7.7 4-9.7 2.6-14.7-4 2.2 1.3 4.3 3.5 6.7 4 2.1.6 4.1-1.4 6.7-2.6a42 42 0 0 1 16.1-4.5l-.9 1.6c-1-3.1-3.7-5.5-7-6.6z" class="cls-1"></path>
    <path d="M891.6 83c2 1.6 3.8 3.7 5.5 5.5l.4.1c.2 0 .8-.1 1.4-.5l2-1a191 191 0 0 0 13-5.9c.1-.1.1-.2.2 0l-.7-1.5-2.7-3.5c1.4.6 2.7 1.5 3.8 2.6 2 1.8 2 3.3-.4 4.9a48.8 48.8 0 0 1-12 6.1l-2.2.7c-.7.2-1.6.7-2.9.4-1-.3-1.7-1.2-2.1-2a63 63 0 0 1-3.3-6Z" class="cls-1"></path>
    <path d="M896.4 89.2c-.8.8-1.5 1.6-2 2.4v-.4c2.7 3.1 6.2 5.3 9.9 7.3l9 5 .2.1.5-.2c6.4-3.6 6-12.4 2.8-18.2-.5-.8-.8-2.1-2-2 1.1-.5 2 .9 2.7 1.6 5.4 6.2 5.6 17.1-2.4 21.4-.9.6-2.5.5-3.3 0l-.7-.5-8.1-5a26.5 26.5 0 0 1-9.4-9.4c.8-.8 1.7-1.5 2.7-2Z" class="cls-1"></path>
    <path d="M894.7 90.5a114.7 114.7 0 0 0-17.6 17.2c-.1.5.3 1.6.7 2.2.6 1.3 1.5 3 2.6 3.6 2 1.3 4.5-.5 6.7-1.2 8-3 16-5.8 24.3-8.1a301 301 0 0 1-23.2 10.8c-2.8 1.1-6.5 3-9.5 1-2-1.4-2.7-3.1-3.6-5-.8-1.4-1.5-3.8 0-5.4a64 64 0 0 1 19.6-15.1Zm-21.6-20c-.4 2.5 0 4.8.9 7 1 2.4 2 5.3 3.6 7.6.9 1 2.2.7 3.6.4 2.1-.5 4.2-1.7 5.8-3.5a8.7 8.7 0 0 1-5 5.8c-3.2 1.4-6.4.8-7.9-2.6-2-4.4-4.2-10.3-1-14.7Zm87.7 19.3A62.6 62.6 0 0 1 915 53.1c-3-6.7-8.4-14.5-16.5-12.6-3.7 1.3-7.8 2.8-11.8 2.3 4.2-.2 7.5-2 11.3-3.8 4.2-1.5 8.9 0 12.2 2.7a30 30 0 0 1 7.4 10 72 72 0 0 0 43.3 38.1z" class="cls-1"></path>
    <path d="M899.8 53.9c6-3.6 15.4-3.2 19 3.6-3.1-1.4-6-2.4-9.2-2.8-3.2-.4-6.5-.2-9.8-.8Zm12 10.2c13.3 7.7 19.7 22.7 28 34.9a61 61 0 0 0 13.3 15c-20-9.7-25.1-35.7-41.3-49.9zm-13.2-25.3a13.4 13.4 0 0 1-14.8-1.5c-1-.7-2.4-2.8-.9-3.5-.5 1.4 2 1.7 2.9 2 4.2 1.5 8.3 2.2 12.8 3Zm44.7 103.1c-1.3 0-2.6-.2-3.8-.5-7.1-1.6-11.2-7.8-15.2-13.8l-2-3.1c-3-4.3-6.6-8.2-10.7-11.5a12.7 12.7 0 0 0-6.6-3.4l.2-3a17 17 0 0 1 8.4 4 62.3 62.3 0 0 1 13.3 15.4c3.6 5.5 7.4 11.1 13.2 12.5 3.2.8 6.4.2 9.9-.4 1.7-.4 3.6-.7 5.5-.8l.2 3a52 52 0 0 0-5.2.7c-2.4.4-4.8.9-7.2.9Zm-21.4-57.1a63 63 0 0 1 15.2 31.7c0 1.7.5 3.3-.1 5-.6 1.6-2.6 2-4 1.1-4.7-2.7-6-7.4-10.3-9.7 4.5 1 7.4 6 11.3 7.6.4.2.7.1.6 0-.8-12.6-7.3-24.2-12.7-35.6ZM875.5 107a56 56 0 0 0-3.6 6.9c-.3.7-.4 1.2 0 2l5.5 8.7 2.7 4.3.3.2 1.2.1 7.8.8c3.8.4 5.6.4 7.7-3l4.2-5.6c-.2-.8-1.4-.8-2.2-.4-1.9.9-2.6 3-4.1 4.4-.4.4-1.3.8-1.9.8a13 13 0 0 1-11.4-10.4c1.3 3.2 3.8 5.9 6.8 7.3 1.3.6 2.6 1 4 1 .3.1.6.2.8 0 1.6-1.6 2.5-4.3 4.8-5.4 2.1-1.2 5.9-.4 6 2.8 0 1.2-1 2.2-1.6 3l-3 4.3c-2.6 4.3-6 4.7-10.4 4l-7.8-.9c-.7-.1-1.6-.1-2.4-.6-.8-.4-1.3-1.4-1.6-2l-1.9-3.5-2.4-4.6c-.7-1.5-1.8-3.3-2.4-4.8-.4-.9-.3-2.2.3-3 1.3-2.3 2.8-4.5 4.6-6.5Z" class="cls-1"></path>
    <path d="M894.6 118.9c-.4-2 0-4.4 2-5.7a4 4 0 0 1 4.9.3c1.3 1.2 1.1 3.2.3 4.5-.4.5-.7 1-1.3 1.5-.2-1.6.1-3.2-1-3.9-2.2-.6-3.3 1.7-4.9 3.3Zm-5.7.3c.8-1.9.5-3 1.3-5 .6-1.9 3.9-4 5.3-1.8-1.5.3-2 1.9-2.6 3-.6 1.6-1.9 4-4 3.8Z" class="cls-1"></path>
    <path d="M905.3 107c.5 3.8 0 7.6-.3 11.3l.4.5c3.1 3.4 5.7 7.4 6.4 12a132.2 132.2 0 0 0-9.6-11.4c-.3-.5-.2-1.5-.1-2 .6-3.6 1.7-7 3.1-10.5Zm-72.2 12.8-1.7-1c2.1-3.5 5.1-6.4 8.7-8.5l1 1.7c-3.3 2-6 4.6-8 7.8z" class="cls-1"></path>
    <path d="M881.8 152.3a86.8 86.8 0 0 1-45.8-13 47 47 0 0 1-12.2-12.2l-.2-.2-.2-.4-.3-.6.4-.5.2-.2c2.3-2.5 5.4-4.8 8.6-6.2l.7-.4.5.7a56.6 56.6 0 0 0 36.5 21.3 57 57 0 0 0 40.1-10.3l1-.8.5 1.3c1.6 4.1 3 8 4.2 11.9l.3 1-14.8 4.8c-4.2 1.3-8.5 2.7-12.9 3.4-2.2.3-4.5.4-6.6.4ZM825.5 126a45 45 0 0 0 11.6 11.6 84.7 84.7 0 0 0 51 12.2c4.3-.6 8.5-2 12.6-3.3l13-4.2c-1.1-3.2-2.2-6.4-3.5-9.7a59.1 59.1 0 0 1-40.5 9.8 58.7 58.7 0 0 1-37.3-21.4c-2.5 1.3-5 3-6.9 5Z" class="cls-1"></path>
    <path d="m902.1 183.3-3-.4c2-12.2 3.5-24.6 4.7-36.8l3 .2a574.7 574.7 0 0 1-4.7 37Zm-26.1 7.5a298 298 0 0 1-10.2-31.6c-.8-3-1.5-6-1.4-9h3c0 2.7.5 5.3 1.3 8.2 2.8 10.6 6.2 21.1 10.1 31.3l-2.8 1.1Z" class="cls-1"></path>
    <path d="M879.2 205.5a33 33 0 0 1-4.5-17.4c4 1.5 8.2 2 12.2 1.1 6.8-1.3 12.3-6 16.5-11.3 3.1 6.4 3 13.7 1.3 20.4-.5 2-1.1 4-1.8 5.9.5-4 1-8 1-12a27 27 0 0 0-2.2-11.2l2.4.3c-6.4 8.7-18.4 14-28.6 9.4l1.5-1c-.4 5.4.4 10.7 2.2 15.8zm-77.1-58.4-2.5-1.7a77.8 77.8 0 0 1 24.4-19.8l1.5 2.6c-8.2 5-17.6 10.7-23.4 19zm19.6 13.5-.6-3c5-1 9-2 13.1-3.3 8-2.4 13.9-5.2 18.4-9l1.9 2.4c-4.8 4-11 7-19.4 9.5-4.2 1.2-8.4 2.2-13.4 3.4zm-.4 1.4c3.6-1.8 8.2-.6 11.7 1.2 10.8 5.5 17.3 15.9 26.3 23.6a42 42 0 0 1-10-6.5c-7.5-6-17.7-19.6-28-18.2zm-21 12.6c14.3 10.6 33.5 9.7 48.3 19.4-16.2-5.8-36.4-5.3-48.3-19.4z" class="cls-1"></path>
    <path d="M848.4 194.7a21 21 0 0 1 15.2-9.3c2.1-.2 6-.8 6.1 2.3 0 8.4-3 16.9-8.7 22.9a53.4 53.4 0 0 0 5.7-22.7c0-.2 0 0 .2.2l.2.1h-.5c-6.7-.3-13 2.1-18.2 6.5Z" class="cls-1"></path>
    <path d="M849 194.3a10 10 0 0 1 2.8 12c-2.1-3.7-3-7.7-2.9-12zm32.3-16.3a1 1 0 0 1-1-.7c-1.9-6.4-3.7-13-5.4-19.4a1 1 0 0 1 .7-1.3 1 1 0 0 1 1.2.8 571 571 0 0 0 5.5 19.4 1 1 0 0 1-1 1.3Zm-50.8 3.5h-.2c-5.1-1-10.1-2.6-15-4.7a1 1 0 1 1 .9-1.9 72 72 0 0 0 14.5 4.6 1 1 0 0 1-.2 2Zm-17.9-35.8a1 1 0 0 1-.6-1.8l10.5-7.3a1 1 0 0 1 1.4.2c.3.4.2 1-.3 1.4l-10.4 7.4a1 1 0 0 1-.6.1Zm-78.7 3.3a1 1 0 0 1-1-.9c-1-4.5-1.8-9-2.4-13.6 0-.5.3-1 .9-1.1.5 0 1 .3 1 .8l2.4 13.5c.1.6-.2 1-.7 1.2h-.3Zm-88.3 23.5a1 1 0 0 1-1-.9c-.2-3.2-.5-6.8.6-10l.7-2c.5-1.3 1-2.6 1-3.9 0-.5.4-1 1-1 .5 0 1 .3 1 .9a11 11 0 0 1-1.2 4.8l-.6 1.7c-1 3-.7 6.2-.5 9.3 0 .6-.4 1-1 1.1Zm-2.2 12.4c2.9-1.4 5.7-3 9-2.7-1.2 3.3-6.1 5.4-9 2.7zm-54-20.3a17.4 17.4 0 0 1-8.6-5.6 1 1 0 1 1 1.6-1.2c1.9 2.3 4.5 4 7.3 4.9.5.1.8.7.7 1.2a1 1 0 0 1-1 .7Zm149.6 1.6c-2 0-4-.4-5.8-1.3a1 1 0 0 1-.5-1.3 1 1 0 0 1 1.4-.5c2.8 1.4 6.3 1.5 9.2.3a1 1 0 1 1 .8 1.8c-1.6.7-3.3 1-5 1Zm67.9-7.2a1 1 0 0 1-.6-.1 31 31 0 0 0-7.5-4.1c-.6-.2-.8-.8-.6-1.3s.7-.8 1.3-.6a33 33 0 0 1 8 4.4 1 1 0 0 1-.6 1.8Zm-12-27.2a1 1 0 0 1-.2-2c3.4-.5 6.5-2.1 9-4.5.3-.4 1-.4 1.3 0s.4 1 0 1.4a18.5 18.5 0 0 1-10 5h-.1ZM775.4 24.6c8.8-4.4 20.8 5 18.6 14.6a20.9 20.9 0 0 0-18.6-14.6zM812.6 43c-.1-4.4 2-8.9 5.7-11.8 1.3-1.3 4-2 4.9-3.4.3-.5.5-1.4.8-2.5a31 31 0 0 1 7.7-14.8c3-3.2 7.3-5.6 11.8-5.7-4.2 1.4-7.5 4-10 7.3-3.3 4-5.3 8.9-6.7 13.9-.2 1-.4 2.2-1.3 3.5-1 1.2-2.2 1.7-3.2 2.2-4.8 2-8.2 6-9.7 11.3ZM230 161.2c-.2 0-.4 0-.5-.2a.7.7 0 0 1 0-1l13.5-14a22193 22193 0 0 1 70.2-72.4c.3-.3.8-.3 1 0s.4.8 0 1L244 147l-13.5 14-.5.2Zm88.4-91c-.2 0-.4 0-.6-.2a.7.7 0 0 1 0-1c16.2-16.5 16.3-16.5 16.8-16.6.4 0 .7.3.8.7a607.9 607.9 0 0 0-17 17ZM249.2 147a.8.8 0 0 1-.6-1.2L318 73.5c.3-.3.8-.3 1 0 .4.3.4.7 0 1l-69.2 72.3c-.1.2-.3.2-.5.2ZM321 72a.8.8 0 0 1-.5-1.2l15.7-16.4c.3-.3.8-.3 1 0 .4.3.4.7.1 1l-15.7 16.4c-.2.2-.3.2-.5.2Zm-88.3 92.3a.8.8 0 0 1-.6-1.3l13.4-14 1.1 1-13.4 14-.6.3ZM250 151a.8.8 0 0 1-.6-1.2l89.8-94c.3-.4.8-.4 1 0s.4.7.1 1l-89.8 94c-.2.2-.4.2-.6.2Zm73-71.7h-.3a.8.8 0 0 1-.5-1.4l18.1-19a1 1 0 0 1 1.1 0c.3.3.3.8 0 1.1L323 79.3Zm-73 76.3-.4-.2a.8.8 0 0 1-.2-1c.1-.2.5-.8 68.4-71.8.3-.3.7-.3 1 0 .3.3.3.7 0 1a11892.2 11892.2 0 0 0-68.8 72Zm70.3-65.9a1 1 0 0 1-.8-1.6l3.2-3.9a1 1 0 0 1 1.4 0c.4.3.5.9.1 1.3a505 505 0 0 1-3.2 3.9 1 1 0 0 1-.7.3Zm-4.7 4.5c1.2 1.7.6 2.4-1.2 1.5-1.2-1.6-.6-2.4 1.2-1.5Zm-72.1 117.4c-2.8 0-6-.9-9.6-2.7l-2.8-1.4 2.8-1.3a77 77 0 0 0 28.1-21.5c10.2-12.7 13.8-26 16.5-35.8a125 125 0 0 0 3.3-16.4v-.4l.3-.3 13-15.3 14.7-17.7 2.3 2-14.5 17.2-12.9 15.4c-.7 5.4-1.8 10.9-3.3 16.2a95.2 95.2 0 0 1-17 37 79.3 79.3 0 0 1-26.3 20.9c3.5 1.3 6.4 1.5 8.7.5a9 9 0 0 0 3.2-2.5l3.2-3c3.4-3 6.3-4.7 8.2-5.8l1.2-.7c11.4-7.3 17.3-32.9 20.5-46.6 1.1-4.7 2-9.5 2.9-14.1v-.4l.3-.3 8.4-10.5.3-.4 19-23.7 2.4 1.9-19 23.5-.2.3-8.5 10.6a237 237 0 0 1-2.7 13.9c-3.6 15-9.5 40.4-21.9 48.4l-1.3.8a49.4 49.4 0 0 0-10.8 8.4 12.2 12.2 0 0 1-4 3c-1.4.6-3 .9-4.6.9ZM325 89.7a1 1 0 0 1-.8-1.6l1-1.2 2.1-2.6a1 1 0 1 1 1.6 1.2l-2.1 2.6-1 1.2a1 1 0 0 1-.7.4Zm7.9-9.7a1 1 0 0 1-.8-1.6l21.5-26.8a1 1 0 1 1 1.6 1.3l-21.5 26.7a1 1 0 0 1-.8.4ZM188 169.3l-2.5-1.5a104 104 0 0 1 69-50.7h.4c3.3-.8 6.6-1.4 10.2-1.8l32.7-32.9 11.3-11.2 2 2L300 84.6l-33.2 33.3-.4.4h-.5c-3.6.4-7 1-10.5 1.8h-.1a101.2 101.2 0 0 0-29.4 11.2l-1.4.9a99.4 99.4 0 0 0-36.4 37.2Z" class="cls-1"></path>
    <path d="M329.2 79.6c-.4 0-.7-.1-1-.3-.6-.6-.7-1.5-.2-2.2l26.5-31.5-8.2-7.6-13 13.1-11.6 11.6-.2.2-3.8 3.8c-.6.6-1.5.6-2.1 0s-.6-1.5 0-2.1l3.8-3.8.2-.2L331 49l15.2-15 12.5 11.5L330.3 79c-.3.3-.7.5-1.1.5Zm1.8-40.9c.9 2.3 2.3 8-1.8 7.6-4.6-1-7.2-8.8-4.3-12.5 3.1-2.7 5.4 2.6 6.2 4.9zm0 0c-.4-1.6-2.5-5-4.4-4.2-1.4 1.6 1.4 9.8 3.5 10.3 2-.7 1.5-4.5 1-6zm-7 5.5c.9 2.3 2.3 8-1.8 7.6-4.6-1.1-7.2-8.8-4.3-12.5 3.1-2.8 5.4 2.5 6.2 4.9zm0 0c-.4-1.6-2.5-5-4.4-4.2-1.4 1.6 1.4 9.8 3.5 10.2 2-.6 1.5-4.5 1-6z" class="cls-1"></path>
    <path d="M318.4 50.1c.8 2.3 2.2 8-1.9 7.6-4.6-1.1-7.2-8.8-4.3-12.5 3.1-2.8 5.4 2.6 6.2 4.9zm0 0c-.5-1.6-2.6-5-4.5-4.2-1.4 1.6 1.4 9.8 3.5 10.3 2-.7 1.5-4.6 1-6.1zm12-4.6c2.2.4 3.2 2.7 1.8 4.6-2.3-.5-3.2-2.8-1.8-4.6Zm-7 5.5c2.3.7 3.2 3.2 1.8 5.2a3.3 3.3 0 0 1-1.8-5.2Z" class="cls-1"></path>
    <path d="M318.3 56.8c2.4.4 3.5 2.8 2.3 4.9-2.4-.4-3.5-2.8-2.3-4.9Zm15.3-7.8c5.1 1.7 9.4 5.4 11.8 10.2A20.5 20.5 0 0 1 333.6 49zm20.8 4.2h-.3a1 1 0 0 1-.7-1.3l2.2-6.7a1 1 0 1 1 2 .6l-2.3 6.7a1 1 0 0 1-1 .7Zm-122.2 94.2c3.2-5 11.8-4.4 14.5 1-5-1.5-9.4-1.9-14.5-1Zm84.2-57.7a1 1 0 0 1-.7-1.7l3.7-4a1 1 0 1 1 1.5 1.2l-3.7 4.2a1 1 0 0 1-.8.3Zm-199.1-17c-1.6 1.3-2.9.6-2.5-1.4 1.6-1.4 2.9-.7 2.5 1.4Zm61 43.3c-.6.3-1.9 1.1-1.2.4.3-.4 1.8-1.5 2.3-1.5-.2.4-.5.6-1.1 1.1Zm-42.6-31.8h-.2l-.3-.1-12.3-7 1-1.8 12.3 7-.5 1v1Zm39 28.6v-.2h-.1l-3.5-4.7-1.4-2-.4-.4-.6-1-1.7-2.3-2.3-1.3-20.5-11.7 1-1.7 20.5 11.7 2.6 1.5.2.2 1.8 2.5 2.5 3.3 3.4 4.7.2.3v.3h-1l-.7.8ZM99.4 63.5a1 1 0 0 1-.5-.2l-6.4-3.6-2.2-1.3a1 1 0 0 1-.3-1.3 1 1 0 0 1 1.3-.4l2.2 1.2 6.4 3.7c.5.3.7 1 .4 1.4a1 1 0 0 1-.9.5Zm52.3 13.9h-.3l-2.6-1-1.8-.6-4.3-1.4-14.9-5.2-.5-.1-4.4-1.5a1 1 0 0 1 .6-2l4.5 1.6.5.2a2362.6 2362.6 0 0 0 19.1 6.5l1.9.6 2.6 1c.5 0 .8.7.6 1.2a1 1 0 0 1-1 .7Zm23.7 7.9-.5-.1-5-1.7.6-1.9 5 1.6 16-4.7.6 1.9-16.7 5ZM103 60.5a1 1 0 0 1-.4 0l-3.5-1.3-6.3-2.3a1 1 0 1 1 .7-1.8l6.2 2.2 3.6 1.3c.5.1.8.7.6 1.2a1 1 0 0 1-1 .7Z" class="cls-1"></path>
    <path d="M181 119c-1 0-2-.2-2.8-.6-5.7-2.6-6.3-13.4-1.2-24.5 5-11.2 13.5-17.9 19.3-15.2 5.8 2.6 6.3 13.4 1.3 24.5a35.4 35.4 0 0 1-9 12.5 12.4 12.4 0 0 1-7.6 3.3Zm12.6-38c-3.8 0-9.9 5.2-13.9 14.1-4.6 10.1-3.8 19-.2 20.6 1.8.8 4.4 0 7.2-2.3 3-2.6 6-6.7 8.1-11.4 4.6-10.1 3.8-19 .2-20.6-.4-.2-.9-.3-1.4-.3Z" class="cls-1"></path>
    <path d="M177.1 115.8c9.5-3.5 17.2-21.4 17-31 0-1.8-.3-3.5-1.2-5.2a9 9 0 0 1 2.6 5 31.4 31.4 0 0 1-8.6 26c-2.6 2.6-6 5.2-9.8 5.2zm-5.6-10.4h-2c.2-4.2 1.4-8.7 3.4-13 1.8-4 4-7.5 6.7-10.3l1.4 1.4c-2.4 2.6-4.6 6-6.3 9.7a35 35 0 0 0-3.2 12.2Zm-41.8-31.5a1.9 1.9 0 1 1 0-3.8 1.9 1.9 0 0 1 0 3.8Zm0-2h-.1c0 .2.2.2.2 0h-.1Zm6.7 5.4a1.9 1.9 0 1 1 0-3.8 1.9 1.9 0 0 1 0 3.8Zm0-2-.1.1c0 .1.2.1.2 0h-.1Zm7.6 5.1a1.9 1.9 0 1 1 0-3.8 1.9 1.9 0 0 1 0 3.8Zm0-2h-.1c0 .2.2.2.2 0h-.1Zm110.3 77.9c-.2 0-.4 0-.5-.2a.8.8 0 0 1 0-1l58.1-61.7c.3-.3.8-.3 1 0 .4.3.4.8.1 1l-58.1 61.7-.6.2Zm567.7 3.3.1 2.7c-.3.2-.7.3-1 .6l-5.5 4.2c-4.4 3.7-8.9 8-14.6 9.4-.4.1-1 .3-1.7 0l-1.1-.5c-2-1-4-2.2-5.2-4.3-1-2.2-2.4-4-3.4-6.2-1.5-2.5-1.3-6-.5-8.8 1.4-5.7 6-10.9 12.1-11.6s.3 0 .3 0c2.2.7 4 1.9 5.9 3a77.8 77.8 0 0 1 14.6 11.5Zm0 0c-6-4.4-14.8-9.8-20.7-12-5.6 1-9.8 7.2-9.9 13.4.1 3 2.4 5.7 3.7 8.5.4.8.4 1 .8 1.4 1 1.2 2.8 2.4 4.2 3.1h.3l.8-.2c6.5-1.8 11.2-6.7 17-9.9l2.7-1.5 1-.4-.2.2c0-.9.1-1.7.3-2.6Z" class="cls-1"></path>
  </g>
</svg>