<svg class="quest-illustration" xmlns="http://www.w3.org/2000/svg" id="Warstwa_3" version="1.1" viewBox="0 0 940 200">
  <defs id="defs7">
    <clipPath id="clippath">
      <path id="path2" fill="none" d="M0 0h940v200H0z"></path>
    </clipPath>
    <style id="style5">
      .cls-1{fill:#eed699}
    </style>
  </defs>
  <g id="g5804">
    <path id="path125-2" fill="#eed699" d="M39.2 180.5c-.2-.7-.5-1.5-.9-2.1l.6-.8c1.8.8 3.7 1.6 5.6 2.2.6-2.6-2.1-4.5-4.5-4.4.7-1.8.9-3.8.5-5.7l-.7-3.7a53.2 53.2 0 0 0-5 8.7l-.2-.2a21 21 0 0 0-5.3-12.7l-1.9-2.2-.6 2.7c-1 4 1.3 7.1 2 10.7-5.9.2-9.1 7.7-8.1 13 1.2-4.2 4.2-10.6 9-10 1.7.2 3.2.7 4.5 1.6l.2.5v-.4a10 10 0 0 1 2.2 2v.3-.2c.6.7 1 1.4 1.4 2.1l-.2.4h.4l.4 1.4c-1 0-2.2 0-3.1.2l-6 .8c-2.1.4-7 1-9 1.5l-1.6.3c-.5.1-1.3.1-1.4.7.3-.3 1 0 1.4.1 6.6 1.7 13.7.4 20-2.2l.2.8.2-.9c.8-.2 1.5-.2 2.3.3a2 2 0 0 0-1.2-1.2l-.9-.3v-1c2.1.1 4.1-.8 5.3-2.7-1.8-1-4-.8-5.6.4zm-9.2-7.4h-.2c.3-1.9 0-4-.3-5.9 1.3 2 2.3 4.2 3.2 6.5-.8-.4-1.8-.6-2.7-.6zm6 2.4 1.7-1.6-.4 3-1.4-1.4z" class="cls-1" clip-path="url(#clipPath2457)"></path>
    <path id="path11" d="M288.2-4.2c13 9 19.3 24.4 25 38.4a133 133 0 0 1 10 45 228.3 228.3 0 0 0-12.8-43.9c-5.6-14-11-28.8-22.2-39.5Z" class="cls-1" clip-path="url(#clipPath6371)"></path>
    <path id="path13" d="M147 159.5C141.5 110 139.8 57 162.2 11.1c3.3-6.4 6.9-12.7 11-18.5-30 50.1-28.2 110.5-26 166.9z" class="cls-1" clip-path="url(#clipPath6361)"></path>
    <path id="path15" d="M129.4 145.5c-4.2-48 .3-98.8 24.5-141.4 3.5-6 7.2-11.9 11.5-17.3-30.5 46.8-36.6 104-36 158.7z" class="cls-1" clip-path="url(#clipPath6351)"></path>
    <path id="path17" d="M129.8 147c1.6-1.3 1.8-1 .6.5-1.6 1.2-1.8 1-.6-.6z" class="cls-1" clip-path="url(#clipPath6341)"></path>
    <path id="path19" d="M228 56.6a57.4 57.4 0 0 0 8 18.4 14.7 14.7 0 0 1-8-18.4z" class="cls-1" clip-path="url(#clipPath6331)"></path>
    <path id="path21" d="M242 81.9c-4-8 4.7-18.1 13.2-15.3-1.9.6-3.6 1.3-5.1 2.2a17.2 17.2 0 0 0-8.1 13z" class="cls-1" clip-path="url(#clipPath6321)"></path>
    <path id="path23" d="M252.5 73a18 18 0 0 0 6.4 16.1c-7.4 0-11.8-11-6.4-16z" class="cls-1" clip-path="url(#clipPath6311)"></path>
    <path id="path25" d="M239 79.3c.3 9.8 11 10.5 18 13.6 2.8 1.2 5.3 3.2 7.1 5.5a20.2 20.2 0 0 1-6.6 30.2 23 23 0 0 0 8-13.7c1.3-7.8-2.5-16-9.7-19.4-4.8-2.5-11-3.5-14.7-8a9.8 9.8 0 0 1-2.1-8.2z" class="cls-1" clip-path="url(#clipPath6301)"></path>
    <path id="path27" d="M236.3 123.6c-2.7-1.2-3.2-5-2.5-7.6 1.3-4.2 4.3-6.4 5.7-10 1.3-3.5 1-7.1-.7-10.6 3.3 2.4 4.6 7.4 3.4 11.4-1.5 6-10 10.4-5.9 16.8z" class="cls-1" clip-path="url(#clipPath6291)"></path>
    <path id="path29" d="M240.7 98.7c5.6 2.2 8.2 10.3 4.7 15.3a63 63 0 0 0-4.7-15.3z" class="cls-1" clip-path="url(#clipPath6281)"></path>
    <path id="path31" d="M246.7 122.7c-1-1.2-.7-3.1 0-4.4 1.4-2.5 4.1-3.6 6.3-5 1-.7 1.9-1.3 2.5-2.6.7 1.4 0 3.1-.9 4.2-2.3 3.3-6.8 3.7-7.9 7.8z" class="cls-1" clip-path="url(#clipPath6271)"></path>
    <path id="path33" d="M255.2 112.2c2.6 2.5 3 6.8 1.7 10.2-.7 1.7-1.7 3-2.3 4.2-.6 1.4-1 2.8-.4 4.4-.9-.4-1.4-1.3-1.7-2.2-.9-2.5.8-5.6 1.6-7.6 1.2-2.8 1.4-5.8 1.1-9z" class="cls-1" clip-path="url(#clipPath6261)"></path>
    <path id="path35" d="M214 61.8c1 4.7 4.9 7.3 8.5 10 3.7 2.9 7.5 5.8 10.2 10a23 23 0 0 1-2 27.1c3.2-6.1 4-13 2-19.5a24.4 24.4 0 0 0-6.7-11c-4.4-4.9-12.3-9.1-12-16.6z" class="cls-1" clip-path="url(#clipPath6251)"></path>
    <path id="path37" d="M208.7 111.5c8-12.4 14.5-27 9.4-42 9.4 13.5 2.3 32.3-9.4 42z" class="cls-1" clip-path="url(#clipPath6241)"></path>
    <path id="path39" d="M227.6 97.1c.8 4.8-1.7 9.5-3 13.8-1.3 4.1-2 8.9 1.2 12.4-5.1-1.8-5.7-8.8-4.1-13.3 1.5-4.7 4.3-8.2 5.9-12.9z" class="cls-1" clip-path="url(#clipPath6231)"></path>
    <path id="path41" d="M206.3 128.2c-6.3-2.3-8.6-11.8-4-16.8a32 32 0 0 0 4 16.8z" class="cls-1" clip-path="url(#clipPath6221)"></path>
    <path id="path43" d="M205.8 104.7a6 6 0 0 1 4.1-6.8 6 6 0 0 1-4.1 6.8z" class="cls-1" clip-path="url(#clipPath6211)"></path>
    <path id="path45" d="M218.2 69.6c-.1 9.5-4.2 19-10.9 25.9-4.2 4.4-9.4 7.9-12.7 13a19.4 19.4 0 0 0 4 24.3 19.5 19.5 0 0 1-6.4-25.7c3.3-5.6 8.7-9.3 13.1-13.6a46.3 46.3 0 0 0 12.9-23.9z" class="cls-1" clip-path="url(#clipPath6201)"></path>
    <path id="path47" d="M195 97.7c-5-1.7-4.2-8.6-1.1-11.9 3-3.4 6.7-4.9 10.2-7.5a15 15 0 0 1-3.8 5.2c-3.9 3.7-9.4 8.8-5.2 14.2z" class="cls-1" clip-path="url(#clipPath6191)"></path>
    <path id="path49" d="M204.6 85c1.1 2.3 1.6 3.7 2.1 6.2-3.5 1-5.4-4.8-2.1-6.2z" class="cls-1" clip-path="url(#clipPath6181)"></path>
    <path id="path51" d="M385.8 62.8c.9 1 1.5 1.2 2.3 1.8.8.7 1 1.3 2.1 2-.9 1.5-3 1.3-4 .3-1.2-1-1.7-3-.4-4z" class="cls-1" clip-path="url(#clipPath6171)"></path>
    <path id="path53" d="M400.5 71.3a4.8 4.8 0 0 0 3.9 1.6c1.4-.2 2.5-.9 3.4-2.4 1.5 2.2-.6 5.2-3.1 5.4-2.6.3-5.2-2.2-4.2-4.6z" class="cls-1" clip-path="url(#clipPath6161)"></path>
    <path id="path55" d="M401.8 70.5c1.2-2 3.8-1.7 5.7-2 .5 0 1 0 1.7-.7 1.3 1.9-1.3 4-3 3.9-1.9 0-2.7-.7-4.4-1.2z" class="cls-1" clip-path="url(#clipPath6151)"></path>
    <path id="path57" d="M386.1 73c3.2.8 4.4 4.5 6.3 6.7.3.4 1 1 1.4 1 .4 0 1-.7 1.4-1a19 19 0 0 0 4.2-7.7c.6 2.1.4 4.4-.4 6.5-1.6 4.2-5.3 7.7-8.8 3-2-2.7-1.9-6-4-8.5z" class="cls-1" clip-path="url(#clipPath6141)"></path>
    <path id="path59" d="M370.5 67.8c3.6 3.5 8.2.6 12.5 2.1 1.6.5 3.3 1.7 3.6 3.4-1.4-1-2.7-1-4-1-3-.1-6.1.9-9.1-.5-1.5-.7-3-2.2-3-4z" class="cls-1" clip-path="url(#clipPath6131)"></path>
    <path id="path61" d="M370.9 68.2c1.7 8 10.4 15 17.5 18.4 2.6 1.2 5.4 2.1 8.4 2.9-9.4 1.4-19.2-4-23.9-12.2-1.5-2.7-2.8-6-2-9z" class="cls-1" clip-path="url(#clipPath6121)"></path>
    <path id="path63" d="M397.3 80.2c3.2 1.7 4.2 6 2.9 9.3-.4 1-1.1 2-2.2 2.8V89c-.1-3-.4-5.8-.6-8.8z" class="cls-1" clip-path="url(#clipPath6111)"></path>
    <path id="path65" d="M373.7 76.7c2 .9 3.4.3 5.4.6 2.1.3 4 .8 5.8 2.1-3 1.6-10.7 1.7-11.2-2.7z" class="cls-1" clip-path="url(#clipPath6101)"></path>
    <path id="path67" d="M392.6 88.2c.2-.7.1-1.1-.2-1.4.3.3.7.3 1.5 0 1 .1 1.4 1.3.7 2-.6.7-1.8.5-2-.6z" class="cls-1" clip-path="url(#clipPath6091)"></path>
    <path id="path69" d="M369.8 38.4c3.6 2.2 4.2 8 1 11a30 30 0 0 1-1-11z" class="cls-1" clip-path="url(#clipPath6081)"></path>
    <path id="path71" d="M360.8 44.5c1.5-16 15.6-30.4 32.4-25.2 4.5 1.4 7.7 5.2 11.1 8 3 2.7 7.9 4.5 11.4 1.7-1.8 2.7-5.6 3.2-8.6 2.4-3.2-.7-5.7-2.8-8-4.5-6.4-5.6-15.4-6-22.7-2a37 37 0 0 0-15.6 19.6z" class="cls-1" clip-path="url(#clipPath6071)"></path>
    <path id="path73" d="M386 37.3c-1.4-2.5 2-4.7 4.2-4.7s3.5.8 5.8.7c-.9 2.1-3.9 2.3-5.7 2.3l-2.3.3c-.7.2-1.4.3-2 1.4z" class="cls-1" clip-path="url(#clipPath6061)"></path>
    <path id="path75" d="M402.3 34.4a15.9 15.9 0 0 0 14.8-5.2c0 7.1-10.3 10.7-14.8 5.2z" class="cls-1" clip-path="url(#clipPath6051)"></path>
    <path id="path77" d="M372 48.4c4.4-.9 8.5-2 12.5-4 3-1.4 5.6-4 9.1-4.6a5 5 0 0 1 3.5.7c-3.6-.2-5.6 2.7-8.3 4.7a19 19 0 0 1-16.8 3.2z" class="cls-1" clip-path="url(#clipPath6041)"></path>
    <path id="path79" d="M390.1 43a15 15 0 0 1 12.2 1.5c3.6 2.2 6.3 6.8 5 11C405 47.7 397.3 45 390 43z" class="cls-1" clip-path="url(#clipPath6031)"></path>
    <path id="path81" d="M410 35.7c7.7-.6 9.4 6.8 18.4 3-1.7 3.4-6.6 4.6-10 3-3.4-2-5.1-4-8.4-6z" class="cls-1" clip-path="url(#clipPath6021)"></path>
    <path id="path83" d="M407.7 54.3c.8 2.6 3.5 3.8 6 3.3 5-1 8.6-5.5 11-10 1.2-2.4 2.2-5 3.3-7.6.2 5.8-1.5 11.9-5.8 16.1a12.6 12.6 0 0 1-8.3 3.8c-3.1.2-6.7-2.4-6.2-5.6z" class="cls-1" clip-path="url(#clipPath6011)"></path>
    <path id="path85" d="M411.8 45c4.4 1.4 7.6 3.7 12.2 4-3.7 4.2-10.7.8-12.2-4z" class="cls-1" clip-path="url(#clipPath6001)"></path>
    <path id="path87" d="M413 59.3a8.7 8.7 0 0 1-4 10.6c.2-4 1.5-7.5 4-10.6z" class="cls-1" clip-path="url(#clipPath5991)"></path>
    <path id="path89" d="M364.6 61c-1.6 9.2 6.3 27 15.6 30 3.6 1 8 .7 11.1-2.3a9 9 0 0 1-5 4c-6.6 2.5-13.7-1.7-17.2-7.3-4.6-7-8-16.3-4.5-24.5z" class="cls-1" clip-path="url(#clipPath5981)"></path>
    <path id="path91" d="M370.7 44.7c-1.5-2.2-4.4-2.5-6.6-1.3-2 1.1-3.5 3.3-4.7 5.5a8.7 8.7 0 0 0-.4 6.8 11 11 0 0 0 4.8 5.9 9 9 0 0 1-7-5 10 10 0 0 1 0-9c1.7-3.4 4.7-6.8 8.8-6.7 2.3 0 4.8 1.5 5.1 3.8z" class="cls-1" clip-path="url(#clipPath5971)"></path>
    <path id="path93" d="M364.4 54.6c-1.7 0-2.5-2-2-3.3.4-1.3 2.2-2.5 3.5-1.5-.6 1-.4 1.6-.6 2.5-.3.8-.8 1.1-1 2.3z" class="cls-1" clip-path="url(#clipPath5961)"></path>
    <path id="path95" d="M355 54c-3 .8-5 2.8-7.1 4.8l-6.3 6.3c-4.3 4.2-8.7 8.2-13.2 12-4.4 4-8.8 7.8-12 12.4-1.6 2.8-5 8.4 0 9.5 1.4.5 3.5.9 3.6 2.6-.6-1.5-2.4-1.3-3.8-1.5-6.8-.3-4.6-8.2-2.4-12.1a49 49 0 0 1 12-13.8c4.5-4 9-7.8 13.7-11.4 4.7-3.4 9.4-8.6 15.5-8.9z" class="cls-1" clip-path="url(#clipPath5951)"></path>
    <path id="path97" d="m313.8 98.5 1.5 12.4c.4 3 .5 5.8 2.7 7.8.4.3 1 .6 1.3 1 .4.4.8 1 .6 1.6-.2-.5-.6-.7-1-.9-8.4-1.4-7.7-16-5.1-22z" class="cls-1" clip-path="url(#clipPath5941)"></path>
    <path id="path99" d="M315.5 117.4c2.7 2.4.4 6.8 2 9.4.3.6 1.3.8 2 1l.8.7c-.7 0-1.1.3-1.8.5-2.5.8-4.6-2-4.6-4.3-.1-3 1.3-4.5 1.6-7.3z" class="cls-1" clip-path="url(#clipPath5931)"></path>
    <path id="path101" d="M356.6 133.3c-1.2 0-2.3.3-3.4.6l-10 3a124 124 0 0 0-15.7 6.9c-1.1.5-2 1.3-3.4 1.6-2.8.6-5.3-2-7.2-3.7-3.2-3.5-3-6.8-.5-10.5.6-1 1-2.2.7-3.4 1.3 2.2-.5 4.8-.8 7-.6 3.4 2.9 6 5.6 7.5 1 .7 1.6.4 2.7-.2a68 68 0 0 1 25-8.7c2.2-.1 4.7-.8 7 0z" class="cls-1" clip-path="url(#clipPath5921)"></path>
    <path id="path103" d="M338.6 125.1c4.7 1.4 9 .2 13.6.2 1.7 0 3.4.3 5 1l-4.7 1.4c-4.5 1.2-10.9 1.9-13.9-2.6z" class="cls-1" clip-path="url(#clipPath5911)"></path>
    <path id="path105" d="M359.5 132.8a27.3 27.3 0 0 1-3.2-7.5c3.7-.4 6 5 3.2 7.5z" class="cls-1" clip-path="url(#clipPath5901)"></path>
    <path id="path107" d="M339.6 65.5c6.3 1.8 9.6 8.5 12.3 14a78 78 0 0 1 9 27.1c.2 3.4.6 7.3-1.8 10-3.7 4.2-9.3 4-14 2.6-1.5-.5-3.5-.6-4.3-2.1.5.7 1.3.9 2 1l2.4.3c3 .3 6.1.5 8.8-.8 5-2 4.6-6.1 4-10.7a78 78 0 0 0-4.7-17.8l-3.5-8.7c-2.4-5.7-4.5-11.9-10.3-15z" class="cls-1" clip-path="url(#clipPath5891)"></path>
    <path id="path109" d="M355.9 117.3c4.2.7 5.2 7.5 1.3 9.3l-.3-2.5-1-6.8z" class="cls-1" clip-path="url(#clipPath5881)"></path>
    <path id="path111" d="M359.4 116.3a55.7 55.7 0 0 0-14.5-56.1 43.4 43.4 0 0 1 14.5 56.1z" class="cls-1" clip-path="url(#clipPath5871)"></path>
    <path id="path113" d="M297 202.6c-7.4-34.3.7-62.7 16.6-93.1-4.4 15.3-10 30.2-13.2 45.8a210.8 210.8 0 0 0-3.4 47.3z" class="cls-1" clip-path="url(#clipPath5861)"></path>
    <path id="path115" d="M304.3 137.6a29.9 29.9 0 0 0 13.5 16c-6.8-2.6-12.8-8-16.3-14.8l2.8-1.2z" class="cls-1" clip-path="url(#clipPath5851)"></path>
    <path id="path117" d="M301.5 146.9c3.5 8 8.6 15.2 15.1 21.3a66 66 0 0 1-17.8-20z" class="cls-1" clip-path="url(#clipPath5841)"></path>
    <path id="path119" d="M318 211a345.2 345.2 0 0 1-2.5-34c-.1-5.7-.3-11.4.2-17.2.8-5.8 2.6-11.4 5.5-16.3-1.8 5.4-2.9 11-3.1 16.5-.1 5.5.3 11.3.4 16.9.3 11.2.4 22.9-.4 34z" class="cls-1" clip-path="url(#clipPath5831)"></path>
    <path id="path121" d="M382.8 53.4c1 6.3 4.5 3.4 7.4 7.4 1.3 1.9 1.7 3.7 2.6 5 .8 1.5 2.2 2.6 4 2-1.3 2-4.5 1.1-5.9-.5-1.5-1.6-2.2-3.5-3.1-4.7-1.1-1.7-2.6-1.6-4.2-3-1.8-1.7-1.8-4.2-.9-6.2z" class="cls-1" clip-path="url(#clipPath5821)"></path>
    <path id="path123" d="M382.4 52.6c1 1 1.9.2 3 .1 2.6-.4 5.8 1.7 5.4 4.5a14 14 0 0 0-5.3-1.6c-1-.1-2.3-.4-3-1.3-.3-.5-.5-1.2-.1-1.7z" class="cls-1" clip-path="url(#clipPath5811)"></path>
    <path id="path125" d="M388.5 54c5.6-1.6 11 4.2 10.2 9.7-.2 1.8-.9 3-.6 4.7-.7-.5-1.1-1.4-1.4-2.2-.6-5.8-2.7-9.7-8.1-12.2z" class="cls-1" clip-path="url(#clipPath5801)"></path>
    <path id="path127" d="M417.1 73c-.4-4 1.8-8 4.6-10.6l1.5-1.5c.3-.5.3-.6.2-1.2-.3-1.4-1.1-3-2.4-4.5 3.3 0 7.3 3.8 5.6 7.3-.6 1.3-1.5 2.1-2.1 2.8-2.8 2.4-4.8 4.9-7.4 7.7z" class="cls-1" clip-path="url(#clipPath5791)"></path>
    <path id="path129" d="M425.9 59.8c1 1.4 2 2.4 3.4 3.2.7.4 1.7.8 2.3 1.6 2.9 3.6-.3 7.7-3.2 9.9a57.7 57.7 0 0 1-7.8 6 23 23 0 0 1 5.1-8.7c1.1-1.2 2.1-2 2.9-3.3.4-.7.7-1.6.1-2.3-1.7-1.5-3.1-4-2.8-6.4z" class="cls-1" clip-path="url(#clipPath5781)"></path>
    <path id="path131" d="M406.8 78.4c.3 5.2-.8 10.5 2 15l.9 1.3s-.1.1 0 .2c.6-.5 1.2-1.3 1.9-1.8-.3 1-.4 2-1 2.9-1.1 1.1-2.7-.2-3.6-1-4.4-4.5-3.4-11.8-.2-16.6z" class="cls-1" clip-path="url(#clipPath5771)"></path>
    <path id="path133" d="m412.8 85.3.7 7.8c.2 2 1.3 4.8 3.7 3.7-.4 1.9-3 2-4.3.9-3.7-2.6-2.7-9.4-.1-12.4z" class="cls-1" clip-path="url(#clipPath5761)"></path>
    <path id="path135" d="M430.9 67.4c5 .4 7.7 3.2 6.4 8.4-1.3 3.9-4.6 6-6.9 9a46.3 46.3 0 0 0-7.4 12c-.4 1-1 2-2 2.7-1.4 1-3.1.2-3.8-1l-.7-1.6v-.1l.1.3a7 7 0 0 1-.2-3.9 8 8 0 0 0 1.4 3.3v.3-.3c.4.4 1 1.3 1.5 1.3.9-.6 1-2.3 1.3-3.3a32 32 0 0 1 6.8-12.4c2.2-2.6 5.6-4.5 7.1-7.4 1.8-4-.5-5.4-3.6-7.3z" class="cls-1" clip-path="url(#clipPath5751)"></path>
    <path id="path137" d="M396.5 89.5c2 3.8 2.3 12.3-1.7 15 .3-5.2-.4-10.1 1.7-15z" class="cls-1" clip-path="url(#clipPath5741)"></path>
    <path id="path139" d="M362.7 102.7c12.2-.8 26.1 8.7 36.4-1.5-2.8 6.6-11.3 8.5-17.7 7.3-6.6-1-12.3-4-18.7-5.8z" class="cls-1" clip-path="url(#clipPath5731)"></path>
    <path id="path141" d="M405.7 89.3c-.5 6-1.8 13-2.6 18.9-.4 2-.6 4.1-1.2 6.3a28 28 0 0 1-.9-13c.7-4.3 2.1-8.6 4.7-12.2z" class="cls-1" clip-path="url(#clipPath5721)"></path>
    <path id="path143" d="M408.5 94.9c1 9.8-5.3 18.2-8 27.1a56 56 0 0 0-2.1 13.7c-.1 4.6-.7 9.5.5 14v.3l-.1-.3c-1.3-2-1.7-4.5-2.1-6.9a49 49 0 0 1 1-21.6c2.8-9.2 9.4-16.7 10.8-26.3z" class="cls-1" clip-path="url(#clipPath5711)"></path>
    <path id="path145" d="M463 117.4c-14.5-10.3-33-10-41.7-28.3a55.4 55.4 0 0 0 20.2 14.6c7.6 3.5 16.2 6.8 21.6 13.7z" class="cls-1" clip-path="url(#clipPath5701)"></path>
    <path id="path147" d="M462.9 114.2c2.2 4.1 1.5 9 1 13.4a30 30 0 0 1-1 4.5c-1.5-2.8-1.8-6-1.6-9 .2-3.2.8-6 1.6-9z" class="cls-1" clip-path="url(#clipPath5691)"></path>
    <path id="path149" d="M466.7 139a6.4 6.4 0 0 1-3.9-7.5 7 7 0 0 1 3.9 7.5z" class="cls-1" clip-path="url(#clipPath5681)"></path>
    <path id="path151" d="M470 123c3 6.2 7.5 11.2 10.8 17.2.7 1 1 2.1 2.2 2.2.4 0 .4-.3.6-.8 1.3-3.9 1.7-8 1.6-12.2 1.4 3.2 1.8 6.8 1.4 10.3-.3 2-.5 5-3 5.5-2.5.6-4.5-1.7-5.4-3.5l-5-8.9c-1.5-3-3-6.3-3.2-9.8z" class="cls-1" clip-path="url(#clipPath5671)"></path>
    <path id="path153" d="M485.6 139.4c2.1-5.5 3-10.7 2.8-16.5 4.5 4.6 3 13.7-2.8 16.5z" class="cls-1" clip-path="url(#clipPath5661)"></path>
    <path id="path155" d="M490 130.7c1-5.6.7-10.6-1-16 5.6 3 6.2 12.3 1 16z" class="cls-1" clip-path="url(#clipPath5651)"></path>
    <path id="path157" d="M488.5 114.5c-5.5-1.9-11-4-15.6-7.8-4.6-3.7-7.7-8.8-11.1-13.4-3.3-4.6-6.7-9-11-12.3-4.5-3.3-9.9-5.7-14.5-8.8l8.2 2.6A39 39 0 0 1 465 91c3.5 4.8 6.2 9.7 10 13.5 4 4 9 6.8 13.5 10.1z" class="cls-1" clip-path="url(#clipPath5641)"></path>
    <path id="path159" d="M327.2 142.3c9.8 10.9 16.5 18.2 31.9 18.2 12.9.9 26.6-.4 39.2 3.9-6.6-.5-13-.4-19.6-.1-25 .9-38.4 2.7-51.5-22z" class="cls-1" clip-path="url(#clipPath5631)"></path>
    <path id="path161" d="M397.5 162.7c3.1 4 6.1 8.3 9.8 11.4 2.9 2.4 6.5 1.4 10 .8 1.2-.3 2.4-.5 3.6-1-.8 1-2 1.7-3.2 2.3-3.6 2-8.6 3.3-12.2.3a24.8 24.8 0 0 1-8-13.8z" class="cls-1" clip-path="url(#clipPath5621)"></path>
    <path id="path163" d="M413 171.5c2.8-.2 5.7.4 8.4.9l4.7-2.8c1.5-.6 1.6-2 1.8-3.6h.1l-.2.2.1-.4c1.3 1.8 1.6 4.2-.3 5.8a35.2 35.2 0 0 1-4.2 3 3 3 0 0 1-1.8.7c-.9 0-1.4-.2-1.8-.3a28 28 0 0 1-6.9-3.5z" class="cls-1" clip-path="url(#clipPath5611)"></path>
    <path id="path165" d="M417 164.7c2.3 0 5 .5 7.3.8 1.8.2 3.5.3 4.6-1.3l.3-.2s0-.1 0 0c0 0-.2 0 0 0-.2.2-.4-.2-.2-.4h.3c.7.4.5 1.3.4 1.9-2 5.4-10 2.7-12.7-.8z" class="cls-1" clip-path="url(#clipPath5601)"></path>
    <path id="path167" d="M399 150c-6.3-5-13.2-8.3-20.6-11-5.4-1.8-11-4-16.6-5.4-1.9-.4-3.8-.5-5.8 0 1.7-1.2 3.9-1.5 6-1.5 12.6 1.3 29.5 7 37 17.9z" class="cls-1" clip-path="url(#clipPath5591)"></path>
    <path id="path169" d="M423.9 153a23.2 23.2 0 0 0-10.4-8c-1 0-2 1-3.5 1.6a40.7 40.7 0 0 1-13.6 4.3l-2.5.2 2.3-1.1c.8-.3 1.6-.8 2.5-1h-.3.2l3.4-1.6 6.6-3.4c1.3-.7 2.3-1.5 3.8-1.9 1.6-.4 3.3.5 4.6 1.4a17 17 0 0 1 6.9 9.5z" class="cls-1" clip-path="url(#clipPath5581)"></path>
    <path id="path171" d="M392.6 129.4a20.3 20.3 0 0 1 1 15.5 20.3 20.3 0 0 1-1-15.5z" class="cls-1" clip-path="url(#clipPath5571)"></path>
    <path id="path173" d="M366 132.5c-1-2.7-1.6-5.7-2.3-8.5l2.3 2.1.7.7-.7-.4c2.6.2 4.9 1.2 7 2a25 25 0 0 0 19.3.2c-3.4 3.4-8.6 5-13.4 4.5-4.8-.2-8.9-3.4-13.2-4.7l-.5-.1c0-.2-.5-.8-.6-1l1.6-.7c0 2 0 4-.2 6z" class="cls-1" clip-path="url(#clipPath5561)"></path>
    <path id="path175" d="M392.6 163.4a20 20 0 0 1-.8 15.4 20 20 0 0 1 .8-15.4z" class="cls-1" clip-path="url(#clipPath5551)"></path>
    <path id="path177" d="M364.7 162.8a25.6 25.6 0 0 0 9.7 14.6c2.2 1.4 5.2 1.5 8.4 1.6l9.4.4c-3 1-6.2 1.6-9.4 2-3.3.3-7 .5-10-1.4-5.5-3.7-9-10.7-8.1-17.3z" class="cls-1" clip-path="url(#clipPath5541)"></path>
    <path id="path179" d="M467.6 151.6c2.8-.8 4.3-3.4 5.7-5.9 1.5-2.6 2.4-5.4 4.3-8 .5 4.9-.8 10.4-5 13.3-1.4.9-3.6 1.5-5 .6z" class="cls-1" clip-path="url(#clipPath5531)"></path>
    <path id="path181" d="M483.1 111.8c0-3.7 0-7 1.2-10.5.2-.7.5-1.3 1.3-1.7.3-.2.8-.3 1.2-.3 1 .1 1.3.6 1.7 1 1.7 2.2 2 5.3 2.3 8 0 2.4-.4 4.8-1.3 6.9a40 40 0 0 0-3.2-13h.6c.3-.2.3-.3.1 0-1.5 3-2.2 6.5-3.9 9.6z" class="cls-1" clip-path="url(#clipPath5521)"></path>
    <path id="path183" d="M485.4 102.6c-1.2-.5-2.2-.3-2.8.3-1.3 2-2 4.4-3.8 6.3-1.2-3-.1-8.4 3.6-8.8 1.5-.2 3 1 3 2.2z" class="cls-1" clip-path="url(#clipPath5511)"></path>
    <path id="path185" d="M467.7 152c-4.8-6.8-1.9-19.9 3.3-25.8-1.2 6.5-2.5 12.7-3.2 19.3-.2 2.1-.4 4.2 0 6.5z" class="cls-1" clip-path="url(#clipPath5501)"></path>
    <path id="path187" d="M475.2 133.8c-.2 5.4-1 10.3-2.6 15.5-2.6-5-1.4-11.7 2.6-15.5z" class="cls-1" clip-path="url(#clipPath5491)"></path>
    <path id="path189" d="M482.2 143.7c.7 6.5-5.3 18.9-12.8 12.3a7.4 7.4 0 0 1-2.3-6.6 9.4 9.4 0 0 0 3.8 4.7c1.6 1 3 1.3 4.4.1 3-2.6 5-6.8 7-10.4z" class="cls-1" clip-path="url(#clipPath5481)"></path>
    <path id="path191" d="M468.7 154.2c-2.8 4.8-2.8 10-.8 15 .7 1.5 1.4 3 3.1 4-1 .2-2-.1-3-.7-5.8-4.2-6.2-15 .7-18.3z" class="cls-1" clip-path="url(#clipPath5471)"></path>
    <path id="path193" d="M470 174c-3.1-2-3.4-6.8-2-10 1.4-3.4 3.9-5.9 7-7.6-.6 1.7-1.5 3.1-2.2 4.5-2.3 4.1-4 8.3-2.8 13.1z" class="cls-1" clip-path="url(#clipPath5461)"></path>
    <path id="path195" d="M472 157c5.2 2.5 11.5 12.2 6 17 .9-4.9-2.2-8.4-4-12.6l-2-4.4z" class="cls-1" clip-path="url(#clipPath5451)"></path>
    <path id="path197" d="M478 154.9c4.1 1.2 6.2 6 6 10 0 3.5-1.2 8-4.9 9.3-.5.1-1 .1-1.6 0 1-.3 1.6-1 2-1.8 1.3-2.2 1.4-5 1.6-7.5 0-3.5-.7-6.8-3-10z" class="cls-1" clip-path="url(#clipPath5441)"></path>
    <path id="path199" d="M500.2 159.6c-.7-.9-.7-2.3-.2-3.5 2.8-4.8 10.3-1.9 10.6 3.2.4 3.6-3.2 7.1-6.7 5.6a3.4 3.4 0 0 1-2.3-2.5c2.4 2.2 5.5 1 6-1.7.8-4.8-7.4-6.7-7.4-1z" class="cls-1" clip-path="url(#clipPath5431)"></path>
    <path id="path201" d="M502.6 158.7a753.5 753.5 0 0 1-44.4 25.7l-1.8-3.5a657.3 657.3 0 0 1 48-20.3v.4l-1.8-2.3zm0 0c0 .1 2.4 2 2.4 2.2a749.8 749.8 0 0 1-47 23.6l-1.7-3.6 11.7-6a677 677 0 0 1 34.6-16.2z" class="cls-1" clip-path="url(#clipPath5421)"></path>
    <path id="polygon203" d="m475.1 160.4.6 1.4h1.5v1l-7.2 3-1.1-2.8z" class="cls-1" clip-path="url(#clipPath5411)"></path>
    <path id="rect205" d="M360.2 330.6h5.7v3h-5.7z" class="cls-1" clip-path="url(#clipPath5401)" transform="rotate(-22.6)"></path>
    <path id="polygon207" d="M542.2 158.5v19l-27 34.4-2.4-1.8 26.4-33.7v-15.6l-34.5-9.4-22.5 9.3-1.2-2.7 23.5-9.8z" class="cls-1" clip-path="url(#clipPath5391)"></path>
    <path id="polygon209" d="m445.1 172.9 1.1 2.8-20.3 8.4 48.8 13.6-.8 2.9-57.1-15.9z" class="cls-1" clip-path="url(#clipPath5381)"></path>
    <path id="path211" d="M540 159.4c-12.7 9.3-26.4 18-39.7 26.4a658.3 658.3 0 0 1-41.1 23.8 661 661 0 0 1 39.6-26.4 668.4 668.4 0 0 1 41.1-23.8z" class="cls-1" clip-path="url(#clipPath5371)"></path>
    <path id="path213" d="M405.5 201.8a159 159 0 0 1 25.4-8.4c4.7 1.2 9.5 3 13.4 6 1.3 1 2.5 2.2 3.3 3.6a18 18 0 0 0-4-2.5 59 59 0 0 0-13.1-4.2h.7c-8.4 2.4-17 4.5-25.7 5.6z" class="cls-1" clip-path="url(#clipPath5361)"></path>
    <path id="path215" d="M421.4 184.4a18 18 0 0 1 .8 14.5 18 18 0 0 1-.8-14.5z" class="cls-1" clip-path="url(#clipPath5351)"></path>
    <path id="path217" d="M526 155.6c-2-52-2-104.6 0-156.6 2 52 2 104.7 0 156.6z" class="cls-1" clip-path="url(#clipPath5341)"></path>
    <path id="path219" d="M551.3-3.9c2 71.9 2 144.7 0 216.6-2-71.9-2-144.7 0-216.6z" class="cls-1" clip-path="url(#clipPath5331)"></path>
    <path id="path221" d="M581.7-7.4c2 77.4 2 155.7 0 233-2-77.3-2-155.6 0-233z" class="cls-1" clip-path="url(#clipPath5321)"></path>
    <path id="path223" d="M455.9 181.7h-.1l-8.4-.7c-.5-.1-1-.5-1.2-1l-13.5-35.7c-.2-.6 0-1.2.3-1.6.3-.4 1-.6 1.5-.4l10.8 2.6 7.1-5.1a1.5 1.5 0 0 1 2.3.7c.1.2 2.2 5.6 3.4 11.2 1.3 5.5 5.3 24.8 5.4 25 0 .6-.2 1.3-.8 1.6l-6 3.3-.8.2zm-7.3-3.6 7 .6 4.7-2.5-5-23.9c-.9-3.4-2-6.9-2.7-9l-6.1 4.5c-.4.2-.9.3-1.3.2l-8.7-2.1 12.2 32.1z" class="cls-1" clip-path="url(#clipPath5311)"></path>
    <path id="polygon225" d="m453.7 139.6-.7 2.8-9.8-2.3 1-.2-9.5 4.9-1.2-2.2 9.3-5.3.5-.3.6.2z" class="cls-1" clip-path="url(#clipPath5301)"></path>
    <path id="path227" d="M455.9 180.2a100 100 0 0 1-10.3-33.6 100 100 0 0 1 10.3 33.6z" class="cls-1" clip-path="url(#clipPath5291)"></path>
    <path id="path229" d="M457.8 158.6c.2 1.7.4 3.6-.3 5.3-.6 1.6-2.6 2-4 .9a8.3 8.3 0 0 1-1.6-11c1-1.4 3-1.6 4.1-.2 1.2 1.4 1.5 3.3 1.8 5zm0 0c-.2-1.6-1.5-5-3.5-4.5-1.7 1.3-.6 9 1.4 9.8 2-.2 2.4-3.7 2.1-5.3z" class="cls-1" clip-path="url(#clipPath5281)"></path>
    <path id="path231" d="m437.9 153.7-22.6-.6.5-.3a8.3 8.3 0 0 0 0 5.5c.5 1.9 2 3 3.5 4l-.5-.1 23.1.5c.8 0 1.5.8 1.5 1.6s-.8 1.5-1.7 1.4l-23-1.7h-.4l-.2-.2a9.1 9.1 0 0 1-3.2-11.9h.4l22.5 1.8z" class="cls-1" clip-path="url(#clipPath5271)"></path>
    <path id="path233" d="m268.5 130.8-20 1.1c-1.2.1-1.2 2.1 0 2l20-1c1.2-.1 1.2-2.1 0-2z" class="cls-1" clip-path="url(#clipPath5261)"></path>
    <path id="path235" d="M268.6 144.8c0 .2-.1.6-.3.7l-.3.1c-1.9.4-4 .3-6 .2-.8-.2-1.4 0-2-1 .6-.9 1.2-.8 2-1 2-.1 4.1-.2 6 .2h.3c.2.2.2.6.3.8z" class="cls-1" clip-path="url(#clipPath5251)"></path>
    <path id="path237" d="M225.7 130c-2.7-1.2-5-2.8-7.3-4.5h1.7a54.8 54.8 0 0 1-5.3 4.2l.3-1.9 2 3.7c2.3 4.6 2.2 4.7-1.5 1a53.6 53.6 0 0 1-3.5-4c2-1.9 4-3.6 6.3-5.2l1-.7a39 39 0 0 1 6.3 7.4z" class="cls-1" clip-path="url(#clipPath5241)"></path>
    <path id="path239" d="m242 146-.3-.3-7.6-8.5 9.5 6.3h-.1l.6.3-2.2 2.1z" class="cls-1" clip-path="url(#clipPath5231)"></path>
    <path id="path241" d="m226.5 143.6 7.1 12.4.2-.1-.2.2-9.5-10.8z" class="cls-1" clip-path="url(#clipPath5221)"></path>
    <path id="path243" d="m216.2 158 .6 1.3a15.1 15.1 0 0 1-1.5-2.6c.4.3.5.6.8 1.3z" class="cls-1" clip-path="url(#clipPath5211)"></path>
    <path id="path245" d="M238.3 133.8s-.1 0 0 0l-1.7 2.4c-4.4 4-9.2 7.7-13.6 11.6-4.5 4-9 7.8-13.5 11.6l-.4.3h-2.9a16.3 16.3 0 0 1-8.8-9.3l.8-.7c9-7 18.2-13.7 27.6-20l3.7-3.2c-4.4 4.8-9.5 9-14.4 13.1-5 4.2-10 8.4-15 12.4l.4-1.7c1.2 3 3.7 5.3 6.6 6.6h-.7l2.1-.1-.9.3 7-5.6c4.6-3.6 9.4-7.4 14.3-10.7 2.4-1.6 5.1-3.5 7.4-4.9l1.9-2z" class="cls-1" clip-path="url(#clipPath5201)"></path>
    <path id="path247" d="M228.5 127.6c-.6 2.2-2.8 2.7-4.3 1 .5-2.1 2.8-2.7 4.3-1z" class="cls-1" clip-path="url(#clipPath5191)"></path>
    <path id="path249" d="M201.7 148.9c-5.5-2.4-7.5-9.2-5.9-14.7a93.5 93.5 0 0 1 19.7-3.4 90.6 90.6 0 0 1-18 6l1-1c-1.3 4.5 0 9.5 3.1 13.1z" class="cls-1" clip-path="url(#clipPath5181)"></path>
    <path id="path251" d="M270.5 138.3c-.2 1.9.3 6.8-2 7.2-2.8-.1-3.6-5-3.6-7.2 0-2.1.7-7 3.5-7.2 2.5.4 2 5.4 2 7.2zm0 0c0-1.7-.4-3.5-1.3-5-.1-.2-.7-.9-.8-.7-.5 1.6-.5 4-.5 5.8 0 1.7 0 4 .5 5.7l.3-.1c1.4-1.4 1.7-3.7 1.8-5.6z" class="cls-1" clip-path="url(#clipPath5171)"></path>
    <path id="path253" d="M241.8 153.4c-2.7 3.2-8.6 6-10.3.3-1.3-5.8 6.8-14.5 12.4-10 3 3 .3 7.4-2 9.7zm-.2-.2c2.4-2.6 2.3-9-2.6-7.4-3.4.9-7.6 6-5 9.3 2 2 6 .3 7.6-1.9z" class="cls-1" clip-path="url(#clipPath5161)"></path>
    <path id="path255" d="M240.4 152.2c-1.8 2-5.3 3.8-6.5.2-.9-4 4.3-9.6 8-6.5 2.2 2.2 0 4.8-1.5 6.2zm-.2-.2c.8-1 1-3.2-.2-3.8h-1.1c-2.6.3-5.3 5.6-1 5.1 1-.1 1.7-.6 2.3-1.4z" class="cls-1" clip-path="url(#clipPath5151)"></path>
    <path id="path257" d="M261.7 152.2c-.8.7-1.7 1.7-3 1.9-1.6.2-2.7-1.8-2.3-3.2.4-2.9 4-6.3 6.8-3.9 1.8 1.9 0 4-1.5 5.2zm-.2-.2c.6-.8.6-2 0-2.7h-.4a3 3 0 0 0-1.9.7c-.8.7-1.3 2-1 2.6.7.9 2.7.4 3.3-.6z" class="cls-1" clip-path="url(#clipPath5141)"></path>
    <path id="path259" d="M262.5 154c-2 2.5-6.5 4.7-7.8.3-1-4.6 5.2-11.3 9.6-7.7 2.4 2.4 0 5.7-1.8 7.5zm-.2-.1c1.1-1.4 1.5-4 0-5-1.4-.6-3 .2-4.2 1.3-1.2 1.2-2.4 3.5-1.3 4.9 1.4 1.4 4.4.4 5.5-1.2z" class="cls-1" clip-path="url(#clipPath5131)"></path>
    <path id="path261" d="m262.2 147.2 1.8 1.6-.2.2a21 21 0 0 1-4.2-3.6l-4-3.8-8-7.7v-.1l-5.3-6.3.2.2-.5-.1c-1.8 0-4.5 3-3.5 4.7 6.2 7.7 12.3 15.6 18 23.7h-.1l.2-.2-.2.3a415 415 0 0 1-20-21.8c-3.7-3.5 2.9-12.6 8-8.8 1.9 2.1 3.5 4.4 5.2 6.6l7.3 8.2 3.6 4.2c1.5 1.5 3 3.1 3.9 5l-2.2-2.3z" class="cls-1" clip-path="url(#clipPath5121)"></path>
    <path id="path263" d="m237.3 133.5.2-.4-2.3 2 .4-.3a5 5 0 0 1-3-.8c-1.1-.6-2-1.5-2.7-2.6-.5-.9-.9-1.9-.7-2.7 0-.4.2-.9.6-1.1.4-.4 1.1-.3 1.6-.8l-.7.3c2.2-.3 4.4 1.3 5.7 3 .3.5.8.7 1.3.4.5-.2.7-1 .4-1.4a9.8 9.8 0 0 0-3.8-3.2c-.6-.4-1.3-.6-2-.7-.7-.1-1.8-.3-2.3.2l.4-.2a3.8 3.8 0 0 0-3.2 3.6c-.2 1.5.6 3.1 1.5 4.4a9.4 9.4 0 0 0 4.7 3.3 6 6 0 0 0 2.4.2c.5 0 .8-.3 1.2-.6l1.4-1.1c.3-.3.7-.5.8-1 .4-1.3-1.5-1.8-1.9-.6z" class="cls-1" clip-path="url(#clipPath5111)"></path>
    <path id="path265" d="m234.8 132.1.3-.4-1.3 1 .5-.2c.3 0 0 0 0 0h-.4.2-.3l-.4-.2c.2 0 0 0 0 0l-.3-.2a4.2 4.2 0 0 1-.5-.3l-.2-.2a6 6 0 0 1-.5-.7l-.1-.2s-.2-.2 0 0l-.1-.2v-.2l-.1-.2s0 .3 0 0v-.3c0-.2 0 0 0 0s.1-.3 0-.1c0 .1.2-.2 0 0l.2-.2c.3 0 .5 0 .8-.3l-.7.3h.4s.2 0 0 0h.1l.4.1s.3.1.1 0l.2.1a3.3 3.3 0 0 1 .6.4c-.1-.1 0 0 0 0l.5.5.1.1v.1c.4.4 1 .7 1.4.4.5-.3.7-1 .4-1.4a5.6 5.6 0 0 0-2.1-1.9l-1.2-.4c-.5 0-1.2-.1-1.7.3l.5-.3c-1.2.2-2 1.2-2 2.3 0 1 .3 1.8.9 2.5.6 1 1.6 1.6 2.6 2 .5.1 1 .2 1.4.1.3 0 .5 0 .8-.3l.2-.2c.4-.3 1-.7 1.2-1.3.2-.5-.1-1-.7-1.2a1 1 0 0 0-1.2.7z" class="cls-1" clip-path="url(#clipPath5101)"></path>
    <path id="path267" d="M185.2 53.9c26.3-6.3 54-6.6 80.4-1.2l1 .2a607 607 0 0 1 11 103.7 962.6 962.6 0 0 0-13.8-102.2l1.2 1.1a220.6 220.6 0 0 0-79.8-1.6z" class="cls-1" clip-path="url(#clipPath5091)"></path>
    <path id="path269" d="M182.7 158.9a624 624 0 0 1 2.5-105c.6 17.5 0 35-.5 52.5s-.9 35-2 52.5z" class="cls-1" clip-path="url(#clipPath5081)"></path>
    <path id="path271" d="m78.3 12.5 6.6 1.1v.2c3.3 20.3 6.6 42.7 9.3 63l2.8 21 .2 1.7-14.9-.3H81l-.1-1.4c-1.3-27.6-2-57.6-2.6-85.3zm0 0c1.8 25 4.4 60.5 5.5 85.2l-1.4-1.4 13.1.2L94 98c-1.5-12.4-3.7-29.8-5-42a2500 2500 0 0 1-4.6-42.2l.2.2-6.3-1.6z" class="cls-1" clip-path="url(#clipPath5071)"></path>
    <path id="path273" d="M86.4 27c4.9-3 10-5.7 15-8.3l.3 1.6a438 438 0 0 1 2.6 31.1l.2 2.8c-3.8-2.8-7.1-5.4-11-8.6-2-1.7-5-4-7-5.9 6 3.3 12.2 7.4 17.3 10.8l-2 1.1a454.6 454.6 0 0 1-2.4-31.1l1.6 1c-4.8 2-9.7 3.9-14.6 5.5z" class="cls-1" clip-path="url(#clipPath5061)"></path>
    <path id="path275" d="M79.7 42c-4.6 4.7-9.2 8.9-14 13.3a385.6 385.6 0 0 1-5.1-34.4l10.2 3.9 8.3 3.5-4.4-1c-4.3-1-9-2.2-13-3.4l1.6-1.4a523 523 0 0 1 4.4 30.2l-2-.7c4.6-3.5 9-6.8 14-10z" class="cls-1" clip-path="url(#clipPath5051)"></path>
    <path id="path277" d="m81.4 40.5 1 1.2c-.2 0-1-1-1-1l-1-1.3 1 1.1z" class="cls-1" clip-path="url(#clipPath5041)"></path>
    <path id="path279" d="M70.2 41.6c2 .5 2.2 1.7.3 2.6-2-.4-2.2-1.7-.3-2.6z" class="cls-1" clip-path="url(#clipPath5031)"></path>
    <path id="path281" d="M68.8 29A11 11 0 0 1 70 40.2a11.2 11.2 0 0 1-1.2-11.3z" class="cls-1" clip-path="url(#clipPath5021)"></path>
    <path id="path283" d="M79.1 29.8c2.2-1.8 4.8-2.6 7.5-1.4-1.4 2.7-5.3 3.6-7.5 1.4z" class="cls-1" clip-path="url(#clipPath5011)"></path>
    <path id="path285" d="M79.6 40.5a9.4 9.4 0 0 1 8.4-1.3 5.3 5.3 0 0 1-8.4 1.3z" class="cls-1" clip-path="url(#clipPath5001)"></path>
    <path id="path287" d="M568.6 35.7c.3 2.8.7 5.8-.3 8.6-1.5 2.4-4.1 0-4.6-1.9-2.2-6.8-.5-14 1.7-20.4.6-1.4 1.2-4 2.3-5.2 2.6-2.5 5 .3 5.7 2.9 1.1 3.3.8 7 1 10.4.4 4.2 1.8 9 1.6 13.4 0 7-1.6 14-4.9 20a5.7 5.7 0 0 1-2.6 3c-3.5 1.3-4.4-2.6-4.6-5.1l-1.2-10.1 1.6 6.6.8 3.3c.3 1.5.7 4.5 2.7 3.7.6-.3 1.2-1.3 1.6-2.2a43.1 43.1 0 0 0 3.8-19.1c0-4.6-1.3-8.6-1.8-13.3-.3-4 .6-8.3-1.7-11.6 0 0 .2 0 0 0l-.6 1c-2.7 7-5.8 14.8-4 22.3.2 1 .8 2 1.5 2.2 2 .5 2-7.1 2-8.5z" class="cls-1" clip-path="url(#clipPath4991)"></path>
    <path id="path289" d="M559.1 25.6c-1.3-6.4-1.7-13.8 2.5-19.4 1.5-1.8 4.5-2.9 6.6-1.4 2 1.2 2.5 3.6 2.6 5.6-.7-1.1-1.3-2.3-2.2-3-7-5.5-8.2 14.3-9.5 18.2z" class="cls-1" clip-path="url(#clipPath4981)"></path>
    <path id="path291" d="M577 63c1.3 6.1-1 12.7-5 17.3-1 1-2.6 2.6-4.3 2-1.7-.5-2.3-2.2-2.4-3.7q-.4-4.3 1.4-.3c.4.7.8 1.7 1.6 1.7.6-.2 1-1 1.4-1.6 3.6-4.6 5.7-9.8 7.4-15.4z" class="cls-1" clip-path="url(#clipPath4971)"></path>
    <path id="path293" d="M574.3 83.7c0 3.6-.3 7.2-1.6 10.7-1.3 3.4-3.2 6.4-3.6 9.4-.3 2.2 0 4.5 1.7 6 1 .8 1.7.1 2.3-1.1 1-2 1.8-5.4-.4-6.7 1 0 1.7 1 2 1.7 1.3 3 .6 9.2-3.7 8.9-1.8-.3-3.1-1.7-4-3.2-1.9-3.7-.8-8 1-11.4l2.6-4.6c1.5-3 2.5-6.3 3.6-9.7z" class="cls-1" clip-path="url(#clipPath4961)"></path>
    <path id="path295" d="M576.8 112c-1 5.3-4.5 10-5.7 15.3a56.3 56.3 0 0 0-1.2 16l.8 16.4c.2 5.4.3 10.9 2.3 16a24 24 0 0 1-3.3-7.6 172 172 0 0 1-2.8-24.8c-.2-5.6.1-11.3 2-16.7 1.7-5.4 5.7-9.6 8-14.7z" class="cls-1" clip-path="url(#clipPath4951)"></path>
    <path id="path297" d="M573.1 140.8a17 17 0 0 1 .8-10.9l1.3.4c.8.2 1.4.8 1.7 1.4 2.1 4.6 1.8 10.2.3 15-.5 1-1 3.9-2.6 3.2-.5-.3-.6-.9-.6-1.4.3.6 1 1.3 1.1.3.5-4.2.6-8.4 0-12.5-.2-1.1-.2-2.6-.8-3.5l1.7-.8a33.8 33.8 0 0 0-3 8.8z" class="cls-1" clip-path="url(#clipPath4941)"></path>
    <path id="path299" d="M560.6 124.3c-2.5 27 8.3 52.5 12 78.7.5 3.9.7 7.8.2 11.6-.3-7.7-2.5-15-4.5-22.3-5.6-22-13.3-45.2-7.7-68z" class="cls-1" clip-path="url(#clipPath4931)"></path>
    <path id="path301" d="M560.2 93.5c-.7-4.4-3.3-7.9-3.9-12.4-.2-2.7 0-5.3.7-8a26 26 0 0 1 1.6 5c.7 5 4.2 10.5 1.6 15.5z" class="cls-1" clip-path="url(#clipPath4921)"></path>
    <path id="path303" d="M535.9 27.6c.2 1.9.2 4-1.1 5.6-2.5 1.9-3.7-2.3-3.9-4.2-.4-4 1.5-7.8 3.2-11 .3-.6.6-1.3 1.5-2 1.8-1.3 4-.2 4.2 1.9l.4 2.8c.7 7.3 2.9 15.7-1.6 22.3-.6.6-1 1.3-1.8 1.8-.2.1-.7.2-1 0-1.2-1-1.7-2.9-1.8-4.4a8.1 8.1 0 0 0 2.3 3.5h-.1l1.1-1.7c2.2-4.3 1.6-9.2 1-13.8l-1.3-9v-1l-.1-.3.4.3c-1.4 1.9-3.1 5-3.9 7.2-.6 2-.9 4.5 0 6.4.2.3.3.5.7.3 1-1 1.6-3 1.8-4.7z" class="cls-1" clip-path="url(#clipPath4911)"></path>
    <path id="path305" d="M531.7 45a78 78 0 0 1 5.2 28l-.8-1.3h-.3l.3-.3a5 5 0 0 0 .7-1.5c1.4-4.1 1.5-8.3 2.5-12.6 1.3-5.9 4.4-10.8 4.9-16.8 1 5.8-1.7 11.7-2.4 17.2-.9 4.2-.6 14.4-4.7 16.6-.6.4-1.7.4-2.3 0l-.8-.4V73c0-9.4-.9-18.7-2.3-28z" class="cls-1" clip-path="url(#clipPath4901)"></path>
    <path id="path307" d="M533.3 10c-1.8-2.9 1-6.2 1.7-9l1.6-4a20 20 0 0 1 2-4.2c.6 3.2.4 6.3-.7 9.4a15 15 0 0 1-2.5 4c-.9 1.2-1.8 2.2-2 3.8z" class="cls-1" clip-path="url(#clipPath4891)"></path>
    <path id="path309" d="M542.4 81c.2 4.4-.1 13.5-3.9 16.3-1.3.8-3-.3-3.5-1.3-1.6-2.7-1.6-6-1.6-9 0-2.8-.2-5.7-.1-8.7 1.1 2.8 2 5.6 2.4 8.6.5 2.7.5 5.3 2 7.6 0 .2.1.2-.2.1h-.4c-.1.2-.1.1 0 0 1.3-1.4 1.8-3.3 2.5-5.3l2.8-8.3z" class="cls-1" clip-path="url(#clipPath4881)"></path>
    <path id="path311" d="M533.2 105.2c.2 5.4.9 10.6 2.1 15.7.7 2.6 1.5 5 3.2 6.6a19.5 19.5 0 0 1 5.8 23.2c-1 2.7-3.3 2-4.9 0-3-3.2-4-8.1-2.5-12.2 1.1.1 2 1.2 1.8 2.1 0-.9-.9-1.5-1.6-1.5l.3-.2a11.3 11.3 0 0 0 4.6 11.2h-.2c2-4.6 1.8-10.3-.6-14.8-1.6-3.7-5.8-5.8-7-9.8a42.3 42.3 0 0 1-1-20.3z" class="cls-1" clip-path="url(#clipPath4871)"></path>
    <path id="path313" d="M539.3 108.1c1.3 3.7 2.2 8.2 3.2 12l.8 4.2a11 11 0 0 1-3-3.3 14 14 0 0 1-1-12.9z" class="cls-1" clip-path="url(#clipPath4861)"></path>
    <path id="path315" d="M545.5 184.6c2.5 4-1.6 8.6-3 12a17 17 0 0 0-1.3 5.5c-.2 2 0 4 .3 6.1-3-3.3-3.5-8.6-1.7-12.8 1.7-4.2 5.5-6.1 5.7-10.8z" class="cls-1" clip-path="url(#clipPath4851)"></path>
    <path id="path317" d="M768.7 82.3c-1.3 19-9.9 27-26.5 34.7l-.5.3-.5-.2a29.6 29.6 0 0 1-9.1-6.8 29.3 29.3 0 0 1-6.7-8.9c2.2 3 5 5.3 7.8 7.5a34 34 0 0 0 9 5.7H741a54 54 0 0 0 21.4-16.8c3-4.7 4.4-10.2 6.2-15.5z" class="cls-1" clip-path="url(#clipPath4841)"></path>
    <path id="path319" d="M761.4 101.5c-2.6-1.3-5-2.8-7.5-4.3h1.5a19 19 0 0 1-6.4 2.7l.7-2.4a60.3 60.3 0 0 1 6.8 9.1c-.9-.4-1.7-1-2.4-1.5-3-2.2-5.7-4.8-8.3-7.3 3.1-.8 6.3-1.8 9.1-3.3 2.5 2 4.8 4.3 6.5 7z" class="cls-1" clip-path="url(#clipPath4831)"></path>
    <path id="path321" d="M723.9 104.7a44.2 44.2 0 0 1-10-35l2 2.2a41 41 0 0 0-17.7 5c-1.8 1-3.5 2.2-5.1 3.7 1-1.9 2.5-3.6 4.2-5 5.6-5 13-7.5 20.6-7.8l-.4 6.7a71.7 71.7 0 0 0 6.4 30.2z" class="cls-1" clip-path="url(#clipPath4821)"></path>
    <path id="path323" d="M723.9 104.7c-.4 3.1-4 5-6.8 3.5a7.3 7.3 0 0 1 6.8-3.5z" class="cls-1" clip-path="url(#clipPath4811)"></path>
    <path id="path325" d="M684.5 101.3c-3.3-7.3-1.7-17 1.7-24.1l.6-1.4 1.6.5c15.7 5.7 25 21 30.9 35.8-7-9.3-13.3-19.4-22.6-26.6-3-2.3-6.2-4.3-9.6-5.8l2.3-.9a39 39 0 0 0-5 22.5z" class="cls-1" clip-path="url(#clipPath4801)"></path>
    <path id="path327" d="M683.3 101c5 .5 9.8 2.4 14.4 4.5 4.4 2.2 9.5 5.2 11 10.2-5.3-5.3-12.6-7-18.9-10.9-2.1-1.3-4.4-2.3-6.5-3.8z" class="cls-1" clip-path="url(#clipPath4791)"></path>
    <path id="path329" d="M707.6 114a8.6 8.6 0 0 1 11.7-1.9 24.5 24.5 0 0 1-11.7 2z" class="cls-1" clip-path="url(#clipPath4781)"></path>
    <path id="path331" d="M688.5 103c-.2 4-.5 7.9-.5 11.8-.1 4.7-.7 12.5 6.2 10.3 5.4-2 10-5.7 14.4-9.5-3 5.2-10.3 12.7-17 12.8-7-.4-6.9-8.6-6-13.8.5-4 1.4-8 2.9-11.7z" class="cls-1" clip-path="url(#clipPath4771)"></path>
    <path id="path333" d="M664.5 158.3c2.5-9.7 5.3-19.4 8.1-29 3-9.7 5.9-19.4 10.2-28.5l1 .4c-3.3 9.5-5.8 19.2-8.3 28.9-2.6 9.7-5.2 19.4-8.1 29l-3-.7z" class="cls-1" clip-path="url(#clipPath4761)"></path>
    <path id="path335" d="M743.4 114.7c10 19.8-2.6 42.5-16.4 57 9-18.2 20.5-35.6 16.4-57z" class="cls-1" clip-path="url(#clipPath4751)"></path>
    <path id="path337" d="M665.5 158.4a47 47 0 0 0 13.9 7.5c5 1.6 10.2 2.2 15.4 2.8 10.6 1.3 21.2 1.7 31.9 2.2-10.6 2-21.5 2-32.2.8-11-1-22-4.4-29-13.3z" class="cls-1" clip-path="url(#clipPath4741)"></path>
    <path id="path339" d="M666 158c-1.7 1.6-3.5 3-5.6 4.1-1.8 1.1-4.2 1.8-5.9 3l.2-1.5c9.6 8.8 22.8 11.7 35.4 13.2 9.7 1 19.5 2.2 29.2 2.1 3.3 0 6.5 0 9.8-.2l-.6 1-1.8-8.8 3.2 8.3.3.8-.9.1a104 104 0 0 1-14.9 1.8 206 206 0 0 1-24.8-1.2c-13.3-1.4-27.4-5.3-36.4-15.7l-.8-1 1-.6c2.1-1.3 4.3-1.4 6.5-2.4 2.1-.8 4.1-1.8 6-3z" class="cls-1" clip-path="url(#clipPath4731)"></path>
    <path id="path341" d="M733.6 196.4a129.7 129.7 0 0 1-46.5-1.7c-7.7-1.5-15.3-3-22.8-5.6a41.4 41.4 0 0 1-19-13.8l-.5-.7.6-.4c3.4-2.1 8.1-5.1 11.6-7.1-3.1 2.4-7.5 6-10.7 8.3l.1-1a50 50 0 0 0 30 15c18.7 4.4 37.9 7.8 57.2 7z" class="cls-1" clip-path="url(#clipPath4721)"></path>
    <path id="path343" d="M725.5 179.5a78 78 0 0 1 6.5 10.3c1.8 3.7 3.5 7.5 3.9 11.7a58.3 58.3 0 0 1-3.6-5 39 39 0 0 1-6.8-17z" class="cls-1" clip-path="url(#clipPath4711)"></path>
    <path id="path345" d="M680 204.8c-14.6.3-32.7-7-40.8-19.5l1.5.2-.2.1-1.2-1.6c3-2.2 6.1-4.3 9.4-6l-8.2 7.6-1.3-1.5.1-.2.8-.7.7 1c3.5 4.3 8.1 7.6 12.9 10.4 8.1 4.9 17 8 26.3 10.2z" class="cls-1" clip-path="url(#clipPath4701)"></path>
    <path id="path347" d="M735 124.3a79.4 79.4 0 0 1-4.2 21c-.4 1.2 1.5 1.7 2 .5 2.3-7 3.8-14.2 4.2-21.5.1-1.3-1.9-1.3-2 0z" class="cls-1" clip-path="url(#clipPath4691)"></path>
    <path id="path349" d="m727.2 153.7-.1.4v.1c-.1.1-.1.2-.1 0v.2l-.1.1-.2.4-.6 1.2-1.3 2.6c-.2.4 0 1 .4 1.3.5.3 1.1.2 1.4-.3 1-1.8 1.8-3.6 2.6-5.5.2-.5-.2-1.1-.7-1.2-.6-.1-1 .2-1.3.7z" class="cls-1" clip-path="url(#clipPath4681)"></path>
    <path id="path351" d="M715.5 74.2c3.3-2.5 7-4.5 10.9-6 1.5-.5 3.2-1.2 5-1.2h.3l.4.2A243.9 243.9 0 0 1 756 85.5l-.4-.1h.3l4.2 4-1.3-.6a256 256 0 0 1-25.2-17.1l-3-2.3.8.3h-.7c-4.5.5-10.4 2.7-15.2 4.5z" class="cls-1" clip-path="url(#clipPath4671)"></path>
    <path id="path353" d="M755.6 86a46.5 46.5 0 0 1-33.3 16.1c5.8-2.4 11.4-4.6 17-7.3 4.8-2.3 11.6-6.1 16.3-8.8z" class="cls-1" clip-path="url(#clipPath4661)"></path>
    <path id="path355" d="M736.9 63a5.4 5.4 0 0 1-4.4 6 5.4 5.4 0 0 1 4.4-6z" class="cls-1" clip-path="url(#clipPath4651)"></path>
    <path id="path357" d="M736.9 63c3.2-1.7 7-2.7 10.4-4 11.3-3.6 24.2-5.2 35.3.2A41.8 41.8 0 0 1 760 89.4a51 51 0 0 0 18.3-29.5l1.1 2.2a36.1 36.1 0 0 0-10.1-2.5c-7.1-.7-14.5.3-21.6 1.5-3.6.7-7.3 1-11 2z" class="cls-1" clip-path="url(#clipPath4641)"></path>
    <path id="path359" d="M713.8 45.7c3.5 2.4 8.1 6 11.6 8.6 3.4 2.6 8.2 6 11.5 8.8a36.8 36.8 0 0 1-23.1-17.4z" class="cls-1" clip-path="url(#clipPath4631)"></path>
    <path id="path361" d="M723.8 37.3a55 55 0 0 1 39.7 20.3 150.8 150.8 0 0 0-39.7-20.3z" class="cls-1" clip-path="url(#clipPath4621)"></path>
    <path id="path363" d="M688.8 28.5c-.5-.6-1.1-.6-1.5-.5-.3.1-.5.2-.4.4a33 33 0 0 1-2.5 10c-.2.6-.5 1.1-.1 1.8-3.2-.8-.7-11 .8-13 1-1.5 4.1-.6 3.7 1.3z" class="cls-1" clip-path="url(#clipPath4611)"></path>
    <path id="path365" d="M713.8 45.7c-4.5 1.2-8.8 2.1-13.3 3.1-8 1.8-12.6 0-16-7.6-2.4-5-2.5-5 1.2-.8 2.8 3.5 5.2 6.4 10 6 5.8-.4 12.2-1.7 18-.7z" class="cls-1" clip-path="url(#clipPath4601)"></path>
    <path id="path367" d="M686.1 39.6c-1.3-2.8 3.7-4 4-1-1 .5-1.2 1-1.9 1.2l-2-.2z" class="cls-1" clip-path="url(#clipPath4591)"></path>
    <path id="path369" d="M691 36c-1.8-1.7-1.3-5.3 1.2-6.2 1.9-.5 3.3.5 4.6 1.4.2.1.5.2.5.4l.1.1c.1 0 0-.2 0 0-.2-.2.2-.4.4-.2.3.6-.3.9-.7 1-1 .4-2.3.2-3.3.1-.6 0-.6 0-1 .3-.8.9-1.3 1.8-1.9 3.2z" class="cls-1" clip-path="url(#clipPath4581)"></path>
    <path id="path371" d="M695.4 33c-2-2.6 0-7 3.2-6.8 1.1 0 2.3.6 2.5 1.6-3.2.3-3.8 3-5.7 5.2z" class="cls-1" clip-path="url(#clipPath4571)"></path>
    <path id="path373" d="M689 29.8c-1-2.1-1-4.3-.4-6.6.2-.6.5-1.3 1-2 1.6-1.5 4-1.2 5.6-.2-1.4.8-2.7 1-3.4 2.1-.8 2.2-1.3 4.6-2.7 6.7z" class="cls-1" clip-path="url(#clipPath4561)"></path>
    <path id="path375" d="M694.9 26c-1.9-2.6-1.6-7.4 1.8-8.5 1.2-.3 2.6.3 3 1.3-1.8.2-2.3 1-2.8 2.3a20 20 0 0 1-2 4.9z" class="cls-1" clip-path="url(#clipPath4551)"></path>
    <path id="path377" d="M699.7 20.8c-1.9-7.8 8.4-6.8 10-.9-2.4-.7-4.6-1.7-7-1.8-1.4.2-1.9 1.5-3 2.7z" class="cls-1" clip-path="url(#clipPath4541)"></path>
    <path id="path379" d="M671.5 54.4c1.4 2.5 3.9 4 6.4 5.3l-.4-.1h.4l.2.2-.2-.1a.8.8 0 0 0-.3-.1c1.8.7 3.6 1.6 5.4 1.6 1.8 0 3.5-.7 5.2-1.2 3.7-1.2 7.7-2.4 11.1-4.1a54 54 0 0 1 25.7 14c-5.4-2.5-10.4-5.8-16-8-3-1.4-6.3-2.5-9.7-3l.9-.1c-3.6 1.8-7.4 2.8-11.2 3.8-2 .5-4 1.2-6.1 1-2.3-.4-4.1-1.4-5.7-2.5l.4.1c-.7 0-5.7-3.8-6.1-6.8z" class="cls-1" clip-path="url(#clipPath4531)"></path>
    <path id="path381" d="M670.4 43.3c-.6-.9-1.7-.5-1.8.4-.6 2.7 1.2 5 2.7 7.4 1.2 2 2.5 3.8 4 4.9h.2a7 7 0 0 0 1.8-3.2c.7 2 0 6-2.8 5.1-2.7-.8-4.5-3.2-5.7-5.1-1.7-2.6-3.7-6.8-1.5-9.9.4-.5 1.1-1 1.9-.8.6 0 1.3.6 1.2 1.2z" class="cls-1" clip-path="url(#clipPath4521)"></path>
    <path id="path383" d="M675.9 41.7c-1-1-2.7-2-3.4-.8-.3 2.2.4 5 1.4 7 1.2 2.5 3.9 4.6 6.8 4.6 1 0 2-.7 2-1.8.3.5.3 1.2 0 1.9-1.1 1.8-3.7 1.8-5.5 1.4-5.3-1.2-8-7.2-7.1-12.2a4 4 0 0 1 .9-2.1c1.8-2 4.4-.1 4.8 2z" class="cls-1" clip-path="url(#clipPath4511)"></path>
    <path id="path385" d="M679.4 38.4c-1.1-.4-2.2-.8-2.8 0l.2 1.2c1 3.6 1.6 9.8 5.7 10.8.9.2 1.7-.3 1.9-1.2.6 1.1-.5 2.4-1.7 2.7-6.7 1-9-9-8-13.9 1-2.3 3.8-1.4 4.7.4z" class="cls-1" clip-path="url(#clipPath4501)"></path>
    <path id="path387" d="M682.2 34.5c-.5-1-1.7-.9-2.2-.4-1.2 1.2-.4 3 0 4.7.5 2.8 1.7 5 4 7 .5.5 1.5 1.5 2.1 1.8.7.4 1.8 0 1.6-1 1 1.2-.6 2.7-2 2.4-2.2-.4-4-1.8-5.8-3.4a12.5 12.5 0 0 1-2.9-9.7c.2-1.3 1-2.7 2.4-3.1 1.3-.5 3 .4 2.8 1.7z" class="cls-1" clip-path="url(#clipPath4491)"></path>
    <path id="path389" d="M618.2 78c-8.5-18.5 4.3-39.4 19.7-50a35 35 0 0 1 17.8-6.5 43.7 43.7 0 0 0-16.4 8.5c-14.1 11.3-25.9 29.3-21 48z" class="cls-1" clip-path="url(#clipPath4481)"></path>
    <path id="path391" d="M606.5 74.8A51.8 51.8 0 0 1 646 8.6a59.1 59.1 0 0 0-39.4 66.2z" class="cls-1" clip-path="url(#clipPath4471)"></path>
    <path id="path393" d="M893 166.4c-.5 0-1-.1-1.2-.5-.6-.6-.5-1.6.2-2.1l16-13.3c.6-.5 1.5-.4 2 .2.6.6.5 1.6-.1 2.1l-16 13.3c-.3.2-.6.3-1 .3z" class="cls-1" clip-path="url(#clipPath4461)"></path>
    <path id="path395" d="M880.2 167c-.3 0-.7-.2-1-.4-.6-.6-.6-1.5 0-2.1l14.5-15.6a1.5 1.5 0 0 1 2.2 2l-14.6 15.6c-.3.3-.7.5-1 .5z" class="cls-1" clip-path="url(#clipPath4451)"></path>
    <path id="path397" d="M868.9 163.3a1.5 1.5 0 0 1-1.2-2.5l14.3-16.5a1.5 1.5 0 0 1 2.3 2L870 162.6c-.3.4-.7.6-1.1.6z" class="cls-1" clip-path="url(#clipPath4441)"></path>
    <path id="path399" d="M859.3 158.3c-.3 0-.6-.2-1-.4-.6-.5-.7-1.4-.1-2l12.5-15.8c.5-.7 1.4-.8 2-.3.7.6.8 1.5.3 2.2l-12.5 15.7c-.3.4-.7.6-1.2.6z" class="cls-1" clip-path="url(#clipPath4431)"></path>
    <path id="path401" d="M849.5 151.3c-.2 0-.5 0-.8-.2-.7-.4-.9-1.3-.5-2l7.2-11.8a1.5 1.5 0 1 1 2.5 1.5l-7 11.8c-.4.5-.9.8-1.4.8z" class="cls-1" clip-path="url(#clipPath4421)"></path>
    <path id="path403" d="M819.3 140.8h-.2c-.8-.2-1.4-1-1.3-1.8l2.6-16.2a1.5 1.5 0 0 1 3 .4l-2.6 16.3c-.1.7-.7 1.3-1.5 1.3z" class="cls-1" clip-path="url(#clipPath4411)"></path>
    <path id="path405" d="M808.5 140.8c-.7 0-1.3-.5-1.5-1.2l-4.3-19.9a1.5 1.5 0 0 1 3-.6l4.3 19.8a1.5 1.5 0 0 1-1.5 1.8z" class="cls-1" clip-path="url(#clipPath4401)"></path>
    <path id="path407" d="M798.7 136.4c-.7 0-1.3-.4-1.5-1.1l-4.2-16.7c-.2-.8.2-1.6 1-1.8.9-.2 1.7.3 1.9 1l4.2 16.7a1.5 1.5 0 0 1-1.4 2z" class="cls-1" clip-path="url(#clipPath4391)"></path>
    <path id="path409" d="M798.7 144.5c-.4 0-.8-.2-1.1-.5l-10.8-11.3a1.5 1.5 0 0 1 2.1-2.1l10.9 11.4a1.5 1.5 0 0 1-1.1 2.5z" class="cls-1" clip-path="url(#clipPath4381)"></path>
    <path id="path411" d="M784.2 137.8c-.4 0-.9-.2-1.2-.6l-10-13.4c-.4-.7-.3-1.6.4-2.1s1.6-.4 2.1.3l10 13.4c.4.7.3 1.6-.4 2-.3.3-.6.4-.9.4z" class="cls-1" clip-path="url(#clipPath4371)"></path>
    <path id="path413" d="M791.2 151.3c-.3 0-.6 0-.9-.2l-13.3-9.3c-.7-.5-.9-1.4-.4-2.1.5-.7 1.4-.8 2-.4l13.4 9.3c.7.5.9 1.4.4 2-.3.5-.7.7-1.2.7z" class="cls-1" clip-path="url(#clipPath4361)"></path>
    <path id="path415" d="m778.5 155.5-.7-.2-16.9-9.8a1.5 1.5 0 0 1 1.5-2.6l16.9 9.8a1.5 1.5 0 0 1-.8 2.8z" class="cls-1" clip-path="url(#clipPath4351)"></path>
    <path id="path417" d="M769 164.8a1.5 1.5 0 0 1-.1-3l16.2-2a1.5 1.5 0 0 1 .4 3l-16.3 2h-.1z" class="cls-1" clip-path="url(#clipPath4341)"></path>
    <path id="path419" d="M819 184c-.7 0-1.3-.4-1.4-1.1-.2-.9.3-1.6 1.1-1.8l12.2-2.5c.8-.2 1.6.4 1.8 1.2.1.8-.4 1.6-1.2 1.7l-12.2 2.5h-.3z" class="cls-1" clip-path="url(#clipPath4331)"></path>
    <path id="path421" d="M823.7 162.5h-.5l-13.2-4.6a1.5 1.5 0 0 1-1-1.9c.3-.7 1.2-1.2 2-.9l13.2 4.5c.8.3 1.2 1.1 1 2-.3.5-.9 1-1.5 1z" class="cls-1" clip-path="url(#clipPath4321)"></path>
    <path id="path423" d="M819.3 157.3c-.6 0-1.2-.3-1.4-1L814 146c-.3-.8.1-1.7.9-2 .8-.2 1.6.2 2 1l3.8 10.3a1.5 1.5 0 0 1-1.4 2z" class="cls-1" clip-path="url(#clipPath4311)"></path>
    <path id="path425" d="M831.2 158c-.6 0-1.1-.2-1.4-.8l-6.5-13.3c-.4-.8 0-1.7.7-2 .7-.4 1.6-.1 2 .6l6.5 13.4a1.5 1.5 0 0 1-1.3 2.2z" class="cls-1" clip-path="url(#clipPath4301)"></path>
    <path id="path427" d="M843.8 165c-.8 0-1.5-.6-1.5-1.4v-16.7a1.5 1.5 0 1 1 3 0v16.7c0 .8-.6 1.5-1.5 1.5z" class="cls-1" clip-path="url(#clipPath4291)"></path>
    <path id="path429" d="M843.8 178c-.5 0-1.1-.3-1.3-1l-4.7-11a1.5 1.5 0 0 1 2.8-1.2l4.6 11.1a1.5 1.5 0 0 1-1.4 2.1z" class="cls-1" clip-path="url(#clipPath4281)"></path>
    <path id="path431" d="M851.8 173.1c-.7 0-1.3-.5-1.4-1.3l-2-13.6a1.5 1.5 0 1 1 3-.4l2 13.6a1.5 1.5 0 0 1-1.6 1.7z" class="cls-1" clip-path="url(#clipPath4271)"></path>
    <path id="path433" d="M861.6 178h-.2c-.8-.1-1.4-.9-1.2-1.7l2-15.3c.1-.8.9-1.4 1.7-1.3.8.2 1.4 1 1.3 1.7l-2 15.3c-.2.8-.8 1.3-1.6 1.3z" class="cls-1" clip-path="url(#clipPath4261)"></path>
    <path id="path435" d="M873.3 173.8c-.9 0-1.5-.7-1.5-1.5V167a1.5 1.5 0 1 1 3 0v5.4c0 .8-.7 1.5-1.5 1.5z" class="cls-1" clip-path="url(#clipPath4251)"></path>
    <path id="path437" d="m866.5 222.8-13.5-8.6-16.7-10.7-24.8-15.9-4-2.6 1.6-2.5 4 2.6L838 201l16.6 10.7 13.5 8.6z" class="cls-1" clip-path="url(#clipPath4241)"></path>
    <path id="path439" d="M801 179v1.6-3 1.5z" class="cls-1" clip-path="url(#clipPath4231)"></path>
    <path id="path441" d="m913.2 173.7-21.6-9.2-7-3a3590.2 3590.2 0 0 0-21.4-9l-12-5.1-4.6-2-.4-.1-2.5-1-.3-.2-2.8-1.2-2.6-1.1-8-3.4-10.3-4.4c-4.8-2-9.7-4-14.6-6.2l-2.5-1-7.8-3.3-1-.4-2-.9-.6-.3c-2.3.1-8.7.6-14.4 4.5-2 1.3-3.6 2.9-5 4.7a25.7 25.7 0 0 0-5.3 15c0 3.9 1 7.3 2.7 9.9a13 13 0 0 0 4 3.7l2.5 1.6 4 2.5 7.3 4.7-1.6 2.5a1474.5 1474.5 0 0 0-13.9-8.8 16 16 0 0 1-4.8-4.5 20.4 20.4 0 0 1-3.2-11.5c0-6 2.2-12.2 5.8-16.9 1.7-2 3.6-3.9 5.8-5.4 6.5-4.4 13.6-5 16.3-5h.3l1.3.6 3 1.2.9.4 6.8 3 2.6 1 14.6 6.2 10.3 4.4c2.7 1 5.3 2.2 8 3.3l2.5 1.1 2.7 1.2h.2l2.8 1.2.4.2 4.6 2 12 5a3257.1 3257.1 0 0 1 21.3 9.1l7 3 21.6 9.1-1.1 2.8z" class="cls-1" clip-path="url(#clipPath4221)"></path>
    <path id="path443" d="M932.4 203.4c.2-22.2-26.4-39-46.3-29.4-24.7 12-29.3 50.1-.7 60.4 22.4 8.5 46.8-6.5 47-31zm0 0c-.2 25-24.4 41-47.7 33-31.4-10.6-27-52.6-.3-66a33 33 0 0 1 27.6-.4c13.1 5.4 20.5 19.7 20.4 33.4z" class="cls-1" clip-path="url(#clipPath4211)"></path>
    <path id="path445" d="M877.9 207a30 30 0 0 1 2.6-22.2c4-7 12.5-11.2 20.4-8.6 16.5 5.5 19 23.8 17 38.7-.5-13.9-2.8-31-17.8-35.8-6.8-2.3-13.8 1.3-17.7 7-4.2 6-4.8 13.6-4.5 20.8z" class="cls-1" clip-path="url(#clipPath4201)"></path>
    <path id="path447" d="M886 204c-3.3-10 4.2-21.7 15.7-18.5 9.3 3.1 10 18.4 6.9 26 .8-6.8-.7-20.9-7.8-23.2-9.7-2.6-15.4 7.1-14.8 15.8z" class="cls-1" clip-path="url(#clipPath4191)"></path>
    <path id="path449" d="M942.3 118.8c-9.4.2-18.2-7.9-13.3-15.7 4.5-6.2 17.9-3.6 24 .4-5.8-2-18.4-4-21.7.9-4 6.6 3.4 12.9 11 14.3z" class="cls-1" clip-path="url(#clipPath4181)"></path>
    <path id="path451" d="M944.3 118c-7 .2-13.4-5.8-9.8-11.6 3.3-4.6 13.2-2.6 17.7.3-4.3-1.5-13.6-3-16 .6-3 5 2.5 9.6 8.1 10.6z" class="cls-1" clip-path="url(#clipPath4171)"></path>
    <path id="path453" d="M893.6 202.4c0-2.3 1.1-6.8 4-7.2 4.5 0 7 5.3 7 9.1a9 9 0 0 1-2.5 5.9 13 13 0 0 0-2-10.4 4.5 4.5 0 0 0-2.3-2l-.5.2a21.6 21.6 0 0 0-3.7 4.4z" class="cls-1" clip-path="url(#clipPath4161)"></path>
    <path id="path455" d="M829.9 139.3c.4-3.7 1-8 4-10.6 1.6-1.4 4.2-2 6-.8 5 3.6 3.3 11.6.6 16 .2-4 1-10.8-2.1-13.4-3.9-1.7-6.7 6.1-8.5 8.7z" class="cls-1" clip-path="url(#clipPath4151)"></path>
    <path id="path457" d="M911.6 171c.7-3.5 1.8-7.1 4.3-9.8a4.5 4.5 0 0 1 7.3 1c1.3 2.8 1 6 .9 8.8a35 35 0 0 1-1.8 8.2c-.4-4.1-.4-8.1-1-12.2-.2-1.4-.1-3.3-1.5-4.2-1.3-.7-2.6.6-3.4 1.6-1.6 2-3.2 4.3-4.8 6.6z" class="cls-1" clip-path="url(#clipPath4141)"></path>
    <path id="path459" d="M838.5 209.6c-3.3-9.5-4-19.7-4.5-29.6-.2-1.1.3-3 1.6-3.3 1-.3 1.5 0 2 0 3 1 5.4 3.3 7 5.7 1.6 2.5 2.7 5.1 3.6 7.7 2 5.2 3.7 10.4 5.2 15.7a223 223 0 0 1-7.3-14.8c-2.1-4.5-4.5-9.8-9.4-11.4-.2 0-.3 0 0 0l.3-.4v1.7c.4 9.3.4 19.3 1.5 28.7z" class="cls-1" clip-path="url(#clipPath4131)"></path>
    <path id="path461" d="M838 178.3c2-3.2 7-1.6 8.9 1a59.8 59.8 0 0 1 10.5 26.4c-1.6-2.8-3-5.6-4.4-8.4l-6-12.6c-1.2-2.6-2.3-5.5-5-6.7a4.1 4.1 0 0 0-4 .3z" class="cls-1" clip-path="url(#clipPath4121)"></path>
    <path id="path463" d="M843 191.4c.7.3 1.3 1 1.7.8-.1 0-.5 0-.3.2.2.3.6.7 1 .2.4 0 .6.4.6.9-.1.8-.8 1.4-1.7 1.5-2 .2-3-2.4-1.3-3.6z" class="cls-1" clip-path="url(#clipPath4111)"></path>
    <path id="path465" d="M778.9 165c-.6 2.2-3.5 4.5-2 6.7 1.5 1.7 4 3.6 5.7 5.1 12.3 9.9 27.4 16.4 37.9 28.5-10.7-7.9-22.7-13.6-33.3-21.6a52.3 52.3 0 0 1-11.6-11.3c-1.5-3 1.9-5.2 3.2-7.4z" class="cls-1" clip-path="url(#clipPath4101)"></path>
    <path id="path467" d="M792.1 186a35.7 35.7 0 0 1-11 19.5c0 .1 0 .3-.3.4-.1.1-.4-.1-.2-.2 0 .1.2 0 .2 0-.1-.2-.2-.4 0-.7a63 63 0 0 1 11.3-19z" class="cls-1" clip-path="url(#clipPath4091)"></path>
    <path id="path469" d="M804.7 194.2c-.7 5-3 9.5-6.5 13a15.3 15.3 0 0 1 6.5-13z" class="cls-1" clip-path="url(#clipPath4081)"></path>
    <path id="path471" d="M804.5 193.7c-1.7-4.8-3.2-9.6-4.6-14.4l1 .8h-.8l-.2-.8-2-7c-1.4-4.3-2.5-9.2-5.8-12.3a8.5 8.5 0 0 0-2.5-1.7c-.8-.3-1.3-.4-1.9 0-4 7 2.7 19.4 4.9 26.5-3.7-6.4-7.8-12.9-8.6-20.4-.3-3.4-.1-8.7 4.2-9.3 2.4-.1 4.3 1.3 6 2.7 5.4 5.7 5.9 13.8 7.7 21l-1-.8h.9c1 5.2 2 10.4 2.7 15.7z" class="cls-1" clip-path="url(#clipPath4071)"></path>
    <path id="path473" d="M790.2 167c.8.6.9 1.4 1.4 1.8v-.1c-.2-.3-1-.5-1.1-.1.1.8.6-.3.9-1 .8.1 1.4.6 1.5 1.6.1 1.4-1.3 2.6-2.7 2-2-.8-1.6-3.2 0-4.2z" class="cls-1" clip-path="url(#clipPath4061)"></path>
    <path id="path475" d="M788.3 156.6c4.3-2.8 9.8.3 12.2 4.1A72 72 0 0 1 810 186c1 4.4 1.5 8.9 1.9 13.3-3-8.4-5.2-17-8.2-25.3-2.8-6.7-5.8-19.7-15.4-17.4z" class="cls-1" clip-path="url(#clipPath4051)"></path>
    <path id="path477" d="M793.8 119.8c-2.6 0-4.6-1.6-4.6-3.6s2-3.6 4.6-3.6c2.5 0 4.5 1.6 4.5 3.6s-2 3.6-4.5 3.6zm0-4.2c-1 0-1.5.5-1.6.6 0 .1.6.6 1.6.6s1.5-.4 1.5-.6c0-.1-.6-.6-1.5-.6z" class="cls-1" clip-path="url(#clipPath4041)"></path>
    <path id="path479" d="M772.7 124.7c-1.5 0-2.8-.7-3.3-2-.4-.9-.3-2 .3-3 .5-.9 1.4-1.6 2.4-2 1-.5 2.1-.6 3-.5 1.2.2 2.2 1 2.6 1.9.8 1.8-.4 4-2.7 5.1-.8.3-1.5.5-2.3.5zm1.6-4.5c-.2 0-.6 0-1 .2-.9.4-1.2 1-1.2 1.2.1 0 .8.3 1.7-.1.9-.4 1.2-1 1.2-1.2l-.6-.1z" class="cls-1" clip-path="url(#clipPath4031)"></path>
    <path id="path481" d="M785.5 133.9c-1.5 0-2.8-.7-3.3-2-.8-1.8.3-4 2.7-5 2.3-1.1 4.8-.5 5.6 1.4.4 1 .3 2-.3 3-.5 1-1.4 1.6-2.4 2a5 5 0 0 1-2.3.6zm1.6-4.6c-.3 0-.6 0-1 .3-.9.4-1.2 1-1.2 1.1.1.1.8.3 1.7 0 .8-.5 1.2-1 1.1-1.2 0-.1-.2-.2-.6-.2z" class="cls-1" clip-path="url(#clipPath4021)"></path>
    <path id="path483" d="M813.9 147.3c-1.5 0-2.8-.7-3.4-2-.4-.9-.3-2 .3-3 .5-.9 1.4-1.6 2.4-2 1-.5 2.1-.7 3.1-.5 1.2.2 2.1.9 2.5 1.9.8 1.8-.3 4-2.7 5-.7.4-1.5.6-2.2.6zm1.6-4.6c-.3 0-.7 0-1 .3-1 .4-1.3 1-1.2 1.1 0 .2.7.3 1.6 0 .9-.5 1.2-1 1.2-1.2l-.6-.2zm.6.2z" class="cls-1" clip-path="url(#clipPath4011)"></path>
    <path id="path485" d="M822.9 145.1h-.8c-1.2-.3-2.1-1-2.6-2-.8-1.7.4-4 2.7-5 2.4-1 4.8-.5 5.7 1.4.4 1 .3 2-.3 3s-1.4 1.7-2.4 2.1c-.8.3-1.5.5-2.3.5zm1.6-4.5c-.3 0-.6 0-1 .2-1 .4-1.2 1-1.2 1.2 0 0 .8.3 1.7-.1.8-.4 1.1-1 1.1-1.2l-.6-.1z" class="cls-1" clip-path="url(#clipPath4001)"></path>
    <path id="path487" d="M775.3 144a3 3 0 0 1-1.2-.2c-1-.5-1.6-1.4-1.8-2.5a5.6 5.6 0 0 1 2.4-5.5c1-.6 2.2-.7 3.1-.3 1 .4 1.7 1.4 1.9 2.5.2 1 0 2.1-.5 3.1-.8 1.8-2.4 3-3.9 3zm1.3-5.8c-.2 0-.8.4-1.2 1.2-.4.9-.2 1.6 0 1.7 0 0 .7-.3 1.1-1.2.4-.9.2-1.5.1-1.6z" class="cls-1" clip-path="url(#clipPath3991)"></path>
    <path id="path489" d="M759.3 147.4a3 3 0 0 1-1.2-.3c-1-.4-1.7-1.3-1.9-2.5-.1-1 0-2 .5-3a5 5 0 0 1 2-2.5c1-.6 2.2-.7 3.1-.2 1.9.8 2.5 3.3 1.4 5.6-.8 1.8-2.4 3-3.9 3zm1.3-5.8c-.2 0-.8.3-1.2 1.2-.4.8-.2 1.5 0 1.6 0 0 .7-.3 1-1.2.5-.8.3-1.5.2-1.6z" class="cls-1" clip-path="url(#clipPath3981)"></path>
    <path id="path491" d="M766.8 168.1h-.4c-1-.1-2-.8-2.5-1.9a5 5 0 0 1-.5-3c.3-2.6 2-4.4 4-4.1 1.1 0 2 .7 2.6 1.8.5.9.7 2 .5 3-.3 2.5-1.9 4.2-3.7 4.2zm.3-6c-.1 0-.6.5-.7 1.4-.1 1 .3 1.6.4 1.6.1 0 .6-.5.7-1.5.1-1-.2-1.5-.4-1.6z" class="cls-1" clip-path="url(#clipPath3971)"></path>
    <path id="path493" d="M816.8 188h-.3c-1-.1-2-.8-2.5-1.9a5 5 0 0 1-.6-3c.3-2.6 2.1-4.4 4.1-4.1 1 0 2 .8 2.5 1.8.5.9.7 2 .6 3-.3 2.5-2 4.2-3.8 4.2zm.4-6c-.2 0-.7.5-.8 1.4 0 1 .3 1.6.4 1.6.2 0 .7-.5.8-1.4 0-1-.3-1.6-.4-1.7z" class="cls-1" clip-path="url(#clipPath3961)"></path>
    <path id="path495" d="M808.3 160.4h-.3c-1-.2-2-.8-2.6-1.9-.4-.9-.6-2-.5-3 .3-2.6 2.1-4.4 4.1-4.2 1 .1 2 .8 2.5 1.9.5.8.7 2 .5 3a5.4 5.4 0 0 1-1.2 3c-.7.7-1.6 1.2-2.5 1.2zm.4-6c-.2 0-.7.4-.8 1.4-.1 1 .3 1.5.4 1.6.1 0 .6-.5.8-1.5 0-1-.3-1.5-.4-1.6z" class="cls-1" clip-path="url(#clipPath3951)"></path>
    <path id="path497" d="M829.3 173h-.5l-13.3-4.6a1.5 1.5 0 0 1-.9-1.9c.3-.8 1.1-1.2 1.9-1l13.2 4.6c.8.2 1.2 1.1 1 1.9-.2.6-.8 1-1.5 1z" class="cls-1" clip-path="url(#clipPath3941)"></path>
    <path id="path499" d="M813.8 170.9h-.3c-1-.2-2-.9-2.5-2-.5-.8-.7-1.9-.5-3 0-1.1.5-2.1 1.2-2.9.7-.9 1.8-1.3 2.8-1.2 2 .2 3.4 2.4 3 5a5.4 5.4 0 0 1-1.1 2.8c-.7.8-1.6 1.3-2.6 1.3zm.4-6.1c-.2 0-.7.5-.8 1.4 0 1 .3 1.6.5 1.7 0 0 .6-.5.7-1.5.1-1-.3-1.5-.4-1.6z" class="cls-1" clip-path="url(#clipPath3931)"></path>
    <path id="path501" d="M837 167.6h-.3a3.3 3.3 0 0 1-2.7-1.6c-1-1.7 0-4.1 2.1-5.4 2.2-1.2 4.8-.9 5.8.9.5.9.5 2 0 3-.4 1-1.2 1.8-2.2 2.3-.8.5-1.8.8-2.7.8zm1.8-4.7c-.2 0-.7 0-1.1.3-.9.5-1.1 1.2-1.1 1.3.1.1.8.2 1.6-.3.9-.4 1.1-1 1-1.2l-.4-.1z" class="cls-1" clip-path="url(#clipPath3921)"></path>
    <path id="path503" d="M803.6 121c-2.6 0-4.6-1.6-4.6-3.7 0-2 2-3.5 4.6-3.5 2.5 0 4.5 1.5 4.5 3.5s-2 3.6-4.5 3.6zm0-4.2c-1 0-1.5.4-1.6.6 0 0 .6.5 1.6.5s1.5-.4 1.5-.5c0-.2-.6-.6-1.5-.6z" class="cls-1" clip-path="url(#clipPath3911)"></path>
    <path id="path505" d="M822.2 124.5c-2.6 0-4.6-1.6-4.6-3.6s2-3.6 4.6-3.6c2.5 0 4.5 1.6 4.5 3.6s-2 3.6-4.5 3.6zm0-4.2c-1 0-1.6.5-1.6.6 0 .2.6.6 1.6.6s1.4-.4 1.5-.6c0-.1-.6-.6-1.5-.6z" class="cls-1" clip-path="url(#clipPath3901)"></path>
    <path id="path507" d="M858 139.8a5 5 0 0 1-.6 0c-2.6-.4-4.4-2.2-4.1-4.2 0-1 .8-2 1.8-2.5.9-.4 2-.6 3-.5 2.6.3 4.4 2 4.2 4-.1 1.1-.8 2-1.9 2.6-.7.4-1.5.6-2.4.6zm-.5-4.2c-.8 0-1.2.3-1.3.4 0 .1.5.6 1.5.7 1 .2 1.5-.2 1.6-.4 0-.1-.5-.6-1.5-.7h-.3z" class="cls-1" clip-path="url(#clipPath3891)"></path>
    <path id="path509" d="M873.5 142.9a5 5 0 0 1-.7 0c-2.5-.4-4.3-2.2-4-4.2 0-1 .7-2 1.8-2.5.9-.4 2-.6 3-.5 2.6.3 4.4 2 4.2 4-.1 1.1-.8 2-1.9 2.6-.7.4-1.5.6-2.4.6zm-.5-4.2c-.8 0-1.2.3-1.3.4 0 .1.5.6 1.5.7 1 .2 1.5-.2 1.6-.4 0-.1-.5-.6-1.5-.7h-.3z" class="cls-1" clip-path="url(#clipPath3881)"></path>
    <path id="path511" d="M884.9 147.1a5 5 0 0 1-.7 0c-2.5-.3-4.3-2.1-4.1-4.1.1-1 .8-2 1.8-2.5s2-.7 3.1-.6c2.6.3 4.4 2.1 4.1 4.1 0 1-.8 2-1.8 2.6a6 6 0 0 1-2.4.5zm-.6-4.2c-.7 0-1.2.3-1.2.4 0 .2.5.7 1.4.8 1 0 1.6-.3 1.7-.4 0-.2-.6-.7-1.5-.8h-.4z" class="cls-1" clip-path="url(#clipPath3871)"></path>
    <path id="path513" d="M896.8 151.9a5 5 0 0 1-.7 0c-2.6-.4-4.4-2.2-4.1-4.2 0-1 .8-2 1.8-2.5.9-.4 2-.6 3-.5 2.6.3 4.4 2 4.2 4-.1 1.1-.8 2-1.8 2.6a5 5 0 0 1-2.4.6zm-.6-4.2c-.8 0-1.2.3-1.3.4 0 .1.6.6 1.5.7 1 .2 1.5-.2 1.6-.4 0-.1-.5-.6-1.4-.7h-.4z" class="cls-1" clip-path="url(#clipPath3861)"></path>
    <path id="path515" d="M911.1 153.8a5 5 0 0 1-.7 0c-2.5-.3-4.3-2.1-4-4.1 0-1 .7-2 1.8-2.6.9-.4 2-.6 3-.5 2.6.3 4.4 2.1 4.2 4.1-.1 1-.8 2-1.9 2.5-.7.4-1.5.6-2.4.6zm-.5-4.2c-.8 0-1.2.3-1.3.4 0 .2.5.7 1.5.8 1 0 1.5-.3 1.6-.4 0-.2-.5-.7-1.5-.8h-.3z" class="cls-1" clip-path="url(#clipPath3851)"></path>
    <path id="path517" d="M873.5 168.5a5 5 0 0 1-.7 0c-2.5-.4-4.3-2.2-4-4.2 0-1 .7-2 1.8-2.5a5.8 5.8 0 0 1 6 .7c.9.8 1.3 1.8 1.2 2.9-.1 1-.8 2-1.9 2.5-.7.4-1.5.6-2.4.6zm-.5-4.2c-.8 0-1.2.3-1.3.4 0 .1.5.6 1.5.8 1 0 1.5-.3 1.6-.4 0-.2-.5-.7-1.5-.8h-.3z" class="cls-1" clip-path="url(#clipPath3841)"></path>
    <path id="path519" d="M863.3 188.4c-.2 0-.5 0-.8-.2l-4.5-3a1.5 1.5 0 1 1 1.7-2.4l4.5 2.9a1.5 1.5 0 0 1-.9 2.8z" class="cls-1" clip-path="url(#clipPath3831)"></path>
    <path id="path521" d="M856.2 187.1a3 3 0 0 1-2-.7c-1.6-1.3-1.5-3.8.1-5.8s4.1-2.5 5.7-1.2c1.5 1.3 1.5 3.8-.2 5.8a5 5 0 0 1-3.6 1.9zm1.8-5.4a2 2 0 0 0-1.4.8c-.6.8-.6 1.5-.5 1.6.1 0 .8 0 1.4-.8.6-.8.6-1.4.5-1.6z" class="cls-1" clip-path="url(#clipPath3821)"></path>
    <path id="path523" d="M864.2 162.8a5.4 5.4 0 0 1-3.6-1.3 3.3 3.3 0 0 1-1.1-2.9c0-1 .8-2 1.8-2.5a5.8 5.8 0 0 1 6 .7c.9.8 1.3 1.8 1.2 2.9-.1 1-.8 2-1.9 2.5-.7.4-1.5.6-2.4.6zm-.5-4.2c-.8 0-1.2.3-1.3.4 0 .1.5.6 1.5.7 1 .2 1.5-.2 1.6-.4 0-.1-.5-.6-1.5-.7h-.3z" class="cls-1" clip-path="url(#clipPath3811)"></path>
    <path id="path525" d="M849.8 159.5a5 5 0 0 1-.7 0c-2.5-.3-4.3-2.1-4.1-4.1.1-1 .8-2 1.9-2.5.8-.5 2-.7 3-.5 2.6.2 4.4 2 4.1 4 0 1-.8 2-1.8 2.6a6 6 0 0 1-2.4.5zm-.6-4.2c-.7 0-1.2.3-1.2.4 0 .2.5.7 1.4.8 1 .1 1.6-.3 1.7-.4 0-.2-.6-.7-1.5-.8h-.4z" class="cls-1" clip-path="url(#clipPath3801)"></path>
    <path id="path527" d="M844.5 148.4h-.7c-2.6-.3-4.4-2.1-4.1-4.1 0-1 .7-2 1.8-2.6.9-.4 2-.6 3-.5 2.6.3 4.4 2.1 4.2 4.1-.2 1.8-2 3.1-4.2 3.1zm-.6-4.2c-.7 0-1.2.3-1.3.4 0 .2.6.7 1.5.8 1 .1 1.5-.3 1.6-.4 0-.2-.5-.7-1.4-.8h-.4z" class="cls-1" clip-path="url(#clipPath3791)"></path>
    <path id="path529" d="M396 23.6a1 1 0 0 1-1-1V-9c0-.6.4-1 1-1 .5 0 1 .5 1 1v31.6c0 .6-.5 1-1 1z" class="cls-1" clip-path="url(#clipPath3781)"></path>
    <path id="path531" d="M677.5 60.4a197 197 0 0 1-17.8 13.4c-6.2-.8-10.4-6.8-8-12.8a260.8 260.8 0 0 1 17.1-11 157 157 0 0 1-15.2 13l.6-.8c-1.2 3.9 1.6 8 5.4 8.7l-1 .2c6-3.7 12.6-7.7 19-10.7z" class="cls-1" clip-path="url(#clipPath3771)"></path>
    <path id="path533" d="M718.3 33.5c2.9-2.6 6.2-5.2 9.3-7.5l-.5 1.3a23 23 0 0 0-9.6-11.9h1.5c-4.3 2.9-8.7 5.7-13.4 8 3.9-4 8.1-7.4 12.5-10.8 5.6 2.7 10 8 11.4 14l.2 1-.7.4a90 90 0 0 1-10.7 5.5z" class="cls-1" clip-path="url(#clipPath3761)"></path>
    <path id="path535" d="M695.7 30.6c1 1.8.4 2.2-1 .8-1-1.8-.4-2.2 1-.8z" class="cls-1" clip-path="url(#clipPath3751)"></path>
    <path id="path537" d="m684 39.1.7 1.4-1-1.1c-.4-.6-1.2-1.9-.4-1.2l.7 1z" class="cls-1" clip-path="url(#clipPath3741)"></path>
    <path id="path539" d="M656.5 59.8c-4-4-8.5-7.5-13.5-10.3h1l-9.1 6 .4-1.7 3.5 5.3c8.6 12 19.3 22.3 31.6 30.5l-1.6 1a64.4 64.4 0 0 0-5.4-21c4.4 7 6.9 14.9 7.8 23-15.7-8.8-29-21.9-38-37.5l-.7-1 1-.7 10-5.8c5 3.3 9.5 7.4 13 12.2z" class="cls-1" clip-path="url(#clipPath3731)"></path>
    <path id="path541" d="m661.4 97.7-.8-.5a110.9 110.9 0 0 1-34.5-32l-.6-.9.6-.8 3.6-4.7 3.6-4.7 2.4 1.8-3.6 4.7-3 3.8a109 109 0 0 0 32.2 29.7 569.4 569.4 0 0 0 7.8-4.9l1.6 2.6-4.3 2.7-4.3 2.7-.7.5z" class="cls-1" clip-path="url(#clipPath3721)"></path>
    <path id="path543" d="M635.2 74.5c-.3 1.4-1.5 2.7-.8 4.1.4 1 .8 2 1.4 2.7.8.8 1.6 1.7 2.4 2.2 1.8 1.4 4.1 1.1 6 0-1 3-4.8 4-7.5 2.5-1.3-.8-2.2-1.7-3.2-2.8A8 8 0 0 1 632 79c-.2-2.2 1.6-3.6 3.2-4.5z" class="cls-1" clip-path="url(#clipPath3711)"></path>
    <path id="path545" d="M526 61.3H425a1.5 1.5 0 1 1 0-3h101a1.5 1.5 0 1 1 0 3z" class="cls-1" clip-path="url(#clipPath3701)"></path>
    <path id="path547" d="M875 61.3h-96a1.5 1.5 0 1 1 0-3h96a1.5 1.5 0 1 1 0 3z" class="cls-1" clip-path="url(#clipPath3691)"></path>
    <path id="path549" d="M630.8 61.3h-49a1.5 1.5 0 1 1 0-3h49a1.5 1.5 0 1 1 0 3z" class="cls-1" clip-path="url(#clipPath3681)"></path>
    <path id="path551" d="M298.2 156.1a6894 6894 0 0 1-150.7 5.1h-.5l-.4-.3-17-13 1 .4-35.2 2.2c-19.7 1.2-50.3 2.8-70.3 3.9-11.7.5-23.4 1.2-35.1 1.6l35-3c32.6-2.5 73.3-5.5 106-7.7l.4.3 17 13-1-.4c48.8-1 102-2 150.8-2.1z" class="cls-1" clip-path="url(#clipPath3671)"></path>
    <path id="path553" d="M28.1 55c.2 16 .3 31.1 0 46.9l-.4-1 11 11.1-2.2.1L46 101l-.3 1.3c-3.4-16-6.6-31.9-9.5-47.9l.5.3-8.6.4zm0 0 8.5-1.2h.3l.1.3c4.2 15.8 8 31.6 11.5 47.4l.1.7-.4.6-10.6 12.5-1-1.2-11.3-11.8A1413 1413 0 0 1 28.1 55z" class="cls-1" clip-path="url(#clipPath3661)"></path>
    <path id="path555" d="M33.3 60.6c2 7.6 3 15.7 3.7 23.6.7 8 1.2 15.8.8 23.8a173.5 173.5 0 0 1-4.5-47.4z" class="cls-1" clip-path="url(#clipPath3651)"></path>
    <path id="path557" d="m15.7 45 4 8.8-.7-.5c6-.7 12.7-1.3 18.8-1.7l6.3-.4-1.4 1.3c.3-2.9.8-5.7 1.2-8.5l1.5 1.6c-8.5.2-21.1-.4-29.7-.7Zm0 0A539 539 0 0 1 47 42.7l-1.4 10.2-.1 1.2h-1.3c-8.3.5-17.4.7-25.8.7L15.7 45z" class="cls-1" clip-path="url(#clipPath3641)"></path>
    <path id="path559" d="M24.3 44.7c-.7-8-.8-16-.5-24l1.4.1 9.9.5a225 225 0 0 1 3.5 23c-2.5-7-4.4-14-6.1-21.3l1.3 1.1c-2.9 0-5.8-.2-8.7-.4l1.5-1.3c-.4 7.4-1 15-2.3 22.3z" class="cls-1" clip-path="url(#clipPath3631)"></path>
    <path id="path561" d="M37.3 38.3c-4.6.5-9.3-1.1-12.6-4.5 4.7-.5 9.4 1.2 12.6 4.5z" class="cls-1" clip-path="url(#clipPath3621)"></path>
    <path id="path563" d="M36.3 33.5A14 14 0 0 1 25 27.7c4.4 0 8.7 2.2 11.3 5.8z" class="cls-1" clip-path="url(#clipPath3611)"></path>
    <path id="path565" d="M38.5 43.7a18 18 0 0 1-14-4c5-.8 10.1.8 14 4Z" class="cls-1" clip-path="url(#clipPath3601)"></path>
    <path id="path567" d="M21.3 56.7c1.8-2 4.9-2 6.8 0a4.5 4.5 0 0 1-6.8 0z" class="cls-1" clip-path="url(#clipPath3591)"></path>
    <path id="path569" d="M37.1 56.5a7.7 7.7 0 0 1 4.9-1.6l-1.3.7a8 8 0 0 1 3.5-3.3 8 8 0 0 1-1.2 5.5c-2 .2-4.2 0-5.9-1.3z" class="cls-1" clip-path="url(#clipPath3581)"></path>
    <path id="path571" d="M18.9 53.6c2-.5 3.5 1.1 2.6 3.1-2.1.6-3.5-1-2.6-3z" class="cls-1" clip-path="url(#clipPath3571)"></path>
    <path id="path573" d="M101.3 50.3c-4.9-.2-9.6-2.5-12.7-6.3a17 17 0 0 1 12.7 6.3z" class="cls-1" clip-path="url(#clipPath3561)"></path>
    <path id="path575" d="M79.8 44.7c-2 3.3-5.7 5.4-9.6 5.2 2-3.4 5.7-5.4 9.6-5.2z" class="cls-1" clip-path="url(#clipPath3551)"></path>
    <path id="path577" d="M52.3 69.3c6.3-1.5 13.3-3 19.8-3.9.7 2.6 1.3 5.9 1.8 8.5l.3 1.6-1.7.1c-6.8.5-14 .7-20.8.6l.6-6.9zm0 0 .9 6.2-.8-.7c6.5-1 13.3-1.7 20-2.1l-1.5 1.7-1.2-7.2 1.5 1.2c-6.4.6-12.3.7-19 1z" class="cls-1" clip-path="url(#clipPath3541)"></path>
    <path id="path579" d="M58 75.1a26.5 26.5 0 0 0 1.3 20.7c2.8 6.5 7 12.2 12.5 16.7l-2.3 2a46.5 46.5 0 0 1-4.4-39.8c-2.3 13-.1 26.9 7 38.2l5 8c-4.8-4-11.3-9-14.8-14.3C56 97.6 52 85 58 75Z" class="cls-1" clip-path="url(#clipPath3531)"></path>
    <path id="path581" d="M58.3 68.6c-1-4.2-1.4-8.6-1.5-13l7.4-.5h1.4c.2 2.2.4 4.6.4 6.9 0 1.9 0 3.7-.2 5.6l-1-2.7a109 109 0 0 1-2-8.2l1.6 1.3-6 .4 1.4-1.5c-.2 4-.5 7.8-1.5 11.7z" class="cls-1" clip-path="url(#clipPath3521)"></path>
    <path id="path583" d="M68.8 29A9.3 9.3 0 0 1 70 39a9.4 9.4 0 0 1-1-10z" class="cls-1" clip-path="url(#clipPath3511)"></path>
    <path id="path585" d="M888.7 58.2c.4-4.7 4.1-8.8 8.6-10.2a355.9 355.9 0 0 1 49.4 7.8 306.9 306.9 0 0 1-49.4-5.7h.4c-4.2.9-7.6 4-9 8z" class="cls-1" clip-path="url(#clipPath3501)"></path>
    <path id="path587" d="M870.2 74.3c-2-8.5 2.4-15 9.4-19.5 11.5 2.4 22.8 5.2 34.2 8.1a548 548 0 0 1 33.2 9.7 626 626 0 0 1-67.4-15.4l.9-.2a24 24 0 0 0-7.9 7c-2 3-2.5 6.7-2.4 10.3z" class="cls-1" clip-path="url(#clipPath3491)"></path>
    <path id="path589" d="M944.9 119.5a28 28 0 0 1-22.7.1l-15.7-5c-14-4.4-33-10.7-47-15.4h-.3a20 20 0 0 1-4.7-7.6c-3-9.3 1.3-19 11.6-20h.2l17.4 5.2a2757.6 2757.6 0 0 1 61.2 18.7l-9.6-2.4C918.4 89 899.8 84 883 79.3l-17.4-4.8h.6c-4.7.5-8.9 4.1-9.4 9-.7 4.8 1 9.8 4.4 13.4l-.6-.4a6734.3 6734.3 0 0 1 62.1 21.9c7 3.4 15 3.8 22.3 1.1z" class="cls-1" clip-path="url(#clipPath3481)"></path>
    <path id="path591" d="M935.4 92.8c-6 1.9-9.5 5-11.5 10.9-1.5 5-3.7 11 .4 15.6l.5.7-.7-.4c-6-3.2-5-11.4-3-17 2.1-6.2 7.5-10.4 14.3-9.8z" class="cls-1" clip-path="url(#clipPath3471)"></path>
    <path id="path593" d="M934.8 93c-6.8-4.3-3.5-15.9 1.2-20.6a8 8 0 0 1 4.2-2.7c1.6-.3 3-.2 4.5-.3 5.2 0 5.2 0 .2 1.5-2.6.7-5.2 1-6.8 3.3-3.6 4.6-7.2 13.5-3.3 18.7z" class="cls-1" clip-path="url(#clipPath3461)"></path>
    <path id="path595" d="M904.3 54.4c1.5 1.3 2.7 0 4.1-.7.8-.5 2-1 3.3-.7.7 0 1.4.4 2 1l.7 1.4-.1-.1c.7 0 1.1-.3 2-.5 2.6-.7 4.5 2 6.6 2.2-1.7 1.4-4.2-.3-6 .3-2.3 1.5-4.6 1.4-5.6-1.4l-.2-.2c-1.4-.4-3 .8-4.6.6-1-.2-2.2-.8-2.2-2z" class="cls-1" clip-path="url(#clipPath3451)"></path>
    <path id="path597" d="M922.3 61.7c2 0 2.5-.7 4-1.4 1-.4 2.3.2 2.7.8l.5.7c.2.2.4.5.9.4 0 .5-.6 1-1.1 1-.5.1-1.2 0-1.5-.1h-.5c-1.6 1.2-4.6.8-5-1.5z" class="cls-1" clip-path="url(#clipPath3441)"></path>
    <path id="path599" d="M932.5 58.4c1.7-1.4 1.6-1.4 2.8.4-.2 2.3-3.2 1.9-2.8-.4z" class="cls-1" clip-path="url(#clipPath3431)"></path>
    <path id="path601" d="M881.8 63c.8 1.6 2.7 1.1 4 .8.9-.2 1.8-.4 3-.3 1 0 2.4 1 3 1.7.6.8.7.8 1.3 1 2.3.5 5 .8 7.4 1.8-1.8.6-3.5.9-5.2 1-.9 0-1.7.2-2.8 0-1 0-2.4-1-3-1.8-1-1.4-2.4-.9-4.1-1-1.6-.1-4-1.3-3.6-3.2z" class="cls-1" clip-path="url(#clipPath3421)"></path>
    <path id="path603" d="M907.4 67c1.7.5 3.3 1 4.4.7.8-.3 1.7-.7 2.8-.6 1.8.4 2.5 1.3 3.6 2 1 .6 2 .5 3.1.8 1.8.5 3.4 1.3 4.7 2.5-1.8 0-3.4-.2-5-.1-1.2 0-2.9.1-4.2-.6-.9-.4-2-1.6-2.7-1.8h-.7c-2.4.7-4.9-.9-6-3z" class="cls-1" clip-path="url(#clipPath3411)"></path>
    <path id="path605" d="M901 75c1.1-.3 2.4-.1 3.5.4 1 .5 2 1 2.5.9 1.5-.7 2.7-2.5 4.8-2 1.6.2 3.1 2.5 4 2.7h1.3c3 .3 5.5 1.5 8.2 2.7a39 39 0 0 1-6.7 0c-1.4-.2-1.6.2-3.3.2-1.5-.2-2.5-1.4-3.4-2.2l-.7-.5h-.6c-1 .6-2.2 1.5-3.6 1.4-.9 0-1.6-.4-2-.8-1.4-1.2-2.2-2.3-4-2.9z" class="cls-1" clip-path="url(#clipPath3401)"></path>
    <path id="path607" d="M886.3 72.9c1.3-1.8 3.4-1.5 4.2.6-1.3 1.8-3.5 1.5-4.2-.6z" class="cls-1" clip-path="url(#clipPath3391)"></path>
    <path id="path609" d="M866.4 78.3c-1.8 1-3.3 2.5-3.7 4.1.2.5.8 1 1 1.9.2.5.2 1.1.1 1.6-.2 1.1-1 1.7-1.3 2.7-.2.4-.4 1 .1 1.5-.3.1-.8 0-1-.4a3 3 0 0 1-.6-2.4c0-.6.4-2 0-2.1-.3-.5-.6-.7-1-1.5-1.5-3.5 3.4-6.8 6.4-5.4z" class="cls-1" clip-path="url(#clipPath3381)"></path>
    <path id="path611" d="M868.7 91c0 1.2-.1 2.6 1 3 .7.2 1.7 0 2.6.4 1.4.5 2.7 1.9 3.7 2.5.6.4.9.5 2 .6 2.8.3 5.4 2.3 7.8 4-2.4 0-4.7-.6-7-1.1-.9-.2-1.6 0-2.7-.2-1.6-.3-3-1.8-4-2.7-1-1.2-2.3-.8-3.6-1.8-1.5-1.3-.8-3.5.2-4.7z" class="cls-1" clip-path="url(#clipPath3371)"></path>
    <path id="path613" d="M243.9 130.5c-.4 1.2-1.1 2.6-.2 3.5.6.5 1.6.6 2.4 1.2 2 1.5 2 4 4.6 4.7 2.6 1.2 4.5 3.6 6.5 5.7-1.7-.8-3.4-1.7-5-2.8-1.1-1-2.3-1-3.7-1.7-1.8-1-2.3-3.2-3.6-4.5-.6-.7-1.7-.9-2.3-1.8-1-1.5.2-3.3 1.3-4.3z" class="cls-1" clip-path="url(#clipPath3361)"></path>
    <path id="path615" d="M202.9 150c1 .7 2 1.8 3.2 1.3.7-.4 1.1-1.4 2-1.9 2-1.3 4.4-.6 5.9-2.7 2-2.2 5-3.1 7.6-4.3a39.7 39.7 0 0 1-4.3 3.7c-1.3.8-1.8 1.9-2.9 3-1.6 1.3-3.8 1-5.4 1.8-.8.4-1.4 1.3-2.5 1.6-1.7.5-3-1.2-3.6-2.5z" class="cls-1" clip-path="url(#clipPath3351)"></path>
    <path id="path617" d="M877.7 91.6c1-.3 1.7-1.1 3-1.1 2 0 3.7 1.8 5.2 2.2.5 0 .5.1 1.4-.5 3-2 5 .4 6.2 2.8.7 1.4 2 2.7 3.9 3.5-2 .4-4.3-.4-5.8-2-.6-.7-1.1-1.5-1.8-2h-.3l-.6.3c-2.5 1.8-4.9.5-6.6-1.4-.7-.6-1.2-1.2-1.9-1.5-.8-.4-1.8 0-2.7-.3z" class="cls-1" clip-path="url(#clipPath3341)"></path>
    <path id="path619" d="M880.5 82.5c1.5.8 2.6.3 4.1.1 2-.3 4.5 0 5.8 1.8.5.3 1.6.1 2.6.4 1.6.4 3 1.4 4 2.7-1.6-.3-3-.4-4.3-.3l-2.1.2c-.5 0-1.2 0-1.8-.5-.7-.4-1-.8-1-1-2-1.5-6.3-.4-7.3-3.4z" class="cls-1" clip-path="url(#clipPath3331)"></path>
    <path id="path621" d="M906.4 92.3c1 .9 2.1.2 3.1-.3 1-.6 2.4-1.2 3.7-.9.8.2 1.5.8 2 1.1l-.1.1.3-.2c1.4-1.1 3-1 4 .5.4.5.5 1.2 1.3 1.2-.8 1-2.2-.2-3-.3l-.2.1c-.2.5-.7 1-1.6 1.4-.7.3-1.6 0-2-.2l-1.4-.8c-1-.3-2.2.3-3.4.3-1.1 0-2.8-.6-2.7-2z" class="cls-1" clip-path="url(#clipPath3321)"></path>
    <path id="path623" d="M263.9 135.3c-1-.5-2.1.2-3 .6-1.1.6-2.7 1.2-4 .7-1.4-.5-.7-.5-2.5.4a2 2 0 0 1-1.3 0c-1-.3-1.4-1.2-2.3-1.2.6-.8 2.4.2 3-.3.4-.3.8-.9 1.5-1 .5-.2 1-.2 1.4-.1.8.2 1.2.5 2 .4 1.5-.3 4.2-1.3 5.2.5z" class="cls-1" clip-path="url(#clipPath3311)"></path>
    <path id="path625" d="M214.8 133.6c-1.2.3-2 1.4-3 2.3-1 .9-2 2-3.6 2.3l-1.6.5-1.4 1.2c-1.4 1-2.8.3-4.2.8.7-1.1 2.5-1.1 3.2-2 .4-.5.7-1.2 1.4-1.6.7-.5 1.6-.7 2-.8 2.3-.5 4.7-3.5 7.2-2.7z" class="cls-1" clip-path="url(#clipPath3301)"></path>
    <path id="path627" d="M217.4 140.6c.3-2.6 4-3.6 5.4-5.3a4 4 0 0 1 1.6-1.6c.7-.4 1.4-.5 2-.6 1.1-.3 1.9-2 3.2-2-1.1 1-1 2.5-2.5 3.4-.6.4-1.2.4-1.7.8-.3.2-.6.6-1 1.2-1 1.3-2.5 1.8-3.7 2.3-1.2.5-2.5.8-3.3 1.8z" class="cls-1" clip-path="url(#clipPath3291)"></path>
    <path id="path629" d="M899 104c1.3.1 3 1.1 4 1 .3 0 .3-.1.3-.2.4-.6.8-1.7 1.5-2.3 1-.8 2.5-.7 3.4 0 2.3 1.9 2.5 4.8 5 6.4-2.8.7-4.8-2.5-6.7-4-.2 0-.1 0 0 0 .2 0 .2 0 0 0-2.4 4.3-5.4 2.3-7.5-1z" class="cls-1" clip-path="url(#clipPath3281)"></path>
    <path id="path631" d="M913.4 101.3a1 1 0 0 1-.4-.1l-2.3-.9a1 1 0 0 1-.5-1.3 1 1 0 0 1 1.3-.5l2.2.8c.6.2.8.8.6 1.3a1 1 0 0 1-1 .7z" class="cls-1" clip-path="url(#clipPath3271)"></path>
    <path id="path633" d="m871 84.7-2.4-.3a1 1 0 0 1-.8-1.2c0-.5.6-1 1.1-.8l2.3.3c.6 0 1 .6.9 1.1 0 .5-.5.9-1 .9z" class="cls-1" clip-path="url(#clipPath3261)"></path>
    <path id="path635" d="M874.4 69.4c-.3-.9.1-1.7 1-1.7.8 0 1.2.8.9 1.8-.6.5-.8.8-1 1.2-.1-.4-.3-.7-.8-1.3z" class="cls-1" clip-path="url(#clipPath3251)"></path>
    <path id="path637" d="M705.6 23.4c1.9 2.3 4 3.6 6.2 5.4 2 2 4.2 3 6.5 4.7-3 .7-6.2-.2-8.5-2.4-2.2-1.8-4.6-4.6-4.2-7.7z" class="cls-1" clip-path="url(#clipPath3241)"></path>
    <path id="path639" d="M723.9 39.4c-1.6-1.8-1.7-3.8-1.9-6v-2.3a5 5 0 0 1 2.2 1.4c1.6 2 1.3 4.9-.3 6.9z" class="cls-1" clip-path="url(#clipPath3231)"></path>
    <path id="path641" d="M682.5 52c2.6 0 4.3-.8 6.6-1.7 2.4-1 4.5-1.2 6.9-2.4-1 4.5-10.4 8.2-13.5 4.2z" class="cls-1" clip-path="url(#clipPath3221)"></path>
    <path id="path643" d="m397.7 163.4 2.7 27.9c.9 9.3 2.1 18.5 3 27.8a120.9 120.9 0 0 1-5.7-55.7z" class="cls-1" clip-path="url(#clipPath3211)"></path>
    <path id="path263-2" fill="#eed699" d="M265.8 182.3c-2.1-.7-4.8.2-5.3 2.4 1.8-1.3 4.3-.8 5.2 1l2-1.4.5-.2.4.4 1.5 4.7 1-3.5v-.1c0-.2.2-.4.4-.6 1-.7 2.5-.8 3.6.3-.1-2-2.3-3-4.1-2.5a3 3 0 0 0-2-1.6c-1.3-.3-2.5.2-3.2 1z" class="cls-1" clip-path="url(#clipPath1767)"></path>
    <path id="path265-7" fill="#eed699" d="m226.7 171.7-.3-.5c-.4-.6-1.6-1-2.2-.8l-.3.1c-1.3-2.3-4.2-.9-4.4 1.5.7-.4 1.4-.7 2.2-.6.1 0 .1.2 0 .2-.2 0-.2-.1-.2 0s0 .4.3 1.1c.4.7 1.6 1.1 2.3 1l.4-.2.3.4c.9.6 1.8.6 2.6.4.7-.1 1-.6 1.8-.2.1 0 .3.2.2.6.4 0 .6-.6.5-1a2 2 0 0 0-1.7-1.6c-.5-.1-1.1-.1-1.5-.3-.1 0 0 0 0 0zm-2.6-.7c.1.2.1.3 0 0zm0 2.1h.1z" class="cls-1" clip-path="url(#clipPath1757)"></path>
    <path id="path267-0" fill="#eed699" d="M114.4 161.1v-.2c-.8-1.2-2.3-1.4-3.5-.9-.6-.6-1.5-.9-2.4-.9-1.5.1-2.8 1.5-2.5 3 1.3-1.4 2.9-1 3 .4l3 .2.3-.2.3.1c.3.3 1.1.7 1.6.6.6 0 1-.3 1.2-.4l.8-.6c.2-.2.3-.5.6-.1.2-1.3-2-.5-2.5-1h.1z" class="cls-1" clip-path="url(#clipPath1747)"></path>
    <path id="path271-0" fill="#eed699" d="M615.6 184.1c.6-.4 1.4-.7 2.3-.8a7 7 0 0 1 2.9 0c-1-1.5-3-2.2-4.8-2a2.9 2.9 0 0 0-2.4-1.2c-.6 0-1.6.3-1.9.4l-1.5-.6c-2-.7-4.6.5-5 2.5 1.5-1 3.1-1 4.4.1.5.4 1.1.8 1.9.9l1.9-.2.4-.1v-.1c-.1-.1-.2-.5 0-.7l1.8 1.8z" class="cls-1" clip-path="url(#clipPath1727)"></path>
    <path id="path3037" fill="#eed699" d="M165.8 180.3a4 4 0 0 1 4.3-.5c0-2.3-2.9-3.4-4.8-2.6l-.5.2c-1.4-1-3.5-.8-4 1 1-.3 2.3.4 2.4 1.3l-.7 4.1 3.3-3.5z" class="cls-1" clip-path="url(#clipPath1737)"></path>
    <path id="path3039" fill="#eed699" d="M129.3 190c.6-.3 1.4-.6 2.3-.8h2.9c-1-1.5-3-2.1-4.8-2a2.9 2.9 0 0 0-2.4-1.2c-.6 0-1.6.4-1.9.4-.2.1-1.2-.5-1.6-.6-2-.7-4.5.5-4.9 2.5 1.5-.9 3.1-1 4.4.1.4.4 1.1.8 1.8 1 1 0 1.5-.2 2-.3l.4-.1c-.1-.2-.2-.6 0-.8l1.7 1.8z" class="cls-1" clip-path="url(#clipPath1727)"></path>
    <path id="path3041" fill="#eed699" d="m69.3 181.9 5.4-3.3c1.9-1 4.3-.5 5.9 1 .1-3-3-4.7-5.7-4.2l-.4-.5a3 3 0 0 0-2.7-1c-1.7.3-2.8 2.4-1.7 3.7.3-1.3 1.5-1.7 1.8-1.4.3 0 .7.7.5.9z" class="cls-1" clip-path="url(#clipPath1667)"></path>
    <path id="path3043" fill="#eed699" d="m201.6 191.6-.3-.6c-.3-.6-1.5-1-2.2-.7h-.3c-1.2-2.3-4.2-.8-4.4 1.5.8-.3 1.5-.6 2.2-.5.2 0 .2.1 0 .1h-.2c0 .1 0 .5.4 1.2.3.7 1.6 1 2.2.8h.4l.4.3c.8.7 1.8.6 2.6.4.7-.1 1-.5 1.7-.2.2.1.4.3.2.6.4 0 .6-.5.6-.9a2 2 0 0 0-1.7-1.7c-.6 0-1.2 0-1.6-.3zm-2.6-.7c.2.1.2.2 0 0zm0 2 .1.1z" class="cls-1" clip-path="url(#clipPath1757)"></path>
    <path id="path263-7" fill="#eed699" d="M425.7 121.1c-2.1-.6-4.7.3-5.3 2.4 1.8-1.2 4.4-.8 5.3 1l2-1.3.5-.3.3.5 1.5 4.6 1-3.5c0-.3.2-.4.4-.6a3 3 0 0 1 3.7.3c-.2-2-2.4-3-4.2-2.6-.4-.7-1-1.3-2-1.6-1.3-.3-2.5.2-3.2 1.1z" class="cls-1" clip-path="url(#clipPath1767-8)"></path>
    <path id="path269-9" fill="#eed699" d="M600.6 128a4 4 0 0 1 4.3-.5c0-2.2-2.9-3.4-4.8-2.6l-.5.2c-1.4-.9-3.5-.8-4 1 1-.2 2.3.4 2.4 1.4l-.7 4.1 3.3-3.5z" class="cls-1" clip-path="url(#clipPath1737-5)"></path>
    <path id="path283-7" fill="#eed699" d="m638.6 153.4 5.4-3.3c1.9-1 4.3-.5 5.9 1 .1-3-3-4.7-5.7-4.2l-.4-.6a3 3 0 0 0-2.7-.9c-1.7.3-2.8 2.4-1.7 3.7.3-1.3 1.5-1.7 1.8-1.4.3 0 .7.7.5.9z" class="cls-1" clip-path="url(#clipPath1667-3)"></path>
    <path id="path3037-1" fill="#eed699" d="M758.8 187.5c1-1 2.8-1.3 4.2-.6.1-2.2-2.8-3.4-4.7-2.6l-.5.2c-1.5-.9-3.6-.8-4 1 .9-.2 2.3.4 2.3 1.4l-.6 4 3.3-3.4z" class="cls-1" clip-path="url(#clipPath1737-5)"></path>
    <path id="path3039-1" fill="#eed699" d="M498.9 77.6c.6-.4 1.4-.7 2.3-.8a7 7 0 0 1 2.9 0c-1-1.5-3-2.2-4.8-2a2.9 2.9 0 0 0-2.4-1.2c-.6 0-1.6.3-2 .4l-1.5-.6c-2-.7-4.5.5-4.9 2.5 1.5-1 3.1-1 4.4.1.4.4 1.1.8 1.8.9 1 0 1.5-.2 2-.3h.4v-.1c-.1-.1-.2-.5 0-.7l1.7 1.8z" class="cls-1" clip-path="url(#clipPath1727-2)"></path>
    <path id="path3041-9" fill="#eed699" d="m630.7 109.8 5.5-3.3c1.8-1 4.2-.5 5.8 1 .2-3-3-4.7-5.7-4.3l-.4-.5a3 3 0 0 0-2.6-1c-1.8.3-2.8 2.5-1.8 3.7.3-1.2 1.5-1.6 1.9-1.4.2.1.6.8.5 1z" class="cls-1" clip-path="url(#clipPath1667-3)"></path>
    <path id="path13597" fill="#eed699" d="M806.1 83.6c1.1-1 2.8-1.3 4.2-.6.1-2.3-2.8-3.4-4.7-2.6l-.5.2c-1.4-1-3.6-.8-4 1 .9-.3 2.3.4 2.3 1.4l-.6 4 3.3-3.4z" class="cls-1" clip-path="url(#clipPath1737-5)"></path>
    <path id="path13599" fill="#eed699" d="M893.2 125.3c.6-.3 1.4-.6 2.3-.8h2.9c-1-1.5-3-2.1-4.8-2a2.9 2.9 0 0 0-2.4-1.2c-.6 0-1.6.4-2 .4l-1.5-.6c-2-.7-4.5.5-4.9 2.5 1.5-.9 3.1-1 4.4.1.4.4 1.1.8 1.8 1 1 0 1.5-.2 2-.3l.4-.1c-.1-.2-.2-.6 0-.8l1.7 1.8z" class="cls-1" clip-path="url(#clipPath1727-2)"></path>
    <path id="path181-5" fill="#eed699" d="M851 96.1c0-1-.2-1.9-.4-2.8-.9-4.7-5-8.7-8-12.1.9 3.5 2 8.4 3.3 11.7.3 1 .7 2 1.2 2.9.4 1 1 1.7.9 2.8.7-.8.6-2.2.5-3.2l-.3-3.2 1.1 1.6 1.7 2.3z" class="cls-1" clip-path="url(#clipPath2177)"></path>
    <path id="path183-0" fill="#eed699" d="M851.5 101.6a3 3 0 0 0-.5-.6 5 5 0 0 0-3.3-1c-1.9 0-3.8.5-5.3 1.5 2 .4 5 .6 6.7 1.7v.2c0 .1 0 0 .1 0l2.1 2c1.4-1.4 3.1-2.7 4.9-3.6l2-1c-.7-.3-1.5-.4-2.3-.4-1.6 0-3 .5-4.4 1.2zm-2.2 1.7z" class="cls-1" clip-path="url(#clipPath2167)"></path>
    <path id="path16706" fill="#eed699" fill-opacity="1" fill-rule="evenodd" stroke="#eed699" stroke-dasharray="none" stroke-opacity="1" stroke-width=".7" d="m181 48-19.4-12.2s8 10.1 19.3 12.2z" paint-order="stroke markers fill"></path>
    <path id="path16708" fill="#eed699" fill-opacity="1" fill-rule="evenodd" stroke="#eed699" stroke-dasharray="none" stroke-opacity="1" stroke-width=".7" d="m188.2 44.6-17.9-31.3s6.9 18.8 17.9 31.3z" paint-order="stroke markers fill"></path>
    <path id="path16710" fill="#eed699" fill-opacity="1" fill-rule="evenodd" stroke="#eed699" stroke-dasharray="none" stroke-opacity="1" stroke-width=".7" d="M200.5 41.3 181.3-1.9s7 23.5 19.2 43.2z" paint-order="stroke markers fill"></path>
    <path id="path16712" fill="#eed699" fill-opacity="1" fill-rule="evenodd" stroke="#eed699" stroke-dasharray="none" stroke-opacity="1" stroke-width=".7" d="m212.6 38.7-8.3-49.5s1.3 27.7 8.3 49.5z" paint-order="stroke markers fill"></path>
    <path id="path16714" fill="#eed699" fill-opacity="1" fill-rule="evenodd" stroke="#eed699" stroke-dasharray="none" stroke-opacity="1" stroke-width=".7" d="m224.8 37.7-1.2-48.3s3.6 26.3 1.2 48.3z" paint-order="stroke markers fill"></path>
    <path id="path16716" fill="#eed699" fill-opacity="1" fill-rule="evenodd" stroke="#eed699" stroke-dasharray="none" stroke-opacity="1" stroke-width=".7" d="M237.7 38 244-9.6s.6 24.5-6.4 47.4z" paint-order="stroke markers fill"></path>
    <path id="path16718" fill="#eed699" fill-opacity="1" fill-rule="evenodd" stroke="#eed699" stroke-dasharray="none" stroke-opacity="1" stroke-width=".7" d="m250.6 38.3 13.6-43.6s-4.2 25-13.6 43.6z" paint-order="stroke markers fill"></path>
    <path id="path16720" fill="#eed699" fill-opacity="1" fill-rule="evenodd" stroke="#eed699" stroke-dasharray="none" stroke-opacity="1" stroke-width=".7" d="m263.8 41 22-39.7s-9.5 23.4-22 39.7z" paint-order="stroke markers fill"></path>
    <path id="path16724" fill="#eed699" fill-opacity="1" fill-rule="evenodd" stroke="#eed699" stroke-dasharray="none" stroke-opacity="1" stroke-width=".7" d="m274 46.3 25.5-24s-11.6 16.4-25.4 24z" paint-order="stroke markers fill"></path>
    <path id="path16726" fill="#eed699" fill-opacity="1" fill-rule="evenodd" stroke="#eed699" stroke-dasharray="none" stroke-opacity="1" stroke-width=".7" d="M277.7 59.2 305.2 43s-13 10.2-27.5 16z" paint-order="stroke markers fill"></path>
    <path id="path16728" fill="#eed699" fill-opacity="1" fill-rule="evenodd" stroke="#eed699" stroke-dasharray="none" stroke-opacity="1" stroke-width=".7" d="M279.6 69.6 311 59.4s-15.4 8-31.5 10.2z" paint-order="stroke markers fill"></path>
    <path id="path16730" fill="#eed699" fill-opacity="1" fill-rule="evenodd" stroke="#eed699" stroke-dasharray="none" stroke-opacity="1" stroke-width=".7" d="m281.8 83 31.3-8.5s-15.3 6.9-31.3 8.6z" paint-order="stroke markers fill"></path>
    <path id="path16732" fill="#eed699" fill-opacity="1" fill-rule="evenodd" stroke="#eed699" stroke-dasharray="none" stroke-opacity="1" stroke-width=".7" d="m308.6 91.1-24 4.3c9.6-.1 18.4-2 24.2-3.5l-.2-.8z" paint-order="stroke markers fill"></path>
    <path id="path16734" fill="#eed699" fill-opacity="1" fill-rule="evenodd" stroke="#eed699" stroke-dasharray="none" stroke-opacity="1" stroke-width=".7" d="m307.6 105.8-20.8.6c9.5 1 16.4.7 20.9.3l-.1-.9z" paint-order="stroke markers fill"></path>
    <path id="path16736" fill="#eed699" fill-opacity="1" fill-rule="evenodd" stroke="#eed699" stroke-dasharray="none" stroke-opacity="1" stroke-width=".7" d="m304 118.8-15.9.3c7 1.2 12.2 1.2 15.8.8 0-.4 0-.7.2-1z" paint-order="stroke markers fill"></path>
    <path id="path16738" fill="#eed699" fill-opacity="1" fill-rule="evenodd" stroke="#eed699" stroke-dasharray="none" stroke-opacity="1" stroke-width=".7" d="M289.6 131.4a61 61 0 0 0 10.2 1.1l-.1-1z" paint-order="stroke markers fill"></path>
    <path id="path16740" fill="#eed699" fill-opacity="1" fill-rule="evenodd" stroke="#eed699" stroke-dasharray="none" stroke-opacity="1" stroke-width=".7" d="M288.7 142.6c3.2 1 5.6 1.5 7.5 1.7 0-.4 0-.9.2-1.3z" paint-order="stroke markers fill"></path>
    <path id="path16742" fill="#eed699" fill-opacity="1" fill-rule="evenodd" stroke="#eed699" stroke-dasharray="none" stroke-opacity="1" stroke-width=".7" d="m178.9 60-20.7-7.8s7.8 6.2 20.7 7.7z" paint-order="stroke markers fill"></path>
    <path id="path16744" fill="#eed699" fill-opacity="1" fill-rule="evenodd" stroke="#eed699" stroke-dasharray="none" stroke-opacity="1" stroke-width=".7" d="m176.8 69.2-21-4.7s9.6 4.2 21 4.7z" paint-order="stroke markers fill"></path>
    <path id="path16746" fill="#eed699" fill-opacity="1" fill-rule="evenodd" stroke="#eed699" stroke-dasharray="none" stroke-opacity="1" stroke-width=".7" d="M175.8 79.7 154 76.2s9.7 3.8 21.8 3.5z" paint-order="stroke markers fill"></path>
    <path id="path16748" fill="#eed699" fill-opacity="1" fill-rule="evenodd" stroke="#eed699" stroke-dasharray="none" stroke-opacity="1" stroke-width=".7" d="m175.3 90.7-22-2.7s9.8 4 22 2.7z" paint-order="stroke markers fill"></path>
    <path id="path16750" fill="#eed699" fill-opacity="1" fill-rule="evenodd" stroke="#eed699" stroke-dasharray="none" stroke-opacity="1" stroke-width=".7" d="m175 102.8-22.3-2s10.6 3.5 22.4 2z" paint-order="stroke markers fill"></path>
    <path id="path16752" fill="#eed699" fill-opacity="1" fill-rule="evenodd" stroke="#eed699" stroke-dasharray="none" stroke-opacity="1" stroke-width=".7" d="m174.7 113.4-22-1.3s9.8 3.2 22 1.3z" paint-order="stroke markers fill"></path>
    <path id="path16754" fill="#eed699" fill-opacity="1" fill-rule="evenodd" stroke="#eed699" stroke-dasharray="none" stroke-opacity="1" stroke-width=".7" d="m174.7 123.9-22.2-.2s12.1 1.9 22.2.2z" paint-order="stroke markers fill"></path>
    <path id="path16756" fill="#eed699" fill-opacity="1" fill-rule="evenodd" stroke="#eed699" stroke-dasharray="none" stroke-opacity="1" stroke-width=".7" d="m174.9 134.5-21.6.2s10.4 1.9 21.6-.2z" paint-order="stroke markers fill"></path>
    <path id="path16758" fill="#eed699" fill-opacity="1" fill-rule="evenodd" stroke="#eed699" stroke-dasharray="none" stroke-opacity="1" stroke-width=".7" d="m175.3 145.9-21 .1s10.7 2.1 21-.1z" paint-order="stroke markers fill"></path>
    <path id="path16760" fill="#eed699" fill-opacity="1" fill-rule="evenodd" stroke="#eed699" stroke-dasharray="none" stroke-opacity="1" stroke-width=".9" d="m8.9 130.6 109.7-7.5S63 128.8 8.9 130.6z" paint-order="stroke markers fill"></path>
    <path id="path16764" fill="#eed699" fill-opacity="1" fill-rule="evenodd" stroke="#eed699" stroke-dasharray="none" stroke-opacity="1" stroke-width=".6" d="m325.1 44.8 28.4-1.9s-12.3 3.5-28.4 1.9z" paint-order="stroke markers fill"></path>
    <path id="path16766" fill="#eed699" fill-opacity="1" fill-rule="evenodd" stroke="#eed699" stroke-dasharray="none" stroke-opacity="1" stroke-width=".6" d="m369.6 21.9-51.7 2.5a389 389 0 0 0 51.8-1.9l-.1-.6z" paint-order="stroke markers fill"></path>
    <path id="path16768" fill="#eed699" fill-opacity="1" fill-rule="evenodd" stroke="#eed699" stroke-dasharray="none" stroke-opacity="1" stroke-width=".6" d="M310.3 3.2 385.5.8s-32.8 3.5-75.2 2.4z" paint-order="stroke markers fill"></path>
    <path id="path16770" fill="#eed699" fill-opacity="1" fill-rule="evenodd" stroke="#eed699" stroke-dasharray="none" stroke-opacity="1" stroke-width=".9" d="m119.9 97.6-20.4 1.5v.4c12.3-1 20.4-1.9 20.4-1.9zm-42.6 3-7.4.5c0 .3.1.5 0 .8l8-.6-.6-.7zm-22 1.5-4 .3-.5.8 4.8-.3-.2-.8zm-32 2.3-14.7 1 14.8-.6-.2-.4z" paint-order="stroke markers fill"></path>
    <path id="path16772" fill="#eed699" fill-opacity="1" fill-rule="evenodd" stroke="#eed699" stroke-dasharray="none" stroke-opacity="1" stroke-width=".9" d="M122 71.3 96.4 73v.7c15.6-1.2 25.6-2.3 25.6-2.3zm-73 4.4-3.7.2.4 1 3.3-.2a1 1 0 0 1 0-1zm-26.8 1.6L8.6 78l14-.3-.4-.5z" paint-order="stroke markers fill"></path>
    <path id="path16774" fill="#eed699" fill-opacity="1" fill-rule="evenodd" stroke="#eed699" stroke-dasharray="none" stroke-opacity="1" stroke-width=".9" d="m126 45.6-18.4 1v.2l18.5-1.2zM62.8 49l-14.6.7-.1.5 14.6-.7V49zm4 .1v.2-.2zm-52.9 2.4-4.4.3 4.4-.2z" paint-order="stroke markers fill"></path>
    <path id="path16776" fill="#eed699" fill-opacity="1" fill-rule="evenodd" stroke="#eed699" stroke-dasharray="none" stroke-opacity="1" stroke-width=".9" d="m134.4 19.3-30.6 1.2.2.7c18.2-1 30.4-1.9 30.4-1.9zM93.2 21l-4 .2-.1.8 2.7-.1.3-.2 1.1-.7zm-18.3.7-5.2.2 1 1 4.5-.3-.3-.9zm-16.1.7-21.3.8.2.7 21.1-.6v-1zm-25.3 1-8.5.3-.1.4 8.7-.2-.1-.6zm-12.7.4-10.6.4h10.5l.1-.4z" paint-order="stroke markers fill"></path>
    <path id="path16780" fill="#eed699" fill-opacity="1" fill-rule="evenodd" stroke="#eed699" stroke-dasharray="none" stroke-opacity="1" stroke-width=".6" d="m336.4 4.6 1 15.5s-2.4-8.3-1-15.5z" paint-order="stroke markers fill"></path>
    <path id="path16782" fill="#eed699" fill-opacity="1" fill-rule="evenodd" stroke="#eed699" stroke-dasharray="none" stroke-opacity="1" stroke-width=".6" d="m369.9 4.6 1 13.4s2.2-8.6-1-13.4z" paint-order="stroke markers fill"></path>
    <path id="path16784" fill="#eed699" fill-opacity="1" fill-rule="evenodd" stroke="#eed699" stroke-dasharray="none" stroke-opacity="1" stroke-width=".6" d="m353.3 27 .5 13s-2.4-5.7-.5-13z" paint-order="stroke markers fill"></path>
    <path id="path16786" fill="#eed699" fill-opacity="1" fill-rule="evenodd" stroke="#eed699" stroke-dasharray="none" stroke-opacity="1" stroke-width=".6" d="m337.2 48.6.5 11.2s-2.1-6.7-.5-11.2z" paint-order="stroke markers fill"></path>
    <path id="path16788" fill="#eed699" fill-opacity="1" fill-rule="evenodd" stroke="#eed699" stroke-dasharray="none" stroke-opacity="1" stroke-width=".9" d="M94.1 128v17.4s-1.6-7.8 0-17.5z" paint-order="stroke markers fill"></path>
    <path id="path16790" fill="#eed699" fill-opacity="1" fill-rule="evenodd" stroke="#eed699" stroke-dasharray="none" stroke-opacity="1" stroke-width=".9" d="m57.3 130.5.1 17.6s-1.5-8.8-.1-17.6z" paint-order="stroke markers fill"></path>
    <path id="path16792" fill="#eed699" fill-opacity="1" fill-rule="evenodd" stroke="#eed699" stroke-dasharray="none" stroke-opacity="1" stroke-width=".9" d="m20.1 133.2-.7 16.7s-1.3-9 .7-16.7z" paint-order="stroke markers fill"></path>
    <path id="path16794" fill="#eed699" fill-opacity="1" fill-rule="evenodd" stroke="#eed699" stroke-dasharray="none" stroke-opacity="1" stroke-width=".9" d="m37.8 125.4-.1-13.7s-1.2 5.5.1 13.7z" paint-order="stroke markers fill"></path>
    <path id="path16796" fill="#eed699" fill-opacity="1" fill-rule="evenodd" stroke="#eed699" stroke-dasharray="none" stroke-opacity="1" stroke-width=".9" d="M77.1 104s-.8 5.1-.5 11.5l.8.5z" paint-order="stroke markers fill"></path>
    <path id="path16798" fill="#eed699" fill-opacity="1" fill-rule="evenodd" stroke="#eed699" stroke-dasharray="none" stroke-opacity="1" stroke-width=".9" d="m113.6 102 .4 17.9s-2-9.3-.4-17.8z" paint-order="stroke markers fill"></path>
    <path id="path16800" fill="#eed699" fill-opacity="1" fill-rule="evenodd" stroke="#eed699" stroke-dasharray="none" stroke-opacity="1" stroke-width=".9" d="M96.8 76.2c-.3 2.8-.4 5.6-.4 8.3a4.9 4.9 0 0 1 .6 1.2l-.2-9.5z" paint-order="stroke markers fill"></path>
    <path id="path16802" fill="#eed699" fill-opacity="1" fill-rule="evenodd" stroke="#eed699" stroke-dasharray="none" stroke-opacity="1" stroke-width=".9" d="m20 102 .3-21.8s-2 10.7-.3 21.7z" paint-order="stroke markers fill"></path>
    <path id="path16804" fill="#eed699" fill-opacity="1" fill-rule="evenodd" stroke="#eed699" stroke-dasharray="none" stroke-opacity="1" stroke-width=".9" d="M55.7 25.9 56 46s-1.6-9.7-.4-20.1z" paint-order="stroke markers fill"></path>
    <path id="path16806" fill="#eed699" fill-opacity="1" fill-rule="evenodd" stroke="#eed699" stroke-dasharray="none" stroke-opacity="1" stroke-width=".9" d="m114 49.4.3 19s-1.2-9.3-.3-19z" paint-order="stroke markers fill"></path>
    <path id="path18903" fill="#eed699" fill-opacity="1" fill-rule="evenodd" stroke="#eed699" stroke-dasharray="none" stroke-opacity="1" stroke-width=".9" d="m35.8 19-.3-21s-1.7 11.2.3 20.9z" paint-order="stroke markers fill"></path>
    <path id="path18905" fill="#eed699" fill-opacity="1" fill-rule="evenodd" stroke="#eed699" stroke-dasharray="none" stroke-opacity="1" stroke-width=".9" d="m77.4 71.5-.2-20.9s-1.3 10.7.2 21z" paint-order="stroke markers fill"></path>
    <path id="path18907" fill="#eed699" fill-opacity="1" fill-rule="evenodd" stroke="#eed699" stroke-dasharray="none" stroke-opacity="1" stroke-width=".9" d="M76 19V-3.6s-2.2 12 0 22.6z" paint-order="stroke markers fill"></path>
    <path id="path18909" fill="#eed699" fill-opacity="1" fill-rule="evenodd" stroke="#eed699" stroke-dasharray="none" stroke-opacity="1" stroke-width=".9" d="m113.8 17.8-.2-19.7s-2 10.4.2 19.7z" paint-order="stroke markers fill"></path>
  </g>
</svg>