<svg class="quest-illustration" xmlns="http://www.w3.org/2000/svg" id="Warstwa_3" version="1.1" viewBox="0 0 940 200">
  <defs id="defs7">
    <clipPath id="clippath">
      <path id="rect4" fill="none" d="M0 0h940v200H0z"></path>
    </clipPath>
    <style id="style2">
      .cls-1{fill:#eed699}
    </style>
  </defs>
  <g id="g147" clip-path="url(#clippath)">
    <g id="g145">
      <path id="path11" d="M863.9-40.5 788-35.1v4.9l6.5.6c-1 3-1.3 6.1-1.5 9.2h1l-1.9 3.3c.2 1.4.4 2.7.8 4-1.4 0-2.7-.2-4-.3h-1.4V-8h1.2l2 .2v2.1c-3.5 0-6.9.2-10.3.5l.2 3.3.8 5.7c-3.3.1-6.7 0-9.8 1 1.4-.1 3.5.4 5 .5l4 .5a220 220 0 0 0 2.5 35.9h-3.9l-7.7.2a210 210 0 0 0-1.1-46.1 173 173 0 0 0 .7 46l-9.1.3c1.2-14.9 1.3-29.8 1.1-44.8V-4H756l-17.5.7h-.8l.1.8 1.3 9c-3.6.1-7.2.4-10.8 1v-.8l-.7-6.6c-4.7.2-9.6.5-14.3 1V-.1l-9.6.3c-3 0-6 .2-9 .4l.4 5.2c0 1.3.2 2.5.3 3.7-2.1.1-4.4.2-6.5.7v-.5l-.5-7c-5 .2-10.3.5-15.3 1l-.6-7.9v-1.3l-1.3.2A412 412 0 0 0 654-3.5l.2 2.3a105.2 105.2 0 0 0-43.3-28c-34.6-12-74.4-9.5-106.5 8.4-12.7 7-24 17-32.1 28.9a19 19 0 0 0-11.1.2l-.6-7.6c-5 .2-10 .5-15.1 1l-.5-8v-1.4l-1.5.1c-6 .4-12 1-17.8 1.5l.2 4.6c-5.3 0-10.6 0-15.9.4h-1.1c.2 3.1.5 6.2 1 9.2a7 7 0 0 0-5.5-.3c-2.1 1-2.2 1.2-.2 2l-1.8.4a54.1 54.1 0 0 0 .8-9C398 1 392.7 1 387.6 2.3l-.4-7.8V-7l-1.5.1-18.2 1.1v.4c-4.4.1-8.7.3-13 .6l.3 5.1.3 3.6c-3.3.1-6.7 0-9.9 1 1.4-.2 3.5.2 5 .3l4 .5a341.2 341.2 0 0 0 2.7 43.5h-.6v1.4a14.7 14.7 0 0 0-5.4-6.2 23.4 23.4 0 0 0-6-2.7 197 197 0 0 0-1-45.9c-1.3 7.6-1.2 15.5-1.1 23.2.2 7.5.7 15.2 2 22.6-3-.9-6.2-1.2-9.3-.9 1.2-14.4 1.4-29 1.2-43.3v-1.5h-1.4c-7.6 0-15.8.3-23.4.7h-.8l1.4 9.8c-3.6.2-7.2.5-10.9 1L301 0c-4.7.2-9.5.5-14.2 1l-.1-1.3h-1.3c-5.7.2-11.4.4-17.1.8v.6l.7 8.2a62.7 62.7 0 0 0-6.6.7v-.5l-.5-7c-5 .2-10.3.5-15.3 1l-.3-7.9-.1-1.5-9.9.6-9.8.7v1.4l.4 11-5.6.4-4.9.4a274 274 0 0 0-.5-6.9v-1h-1c-5 .2-10 .5-15 1V-4h-7.3c-6 .1-12.5.3-18.4.7.4 3.2.9 6.3 1.5 9.5a113.7 113.7 0 0 0-11 1l-.3-1.8A130.4 130.4 0 0 0 150 6.5V5.3c-6 0-12 .3-17.9 1h-.5v.5l.3 2.2a37 37 0 0 0-5.3.7l-1 .2-.2-6.1-.1-1.5c-5.2.2-10.6.5-15.7 1.4 0-2.8-.2-5.5-.3-8v-1.4l-9.9.5-9.8.7.4 9 .2 3a66 66 0 0 0-10.8 1.1V7.4c-4.9 0-9.7.3-14.5 1v-1c-5.2 0-10.4.4-15.5 1.3l-.5-14.9v-1.5l-10 .6-9.7.7.5 14.1c-2.3.2-4.6.5-6.9 1L22.5 2V.5l-1.6.1-11.6 1v1.2l-6.7.6c0-3.4-.2-6.7-.3-9.2l-13 1.3c.2 17.4 1.2 36.2 2.1 53.7h-7.6v12h44.9v1.4l110 9.8h.1l1.3-.1c-1 1.6-1.7 3.4-2.2 5.3-27-2.5-54-4.8-81.2-6.1 27 3.3 54 5.8 81.1 7.9l.5 3A815.3 815.3 0 0 0 77.1 78c20.4 3 41 4.8 61.6 6.1v2.5l-99.4-9.2.4-.4c2-2 3.5-4.4 4.6-6.9-.2-2-.5-3.8-1.4-5.6-.4 1-.8 2-1 3.1-4.9-.4-9.8-.5-14.7-.7-.4 3-.5 6-.6 9l-4.5-.4-6.4-.3v.7A143.1 143.1 0 0 0 4.2 75l-.4 4.4-.1 1.1c-5-.4-10-.5-15.1-.7-.6 5.7-.6 11.4-.7 17 0 11 0 22 .6 33h-4.7v12h5.4l.3 3 .2-3h51.8v4.7l6.4.6v3.5c-8.3-1-17-1.3-25.4-1.4-9 0-18.1.4-27 2a348 348 0 0 0 52.4-.2v3.3l4.8.5c.3 2.2.8 4.5 1.4 6.7l2.9 1-5.1 2.5-5.4 2.9 9-.4-.5 5.4-7-.7v8.4l97.6 9 65.6-20.9v-16.4h8.8c0 1.3.3 2.6.6 3.8 1.3 5.6 8.1 9.5 12.2 5.4 1.9 1.5 4 2.7 6.4 3.4a10.2 10.2 0 0 0-.2 10c2-2.8 2.4-6.5 1.1-9.7a22 22 0 0 0 8.9.5c-1 3.3-.9 6.9.7 10l.4-.7a21.2 21.2 0 0 1 5.7 3c1 .8 2.8 2 2 3a37.4 37.4 0 0 1-22.3 3.3c-1.9-.3-4.5-.7-5.7-2.3-1.7-3.9 6.6-6.2 9.6-6.4-3.7-.5-8.2 0-11 3-2.5 2.8-.2 6.4 2.8 7.4a34.8 34.8 0 0 0 26.2-2.3c2.7-1.3 3-3 2.1-4.4 1.2.2 2.5.4 3.7.3 4.8-.2 9-2 13.1-4.3l.4.3.2.3.8.6 1.7-.8c5.6-2.7 11.3-6 16.8-9.2 3-1.8 6-3.6 9-5.2l.7-.4v-2.6a40.9 40.9 0 0 0 15.2-6.5l1.1-.8v.3l.6-.3 1-.5c.4 0 .8-.2 1.2-.4 0-.5.3-1.1 1.3-1.2h.8l.5.2.2-.1.6-.2h.3l.4-.2-.5-.2c.8.2 1.7.2 2.4.2 5-.3 10.2-2 14-5.5-5 .4-9.6 1.7-14.4 3.2-1.5.4-2.9 1-4.6.7l.6.6-1.2-.5c.2-7-.8-14.2-4.2-20.2a106 106 0 0 0 23.9.3h.1a12 12 0 0 0-.4 14.8c.9-5 1-9.7.5-14.7 4.8 2.5 11 2 15.4-.9a64 64 0 0 0 19.9 2.9c4.5-.2 9-.2 13.3-2.1 1.4.6 2.6 1.6 2.5 3.4-.2 2-3 .7-4.5.8a39.4 39.4 0 0 0-19 4.2l-.7-.3c-1-.4-4.9-1.3-7-1.3a40 40 0 0 1 15 8.2c.5.5 2 1.6 2.3 2l-.1.1c-.9.8-2.4 1-3.6 1-4.3-.3-8.9-3-13.4-2.9-7-.3-13.9 2.2-20.6-.4 6 4.1 13.7 2.5 20.4 3 5.8.4 11.5 5 17.5 2.5a4 4 0 0 0 2.5-2.6c3.4.2 6.8.2 10.2.1 3.8 0 7.9-.2 11.8-1.7a21 21 0 0 0 2.4-1.1c3.8 2.3 7.5 4.1 11.8 5.5a11.3 11.3 0 0 0-10-6.6c5.6-4 6.8-10.5 3.4-17.5 2-.2 4-.3 6-.2 2 0 4 .1 6.1.4 0 3.5 0 7-.5 10.5-.4 3.7-.6 7.7-2.7 10.8l-2.9 3.7c0 .2 0 .4-.2.6-.4.5-.3.4-.7.5l-.2.3v-.2c-.2.1-.2 0-.2 0l-.5 1.1-.2.4 1 .9v-.3a15 15 0 0 0 12.5 7.6 41.8 41.8 0 0 0-12.5-8.7v-.2c2.6-2.5 5.7-4.8 7.2-8.3 2-5.5 2.7-11.4 3.1-17.2 5 2 9.7 4.1 14.4 6.5l1.5.8c1.2 5-.4 11.3-1.9 15.5-2.8 5.9-8 10.3-13.3 14.2l-1.2.9c5 5 10.8 9 17.2 11.8a71 71 0 0 1-13.4-11.4c5.7-3.6 11-8 14.1-14a30.8 30.8 0 0 0 2.5-17.5 29.5 29.5 0 0 1 4.9 1.1 89.2 89.2 0 0 1 11.4 4.4c.3 20.2-7 24.2-18.7 38.3 14-12.9 21.9-17.5 22.3-38.3a40 40 0 0 1 19.4 33.3 59.2 59.2 0 0 1-41.7 5 53.2 53.2 0 0 0 45.1-3 39 39 0 0 0-3.7-20l-.3-.3c-.4-.5-.7-1.2-1-1.8a20 20 0 0 1-.9-1.9l-.1-.2a41.6 41.6 0 0 0-5.2-6.8l-.2-.2a9.8 9.8 0 0 1-1.7-1.8 48.5 48.5 0 0 1-2-1.6 36.5 36.5 0 0 0-3.9-2.8l-2.9-1.3-2.7-1-2.1-.7-2.8-1-1.8-.6c-.4 0-.7-.2-1-.3h-.5l-.1-.3-2-.4h-.6l-.2-.2h-.2l-.8-.3-.5-.2v-.1a26.4 26.4 0 0 0-2-.5v.1h-.4a37 37 0 0 0-3.8-.7c1-9-.4-17.1-3.8-23.7a38.4 38.4 0 0 0-4.3-6.6l-.5-.6-.3-.5a16 16 0 0 1-1.6-2v.2c-2-2.1-3.4-3.4-6.2-5.7l-1.5-1.4a2 2 0 0 0-1.4-.5l-.1-.2-.7-1.5.8-4.1c0-.5.2-.8.3-1.2v-.8l.7-2a12.3 12.3 0 0 1 1-3h-.2c.4-1.6.6-3.2.5-5a14 14 0 0 0-1.8-6.4l-.7-1-.9-.8-1.2-1.2-1.7-1.8-.4-.5a18.1 18.1 0 0 0-16.4-2.8c.1-1-.7-1.9-1.3-2.6l-.4-.3h.2l-1.2-1-1.2-1-.5-.1-.4-.1c-.4-.1-.6-.4-1-.6l-.5-.2v.1c-4-1.6-8.5-1.6-12.8-.8l-.5.3-3.4 1.3c-1.2.4-2.3 1-3.6 1.3h-.3l-3 1.4h-.3a33 33 0 0 0-6.9 5.6h-.1l-2 2v.2l-.5.8h.2c-1.1 1.5-2 3.2-2.8 4.9-6.7.6-13.6 5.7-15 12a6.7 6.7 0 0 0-9 .2 16 16 0 0 0-4.9 1.8l-.7.4-.9.6a27.8 27.8 0 0 0-7 6c-1.2-.4-2.3-.8-3.6-1a41 41 0 0 0-3.2-.8v-.1l-.5-.2v.2c-4-.8-8.2-1-12.3-.7-.6 0-1.1.2-1.6.3l-3.3.5-3.7.5c-1.5.3-3 .7-4.4 1.2l-1 .5-1.6.7-2.3 1.1c-1 .4-1.8.9-2.8 1.2l-.3.1-3.7 2.1v-.3a45.6 45.6 0 0 1-1.1 1 50.2 50.2 0 0 0-13.4 13.8v.2l-.2.3-.3.9-.8.7v-.1l-.3.1h-.2l-.3.3c.2.1.3 0 .4-.2v.2c-3.7 3-7.1 6.5-9 11.1l-1.2 3 1.5-.6a8 8 0 0 0-2 2.8l-.5-.5c-.8-1.2-1.8-2-2.5-3-2.2-2.8-2-6.3-2.1-10V110a17.5 17.5 0 0 1-7.1 3c.9-2.7.8-5.6-.4-8.3l-1.3-2.8.3-.2c3-2.1 5.6-6 5.3-9.8a27 27 0 0 1-7.2 7.5c-4 2.9-2.6 8.1.6 11-.4-3-1.5-6.2.8-8.3l.4 2.7a11.6 11.6 0 0 0-.1 8.5c-2.8.3-5.7-.2-8.4-1.4 3.7 3.4 9.4 4.3 14.2 2.7 0 3.4.4 7 2.8 9.7 1.5 1.8 3.7 3 3.9 5.3-.4 2.9-5.4 5.7-7.7 2.8.4 1.3 1.8 2.1 3.2 2.2.7 0 1.3 0 1.9-.2 1.6 1 1.6 3.5.2 4.6-1.3 1.3-3.3 1.5-5.2 1.3-3.6-.4-7.4-1-11-1.6a263.8 263.8 0 0 0-2-25.2l-.5-.6a116.2 116.2 0 0 0-.7 17h-19c1.2-3.2 1.4-6.8.5-10.2 2 1.7 4.2 3.2 6.6 4.2 1 .4 2 .7 3 .4a5 5 0 0 1-2.6-1.1c-5-3.9-10.1-9.4-10.4-15.9-.2-3.5 1-7.2 2.3-11l.7-2.3.2 1.7c.7-3.8 1.1-7.6 1.4-11.4.3-1.5.4-3 .5-4.4 3.8 0 7.6-.2 11.3-1-.2 1.5 0 3 1 4.2-.3-1.8 0-3.2.6-4.5l1.4-.4-1.1-.2c1.9-3.3 6-5.4 8.7-8.4a16 16 0 0 0 4-8.4h7c1.9 3.7 4 7 6.4 10.5.9-3.8-.8-8-3.8-10.5h68.3c1.1 1.7 2.8 3.3 5 4.5l1 .5-7 .2v1a66.6 66.6 0 0 0-14.9-1 80 80 0 0 0-.1 9 67.6 67.6 0 0 0-11.4-.8v1a49.8 49.8 0 0 0-11.4-1l-.3 5.9c-5-.6-10-.8-15.2-.9v1.3l-.3 8.4c-1-2.2-2.2-4.5-3.9-6.7 2.8 13.2 4.5 15.7-2 28.3 3.3-2.5 5.4-5.4 6.5-8.4l.1 1.4 1.6-2c.5-6.6.7-13.1.7-19.6 4.2-.3 8.3-.7 12.5-1.3 0 2.9.3 5.7.6 8.6l.3-.2.3-.3.6-.7.7-.7c.3-3.4.5-6.9.5-10.4 2.9-.2 5.8-.6 8.6-1.2 0 2.7 0 5.4.4 8 .2 0 .4 0 .6-.2l.6-.2.5-.2.3-.1.6-6a53.5 53.5 0 0 0 8.5-1.1c.1 1.8.4 3.7.7 5.6h.5l1-.2c.4-4.1.6-8.3.8-12.5 4-.1 8-.5 12-1.3-.1 4 .1 8.3.5 12.4h.3c.3.2.7.2 1 .3l.9-11.3a172.9 172.9 0 0 0 12.1-.3l.8 6.5 1.5-.8.2-6.1a25 25 0 0 0 13-3.8 16 16 0 0 0 4.7-5V61h7l.6-.7h.3l1.3-1.6.7-.7h-9.1c.4-1.1.6-2.3.6-3.6 0 1.3-.3 2.5-.7 3.6h-.7v1.3a15 15 0 0 1-5 5 23 23 0 0 1-12.7 2.5v-.7h-3.8c-2.2-.6-4.3-1.6-6.2-2.8-7.3-4.7-7.2-13 0-17.8a22.2 22.2 0 0 1 22.7-.9c2.4 1.4 4.5 3.5 5.6 6V52h17.1l.5-.4.3-.4a18 18 0 0 1 2.1-2.2h-5.7c1-15.4.7-31 .2-46.4l-.3-5.5V-3l7-.4 7-.4c.9 15.8 2 31.6 3.6 47.4h.6V33.3c1.3 2.5 3.5 4.7 6.4 6.4 2.3 1.4 4.9 2.4 7.5 3h.1l1.5.3c3 .5 6.2.5 9.3 0-.4 1.8-.4 3.6-.4 5.5l.7.4 1.5.7 1.4.5 1 .3 1 .3a21.9 21.9 0 0 1 3 .5l1.2.5 1 .3.5.2h12a23 23 0 0 0-4.5 3.5c.8.6 1.5 1.3 2.1 2 2.3-2.2 5-4.2 8-5.5h.7v-.3l3.1-1c4.5-1.3 9.2-1.9 13.8-1.6a72.7 72.7 0 0 0 10.1 34.3 38.7 38.7 0 0 1-33.1-4v-.1l-.7-.6-.2.8-.5 1.8c1.3.9 2.5 1.8 3.9 2.4l-.2 5h.2l1.8.6.2-4.8c4 1.5 8.4 2.3 12.8 2.3l-.4 35.5.3-.1c.3-.5.7-.7 1-.7.3 0 .5.1.7.3l.4-35a37 37 0 0 0 6.6-.7l-.4 40.1 2 .1.4-40.6c2-.4 3.8-1 5.5-1.7 4 6.5 9 12.4 14.6 17.7l-.4 28.1h-8l.2.2c.3.7.2.8-.2 1.4l.7.6.3.2.8.4v.2h46.8c.7 2 1 4 1.3 6h-2.5c-.2-2-1.1-4-2.9-5-1-.7-2.6-1-3.5 0 1.2.4 1.5 1 2 1.7l1 2.2.5 1h-34.3l1.6 2.7v.4h34l.6 1 .5-1h3c0 1.4-.3 3-.6 4.4-3-4.7-10.3-3.2-12.2 2.2l-.3.8h-20.3l.6 1.2.3 1.2-.2.6H513a7.1 7.1 0 0 0 4.9 5.5c1.3.4 2.6.3 3.7-.2-.1 1 .6 2.2.8 3 .7 1.7 1.5 3.3 2.3 4.8a9 9 0 0 0-2.7 8.5 7.7 7.7 0 0 0 3.7-6.9l2.3 3.2a10 10 0 0 0-1.6 7.4 5.6 5.6 0 0 0 3.4-5.4 35 35 0 0 0 4 3.6l.3.2a5 5 0 0 0-.6 5.6c2.1-.6 3-2.9 2.3-4.7 2.4.8 5.4.4 6.6-2 .4-1.1.6-2.1.5-3 4.8-3.8 6-11.8 1.5-16.5a16.5 16.5 0 0 0-4-3.1h32.5c2 3 4.2 5.9 5.4 9.5-2.3.1-4.6.4-7 1a15.5 15.5 0 0 0 16-.4 31 31 0 0 0-4.4-.6l5.7-4c2.5.3 5 1.2 4.8 3.9-.1.7-.7 1.2-1.7 1.7a24.7 24.7 0 0 1-19.2 2.3c-1.9-.6-4-1.4-5.5-2.8-1.5-1.6.5-3 2-3.7 2-1 4.4-1.2 6.7-.9-8.4-3.4-16.8 3.9-7 8.8-.4.4-1 .5-1.5.7-2.4 1-4.8 2.2-6.6 4-3.2 3.2-4 8.2-1.8 11.7-4.7-.7-9.5-1.6-14-3l.3 4.1a7.8 7.8 0 0 0 5.5 4.4l-3.8 2a215 215 0 0 0 43 5.2c11 0 21.8 0 32.6-2a39 39 0 0 0 5.5-1.8 61.5 61.5 0 0 0 47.7-28.8l1.4-2.3c-6 1.9-12.2 2.7-18.5 2.1 4.5 1.3 9.2 1.6 13.8 1a76 76 0 0 1-40.7 26.3l1.2-.6a63.1 63.1 0 0 0 30-37.8h55v15l45.6 12.7.4.1 47.8-13.5v4.9h1.4c27 1.8 66.6 4.9 93 6.3 19.2-7.4 49-18.8 67.7-26.3h.3v-.4l-.4-28.8-.5 28.5c-8.6 3-25.4 9.2-33.8 12.3l-33.8 12.4-46-3.5-44.9-3.3v-2.5l44.3 3.1 45.9 3.1c17.8-6.1 45-16.2 62.5-22.6v-.3l-.4-25.7 1.4-.4v-1l5.3-.1-5.3-.1V104l3.5-1.2V77h-14.3l5.4-1.6V50.3h-3v22.9l-47.3 14.3L805 77.9v-1.6L911.6 85h.2l45.4-12.8V54.5l-45.6 12L805 57.9V54h-3v2c-12.6.8-25.7 1.7-38.2 2.7l-21.4-4.3-21.8-4.2-8.2-1.6v24.1l1.1.3 50 9a1925 1925 0 0 0 38.5-5.4V78l-39.8 5-51.5-10.5v-26l68.6-1.9h23.3l.1 1-6-.5.7 7.7 104.7 10.6 63.8-15V16.7l-6-2-.2.7-.3-19.7-.2 20.3-58 8.3a14297.4 14297.4 0 0 0-109.1-9.7v-1.2a512239.9 512239.9 0 0 0 107.2 10h.4l56.2-8.2 1.1-.2V-3.6L927.4.3c.2 0-28.9 3.7-27.8 3.7-24-2-58.7-4.9-87.1-7 0-.9.2-1.7.3-2.5v-.4h-.6c-6-.5-12.1-.4-18.2 0v.2h-3.1v-2.1l25 2.2c17.6 1.5 63.8 5.4 81.9 6.8 21.3-2.4 54.2-6.5 75.8-9.1h.2v-.3l-.2-22-.3 21.8-37.7 3.8-38 4a25283 25283 0 0 0-81.4-7.6l-26-2.4 106.2 8.9 2.4-.2.3.5.2-.6L970-9.6l1.2-.1v-19.1l-1.5.2-73.4 7c-29.4-2.5-77.7-6.3-108.2-8.7v-2.8l108.2 9.5h.1l77-6.7h.1v-2L864-40.5zM252 134.5zm612-173 97.3 7.3-64.7 5.6-95.8-8.4zm-301.4 6c8.9-.4 17.8.2 26.5 1.6 49.3 7.4 97.7 50 78 103.3a73.5 73.5 0 0 1-10.6 18.4l-.2.3a90 90 0 0 1-13.2 13.7 33 33 0 0 0 1.1-7l-.4-2v-.2a107 107 0 0 0 13.8-24l-.7-1.2c-.5-.8-1.3-.9-2.1-1a69 69 0 0 0-17.7.2 70 70 0 0 0-3.2 13.1l-.5-.7-1.1.8a7 7 0 0 0-4-4.9 39 39 0 0 0 2.2-2.3 62.8 62.8 0 0 0-9-8.7c.2.1.3.3.3.4a37 37 0 0 1-13.4 6.4 31.4 31.4 0 0 1-13.3.3c-.1-6-1-12-1.4-18-1-10-.9-20 1.3-29.9a16 16 0 0 0 10.3 1.4c-.4 4.5 1.3 9 2.8 13.2 1.8 4.7 4.3 9.3 8.3 12.5-1.8-4-4-9.5-5.5-13.6-1.6-4.2-3.6-8-5-12.3A27 27 0 0 0 622 14.5l.2-.4c2.2 1.2 4.6 2 6.7 3 5 2.2 9 6.2 12.6 10.3C643 29.3 645 31 646 33c-.2-1-.9-1.8-1.3-2.6a62.4 62.4 0 0 0-8-9.9c-2-2-4.3-3.7-6.9-5-2.9-1.5-5.7-2.6-8.2-4.4l-1.4 2.1c-3.9 5.7-9.6 11.1-16.7 11.7a14 14 0 0 1-13.3-7.2c-1.3-2.4-2-5.2-2.6-7.9l-2.7 3c-9.2 3.5-17.8 8.5-25.7 14.3-.4.3-.8 1.2-.7 1.8.2 1 .4 1.1.6 1.9 1.5 4 3.4 8 6.3 11.2 1.5 1.6 3.3 3 5.3 3.8a23.8 23.8 0 0 1-6.9-10.1l-2.3-6.7.3-.2c7-4.8 16-10.7 23-15.8a45.4 45.4 0 0 0-2.7 57c-.6-.1-1.2-.4-1.3-.3l-.4-.1-.5 2.8-.5-2.3a54.2 54.2 0 0 0-6.3 8.5l3 2.2a12 12 0 0 0-4.4 8.4l-.6 1.4a66 66 0 0 0 15.3 4.6l-.8.7-6.2 5.5-3.1 2.9-3.1 2.8-.3.2.3-.1 2.5-1a7 7 0 0 0 2 7.2c1.7-2.5 1-5.8-1.2-7.6A49.2 49.2 0 0 0 598 84.6c-.2 6.5 0 12.9 0 19.4l-.2 11.2a20 20 0 0 0-8.3 8.1c3.4-.3 6.5-2.5 8.2-5.5v5.6a31 31 0 0 0-12.8 12.2l.6.7.2-.2c2 1.5 5 1 6.5-1.2a210.9 210.9 0 0 0-4 20 31 31 0 0 0-6.7 6.8h-2.6c.4-1.6.2-3.4-.3-5 1.4-7.6 2.4-15.3 3.7-22.8 1.2-8.4 2.8-16.7 3.9-25.1a113.9 113.9 0 0 0-8.2 46c-.6-1.2-1.3-2.3-2-3.3-2.3-3.2-4.9-5.6-7.7-8.3a15.8 15.8 0 0 0 2.6 6.1h-36.3v.4c-2.4-.9-5.2-1.3-7.6-.5a19 19 0 0 1 7.6 2.9v.2h.5l4 2.5c6 3.5 7.1 10.3 3.8 16-.2-1.5-.8-2.8-1.1-4.3-2.1-7.6-7.3-14.2-15.5-15a5.5 5.5 0 0 0-.5-4.7c1.6-1.3 2.6-3 3-5h39.4l.2 1.4c1.1-4 2-8.1 2.6-12.2a123 123 0 0 0 2-23.7 119 119 0 0 0-4.6 22.6H552c-.4 0-.8 0-1.2-.2a120.4 120.4 0 0 1-51.7-19A85.7 85.7 0 0 1 472.5 83c2.2-1 4.2-2.6 6-4.3a20.5 20.5 0 0 1-6.3 3.8 67.9 67.9 0 0 1-9.4-33c2 .2 4.2.7 6.3 1.3 7.4 2.2 15.4 8 15.5 16.5 0-8.6-8-14.4-15.3-17.2-2.2-.8-4.3-1.4-6.5-1.8A71 71 0 0 1 489-5.3a117.7 117.7 0 0 1 73.5-27.3zM645.9 33l.2.7.2.4a75.4 75.4 0 0 0-14.1 8.6c-.2.1 0 0 0 .1 0 0-.3 0-.7-.3a50.1 50.1 0 0 0-7-5.3c.9 1.6 1.9 3 2.9 4.3a37 37 0 0 0-11.1 11.7c2.4-.8 4.6-2.1 6.5-3.8l-3 18.1a19 19 0 0 0 4-19c1.8-1.9 3.2-4 4-6.4l2 2.3c1.4 1.6 3.1 1.6 4.7.2a73.1 73.1 0 0 0 11.8-10.5c-.3-.2-.2-.6-.3-1zm-29.6 20.2zm178.3-82.8a117094.5 117094.5 0 0 0 101.8 10l37-3.2s32.6-3 35.3-3.1v13.8L899.5-5l-.1-3.2c11.5-1 23.7-2.2 34.8-3.8l-9.9.1c-7.5.1-16.6.6-24.6 1l.4-2.4a762 762 0 0 0 52.5-7.4c-17.4.7-34.8 2.4-52.2 4.4v-2.9c-.8 1-1.4 2-2 3-.7.2-1.4.3-2.2.3-13.9-1-31-1.8-46-1.9 15.4 2.2 30.8 3.7 46.2 4.9l.8-.1-.6 2.3h-2a811.8 811.8 0 0 0-62-3.7c20.6 3.1 41.5 5 62.2 6.6l1.8-.1.9 3.2h-1.2L793.8-13l.7-3.4a58 58 0 0 0 5.1-6.8H796a28 28 0 0 0-1.3-6.4zM812-4.9l.4 1.8-7.8-.6c2.5-.3 5-.7 7.4-1.2zm-369.7.2c.9 17.8 2 35.5 4.3 53.2l-1.2.2-2.6.7V49h-7c-1.8-.2-3.7-.2-5.6-.3-.2-4.4-.7-9-2-13.3l1.1-1.8a17 17 0 0 1-5 4.7 27 27 0 0 1-27.7-1c-9-5.9-9-16.2 0-22.2a27 27 0 0 1 27.7-.9 17 17 0 0 1 4.8 4.3c-.6-.7-1-1.5-1.7-2.2l.2-3v-1.2A129.2 129.2 0 0 0 428-4c4.8-.1 9.6-.3 14.3-.6zm-396.1 0 .5 7.7c.7 8.6 1.4 17.2 2.6 25.7L31.7 30c1-6.8 1-13.6.4-20.4V-3.8l14-.8zm309.7 1.2 6.4.3 5.4.2a1673 1673 0 0 0 2.2 47.3l.4 4.8h-12.9A261.2 261.2 0 0 0 356 3.8h-.7l.5-7.3zm446.5 0c30.2 3.1 68.7 6.7 96.9 9.4a22 22 0 0 0-.8 5.7c-27-2.5-54-4.8-81-6.1 27 3.3 54 5.8 81 7.9v.8l.1 2.2a817.8 817.8 0 0 0-60.7-4.5c20.2 3 40.5 4.7 60.9 6 0 1 .2 1.8.4 2.6-26.2-2.6-68.5-6.3-99.2-9.1l.5-.5c2-2 3.5-4.3 4.6-6.8a16 16 0 0 0-1.4-5.7c-.7 1.6-1 3.2-1.3 4.9a23.3 23.3 0 0 0-3.8 8l-2.2-.2c.6-4.7.8-9.4.8-14.2 1.7 0 3.5-.2 5.2-.4zm-19.6.4c3.8.3 7.6.4 11.4.4a94 94 0 0 0 1.5 13.7l-6.1-.5V17l1.2.1 4.6.4v2.8a59 59 0 0 0 1 21.3h-12.7a186.4 186.4 0 0 0-1-37.8h-.8l.9-6.9zM670-2.9a577.5 577.5 0 0 0 1.8 32.4A76.7 76.7 0 0 0 654.7-.7l.1-2h8L670-3zm-563.5.2c.7 9.1 1.5 19 2.8 28l-6.1-.5-11.3.9a277.2 277.2 0 0 0 .6-27.5l7-.4zm136.9 0a1245.2 1245.2 0 0 0 4.1 51.8h-17.3c0-7.6-.2-15.3-.5-23l-.3-27.9 7-.4zM-.5-2.6l1.8 39.1.9 12.6H-8.4c.4-16.5.8-34.5.6-51l7.3-.7zm739.7.7a536.2 536.2 0 0 0 21.1.7c0 14.4.3 28.9 1.5 43.3l-19.6.5a191.7 191.7 0 0 0-2-36.4h-1v-8.1zm-426.5 0 5.1.3 16 .4c0 14 .3 28 1.6 41.9-3 .3-6 1.2-8.8 2.7a14.3 14.3 0 0 0-5.6 5.7h-4.8c.5-14-.6-28-2.4-41.8l-.2-1h-.9v-8.2zM176-1.9c5.4.4 11.3.6 16.7.7h4.3c0 8.6.3 17.1.9 25.7l.6 7.5-20.4-1.5c.7-8.2 0-16.4-1-24.5H176v-7.8zM954.4-.5v13.3l-54.2 7.7.8-2.6c5.7-1 11.5-2.4 17.1-3.7-5.2.6-12 1.5-16.9 2.3.2-1 .2-2.1.2-3.1a1198 1198 0 0 0 39.1-7.8L930.3 7c-9.3 1.4-20.3 3-29 4.5-.2-1.9-.7-3.8-1.4-5.5l27.8-3.4 26.7-3.2zM411 1c4.7.3 9.4.4 14 .3.5 5 1 10 2.1 14.8a20 20 0 0 0-2.7-2.2c-4.1-2.7-9-4.2-13.8-4.5l.3-1a12 12 0 0 0-.7-.3L411 1Zm-124.3.2c4 .5 8.1.7 12.2 1a360 360 0 0 0 3.8 46.8h-15c.6-16 0-31.9-1-47.8zm426.6 0c4 .5 8 .8 12 1l.1 4.4c.5 12 1.3 24.4 3.4 36.3l-14.9.4c.7-14 .2-28-.6-42zm-513.4.5a176.7 176.7 0 0 0 13.8 1A439.3 439.3 0 0 0 216 49h-1.6V34.6H213v-1.5l-14.3-1a274.7 274.7 0 0 0 1.2-30.3zm245.6.1c4.3.5 8.7.8 13 1 0 9.7.3 19.6 1 29.3l.5 7.5a55 55 0 0 0-.4 8.1c-4.3-.4-8.6-.3-13 .6.3-15.5-.2-31-1-46.5zM269.6 2c4.8.3 9.6.5 14.5.6a451 451 0 0 0 3.3 46.6h-14c.2-13-1.2-26.1-3.6-39l-.1-.8h-.7c.3-2.4.5-4.9.6-7.4zm426.6 0c4.7.4 9.5.5 14.3.7a383 383 0 0 0 3.1 40.8l-5.8.2V49h-8a188.4 188.4 0 0 0-3.7-39.8h-.6l.7-7.3zM387.7 3c4.2 1 8.5 1.2 12.9 1a43.3 43.3 0 0 0 1.2 6.4c-2.4.6-4.6 1.5-6.7 2.8a17.2 17.2 0 0 0-6.8 7l-.6-17.3zm-385 .7 6.8.6.2 7.2A388.2 388.2 0 0 0 11 49H3.4l-.2-26-.5-19.4zm17 0A981.8 981.8 0 0 0 22.2 49h-9.8l.3-10.6c0-7.3-.1-15.3-.5-22.7V4.3zm226.9.3c4.2.5 8.7.8 13 1v4.8c.2 13 .8 26.4 2.6 39.4h-14.5l-.1-12.2c-.2-11-.6-22-1-33zm426.5 0c4.2.5 8.7.8 13 1v4.8c.2 13 .8 26.4 2.6 39.4h-14.5v-2.6A466 466 0 0 0 673.1 4zM109.6 4c4.2.7 8.6 1 12.9 1.3 0 7 .5 14.2 1.9 21.2l-14.8-1 .1-6.4-.1-15zM150 7c3.9.7 7.8 1 11.8 1.2.3 7.2 1 14.4 2.6 21.4l-14.6-1.1c.7-7.1.6-14.3.2-21.4zm-17.5.4c4.9.6 9.7.8 14.6.9.3 6.7 1 13.5 2.3 20.1l-15.1-1.1c.7-6.1 0-12.3-1.2-18.3h-.8l.2-1.6zm169.2.1c3.3.5 6.6.7 10 1a272.8 272.8 0 0 0 4.2 40.7h-13a323.6 323.6 0 0 0-1.2-41.7zm426.5 0c3.3.6 6.6.8 10 1a183.3 183.3 0 0 0 3.8 34.2l-13 .3c.6-11.8 0-23.8-.9-35.5zm-563.6.3 1.7.2c2.8.4 5.5.6 8.2.8a114 114 0 0 0 3 21.7l-12.7-.9c.7-7.3.4-14.6-.2-21.8zM216.3 9c3.4.3 6.8.6 10.2.7a404.5 404.5 0 0 0 1.6 39.4h-11.2a451.7 451.7 0 0 0-.6-40.1zm-167 0c4.2.8 8.5 1.1 12.7 1.3.2 5.8.7 11.6 1.9 17.4l-14.5 1V9.1zM22.8 9c2.2.5 4.5.8 6.7 1-.2 6.7.1 13.4 1.4 20l-3.5.3v1.5H26V37l5 .5a19.5 19.5 0 0 0 .2 11.6h-7.7a935 935 0 0 0-.7-40zm56.6.1c3.2.7 6.5 1 9.8 1.1A80 80 0 0 0 91 25.7l-12.1.9c.8-5.8.8-11.7.5-17.5zm-14.5.2c3.8.6 7.7.9 11.6 1 .2 5.5.6 11 1.8 16.3l-13.9 1c.9-6 .8-12.2.5-18.3zm396.4.1c3.1 1.1 6.5 1.2 9.7.5-4 6.3-7.1 13-9 20.2l-.1-4c-.1-5.6-.3-11.2-.6-16.7zm-199 .8 3 .4 2.9.4a196 196 0 0 0 4.8 38h-10.5c.9-12.9.6-26-.2-38.9zm426.5 0 5.8.8a193 193 0 0 0 4.9 38.1H689c.9-12.9.6-26-.2-38.8zm-563.2.1 2.8.6 2.5.4a57 57 0 0 0 2.7 15.8l-8.7-.6c.6-5.4.8-10.8.7-16.2zm301.7 5.4v.7l-.1-.2v-.5zm158.8.2c1.5 4.3 4.5 8 8.4 10-7.3 15-4.3 32.6.2 48h-.8c-3.2-.7-6.2-1.8-9.2-2.8l-.4-.2-1.4-.5-.5-.2c-10.7-17-9.2-39 3.7-54.3zm373.3.6-.4 1.1 4 1.2V46l-61 14.4L800.1 50l-.1-1.7 101.3 9.2 61.1-13V19.7l-61.2 10.4-103-10v-2.4c30.9 2.5 74.2 5.9 103.1 8v.1l58-9.4zm-161.8 6.7 3 .3a69 69 0 0 0-.7 5 81 81 0 0 0 2.8 3.8l-2 .3-2 .4c1.1 2.1 2.4 4.4 3.7 6.4l.1 2.2h-5.3c1-6 1.2-12.3.4-18.4zm162 .2v18.7l-58.3 12.5-97.8-8.9c.6-2.2 1-4.5 1.4-6.8l-1.7-3.6 4.1-.8c30.4 3 63.3 5.6 93.7 7.7.5 1.4 1.2 2.8 2 4-25.9-2-54.5-3.9-81.3-4.8 27.3 3 54.7 5 82 6.7 10.1-2 22.6-4.5 32.6-6.7l10.8-2.3-11 1.6c-10 1.6-22.3 3.8-32.3 5.6a19 19 0 0 0-.1-4.3c12.5-2.3 26.3-5 38.6-7.5l13.4-2.8-13.5 2c-12.2 2-27.5 4.5-39 6.6-.8-1.4-1.6-2.8-2.6-4 .3-1 .5-2 .6-3.1h.2zm-158.4.1 96.5 9.3 2.3.3c-.9 1-1.6 2.1-2.4 3.3l2.1 3.9c-29.7-2.4-61.9-4.7-91.7-6-2-2.3-4-4.6-6-6.6l-.8-4.2zm-709.6 2v.2-.1zm11.6 2.3 91.2 7-58.6 5L46.3 32l56.9-4zM29 33.4l106 9.4-.2 1L29 34.2Zm399 2.2-.1.6v-.4l.1-.2zm-.2.3c-1 4.3-1.2 8.7-1.2 13l-2 .2h-8.8a27 27 0 0 0-1.9-6.3c3.8-.6 7.4-2 10.5-4 1.2-.9 2.3-1.8 3.4-3zm-216.4.4v20L137 64.8l-60.6-5.4 59.4 5 75-8V37l-74 6.8a25 25 0 0 0-.4-.9zM32.2 37.6h1.3l-.6 2.7-.7-2.7zm2.2.2 100.2 9c0 1.2.3 2.5.7 3.7a1083.2 1083.2 0 0 0-45.6-2.4c6.5.8 13 1.5 19.6 2.1 0 .2.5.3 1.5.4l.8-.2 13 1.2 10 .8c-.8 1-1.3 2-1.7 3.2-20.2-1.7-40.5-3.3-60.8-4.1 20.1 2.6 40.4 4.4 60.6 6 .1 1.2.3 2.4.7 3.5L33.2 52.7c.3-1 .5-2.1.6-3.2 1.3-1.4 2.5-3 3.5-4.5l1.7-2.3h-3.8a29 29 0 0 0-.8-5zm173.4 2.4v13.4l-72 7.6h-1c.5-1.2.7-2.4.8-3.6 12.7-1 25.4-2.2 38-3.7l-9.8.3c-9 .4-19.1.9-27.8 1.5a14.1 14.1 0 0 0 .4-3l.6.3.2-.7c18.3-2 36.7-4.2 54.9-7a1154 1154 0 0 0-54.5 5c.2-1.2.2-2.4 0-3.6zM33.2 45.5h.2l-.2.3v-.3zM398.8 51c1.6.1 3.2.4 4.7.9v.3h1l2.4 1.2c.5.3 1 .6 1.3 1l.5.8c-2.4.7-4.6 1.7-6.5 3 3.3-.7 6.6-1.2 9.8-1 5.4 0 10.8 2.5 13.9 6.8.3 0 .6.4.9.9a13.4 13.4 0 0 1 1.3 6.8v.7c.2.8.2 1.6.1 2.3v.1c-.1 2-.5 4-.5 6.5v1.4l-.2-.3a69 69 0 0 1-2-5.6c0 2 .2 4 .6 6l1.2 5.9.1-1 .4-.4-.4 1.4v.5c4.4 18.6-4.4 15.4-6.6 28.6-3.6-2.7-5.4-8-4.2-12.4a12 12 0 0 0 .7 13 21.4 21.4 0 0 1-10-15.6c-.5-6.5 3.2-13.5 1.5-20.2-.7 7.1-5 13-4.4 20.4.3 3.8 2 7.5 4.5 10.3-16.7 11.5-12 13.2-35.2 13.6-4.4 0-8.8-.2-13.3-.5h-.5c-6-13-9.9-23-2-36.2 2.2-3.7 5-7 8-10.3a33.4 33.4 0 0 0-10 9l-.5.7-.5-1.1c-.7-5-.8-9 2.1-13 2.3-3.4 5.7-5.8 9.1-8.3a21 21 0 0 0-1.2 5A37.8 37.8 0 0 1 384.5 54c4.4-1.9 9.4-3.2 14.3-3zm316.5 1 5.4 1 21.3 3.8 21.7 3.7-.3 3.8v-.2c-.4 1.6-.8 3.3-1 5-7.3-1.7-17.8-3.4-25.8-4.4 8.9 2.6 17.9 4.7 27 6.6.5.9 1 1.8 1.7 2.7-.6 1.8-1 3.6-1.3 5.4h-.3l-48.3-9.3V52zm-728.5.1h45.3l.1.6-5.5-.5V58l1.7.2h-41.6zm227.6 0H243c-.2 2-.4 4-.8 6h-27.8zm28.9 0h76.6c-.4 2-.4 4 .3 6H244c0-2-.3-4-.8-6zm430.8 0h33.7v6h-34.4c.3-2 .6-4 .7-6zm-261.7 0v.2h.2l-.2-.1zm1.7.1v.2h.5l-.5-.2zM802 56v4.6l6.8.5 1 5.8-1.4 6.7-6.4-.6v2.3l-37.2 4c1.3-1.7 2.4-3.6 3.4-5.5a52 52 0 0 0-1.4-2.7 403.3 403.3 0 0 0 24.2-6.6l-6.7 1a407 407 0 0 0-18.6 3.9l-.5-.8c.2-1.5.2-3 .2-4.5l-1.2-3.6L802 56zM31.7 58.4l105.2 9.3h.2l66.7-7.5v.9h37.5c-.8 2.3-2 4.5-3.7 6.4-1.8 2-4.4 3.8-6.3 6.4-.8 1-1.5 2.3-1.9 3.7l-1.1-.2c-3.6-.5-7.1-.6-10.6-.5 0-1.9-.1-3.7-.3-5.6v-1.4c-5.7 0-11.5.3-17.1 1v-9.3h-3v19.2l-.8.1V62.1l-57.7 7.3-107.1-9.6zm922.5 0V70l-42.5 12c0-1.3-.2-2.6-.5-3.8a23 23 0 0 0-1.5-4C919.8 72 930 69.5 940 67l10.5-2.7-10.7 2c-9.8 2-21.5 4.3-30.4 6.4 0-1.1-.2-2.2-.4-3.3l2.6.3h.2zm-281.3 2.7h34.9v10.6c-5-.3-9.8-.4-14.6-.5l-.3 7c-5.1-.5-10.3-.7-15.4-.8l-.6 7.7a23 23 0 0 0-13.6-.4 71.8 71.8 0 0 0 9.6-23.6zm136 0 99.8 8.2c-.7 1.1-1.3 2.3-1.7 3.5-27.1-2.6-54.3-4.8-81.5-6.2 27 3.4 54.2 5.8 81.4 8a21 21 0 0 0 3.4 7.3l-101-8.3 1-6.6v-.1zm-615.4 4.4v13l-53.6 7.7c.5-.7.8-1.5 1.2-2.2v-.4c5.4-1 11-2.3 16.3-3.6-5 .6-11.5 1.4-16.3 2.2l-.3-3 29-5.7 10-2-10.2 1.4c-9.3 1.3-20.1 3-28.8 4.5.2-1.8.2-3.5 0-5.2l52.6-6.7zm428.2 1.8c1.6 2.5 3.8 5.5 5.6 8-7 6-15.7 10-24.8 11.6l-3.8.5-.8-2.8c-1 .7-1.9 1.6-2.9 2.5a45.6 45.6 0 0 1-17.3-8l-1.2-1c1.3-1.9 2.7-3.7 4.2-5.3l2.3.8c3.3 1.3 6.7 2.3 10.3 3a30.8 30.8 0 0 0 28.4-9.3zM42 67.6l-.3 1.6c-1.4 2-2.7 4.2-3.4 6.7l-.3 1.2-8.8-.9-.1-7.6c4.3-.2 8.6-.5 12.9-1zm158.4 3.8c4.7.8 9.5 1.2 14.3 1.4.2 5.7.2 11.4.7 17.1-1.5 3.8-3.5 7.3-4.6 11.2a16.4 16.4 0 0 0 4.2 17.2 17.3 17.3 0 0 0-.4 11.6h-12.3v-15l3-.6h.1V82.4l-5-1.5zm507.5.4V75l19 3.9-.7 13.2v.5l.5.2c8.4 3 17.8 6 26.3 8.8l3.9 1.2-32.8-9.3v-15h-3v12.2h-20.6v24.8l14.7 4-1.2 20.4 53.8 11.6 48.6-12.5-.3 2.8-48.3 11.7-55.3-12.8V119h-3v10.9h-15.2a449 449 0 0 0 1.2-50.3l-.3-6.5 12.7-1.3zm-61.4.1c2.6 0 5 .2 7.6.5A396.7 396.7 0 0 1 643.4 95a23 23 0 0 0-10-6.4l1-3.8.6-.4-.3-.5c1.2-4 2.5-8 4.1-12l7.6-.1zm-630.8 4c-.8 9.1-.7 18.7-.6 27.8.1 8.7.4 17.5 1.3 26.2H5.1a411 411 0 0 0 1.2-40l-.4-13.1 9.7-1zm11 0-.2 7.8c0 15.3.1 31 1.4 46.2H16.6c1.3-13.3 1.4-26.7 1.2-40 0-4.4-.3-8.8-.3-13.1l9-1zM693 78.4v1.2c-.5 16.6-.4 33.7 1 50.3h-16.8a368 368 0 0 0 2.5-50.3c4.4-.3 8.9-.7 13.3-1.2zm-350.5.2a21.4 21.4 0 0 0 6.8 24.3l1.4 1a34.7 34.7 0 0 0 9.2 22.3 33 33 0 0 0-8.3-.1 60.6 60.6 0 0 0-8.8-21.2l-.2-.2v-.7c0-.8 0-2-.8-3.1a31 31 0 0 0-11-13c5-1 9.9-5 11.7-9.3zm.2.1a10 10 0 0 0 8.7 1.3c0 1.3.1 2.6.5 4-2.2-2.3-6.3-2.8-8.8-.8l-.4-4.5zm384.2.2 34.9 7c-.6 2.2-.9 4.3-1 6.5.5 1.6 1 3.2 1.8 4.8a26.7 26.7 0 0 0-.4 4.1l-8.3-2.5c-8.4-2.5-17.8-5-26.2-7.3l-.8-12.6zM627 79a6 6 0 0 0 4.3 4.3A63 63 0 0 1 600 93a61 61 0 0 0-1.2-5.5c2.7.4 5.4.7 8.1.4a34.2 34.2 0 0 0 20-8.9zm-595.3.4 98.8 9.1-98.8-8.3zm915.9.5h21.2v20.7l-.5.1v-1l-2.2 1.7-60.2 19.2-94.3-8.7v-2.4l94.6 9.5 59.8-19V81.7l-60 13.9-94.4-10v-4.1l101 9h.3zm-944 .8-.2 9c-.1 13.4 0 26.8 1.4 40.1H-9.6c.5-11 .5-22.1.4-33l-.3-15 13.2-1.1zm800 0 5 .4v7.2l4.8.5 1.2 6a798 798 0 0 0-51.3 6.3c.7-1.2 1.3-2.5 1.9-3.9v-.8l-1.6-4.7c-.1-2-.4-3.9-1-5.8zm-226 1a37 37 0 0 0 17.3 5.4l-5.8 5.4a65 65 0 0 1-16-4.3c2.2-1.6 3.7-4 4.5-6.5zM29.3 83.2l5.3.4v5.3l5.3.5a69 69 0 0 0-.6 5 24 24 0 0 0 2.7 3.8l-2 .4-2 .3c1.2 2.1 2.4 4.4 3.8 6.4 0 2.1.1 4.2.4 6.3l-6-.6.6 7.7 104.7 10.6 57.8-13.6v23.4l-47.4 14.3-107.5-9.6v-1.6l103.7 8.5 3 .3 45.4-12.8v-17.8l-45.6 12-106.5-8.7V120h-3v6.4l6.3.6c-.2 1-.2 2-.1 3H28c1.3-15.3 1.4-31 1.2-46.3v-.5zm151 .2-39.7 6h-1.4Zm162.7.1c3.2 1.3 6.1 2 9.5 2.2.7 1.4 1.8 2.8 2.7 4.1a25.8 25.8 0 0 0-4.6 12.6 39.1 39.1 0 0 1-7.6-18.9Zm-144.3.1 3.6 1.2v27l-61 14.5L39.6 116l-.2-1.7 101.3 9.2 61.1-13.1V85.7l-61.2 10.4-103-10v-2.3l103 8.7h.1zM963 85.4V98l-57 18.2-2-.2a32.6 32.6 0 0 0 1.2-3.7c11.4-3.5 22.7-7 34-10.9l11.1-3.8-11.4 3c-10.6 3-24.1 6.6-33.2 9.6-.2-2.2-.5-4.4-1-6.5h.1l4.9.3c11.3-2.8 22.6-5.6 33.9-8.7l11.2-3.1-11.4 2.2c-11 2.3-24 5.2-33.7 7.6l-3.5-.2a31 31 0 0 0 2.1-3.6zm-329.6.1a47.7 47.7 0 0 0-.3 3.2h-.4a21.3 21.3 0 0 0-8.3 5.7 31.7 31.7 0 0 1 8.4-3.6 28.4 28.4 0 0 1 8 6l.3 1.2a38.8 38.8 0 0 1-1.7 9.6l-3.8 2.8-.2.1-1 .7c-2 1-4.2 1.6-6.5 2.1h3.3a62 62 0 0 1-6.2 3.5h-.2v.1a125 125 0 0 1-21 8.7h-.5v.2c-2.8.9-5.8 1.6-8.7 2.3 1.1-1.4 2.1-3 3-4.7 3-8.7 4-18.2 2.8-27.4a65.8 65.8 0 0 0 33-10.5zm29.4 0v.1a23 23 0 0 0 14.1.4l-.3 5.7c-.5 12.6-.7 25.6.2 38.2h-19.2l.6-38c1.7-2 3.2-4.1 4.6-6.3zm-352.5 2.7a42 42 0 0 1 14.1 1.7h.3c3.7.6 6.7 3 9.2 6.1-11.4-5.5-25.2-2.7-36.3 2.5-3.5 1.6-7 3.3-10.1 5.7 2.5-2.7 5-5.6 7.7-8 3.1-3 6.7-5.4 10.4-7.5l4.7-.5zm117.3.7v.1zM814 89l92 9.7h.5c-1.2.8-2.4 1.8-3.5 2.8-16-1-32.4-2-48.2-2.2 15.3 1.7 31.4 3 47 4.1.2 2.3.5 4.4 1 6.6-17.2-2.2-35.2-4.2-52.4-5.6 17.1 3 35.1 5.4 52.4 7.6l.1 3.9-86.7-8.7 2.2-6.5.3-1.2h-.1l3.6-1.8 3.5-1.8c-3-.7-6.4-1.5-9.4-2-.7-1.6-1.5-3.3-2.4-4.9zm-615.1.4V108l-57.3 12.3c1-2.1 1.8-4.3 2.6-6.5 9.8-2 21.8-4.3 31.4-6.5l10.8-2.4-11 1.7a1300 1300 0 0 0-31.5 5.4l-1-1.3 4.2-3-.2-.5 34.8-6.8 13.3-2.8-13.5 2c-10.9 1.8-24.3 4-35.3 6l-1.2-3a32 32 0 0 0-3-3.7zm-158.4.1 100 9.7h.6a56 56 0 0 0 2 4.5l-.2-.3.7 2.7-2 .4c-30.5-2.4-63.6-4.8-94.3-6.2l-6-6.6-.8-4.2zM297 91c-5.8 4-10.2 10-13.7 16.7a40 40 0 0 0-7.7-1.3A47.4 47.4 0 0 1 297 91zm134.7 2.7a41.9 41.9 0 0 1 10.3 12.6c3 6 4.2 13.4 3.3 21.6-6-2.9-12.2-5.2-18.5-7.2v2.5c-1-.6-2-1.1-3.2-1.5.6-3 1.3-6 2.6-8.5 1.2-2.4 3.4-4.4 4.6-7.1a19 19 0 0 0 .9-12.4zm271.8 0h2.6v18.7l53.4 15.6 54.5-10.6v1.3l-54.4 10-56.1-15.4zm3.4 0h14v2.2l39.2 11-1.2.2zm-50.7.8-.6 35.5h-19l.4-17.7a20 20 0 0 0 4.2-1.9l.2-.6.9-2.3c5-3.8 9.7-8.2 13.9-13zm158.4.6.1.6 3 1-.5.2v-.4l-50 7.2c15.8-2.4 32-5.2 47.4-8.6zM319 96a45.6 45.6 0 0 1 16.2 2c1.2 1.6 2.2 3.3 3 5l.2.3v.1l.1.7c0 .9 0 2.2 1 3.2 3.3 5.1 5.9 11 7.4 17h-.2a102.2 102.2 0 0 1-27.6-.5 23 23 0 0 0-4.4-4.2c2.6 5 5 9.6 6.4 15 1.1 3.9 1.8 8 2.9 12.1h-.2l.1.6v.4l-.1.2.1.4.2.7c0 .2-.2.2-.4.3l-.2.1c-.7.4 0 .2-.8.2h-.5l-1.5.4-.1-.2h-.2l-.5.2-.1.3-1.6.5a40.9 40.9 0 0 0-12.3 6.9 44.7 44.7 0 0 0-11.2-27 44.2 44.2 0 0 0 20-11.1c-3.3.8-6.3 2.1-9.3 3.5a38.2 38.2 0 0 0-21.5-15.2l2.2-2.1c3.9-2.2 8.2-3.5 12.3-5A77.8 77.8 0 0 1 319 96zm390 1.4 49.7 12.7 1-.1c.6 1 1.3 2 2 2.8l-2 1a727.6 727.6 0 0 0-40.4-7.3c12.2 3.2 25.2 6.2 37.7 8.8h-.1c1.2 1 2.6 2.2 3.9 3.1 0 2.1 0 4.2.3 6.2l-1.5.3-50.5-14.7zm-662.4 3.1c30.8 3.1 64 5.6 94.7 7.7l-2.9 2 1.7 1.9c-25.3-2-53-3.8-79.2-4.7a1974 1974 0 0 0 80.6 6.6 48 48 0 0 0-.8 6.5h-.1l-97.8-8.8c.6-2.2 1-4.5 1.4-6.8l-1.7-3.6 4.1-.8zm769.5 1.2-.4 5.4-7-.7v8.4l2 .2-48.8 9.5a37 37 0 0 0 1.8-7.3l-.6-.6-.3-.2c7.2-1 14.4-2 21.5-3.3l7.2-1.4c-2.4 0-4.8.3-7.3.5-6 .5-13.7 1.2-19.3 2l1.1-.8a54 54 0 0 0-5-3.6l52.4-7.8v-.1l2.7-.2zm-329.5 2c4.3 3.7 9 7.1 14 10.2l-.5 16.1h-14zm478.7 2.3v15.2l-65 19.2-83.3-7.2v-1.3l83.3 6.7h.3l63.9-18.4v-13.5zm-3.8.3V118l-60 17.2c.5-1 1-2 1.3-3.2a30 30 0 0 0-.8-4.7c1.2-1 2.3-2.2 3.2-3.5h1zm-687.8 3c11.9 0 23.5 5.2 31.6 14l-2 1a48.8 48.8 0 0 0-9 5.7l-.1.2c-.8-1-1.6-1.7-2.5-2.5l-.8-.7-.7.3a53.8 53.8 0 0 0-26.7-8.1 41.3 41.3 0 0 1 10-9.6v-.2l.2-.1zm361.3 3.6-.5 17.1h-8.1l.4-12.7a80 80 0 0 0 7.1-4.2l1-.2zm-226 .6a17 17 0 0 0 8.5 5 12 12 0 0 0 2.2 2.4c-6.5-.8-13.6 1-19.3 3.1h.2c-.3.1-.7.2-1 .5 1.3.6 1.7 1.6 1.6 2.5-.3 1.6-1.3 2.4-2.6 3.2a4.5 4.5 0 0 0-3.4-3.5c2-1.2 3.7-2.7 5.2-4.2 3-3 6-5.9 8.7-9zm93.6 1.5a114 114 0 0 0 10 5.2l-.2 9.8H502zm314.2.6 86.2 8c-1.5.7-2.8 1.6-4.2 2.6.4 2 .8 4 1.4 5.9v3.5l-83.2-6.7c1.8-2 3-4.3 4-6.6a21 21 0 0 0-4-5.4zm-192 2.7-.4 11.7H614l.3-7.2h-.1c3.6-1.3 7.2-2.9 10.5-4.5zm93.2 2.2 41.5 11.4 57.6-10.7.6 1.2c-1 2-1.6 4.2-2 6.5l-1.5-.2-.3 7.2 2 .2-46.6 12c1-1.3 1.8-2.6 2.5-4 9.7-2.4 19.3-4.7 28.9-7.3l10.3-2.9-10.5 2c-9.3 1.8-18.5 3.8-27.8 6v-.4l-.7-2.5a411 411 0 0 0 22.6-6.2l-6.6 1c-5.6 1-11.1 2.2-16.6 3.4l-.2-.4c-.2-2.2-.5-4.4-1.3-6.5-.8 2.3-1.1 4.5-1.3 6.9l.1.6-.4.1a268 268 0 0 0-28-5c9.2 2.9 18.7 5 28.2 7l.6-.2.6 2.2-.3.7h-.2a794.2 794.2 0 0 0-43-8c13.9 3.8 28.5 7 42.6 9.9l-1 4h-.1L717 137.6zm-203.4.6c10.2 4.4 21 7.4 32 8.9h-32.2Zm-250.1.9 6.1.5c6.6.8 13.2 2 19 5.1l-4.7 2.6-9.7 4.9a15 15 0 0 0-8.9-4.8c-2.3-.3-5.3-.7-7.7 0 .3-1 .1-2.2-.2-3.2a9.7 9.7 0 0 0 6.1-5.1zm347.8 1.5-.2 6.5h-6.9l.2-4.1h-.4c2.5-.8 5-1.5 7.3-2.4zm-197.7.3c.4 3.5 1 7.3-.6 10.4-3.6 7-11.7 7.8-18.8 8.7-3.4.5-6.7 1-10 1.8 0-.6 0-1.2-.4-1.7-.9-1.1-2-1.7-3-2.5a31 31 0 0 0-8-4.4c6.7-.6 13.4-2 20.1-1.4 1.3.1 3.4-.2 4.2-1.6.3-.6.5-1.1.6-1.7 2.6.9 5.8-1.5 5.3-4.5a3.4 3.4 0 0 0-2.2-2.8c4.3.4 8.6 0 12.8-.3zm552 .1-.3 25.3c-17.4 5.8-44.1 15-61.6 21l-11.2-1-76.4-5.7-.2-2.1 1.2-3 4.7-3-2.3-3.3 6.7-2-5.9-4.4 1.7-1.7-3.6-5.2.2-2.4 80.7 7h.7l1.3 3-3.2 2.8a1394 1394 0 0 0-69.6-5.3c23.5 3 47.2 5.4 70.8 7.2l-4.5 3.7 4 6.2-3.5 3 .9.7c2 1.5 4 3 6 4.3a64.2 64.2 0 0 0-3.8-4.8l1-.6 2.9-1.9-.6-1.1-3-5.2c2-1.6 3.8-3.2 5.6-5 11.6-3.2 25.4-7.1 36.5-10.5l13-4-13.2 3.3-38.3 10-.8-.3 1.8-2.3-2.8-3.4zm-773.1.5V136l-42.7 12-2.5-.2a19 19 0 0 0-1.3-6.7l.1-.4h.2c10.7-2.4 21.3-5 32-7.8l10.5-2.7-10.7 2c-10 2-22.3 4.5-31.4 6.6.3-1 .5-2.1.5-3.2-1.1.9-2.1 2-3 3a2141 2141 0 0 0-80.4-6 1758 1758 0 0 0 79.3 7.8l-.3.5a21 21 0 0 0 3 6.6v.2l-98-8c1.1-2.2 1.7-4.5 2.1-6.8-.4-2-1-4-2-5.7l102 8.4h.2zm409.9 2-.2 3.6h-10l1.4-1.6a115 115 0 0 0 8.8-2zM471.8 130zm-181.4.6c7.7 7.4 12.3 18 12.5 28.7l-8.3 4.7c-5.4 3.2-11 6.4-16.4 9-2.2-2.1-4-4.9-5.6-8.5a41 41 0 0 1-2.5-24 141 141 0 0 0 16.2-7.7l4.1-2.2zm-32.8 1.6c.9-.2 1.8-.1 3 .1 3.4.7 6.8 1 10.2 2.1l3.4 1.1c-2 1-4 1.8-6 2.6l-.7.3-.2.8a43 43 0 0 0 2.6 26.5c1.6 3.8 3.5 6.8 5.8 9.2a70 70 0 0 0-5.5.9c-7 1.7-13.2 1.1-19.3-2.7.8-2.4.6-5.1-.5-7.5 2.6-.5 5.3-1.5 7.6-3-.4-5-1-10.2-2.1-15.2l2.9-1.5c.9-.6 2-1.3 2.9-2.4 1.5-2.3.9-5.4-1-7.2a7.5 7.5 0 0 0-6.3-1.8l-.3-.1c1-.3 2-1 3-1.7.1.5.3.3.4-.5zm-270.8.8h1.8l.4 6h-2.2zm3.5 0h57.6c-.4 2-.6 4-.4 6H-10l.4-6zm212 0h32.5v1.8c-1.7 0-3.3.5-4.6 1.7-.9-1.4-3-2-4.7-1.3a6.8 6.8 0 0 0-3.6 3.8h-19.7zm263 0h1v.4l-1-.4zm61.7 0h41v6h-39c0-2.2-.8-4.3-2-6zm63.1 0h119.3v6H592.8c0-1.8 0-3.6-.3-5.3l-.2.8a6.3 6.3 0 0 0-3.3-.5l.2-.2 1-.8zm-335.6 1.6c2.1.3 4.1 1.1 5.2 2.6 1.9 2.7 1 5.3-2.1 6.5a18 18 0 0 1-8.7 2.5 62 62 0 0 1-9.6-.7c-3.4-.6-8.8-1-9.1-5.3 0-1 .3-2 .9-2.7.8-1.2 2.2-2 3.7-2.4 0 1.6 0 3.3.2 4.9v1.2l1.2.2a65 65 0 0 0 12.7 1.2c2.2 0 4.8-.7 6.3-2.6 1.3-1.6 1-4.4-.7-5.4zm-26.5 1.3a3 3 0 0 1 2 .8l-.1.1a6 6 0 0 0-1.5 3.3c0 1 .1 2 .5 2.9a12 12 0 0 0-2.3 8c.3 3.6 3 7 6.7 7.4l.6 1.8c1.8-4.1 2-8.8.6-13 2.6.9 5.5 1.3 7.7 1.6 3.4.3 6.8.6 10.3-.1 1.1-.3 2.2-.7 3.2-1.2-.5 4.5-.7 9-.6 13.5a29.7 29.7 0 0 1-22.2.5l1-1.3a5.8 5.8 0 0 1-8.5-.5c-3.2-3.7-2.5-9.6-2.2-14.3.1-1.6.3-3.4.6-5 .4-2.3 2.2-4.4 4.2-4.5zm591.2 4.6 1.2 3-1.8 1.4-1.1.8 1.1 1 2.4 2.2-3.3 1-2 .6 1.3 1.6c.7 1 1.5 2 2.3 2.8l-2.7 2.5-.4 2.1-49.5 13.2-.1-3.4 1.8-5.4c10.5-2.5 20.9-5 31.3-7.9l10.3-3-10.7 2c-9.6 2-22.2 4.5-30.5 6.7l.2-.7c-1-1.7-2-3.4-3.2-4.9l1.8.5 51-12.4zM200.3 142h20.6a50.3 50.3 0 0 0-1 7.4h-8.7V143h-14.4zm392.5 0h116.6v1.1l8.4 2v4.3h-54.1l1-4.6-2.6 1.2a51.3 51.3 0 0 1-10.3 3.6v-.2H592c.4-2.4.6-5 .8-7.4zm-363.3 2a9 9 0 0 0 4 2.7l-.9 3c-1-.5-2.2-.5-3.2 0-.1-1.9 0-3.8.1-5.7zm491.3 1.7 2.6.6-.6 18.4 41.6 11.6 33.3-8.9-33.9 9.7-43-12zm-534 .2h21.4v20.6l-63 20.1L51 178v-2.4l94.7 9.5 59.7-19v-18.4l-60 13.9-94.4-10v-4.1l55.3 4.9 46 4zm335 .2c2.3.5 4.6 3.3 4 6.4l.4-.9c4.6 1.6 8.4 5 10.4 9 1.5 3.1 2.4 6.8 3.2 10.2.9 3.7-1.7 4.6-4.4 2.6a45 45 0 0 1-13.2-14.7l-.5-1.2c2.2-1 3.7-3.2 3.2-5.3-.5 2.7-3.8 4.5-6.2 3.4-2.2-1-3.5-4-2.6-6 .8-2.2 3.4-4 5.7-3.5zm204.6.9 39 9a25 25 0 0 0 .9 5.1l-.1.4c-8.9-1.8-17.7-3.4-26.6-4.5 8.5 2.5 17.2 4.6 25.9 6.4-.6 1.8-1.1 3.7-1.5 5.6l.1.2 1.6 3.7-1.2.3-38.6-10.8.5-15.4zm-397.1 1.8v.4l.6-.1zm331.5.7a60.1 60.1 0 0 1-18.8 30.6 60 60 0 0 1-10.6 7.5l-.6 1h-.1c0-.5.4-.8.7-1l-1.5.8c-5.8-1-12.3-2.3-18-4.2-3.3 3-6.8 5.6-10.5 8L599 194a267 267 0 0 1-52.1-2.8c5.5.7 11.3-1 15.5-4.5 4.8 2.2 10.5 1.4 15.6 1.5 3.1-.1 7.3 0 10.3-.3 5.6-.3 11.5-4.5 11.5-10.5 0-2.6-1-5-2.7-7a35 35 0 0 0 9.5-7.6c2.7-3.1 5-6.6 7.2-10 7.4.4 17.5 1.1 24.7.9 4.1-.2 8.2-.5 12.3-1.3h1v-.2c3-.6 6-1.5 9-2.6zm-246.9.7-71.6 4-8.4-3.5v.2h-.6l-1.1.2h-.2l-.1.4a2 2 0 0 1-1 1v.2l10.9 4.6 1.8-.1c-.5 1-.9 2-1.2 3.1v.6c-2.9-1-8.3-2.2-12-3.1 4 1.4 8.1 3 12.3 4.2l.7 2.8v1.8l-2 .1-16.2-6.6v-5.9H323a3 3 0 0 1-.3-.1l-.5.2v7l-1.8-1 .3-3.6h-.3l-1.6.5h-1.1l-.4 5 2 1-7.3-2.5-1.9.6-1.2 1.2-1.3 1.6v13.6l39 13.6 76.3-9.8-5.4-3.9-.9-2.5 1.4-1.9 1.8-3.3 4.8-.2v-6.6l-2.9.1-1-.9.1-2.3c-.2-.7-.5-1.5-.9-2.2v-.9l-.3-.4-.8-.9-.2-.2c-.6.8-1.2 1.6-1.6 2.5l.8 2.7.3 2.8-73.2 3.2.9-1.5v-.6l-.1-2.6c14.4-.7 28.8-2 43-4.4a374.3 374.3 0 0 0-43.3 3l.3-3.4 71-4-2-1.7c-.5-.4-.7-.8-.8-1.2zm-71.5 10.1zm-140-9v12.5L148 181.1l-.4-2.2v.4l.4-2.3c10.1-3.1 20.3-6.3 30.4-9.8l11.2-3.8-11.5 3c-9.4 2.6-21 5.8-30 8.6l.1-1.7a40 40 0 0 0 3.5-4.1v-.1c10.4-2.5 20.8-5.2 31.1-8L194 158l-11.4 2.2c-9.9 2.1-21.5 4.6-30.8 6.9l-.9-3.3-1 3.7-1 .3a1256 1256 0 0 0-54.8-2.7c17.5 2 36 3.4 53.6 4.6l-2.5 2.4v.6c0 1 0 2.1.2 3.2l-.9.3a1274 1274 0 0 0-54.8-6c17.9 3.1 36.8 5.7 54.8 8l1-.4.3 1.9 1.3 1.7-2 .6-89.6-9c1-2.5 1.8-5 2.5-7.7l7.2-3.6c-3-.7-6.4-1.5-9.5-2l-2.3-4.8 91.8 9.6h.3zm126.8.2-.6.1h.7v-.1zm-96.8.5c0 1.8.1 3.7.6 5.4l-.9-.9c-1-1-1.9-3-2.3-4.4.9.3 1.8.3 2.6-.1zm359.1.3h21c-4 7-8.6 13.7-15.4 18-1.7-1.8-4-3.1-6.3-3.5 3.7-2 6.7-5 2.6-8.7a6 6 0 0 0-3.6-1l.8-.4 1-4.4zm-171.3.9zm-102.9 5.4h-.3l-.1.1h.4zm-6.7 2.8 4 1.8-1.6 12.2a983 983 0 0 0 32.5 12.3l-34.9-12.2zm4.1 1.8c7.4 3.2 15 6.3 22.2 9.2l9.4 3.8h1.1c-.7 1.2-1.2 2.5-1.6 3.9v.7h-.1c-3-1-8.5-2.2-12.3-3.1 4 1.5 8.1 2.9 12.2 4.2h.5l.7 2.7v.5a945.3 945.3 0 0 0-32.5-10.5l.4-11.4zm106.9 3v.6l-80.1 4-9.2-4.6 8.6 3.5zm169 .7c6 2 9.6 9.2 5.5 14.4-3.9 5-11.4 3.4-18.1 3.8-5.3-.2-14.7 1.7-17.7-3.7-2.2-4.5 1.1-9.4 5-11.8 1-.8 2.2-1.4 3.2-2l.4-.4 1 .5a24 24 0 0 0 20.6-.8zm-174.3 3.2-.8 1.4-2.3 3 1.5 4.1c-17 1-33.8 2.7-50.6 4.6l-15 1.8v-.2h.1v-.5l-.1-2.4a140 140 0 0 0 25-3c-8.4-.3-16.9.3-25.3 1.4v-.1c.2-1.4.3-2.8.2-4.1l11.8-1.2c9.3-1 18.7-2.1 28-3.5zm-165.6 3.6 1.2 1.4-1.7-.3.5-1.1zm164 5 .2.7-23.2 3c7.7-1 15.3-2.3 23-3.6zm144.6 5.5a8 8 0 0 0 1.8 1.7c-3.1.4-6.2 1.2-9 2.5a8 8 0 0 1-4-3.9c3.7 1 7.6 1 11.2-.3zm-205.6 3.2-6.7.8h-.2.3l6.6-.8zm258.9.1c4.6 1.6 10 2.3 14.8 2-5 2.2-10.5 3.1-16.1 3.5l-10 .8.8-.3c3.8-1.4 7.3-3.4 10.5-6z" class="cls-1"></path>
      <path id="polygon13" d="M427.4 88.6z" class="cls-1"></path>
      <path id="path15" d="M418.4 95.6a15 15 0 0 0 .1-15c-1.5 5-1.5 10 0 15Z" class="cls-1"></path>
      <path id="path17" d="M434.8 102.6a17.6 17.6 0 0 0 4 9.3 6 6 0 0 0 .6-2.8c0-2.8-1.7-5.7-4.6-6.5Z" class="cls-1"></path>
      <path id="path19" d="M441 118.9c-1.8 1-1.6 2.6.5 3 1.8-1 1.6-2.5-.5-3Z" class="cls-1"></path>
      <path id="path21" d="M357.9 79.8c2.3 0 3.3-2 2-4-2.2.1-3.3 2.2-2 4Z" class="cls-1"></path>
      <path id="path23" d="M366.6 121.4c-2.3-4.2-2.9-8.7-5.6-12.7-1.5 4.7.3 11.5 5.6 12.7Z" class="cls-1"></path>
      <path id="path25" d="M378.6 101.1c.3.9 1.1 2 2 2 1 .1 2-.4 2.2-1.1-.9.3-1.7 0-1.8-.7a39 39 0 0 0-2.7-12.6c-1.6 4-1.2 8.5.3 12.4Z" class="cls-1"></path>
      <path id="path27" d="M380.9 83.7c3 5 7.4 8.4 9.7 14 2-6.4-4-12.4-9.7-14Z" class="cls-1"></path>
      <path id="path29" d="M397 109.6c-1.2 3.4 1.7 5.8 3.8 8 2-3.2-1.3-6.3-3.8-8Z" class="cls-1"></path>
      <path id="path31" d="M383.8 63.4c-7.5 2.4-13.3 7.1-20.7 9.6 6 2.4 12.4-.3 17-4.8a23.8 23.8 0 0 1 13.9 12l.1 9.2c0 8.2 2 20.5 12 22-3.8-2.2-6-5.6-6.9-9.7-2.6-12 1.6-27.5-8.4-37.1 1.2 2.6 2 5.2 2.5 8a13.5 13.5 0 0 0-12-5.8c1-1 1.8-2.2 2.5-3.4z" class="cls-1"></path>
      <path id="path33" d="M240.1 107.3c-2.6-2-4-4.8-4.5-7.6-.6-5.8 2.8-6.4 7.1-9 4.3-2.8 6.6-8.8 5-13.5-.4 4.7-2.6 8.8-6.5 11-2 1.2-4.7 2.1-6.3 4-4.3 5-.7 13.7 5.2 15Z" class="cls-1"></path>
      <path id="path35" d="M250 109.5c6.5-2.3 10.3-9.8 9.3-16.6-1.1-6.9-6.1-12.1-11.7-15.7 3.6 5 7.8 10.1 8.8 16.1.7 6-1.7 12-6.4 16.2Z" class="cls-1"></path>
      <path id="path37" d="M247.7 126.3c1.4-2.2 1.1-4.4-.6-6.3-2.3 1.6-2 5.2.6 6.3Z" class="cls-1"></path>
      <path id="path39" d="M227.5 93c-5.6 3.3-5.3 13 .6 15.8-2-5.2-2.2-10.3-.6-15.7Z" class="cls-1"></path>
      <path id="path41" d="M528.4 56.5a87 87 0 0 0 4.2-31.2h2.6l-.1-.4a1 1 0 0 0-.8-.7l-1.7-1.2-.1-1.8-.1 1.7-1.3-.8.8-.2c-.3 0-.6 0-1 .2l-.5-.4 5-3.7c-3.8-.8-7.3 1.4-9.9 4l1.3 1-7 1.4c-4 .8-8 2-12 1.8-4-.2-7.8-1.6-11.5-3.2-4.4-2-8.8-3.7-12.8-6.2a134 134 0 0 0 3.1 35 75 75 0 0 0 15.1 29.5l3.5 3.5a50 50 0 0 0 23.3-28.3ZM495.1 66a103 103 0 0 1-9.2-45.1c3.1 1.5 6.4 2.7 9.6 4 2.4.9 5 1.7 7.5 2.3a159.4 159.4 0 0 0 1.8 53.3l-1-1a94.7 94.7 0 0 1-8.7-13.4Zm10.6 15.3-.2-.2c0-8.8-.4-17.7-.7-26.4-.4-8-.8-19.3-1.6-27.5 1.5.3 3 .5 4.6.5 4.2 0 8.2-1.5 12.2-2.5l7.2-2c1.5 1 3.3 1.7 5.1 2-.2 4.6-.6 9.2-1.3 13.7-2.4 16.6-10.2 33.9-25.3 42.4Z" class="cls-1"></path>
      <path id="path43" d="M315 101.4a17 17 0 0 0-12 7.5c4.1-1.3 8.7-3.5 12.6-5.3 1.4-.6 2.8-1.2 4.3-2.1a14 14 0 0 0-5-.1Z" class="cls-1"></path>
      <path id="path45" d="M392.1 116.9c-1.6 2.6.9 6.2 3.9 5.6a7 7 0 0 0-3.9-5.6Z" class="cls-1"></path>
      <path id="path47" d="M373.9 117.6a25 25 0 0 1-1.3-8.5c0-.6.2-1.6 0-2.4 0-.6-1-1.2-1.4-.7.6.2.4.7 0 1-2.5 2.9-1.9 8.1 1.2 10.4-.4 0-.8 0-1.2-.2 1.6 1.8 4.4 2.3 6.8 2.1 7-.6 11.8-6.6 18.9-6.8-1-.6-2.3-.9-3.5-1-7.1-.3-12.7 6.1-19.5 6Z" class="cls-1"></path>
      <path id="path49" d="M301.7 134a6 6 0 0 0 7.4-5 9.5 9.5 0 0 0-7.4 5Z" class="cls-1"></path>
      <path id="path51" d="M274.6 147c5 0 9.8-3.3 11.5-8a27 27 0 0 0-11.5 8Z" class="cls-1"></path>
      <path id="path53" d="M463.9 141.7c-3.6-3-8-4.6-12.6-4.2 3.1 3.4 8 5.3 12.6 4.2Z" class="cls-1"></path>
      <path id="path55" d="M443 135.3a13.6 13.6 0 0 0-10.2-5 9.6 9.6 0 0 0 10.1 5Z" class="cls-1"></path>
      <path id="path57" d="M522.7 161.5a5 5 0 0 0-4.2 6.5 6.8 6.8 0 0 0 4.2-6.5Z" class="cls-1"></path>
      <path id="path59" d="m639.9 165.2.5-.8 1-1.6-1.8.7c-.3 0-.5.3-.7.6-.4.5-.9 1-1.4 1.3l.1-.4 2.3-8.7c-1.6 1.9-4.1 5.4-6.2 7v-.4c.3-1.5-.8-3.6-2.7-3.2-.8.2-1 .4-1.5.7l-2.7 1.8c0-.8 0-1.5.2-2.3l1-5c-2.2 2.5-5 6-7 8.7-1.4 1.5-2.9 1.3-3.3-.8-.2-1.2.2-2.7-.2-4-.1 2-1.7 4.4 0 6.5 2.1 2.2 4.6.2 6.6-2 .1 1.3.3 2.5.6 3.7l1.8-1 4.3-2.8v.6c-.2 1.6 1 3.5 3 2.8l1.7-1.1c0 1.1.9 2.3 2.3 1.8a6 6 0 0 0 1.4-1.2c.3.2.6.5 1 .6 1 .2 2-.4 2.8-1-1.1.4-2.8 1-3.1-.5Zm-7-1.2Z" class="cls-1"></path>
      <path id="path61" d="M629.9 175.4a4.3 4.3 0 0 0-6.2-.8 7 7 0 0 0-5-2c-.4-1.4-1.3-2.6-2.8-2.8-2.3 0-4.1 1.4-5.5 3-.3.4-.5 1.3.1 1.4-.3 0-.2-.3-.2-.5.8-1.2 2.9-1.8 4.2-2.1 1-.3 1.9.3 2 1.4h-.3v.4c-1.4.6-2.7 1.9-2.2 3.5.4 1.4 2.2 2.1 3.3 1.2.8-.6.9-1.1 1-1.5l.4-1c.6 0 1.2.1 1.7.3.7.3 1.3.8 1.7 1.3a7 7 0 0 0 .5 3.2l1.2-.2c1.5-.2 1.8-2 1.3-3.1v-.3c.3-.4.7-.8 1.2-.9.6-.1 1.2 0 1.8.2.8.6 1.5 1.7 2.7 1.4.8-.2 1.1-.7 1.7-1.1 1-.7 1.8-1.5 2.7-2.3-1.4.5-3.3 1.6-4.6 2-.3-.1-.5-.4-.7-.7Zm-13.3.8Z" class="cls-1"></path>
      <path id="path63" d="M604.4 179.4a4.4 4.4 0 0 0 6.4 1.7 4.4 4.4 0 0 0-6.4-1.7Z" class="cls-1"></path>
      <path id="path65" d="M650.7 4.1a25.4 25.4 0 0 0-10.8 11 17 17 0 0 0 10.8-11Z" class="cls-1"></path>
      <path id="path67" d="M638.2-7.2c-4.1 3.7-7.4 8-10 12.9 5.4-1.9 9.6-7.2 10-13Z" class="cls-1"></path>
      <path id="path69" d="M584.3 5.7c-2.6-5-5.8-9.2-10-13 .5 5.8 4.6 11 10 13Z" class="cls-1"></path>
      <path id="path71" d="M506.5 94c.5 5.8 4.6 11 10 13a47 47 0 0 0-10-13Z" class="cls-1"></path>
      <path id="path73" d="M588 172.3c-1 2.5-1.1 4.4-.6 7 3.3-.6 3.7-5.7.7-7Z" class="cls-1"></path>
      <path id="path75" d="M484.6 68.4v-1.1 1Z" class="cls-1"></path>
      <path id="path77" d="M633.4 47.2c2.1 6 4 12.3 4.7 18.7a57 57 0 0 0-2.2-17.4 55 55 0 0 0 13.4-6.8c.6 3.2 1 6.5 1.7 9.7 2.3-.8 4.7-1.3 7-1.6 0 3.8-1 7.6-2.3 11.2-2.9.8-5.7 1.8-8.6 2.7l-4.6 1.6-2.2.8c-.7.2-1.7.5-2.2-.2.4.8 1.5.7 2.3.5l2.3-.4 12-2.7v.2l2.1-.6-.5-2 1.2 1.4a32.3 32.3 0 0 0 3.3-13.3l-.3-2.3c-2.4.1-4.8.4-7.2 1l-2-11.2a69.2 69.2 0 0 1-18 10.7Z" class="cls-1"></path>
      <path id="path79" d="M631 96.5a4 4 0 0 0-6.1-1.3 4 4 0 0 0 6.2 1.3Z" class="cls-1"></path>
      <path id="path81" d="m619.8 106 .8.8 3 .4c.2 1.5.7 3 1.5 4.4l1.3 1.8c3.6-1.9 7.2-4.1 9.6-7.5-3.3.6-6.2 2-9 3.8l-2.3-2.5c1.1 0 2.3 0 3.3-.3h.4c2.6-2 5-3.9 7.3-6.2a58 58 0 0 0-8 3.7c-1.9.1-3.6 0-5.4-.3v-1.3c1.8-.2 3.5-.4 5.2-1l.3-.4 4.3-5.1c-2 .9-4 2.2-5.8 3.6l-5.3.1h-1c-.6 1.8-.9 3.7-.5 5.6l.3.3Z" class="cls-1"></path>
      <path id="path83" d="M552.1 84.8c-5-8.3-15.6-6.2-22.3-1 .5-1 .5-2.2 0-3.3 2.2-.5 4.4-1.1 6.5-1.8 3.3-1 6.2-1.9 9 0 1.8 1.2 4 2.9 5.9 4a5 5 0 0 1 2.2 2.4c.3-1.2-.4-2.6-1.2-3.6-2.3-2.3-4-4.8-7.1-6.3-5.8-2-11 1.9-15.5 5a3.5 3.5 0 0 0-2 5.4l.3-.1c8.8-2.2 15.6-5.9 24.2-.7Z" class="cls-1"></path>
      <path id="path85" d="M522.6 94.6c8-5.7 19-6.8 28-2.6 1.6.7 3.3 1.6 5.2 1.8 1.4.1 3-.2 4-1.2v.3-.4c.4-.3.6-.7.8-1.1l-.6.6c4.3-12.6-.8-31.2-17-29.4-14.2.6-23 16.3-21.5 29.4l-1.7 1.3c-.2.3-.4.6-.4 1.1 0 .8.4 1 .7 1.3 4.5 4.6 9.1 9 12.5 14.5-2-5.9-6-11-10-15.6Zm20.6-29c14.2-1.9 18.4 15.2 16.6 26.5-2.5 2-6-.1-8.4-1.8a27.5 27.5 0 0 0-29.8 1.5c1-12 8.7-25.6 21.6-26.2Z" class="cls-1"></path>
      <path id="path87" d="M551.1 107a7 7 0 0 0 1.4-8.6 7 7 0 0 0-1.4 8.6Z" class="cls-1"></path>
      <path id="path89" d="m562 109.2-3.8-3c-.7 1.2-1.6 2.2-2.6 3a35.4 35.4 0 0 0 5.8-18.2 29 29 0 0 0-6 18.4c-6 4.8-15.5 4.1-22.4 1.7 7.6 4 19 5.2 25.6-1.4l1.7 1.5a22 22 0 0 1 2 2c-2.4.8-4.8 1.9-7.1 3-8 3.6-17.3 3.1-25.3-.4l3.1-4.7a98 98 0 0 1-4.3 4.8l-4.5 4.5-.6.7c6.7 4.6 15 7.4 23.2 7 8.4-.3 16.7-3.9 22.6-10a29.5 29.5 0 0 0-7.5-9Zm-15.3 16.1a39 39 0 0 1-20.8-4.6l3.4-4.2.5-.6a21.2 21.2 0 0 0 17.4 5.5c6-.6 11-4.1 15.5-7.9 1.1 1.3 2 2.7 3 4.1-5.2 4.6-12 7.3-19 7.7Z" class="cls-1"></path>
      <path id="path91" d="M545.2 26.5c-.7 3.8-.8 7.3-1.3 11l-.7 4.8a73 73 0 0 1-2.3-10.7c-.3-1.5-.2-3.5-1.4-4.7 1 1.4.6 3.2.7 4.8 0 5 .8 10 2.2 14.9l.9 3.2 1-3.2c2.3-6.2 2.7-12.9 3.7-19.2.4-1.1 1.3-1 2.4-1.4 3.7-1 7.2-2.8 10.2-5l2.5-1.8-3-.8a28.7 28.7 0 0 0-12.8-.2c-.2-.7-.3-2.3-.4-3l-1.3-10.4-.4-2.8a79 79 0 0 0-4.6 14c1.1-2.9 2.3-5.6 3.6-8.3l.6 10.4c0 1.6 1.2 3 3 2.6a26.8 26.8 0 0 1 8-.1l-4.2 1.9c-2.3.8-5.7 1.1-6.4 4Zm2.1-8.1Z" class="cls-1"></path>
      <path id="path93" d="M534.4 3.5a6.8 6.8 0 0 0-1.2 8.5 6.8 6.8 0 0 0 1.2-8.5Z" class="cls-1"></path>
      <path id="path95" d="M551.9 50.8a9.8 9.8 0 0 0 .6-10.9 11 11 0 0 0-.6 10.9Z" class="cls-1"></path>
      <path id="path97" d="M494.1 46.9a37 37 0 0 0-1-16.7 17.4 17.4 0 0 0 1 16.7Z" class="cls-1"></path>
      <path id="path99" d="M496.4 57a2.8 2.8 0 0 0 1 5c1.4-2 1-3.9-1-5Z" class="cls-1"></path>
      <path id="path101" d="M582.7 41.8c1.4-4.9 2-9.6 2-14.7a12 12 0 0 0-2 14.7Z" class="cls-1"></path>
      <path id="path103" d="M583.9 51.9c-1.8 1.3-1.3 3.4.8 3.9 1.7-1.4 1.3-3.4-.8-3.9Z" class="cls-1"></path>
      <path id="path105" d="M516.9 183.5c-1-.4-1-.5-.7-1.2 1.7-3.6-1-7.3-4.6-7.8-3.2-.4-5.8 1.2-8 3 2.4-.5 5.1-1.4 7.5-.7 1.3.5 2.7 1.6 2.7 3 0 .6-.2.9-.4 1.5-.3.9-.5 2.2.1 3.2 2.5 3.9 11.9 1.3 15-.5-3.8 0-8 .3-11.6-.5Z" class="cls-1"></path>
      <path id="path107" d="M506.3 188.9c.4-.4 1-.8 1.2-1.5.8-1.6-.8-2.7-2.2-3a8 8 0 0 0-7.4 1.9c2.3-.8 4.7-.7 6.8.3l-5.5 4.1a31 31 0 0 0 20.4.1c-4.5-.3-9.2-.7-13.8-1.6.2 0 .3-.2.5-.3Zm-1-2c.1.1.1.2 0 0Z" class="cls-1"></path>
      <path id="path109" d="M422.4 193c-10.2 1.2-20.6 1.5-31 2.2a155 155 0 0 0 81.5-12.2 335.5 335.5 0 0 1-50.5 10Z" class="cls-1"></path>
      <path id="path111" d="M493 189.4c-2.6-1.8-6.1-1.7-9-1.5-5.6.4-11.3 1.3-16.7 3 5.7-.2 11.2-.4 16.8-.3 2.9.1 5.9-.2 7.9 1.8l-1 .3c-3.9 1-8 2.1-11.9 1.6a8.5 8.5 0 0 1 5.2-1.7 7.4 7.4 0 0 0-3.8-.2 9 9 0 0 0-4.5 2.6c2.2 1 4.6 1.7 7 1.7 3.2 0 6.3-.6 9.3-1.3.7-.2 1.2-.3 1.9-.8 2-1.5.6-4.2-1.1-5.2Z" class="cls-1"></path>
      <path id="path113" d="M423.7 189.3c-13.8.3-27.4-1.2-41.2-.6a72 72 0 0 0 41.2.6Z" class="cls-1"></path>
      <path id="path115" d="M361.2 194.6c-5.2.1-10.3.1-15.5.9 10 3 21.1 2.8 31-.7-5.2-.4-10.3-.3-15.5-.2Z" class="cls-1"></path>
      <path id="path117" d="M311 191.3c2.2-1 3.7-3.8 1.2-5.5a35.3 35.3 0 0 0-26.2-.8l-1.2.4c4.2 4 10.7 5.2 15.8 2.5-4.3 1.6-9.3.8-12.8-1.9a35.2 35.2 0 0 1 22.9 2 50.6 50.6 0 0 1-4 2c-10.4 3.9-21.4 2.4-32.2 1-4.6-.5-9.2 0-13.6.9-8.7 1.6-17.3 4.6-26.2 2.8 8.6 2.9 17.9.5 26.5-.7 4.4-.6 8.7-.9 13-.3 12.1 2 25.4 3.4 36.7-2.4Zm-.2-3.2Z" class="cls-1"></path>
      <path id="path119" d="M315.1 186.2c4.5 1 10 2.4 11.5 7-4 1-8.2 1-12.6 1.2-14.1-.2-27.6 5.4-41.7 5.2 13.8 3 28-2.2 41.8-2.4 5-.1 10.4-.5 15-2.7-.9-6.6-8.3-8.5-14-8.3Z" class="cls-1"></path>
      <path id="path121" d="m184 196-.3.1c1.8 1.6 4.5 1.4 6.7 1.1 4.2-.4 8.4-1 12.6-1.7 2.4-.3 6.1-.7 6.5-3.9v-1.1a24.2 24.2 0 0 0-9.8-1.3c-8.3.2-16.7.6-25 1.7 5.6.6 11.2.9 16.7 1 4.3.3 9-.1 13.3.5-2.7.6-5.7 1.1-8.4 1.8l-6.2 1.5c-1.8.5-3.7 1-5.6.4l1-.6-1.5.5Z" class="cls-1"></path>
      <path id="path123" d="M226 188c-5.9-1.3-11.8-2.6-17.7-3.7-6-1.1-12.1-2.2-18.1-1.2a71 71 0 0 1 17.6 3.3c5.2 1.4 10.5 2.8 15.7 4-.6.5-1.5.7-2.4 1.1a483.8 483.8 0 0 0-37.3 15.1c11.1-3 22-6.6 32.9-10.4 2-.8 6.4-2 8.3-3.2 1.2-.7 2.3-2.1 2.1-3.7v-1l-1.1-.3Z" class="cls-1"></path>
      <path id="path125" d="M158.6 195a5 5 0 0 0-3-.6c-1.4.2-3 .2-4.3.3-13.5-.2-27-2.6-40.4-3a380 380 0 0 0 34.5 5.6 66 66 0 0 0 11.2.2l-1.3.4c-13.6 1.1-27.1 4-39.8 9.1a299.6 299.6 0 0 1 34.3-5.7c2.5-.4 5-.2 7.6-1 2.3-.6 3.5-3.6 1.2-5.2Z" class="cls-1"></path>
      <path id="path127" d="M6 195.9c-3.3-.3-7.5-.1-11-1a43 43 0 0 1 17-2.7l21.1-.4c14.2-.3 28.3-.7 42.5-1.3-14.2-.6-28.3-.9-42.5-1-10.7 0-21.4-1-32 .6-4.5.7-8.9 2.5-12.6 5.2l2.2 1.2c3.3 1.8 7 2 10.2 2l9.8.5c19.6 1.2 39 4.5 58 9.6A213.7 213.7 0 0 0 6 196Z" class="cls-1"></path>
      <path id="path129" d="M104.6 198.1c-.6-.5-1.2-.7-1.7-1a40 40 0 0 0-13.7-3c-3.6-.2-17.8 0-15.7 6-.2-4.4 6.7-3.3 9.6-3.6 6.4 0 12.7 1.2 18.8 3.2 1.3.3 1.5 1.1 1.8 2.4.7 3.6.1 7.6-1.8 11.2 3-2.8 4.5-7.2 4-11.6 0-1.2-.2-2.6-1.3-3.6Z" class="cls-1"></path>
      <path id="path131" d="M986.3 193.2a5 5 0 0 0-3-.6l-4.3.2c-13.5-.2-27-2.6-40.4-3a380 380 0 0 0 34.5 5.7 66 66 0 0 0 11.2.1l-1.3.4c-13.6 1.1-27.1 4-39.8 9.2a299.6 299.6 0 0 1 34.3-5.8c2.5-.4 5-.2 7.5-1 2.4-.6 3.6-3.6 1.3-5.2Z" class="cls-1"></path>
      <path id="path133" d="M833.7 194c-3.4-.3-7.6-.1-11-1a43 43 0 0 1 16.9-2.7l21.2-.4c14.2-.2 28.3-.7 42.5-1.3-14.2-.6-28.3-.9-42.5-1-10.7 0-21.4-1-32 .6-4.5.7-8.9 2.5-12.6 5.2l2.2 1.2c3.3 1.8 7 2 10.2 2l9.8.5c19.6 1.2 39 4.5 58 9.7a213.7 213.7 0 0 0-62.7-12.8Z" class="cls-1"></path>
      <path id="path135" d="M932.3 196.2c-.6-.5-1.2-.7-1.7-1a40 40 0 0 0-13.7-3c-3.6-.2-17.8 0-15.7 6-.2-4.4 6.7-3.3 9.6-3.6 6.4 0 12.7 1.2 18.8 3.2 1.3.3 1.5 1.1 1.8 2.4.7 3.6.1 7.6-1.8 11.2 3-2.8 4.5-7.2 4-11.6 0-1.2-.2-2.6-1.3-3.6Z" class="cls-1"></path>
      <path id="path137" d="M767.7 184.7c-23.9 3-50.6 6-71.6-8.2l-.5-.4-1.9.6-.3.1-.1.2c-9 8.4-15.7 18.6-26.8 24a27.7 27.7 0 0 1-11.6 3 33 33 0 0 0 22.5-8.5c6.3-5 11.5-11.2 17.3-16.5h.4c5.1 3.4 10.8 6 16.7 7.8 18 5.4 36.9 3.2 55 .6a70.4 70.4 0 0 1-30.4 31 66.5 66.5 0 0 0 33.7-32.2l1-2.2-2.4.5-1 .2Z" class="cls-1"></path>
      <path id="path139" d="M700.2 188.3c-.5.4-.6 1.1-.7 1.7-.2 1.1-1 1.8-2 1.5-.3-.2-1-.6-1.6-.5-1.4.2-2 1.6-1.8 2.8v.7c-.1.5-.7.6-1.1.6-1.4-.3-2.2-1.7-3.5-2.3-1.3-.6-2.7.5-2.8 1.7-.2 1 .1 2.1.2 3l.2 1.1-2.6-.6-1.4-.3c-.7 0-1.8.5-2.1 1.2l-.5 1.5a29 29 0 0 0 .2 11c.4-3.7 1-7.6 2.3-11.1l7.6 2.3-.8-5.5v-.5c.9.6 1.8 1.1 3 1.1 2.7 0 4.1-1.8 3.5-4.4v-.3c2.1.9 4.3-.6 4.1-3 0-.5 0-1 .2-1.4.2-.4.7-.8 1.3-.5-.4-.5-1.3-.2-1.7.2ZM683 200.2Zm13.1-7.3h.1s-.1 0 0 0Z" class="cls-1"></path>
      <path id="path141" d="M715.5 198.2c-.4 1.3-2.1 1.6-3.3 2.2-.7.4-1.5.9-1.8 1.6 1.5-.4 2.7 0 4.3-.2 3-.3 4.9-3.4 3-5.6l4.3-2.3c-3.1-1-10-.2-6.5 4.3Z" class="cls-1"></path>
      <path id="path143" d="M342 152.5c20.4.2 40.8-.9 61.1-3.4-20.4-.2-40.8.9-61 3.4Z" class="cls-1"></path>
    </g>
  </g>
</svg>